<svg id="Your_design" data-name="Your design" xmlns="http://www.w3.org/2000/svg" xmlns:xlink="http://www.w3.org/1999/xlink" viewBox="0 0 400 400"><defs><style>.cls-1{fill:#065466;}.cls-2{fill:#218baa;}.cls-3{fill:url(#Naamloos_verloop_45);}.cls-4{fill:#f14a3b;}.cls-5{fill:#fff;}</style><linearGradient id="Naamloos_verloop_45" x1="228.23" y1="159.18" x2="245.56" y2="185.02" gradientUnits="userSpaceOnUse"><stop offset="0" stop-color="#063d4a"/><stop offset="0.35" stop-color="#064756" stop-opacity="0.59"/><stop offset="0.77" stop-color="#065061" stop-opacity="0.16"/><stop offset="1" stop-color="#065466" stop-opacity="0"/></linearGradient></defs><title>Tekengebied 2</title><circle class="cls-1" cx="200" cy="200" r="200"/><path class="cls-2" d="M70.09,184l-5.7-15.36a2.75,2.75,0,0,1,1.2-3.33l24-13.94,12.29-9.57a2.59,2.59,0,0,1,.78-.43l17.18-6a2.73,2.73,0,0,1,3.48,1.64l3.83,10.44,5.83-4.77a2.73,2.73,0,0,1,3.12-.24L155,153.46l10.58-3,8.77-14a2.74,2.74,0,0,1,2.32-1.29h9.73l-1.1-2.63a2.74,2.74,0,0,1,1.67-3.65l12.42-4.14a2.74,2.74,0,0,1,3.61,2.6v3.48l3.82-.38,3-6a2.73,2.73,0,0,1,2.45-1.52h5.86a2.76,2.76,0,0,1,2.59,1.83l1.61,4.55,7.38-5.79a2.74,2.74,0,0,1,4.06.77l13.17,22.53h8.37l4-4a2.74,2.74,0,0,1,4.31.58l6.13,10.74,17.14,5.06a2.74,2.74,0,0,1,1.73,3.74l-13.8,31,2.17,6.61h19.74a2.74,2.74,0,0,1,1.91.78L311,213.39h3.62a2.73,2.73,0,0,1,2.48,3.89l-3.68,7.94,7,4.19a2.74,2.74,0,0,1,1.33,2.36v8.88l4,6.19a2.74,2.74,0,0,1-2.3,4.22h-5.54L309.12,260v8.4a2.74,2.74,0,0,1-3.94,2.47l-7.81-3.8-8.84,9.58-6.85,19.84,10.19,13.19a2.72,2.72,0,0,1,.49,2.31l-3.57,15.07a2.74,2.74,0,0,1-2.66,2.11H274.32l-.36,2.88a2.74,2.74,0,0,1-2.53,2.4l-11.64.83a2.75,2.75,0,0,1-2.92-3l.59-5.57-8.12-2.7a2.74,2.74,0,0,1-1.72-1.7L245,314.93h-4.49a2.79,2.79,0,0,1-2-.89L230.25,305l-9.06.72a2.74,2.74,0,0,1-2.93-3.1l1.51-11.1-4-5.85a2.74,2.74,0,0,1-.37-2.26l4.08-14.84-1.1-.93-7.11,8.6v5.1a2.74,2.74,0,0,1-1.63,2.51l-15.91,7a2.75,2.75,0,0,1-1.47.22l-16-2.12a2.72,2.72,0,0,1-2-1.28L169.57,280a2.74,2.74,0,0,1,.66-3.6l3.85-3L170,269.59a2.74,2.74,0,0,1-.62-3.13L174.15,256l-9.89-8.72H147.84l-3.06,4.26a2.74,2.74,0,0,1-5-1.33l-1.44-14.62-7.85-1.13a2.73,2.73,0,0,1-2.1-1.58l-1.26-2.75-4.25,2.37a2.77,2.77,0,0,1-1.87.29l-5-1a2.74,2.74,0,0,1-2.16-2.25l-3.39-20.83-5-5.92L99.13,204l-7.79,7.19a2.74,2.74,0,0,1-3.53.15L67.87,196a2.74,2.74,0,0,1-.91-3.08Z"/><path class="cls-3" d="M199.81,205.43s42-11.64,81.89-26.93l6.93-15.59a2.74,2.74,0,0,0-1.73-3.74l-17.14-5.06-6.13-10.74a2.74,2.74,0,0,0-4.31-.58l-4,4H246.9l-13.17-22.53a2.74,2.74,0,0,0-4.06-.77l-7.38,5.79-1.61-4.55a2.76,2.76,0,0,0-2.59-1.83h-5.86a2.73,2.73,0,0,0-2.45,1.52l-3,6-3.82.38v-3.48a2.71,2.71,0,0,0-1.3-2.31c-1,.83-2,1.67-2.89,2.53C169.8,155.2,199.81,205.43,199.81,205.43Z"/><path class="cls-4" d="M199.81,46.64A54.79,54.79,0,0,0,145,101.43c0,41.74,54.79,104,54.79,104s54.78-62.26,54.78-104A54.79,54.79,0,0,0,199.81,46.64Z"/><polygon class="cls-5" points="199.73 72.39 170 103.24 178.37 103.24 178.37 129.6 193.65 129.6 193.65 114.17 205.8 114.17 205.8 129.6 221.08 129.6 221.08 103.24 229.62 103.24 199.73 72.39"/></svg>