<?xml version="1.0" encoding="utf-8"?>
<!-- Generator: Adobe Illustrator 22.1.0, SVG Export Plug-In . SVG Version: 6.00 Build 0)  -->
<svg version="1.1" id="Layer_1" xmlns="http://www.w3.org/2000/svg" xmlns:xlink="http://www.w3.org/1999/xlink" x="0px" y="0px"
	 viewBox="0 0 166 271.2" style="enable-background:new 0 0 166 271.2;" xml:space="preserve">
<style type="text/css">
	.st0{fill:#0A0839;}
</style>
<g>
	<path class="st0" d="M110,260.5c-2.7,1-5.5,1.8-8.3,2.5c-9.9,2.4-20.1,2.9-30.3,1.3c-10.1-1.5-19.7-4.9-28.5-10.1
		c-9.1-5.4-17-12.5-23.3-21C5.9,214.6,0.9,191.1,6,168.6l44.7,10.2c-2.1,9.4-0.1,19.3,5.7,27.1c5.3,7.1,13,11.8,21.8,13.1
		s17.5-0.9,24.7-6.2c7.1-5.3,11.8-13,13.1-21.8c1.3-8.8-0.9-17.5-6.2-24.7c-0.1-0.2-0.3-0.3-0.4-0.5c-4.3-5.5-10.3-10-30.1-14.8
		c-32.2-7.9-56-36.7-58.5-69.9c0-0.5-0.1-1-0.1-1.5c-0.9-15.1,2.6-30.1,9.9-43.2C37.8,23.6,48.3,13.1,61.1,6l22.3,40
		c-5.4,3-9.8,7.4-12.8,12.8c-3.1,5.5-4.5,11.8-4.2,18.1c0,0.2,0,0.4,0,0.6c1,13.8,10.5,27,25.6,31.1c14.6,4,22.9,5.1,33.4,10.9
		c9.6,5.2,15.6,11.7,20.2,18.3c0.3,0.4,0.6,0.8,0.9,1.2c6.3,8.6,10.8,18.1,13.3,28.4c2.4,9.9,2.9,20.1,1.3,30.3
		c-1.5,10.1-4.9,19.7-10.1,28.5c-5.4,9.1-12.5,17-21,23.3C123.9,254.3,117.1,257.9,110,260.5z"/>
</g>
</svg>
