<?xml version="1.0" encoding="utf-8"?>
<!-- Generator: Adobe Illustrator 22.1.0, SVG Export Plug-In . SVG Version: 6.00 Build 0)  -->
<svg version="1.1" id="Layer_1" xmlns="http://www.w3.org/2000/svg" xmlns:xlink="http://www.w3.org/1999/xlink" x="0px" y="0px"
	 viewBox="0 0 156.5 156.5" style="enable-background:new 0 0 156.5 156.5;" xml:space="preserve">
<style type="text/css">
	.st0{fill:#44DBA4;}
</style>
<g>
	<path class="st0" d="M104.8,151.9c-8.6,3.1-17.7,4.7-26.9,4.6c-10.1,0-20-2-29.4-5.9c-9.7-4-18.4-9.8-25.8-17.3s-13.2-16.2-17.1-26
		C1.8,97.9,0,88,0,77.9s2-20,5.9-29.4c4-9.7,9.8-18.4,17.3-25.8s16.2-13.2,26-17.1C58.6,1.8,68.5,0,78.6,0s20,2,29.4,5.9
		c9.7,4,18.4,9.8,25.8,17.3l-31.4,31.1c-6.4-6.5-14.9-10.1-24-10.1s-17.6,3.5-24.1,9.9S44.2,69,44.2,78.1s3.5,17.6,9.9,24.1
		s14.9,10.1,24,10.1s17.6-3.5,24.1-9.9s10.1-14.9,10.1-24l44.2,0.2c0,10.1-2,20-5.9,29.4c-4,9.7-9.8,18.4-17.3,25.8
		s-16.2,13.2-26,17.1C106.5,151.3,105.7,151.6,104.8,151.9z"/>
</g>
</svg>
