<?xml version="1.0" encoding="utf-8"?>
<!-- Generator: Adobe Illustrator 22.1.0, SVG Export Plug-In . SVG Version: 6.00 Build 0)  -->
<svg version="1.1" id="Logo" xmlns="http://www.w3.org/2000/svg" xmlns:xlink="http://www.w3.org/1999/xlink" x="0px" y="0px"
	 viewBox="0 0 624.5 277.1" style="enable-background:new 0 0 624.5 277.1;" xml:space="preserve">
<style type="text/css">
	.st0{fill:#BBCC00;}
	.st1{fill:#EE9900;}
	.st2{fill:#00AACC;}
</style>
<g>
	<polygon class="st0" points="368.8,171.5 425.5,171.5 425.5,114.8 369.1,114.8 	"/>
	<rect x="368.8" y="1.4" class="st0" width="56.7" height="56.7"/>
	<path class="st1" d="M226.4,0c-47.4,0-85.7,38.4-85.7,85.7c0,47.4,38.4,85.7,85.7,85.7h85.7V85.7C312.1,38.4,273.8,0,226.4,0z
		 M255,114.3h-28.6c0,0,0,0,0,0c-15.8,0-28.6-12.8-28.6-28.6c0-15.8,12.8-28.6,28.6-28.6c15.8,0,28.6,12.8,28.6,28.6V114.3z"/>
	<g>
		<path class="st2" d="M28.5,264.2h-7.2c-0.7,0-1.3-0.6-1.3-1.3v-1c-2.5,1.8-5.1,2.9-9,2.9c-5.6,0-11-2.7-11-11.1v-0.6
			c0-7.6,4.8-10.9,15.9-10.9h3.5v-2.3c0-3.7-1.8-4.5-4.8-4.5c-4.1,0-8.7,0.3-10.7,0.5H3.5c-0.6,0-1.2-0.3-1.2-1.2v-5.2
			c0-0.7,0.5-1.2,1.2-1.4c2.4-0.6,6.9-1.4,11.2-1.4c9.3,0,15.1,3.7,15.1,13.2v23C29.8,263.6,29.2,264.2,28.5,264.2z M19.6,248.4
			h-3.7c-4.5,0-5.7,1.5-5.7,4.7v0.6c0,2.7,1.4,3.2,4.1,3.2c1.9,0,3.7-0.6,5.3-1.4V248.4z"/>
		<path class="st2" d="M58.1,235.4h-0.5c-3.2,0-5.9,1-8.3,2.3v25.2c0,0.7-0.6,1.4-1.3,1.4h-7.8c-0.7,0-1.4-0.6-1.4-1.4v-34.3
			c0-0.7,0.6-1.3,1.3-1.3h7.7c0.7,0,1.3,0.6,1.3,1.3v1.3c2.4-2,5.6-3.1,8.7-3.1c0.7,0,1.3,0.6,1.3,1.3v6.1
			C59.1,234.7,58.7,235.4,58.1,235.4z"/>
		<path class="st2" d="M86.7,264.3c-1.9,0.3-3.2,0.5-5.1,0.5c-7.1,0-10.8-1.9-10.8-11V235l-5.2-0.8c-0.7-0.1-1.4-0.6-1.4-1.4v-4.3
			c0-0.7,0.6-1.4,1.4-1.4h5.2v-5.3c0-0.7,0.6-1.2,1.3-1.3l7.9-1.4c0.1,0,0.1,0,0.2,0c0.6,0,1.2,0.5,1.2,1.1v6.8h5.3
			c0.7,0,1.3,0.6,1.3,1.3v5.2c0,0.7-0.6,1.3-1.3,1.3h-5.3v18.8c0,2.6,0.2,3,2.1,3h3.2c0.8,0,1.4,0.4,1.4,1.1v5
			C87.9,263.6,87.5,264.1,86.7,264.3z"/>
		<path class="st2" d="M125,249h-20.6v0.1c0,3.7,1.5,7,6.6,7c4.1,0,9.8-0.3,12.4-0.6c0.1,0,0.1,0,0.2,0c0.7,0,1.2,0.3,1.2,1v4.9
			c0,1-0.3,1.5-1.4,1.7c-4.1,1-7.6,1.5-13.2,1.5c-7.8,0-16.2-4.1-16.2-16.6v-4.5c0-10.4,6.1-17,16.3-17c10.6,0,15.9,7.2,15.9,17v3.7
			C126.4,248.4,125.9,249,125,249z M116.2,242.3c0-4.8-2.2-7.2-5.8-7.2c-3.5,0-5.9,2.5-5.9,7.2v0.3h11.7V242.3z"/>
		<path class="st2" d="M165.9,228.7l-8.1,29.3c-1.6,5.7-5.5,6.8-9.4,6.8c-3.8,0-7.7-1-9.3-6.8l-8.1-29.3c-0.1-0.1-0.1-0.3-0.1-0.4
			c0-0.6,0.5-1.1,1-1.1h8.5c0.6,0,1.2,0.6,1.4,1.4l5.5,25.3c0.2,1,0.5,1.4,1,1.4c0.5,0,0.8-0.4,1-1.4l5.5-25.3
			c0.2-0.8,0.7-1.4,1.4-1.4h8.5c0.6,0,1.1,0.5,1.1,1.1C166,228.5,166,228.6,165.9,228.7z"/>
		<path class="st2" d="M201.4,249h-20.6v0.1c0,3.7,1.5,7,6.6,7c4.1,0,9.8-0.3,12.4-0.6c0.1,0,0.1,0,0.2,0c0.7,0,1.2,0.3,1.2,1v4.9
			c0,1-0.3,1.5-1.4,1.7c-4.1,1-7.6,1.5-13.2,1.5c-7.8,0-16.2-4.1-16.2-16.6v-4.5c0-10.4,6.1-17,16.3-17c10.6,0,15.9,7.2,15.9,17v3.7
			C202.8,248.4,202.3,249,201.4,249z M192.6,242.3c0-4.8-2.2-7.2-5.8-7.2c-3.5,0-5.9,2.5-5.9,7.2v0.3h11.7V242.3z"/>
		<path class="st2" d="M220,264.2h-7.9c-0.7,0-1.4-0.6-1.4-1.4V216c0-0.7,0.6-1.3,1.4-1.3h7.9c0.7,0,1.2,0.6,1.2,1.3v46.8
			C221.2,263.6,220.7,264.2,220,264.2z"/>
		<path class="st2" d="M259,263.1c-3.7,0.9-8.8,1.7-13.7,1.7c-10.5,0-16.2-6.1-16.2-16.5v-5c0-10.1,5.3-16.5,16.2-16.5
			c1.3,0,3.4,0.2,5.3,0.5V216c0-0.7,0.6-1.3,1.3-1.3h7.8c0.7,0,1.4,0.6,1.4,1.3v45.2C261,262.3,260.7,262.7,259,263.1z M250.5,235.7
			c-1.5-0.2-3.7-0.3-5.3-0.3c-4.6,0-5.7,3.4-5.7,7.9v5c0,4.6,1.2,7.9,5.7,7.9c2.1,0,4.1-0.2,5.3-0.4V235.7z"/>
		<path class="st2" d="M300,249h-20.6v0.1c0,3.7,1.5,7,6.6,7c4.1,0,9.8-0.3,12.4-0.6c0.1,0,0.1,0,0.2,0c0.7,0,1.2,0.3,1.2,1v4.9
			c0,1-0.3,1.5-1.4,1.7c-4.1,1-7.6,1.5-13.2,1.5c-7.8,0-16.2-4.1-16.2-16.6v-4.5c0-10.4,6.1-17,16.3-17c10.6,0,15.9,7.2,15.9,17v3.7
			C301.3,248.4,300.8,249,300,249z M291.1,242.3c0-4.8-2.2-7.2-5.8-7.2c-3.5,0-5.9,2.5-5.9,7.2v0.3h11.7V242.3z"/>
	</g>
	<g>
		<path class="st2" d="M338.9,264.2h-3.1c-0.7,0-1.3-0.6-1.3-1.3v-21.2c0-6.5-2.7-8.5-6.9-8.5c-2,0-6.1,0.5-8.9,1.8v27.9
			c0,0.6-0.6,1.3-1.3,1.3h-3.2c-0.6,0-1.2-0.6-1.2-1.3V217c0-0.7,0.5-1.3,1.2-1.3h3.2c0.7,0,1.2,0.6,1.2,1.3v13.3
			c3.1-1.4,7.1-2,9.9-2c6.8,0,11.6,3.9,11.6,13.4v21.2C340.2,263.6,339.6,264.2,338.9,264.2z"/>
		<path class="st2" d="M361.9,264.7c-9.5,0-14.3-6.3-14.3-15.7V244c0-9.5,4.8-15.7,14.3-15.7c9.5,0,14.4,6.3,14.4,15.7v4.9
			C376.3,258.4,371.4,264.7,361.9,264.7z M370.6,244c0-6.6-2.6-10.8-8.7-10.8c-6,0-8.6,4.1-8.6,10.8v4.9c0,6.6,2.6,10.8,8.6,10.8
			c6,0,8.7-4.1,8.7-10.8V244z"/>
		<path class="st2" d="M412.3,233l-2.3,0.5c1.2,1.2,2.2,3.2,2.2,6.6v0.5c0,7.1-4.4,11-14.3,11c-3.4,0-5.6-0.5-7.5-1.3
			c-1.1,0.5-1.6,1.2-1.6,2.2c0,1.1,0.5,1.7,2,2.1l9.6,2.5c6.3,1.6,12.4,3.4,12.4,9.5v0.5c0,6.2-4.1,10-14.7,10
			c-10.2,0-14.8-3.9-14.8-10.3v-0.6c0-3.6,1.9-6.6,4.1-8.2l-0.5-0.2c-2.1-0.9-3-3-3-5v-0.1c0-1.7,0.8-3.6,2.6-4.6
			c-2-1.9-3-4.2-3-7.5v-0.5c0-5.7,3.2-11.4,14.3-11.4H412c0.8,0,1.5,0.6,1.5,1.4v1.7C413.5,232.7,413,232.9,412.3,233z M407.1,266.6
			c0-2.5-2.1-3.5-7.9-5l-7.3-1.9c-1.9,1.6-3.2,3.2-3.2,6.6v0.6c0,3.6,2.1,5.9,9.3,5.9c7.4,0,9-2.1,9-5.6V266.6z M406.6,240.1
			c0-3.9-1.7-6.9-8.7-6.9c-7.2,0-8.7,3.3-8.7,6.9v0.5c0,2.8,1.3,6.6,8.7,6.6c7,0,8.7-2.7,8.7-6.6V240.1z"/>
		<path class="st2" d="M446.3,248.3h-21.6v0.9c0,7.7,3,10.5,9,10.5c3.7,0,8.5-0.3,11.5-0.7c0.1,0,0.2,0,0.3,0c0.5,0,1,0.3,1,0.9v2.2
			c0,0.8-0.3,1.3-1.3,1.5c-3.7,0.7-7.2,1.1-11.6,1.1c-7.4,0-14.6-3.5-14.6-15.5v-5.8c0-9.2,5.1-15.1,14.3-15.1
			c9.4,0,14.2,5.9,14.2,15.1v3.5C447.5,247.7,447.1,248.3,446.3,248.3z M441.8,243.4c0-7.3-2.8-10.1-8.5-10.1
			c-5.5,0-8.6,3.2-8.6,10.1v0.6h17.1V243.4z"/>
		<path class="st2" d="M465.7,264.7c-2.4,0-7-0.2-10.2-1c-0.8-0.2-1.4-0.6-1.4-1.3v-2.3c0-0.6,0.5-1,1.2-1c0.1,0,0.2,0,0.3,0
			c3.1,0.4,7.8,0.7,10.1,0.7c4.2,0,6.4-1.1,6.4-4.6c0-1.9-1.2-3.2-4.8-5.4l-6.5-3.9c-3.9-2.4-6.6-5.2-6.6-9.2c0-6.7,5-8.6,11.7-8.6
			c3.6,0,7,0.3,10.1,0.8c0.8,0.1,1.2,0.6,1.2,1.3v2.1c0,0.8-0.5,1.1-1.1,1.1c-0.1,0-0.1,0-0.2,0c-2.3-0.2-6.4-0.5-10-0.5
			c-3.6,0-6,0.5-6,3.7c0,1.9,1.5,3.2,4.5,4.9l6.4,3.8c5.4,3.2,7.1,5.9,7.1,9.7C477.7,261.9,472.9,264.7,465.7,264.7z"/>
		<path class="st2" d="M506,264c-2.1,0.4-5,0.7-8.1,0.7c-8.8,0-13.7-6.2-13.7-15.7v-5c0-9.5,4.9-15.7,13.7-15.7c3,0,5.9,0.3,8.1,0.7
			c1,0.2,1.3,0.5,1.3,1.4v2.3c0,0.6-0.5,1-1.1,1c-0.1,0-0.2,0-0.3,0c-2.8-0.3-4.8-0.5-8-0.5c-5.2,0-8.1,3.4-8.1,10.7v5
			c0,7.2,2.8,10.7,8.1,10.7c3.2,0,5.2-0.1,8-0.5c0.1,0,0.1,0,0.3,0c0.6,0,1.1,0.3,1.1,1v2.3C507.3,263.4,507,263.8,506,264z"/>
		<path class="st2" d="M540.4,264.2h-3.1c-0.7,0-1.3-0.6-1.3-1.3v-21.2c0-6.5-2.7-8.5-6.9-8.5c-2,0-6.1,0.5-8.9,1.8v27.9
			c0,0.6-0.6,1.3-1.3,1.3h-3.2c-0.6,0-1.2-0.6-1.2-1.3V217c0-0.7,0.5-1.3,1.2-1.3h3.2c0.7,0,1.2,0.6,1.2,1.3v13.3
			c3.1-1.4,7.1-2,9.9-2c6.8,0,11.6,3.9,11.6,13.4v21.2C541.7,263.6,541.1,264.2,540.4,264.2z"/>
		<path class="st2" d="M562.8,264.7c-9.5,0-14.3-6.3-14.3-15.7V244c0-9.5,4.8-15.7,14.3-15.7c9.5,0,14.4,6.3,14.4,15.7v4.9
			C577.2,258.4,572.3,264.7,562.8,264.7z M571.5,244c0-6.6-2.6-10.8-8.7-10.8c-6,0-8.6,4.1-8.6,10.8v4.9c0,6.6,2.6,10.8,8.6,10.8
			c6,0,8.7-4.1,8.7-10.8V244z"/>
		<path class="st2" d="M597.8,264.7c-9.5,0-14.3-6.3-14.3-15.7V244c0-9.5,4.8-15.7,14.3-15.7c9.5,0,14.4,6.3,14.4,15.7v4.9
			C612.2,258.4,607.3,264.7,597.8,264.7z M606.5,244c0-6.6-2.6-10.8-8.7-10.8c-6,0-8.6,4.1-8.6,10.8v4.9c0,6.6,2.6,10.8,8.6,10.8
			c6,0,8.7-4.1,8.7-10.8V244z"/>
		<path class="st2" d="M623.4,264.2H620c-0.6,0-1.2-0.6-1.2-1.3v-46c0-0.6,0.5-1.2,1.2-1.2h3.4c0.6,0,1.2,0.5,1.2,1.2v46
			C624.5,263.6,624.1,264.2,623.4,264.2z"/>
	</g>
</g>
</svg>
