<?xml version="1.0" encoding="utf-8"?>
<!-- Generator: Adobe Illustrator 22.1.0, SVG Export Plug-In . SVG Version: 6.00 Build 0)  -->
<svg version="1.1" id="Layer_1" xmlns="http://www.w3.org/2000/svg" xmlns:xlink="http://www.w3.org/1999/xlink" x="0px" y="0px"
	 viewBox="0 0 291.7 162.3" style="enable-background:new 0 0 291.7 162.3;" xml:space="preserve">
<style type="text/css">
	.st0{fill:#FFFFFF;}
</style>
<g>
	<g>
		<path d="M24.7,143.1c-0.9-0.7-1.9-1.2-3-1.6c3-1.6,4.6-4.2,4.6-7.8c0-1.7-0.4-3.3-1.1-4.7c-0.7-1.5-2-2.7-3.7-3.6
			c-1.7-0.9-3.9-1.4-6.6-1.4H0v3.4h1.9v30.4H0v3.4h15.3c2.4,0,4.5-0.3,6.2-1c1.7-0.7,3-1.6,4-2.7c1-1.1,1.7-2.3,2.1-3.5
			c0.4-1.2,0.6-2.5,0.6-3.6c0-1.5-0.3-2.9-0.9-4.1C26.7,145.1,25.8,144,24.7,143.1z M21.4,137c-0.6,1-1.5,1.7-2.7,2.3
			c-1.2,0.6-2.7,0.9-4.5,0.9H5.9v-12.7h8.8c2.7,0,4.7,0.6,5.8,1.9c1.2,1.3,1.8,2.7,1.8,4.4C22.3,135,22,136.1,21.4,137z M24.2,150.7
			c0,2.1-0.7,3.8-2.3,5.2c-1.5,1.4-3.8,2-6.8,2H5.9v-14.3h8.9c3.3,0,5.7,0.7,7.1,2C23.5,146.9,24.2,148.6,24.2,150.7z"/>
		<polygon points="33.7,160.8 53.4,160.8 53.4,157.5 37.1,157.5 37.1,142.4 51.6,142.4 51.6,139.1 37.1,139.1 37.1,127.9 
			53.4,127.9 53.4,124.5 33.7,124.5 		"/>
		<path d="M99.7,150.2c-0.8,1.7-1.4,2.6-2.4,3.9c-1.3,1.6-2.8,2.8-4.6,3.5c-1.8,0.8-3.8,1.2-6.1,1.2c-2.1,0-4.1-0.4-5.8-1.1
			c-1.8-0.8-3.3-1.8-4.6-3.3c-1.3-1.4-2.4-3.1-3.1-5c-0.7-1.9-1.1-4-1.1-6.3c0-2.2,0.4-4.3,1.1-6.2c0.7-1.9,1.7-3.6,3-4.9
			c1.3-1.4,2.8-2.5,4.6-3.2c3.3-1.4,7.4-1.5,11.4,0c1.8,0.7,3.4,1.8,4.7,3.1c1.3,1.4,2.1,3,2.4,4.9l0.1,0.4h3.4v-11.8h-3.4v4.2
			c-1.4-1.6-3.1-2.9-5.1-3.8c-2.4-1.2-5.1-1.7-7.9-1.7c-2.4,0-4.7,0.4-6.9,1.3c-2.2,0.8-4.1,2.1-5.8,3.7c-1.7,1.6-3.1,3.7-4,6.1
			c-1,2.4-1.5,5.2-1.5,8.2c0,3.7,0.8,7,2.3,9.9c1.5,2.9,3.8,5.2,6.6,6.7c2.8,1.6,6,2.4,9.6,2.4c2.1,0,4.1-0.3,5.9-0.8
			c1.8-0.6,3.5-1.4,5-2.5c1.5-1.1,2.8-2.5,3.9-4.1c0.6-0.9,1.1-1.9,1.6-2.9l0.2-0.4l-3.2-2L99.7,150.2z"/>
		<polygon points="107.4,160.8 127.1,160.8 127.1,157.5 110.9,157.5 110.9,142.4 125.4,142.4 125.4,139.1 110.9,139.1 110.9,127.9 
			127.1,127.9 127.1,124.5 107.4,124.5 		"/>
		<polygon points="158.5,153.8 139.1,124.5 133.8,124.5 133.8,160.8 137.4,160.8 137.4,128.5 158.5,160.8 162.1,160.8 162.1,124.5 
			158.5,124.5 		"/>
		<polygon points="168,127.9 181.4,127.9 181.4,160.8 184.9,160.8 184.9,127.9 198.3,127.9 198.3,124.5 168,124.5 		"/>
		<path d="M226.8,134.1c0-6.7-4.2-9.6-10.7-9.6h-13.9v36.3h3.5V144h9.8l8,16.8h3.8l-8.2-17.1C223.5,142.6,226.8,139.3,226.8,134.1z
			 M205.7,140.7v-12.8h10.7c4.9,0,6.9,2.7,6.9,6.3c0,3.9-2.5,6.5-6.9,6.5H205.7z"/>
		<path d="M245,124.3l-12.1,36.5h3.4l5-14.9l12.7,0l5,14.9h3.5l-12.1-36.5H245z M242.4,142.5l5.2-15.1l5.3,15.1L242.4,142.5z"/>
		<polygon points="271.7,157.5 271.7,124.5 268.2,124.5 268.2,160.8 291.7,160.8 291.7,157.5 		"/>
	</g>
	<g>
		<g>
			<polyline class="st0" points="163.6,4.1 121.7,76 115.4,72.3 157.4,0.5 			"/>
			<polygon points="121.9,77 114.4,72.6 156.7,0.1 158,0.8 116.4,72.1 121.4,75 163,3.7 164.3,4.5 			"/>
		</g>
		<g>
			<polyline class="st0" points="103.6,44.9 186.8,44.9 186.8,52.1 103.6,52.1 			"/>
			<polygon points="187.6,52.9 103.6,52.9 103.6,51.4 186.1,51.4 186.1,45.6 103.6,45.6 103.6,44.1 187.6,44.1 			"/>
		</g>
		<g>
			<polyline class="st0" points="121.2,7.3 163.4,79.1 157.2,82.8 115,11 			"/>
			<polygon points="156.9,83.8 114.3,11.4 115.6,10.6 157.4,81.7 162.4,78.8 120.6,7.7 121.9,6.9 164.5,79.4 			"/>
		</g>
		<g>
			<polyline class="st0" points="126.7,79.7 168.7,7.8 175,11.4 133,83.3 			"/>
			<polygon points="133.6,83.7 132.3,83 173.9,11.7 169,8.8 127.4,80.1 126.1,79.3 168.4,6.8 176,11.2 			"/>
		</g>
		<g>
			<polyline class="st0" points="186.8,38.9 103.6,38.9 103.6,31.6 186.8,31.6 			"/>
			<polygon points="186.8,39.6 102.8,39.6 102.8,30.9 186.8,30.9 186.8,32.4 104.3,32.4 104.3,38.1 186.8,38.1 			"/>
		</g>
		<g>
			<polyline class="st0" points="169.1,76.5 126.9,4.7 133.2,1 175.4,72.8 			"/>
			<polygon points="168.5,76.8 125.9,4.4 133.4,0 176,72.4 174.7,73.2 132.9,2.1 128,5 169.8,76.1 			"/>
		</g>
	</g>
</g>
</svg>
