<?xml version="1.0" encoding="utf-8"?>
<!-- Generator: Adobe Illustrator 22.1.0, SVG Export Plug-In . SVG Version: 6.00 Build 0)  -->
<svg version="1.1" id="_x31_6bae706-d507-4874-9c52-0edbae45e46b"
	 xmlns="http://www.w3.org/2000/svg" xmlns:xlink="http://www.w3.org/1999/xlink" x="0px" y="0px" viewBox="0 0 236.1 65.8"
	 style="enable-background:new 0 0 236.1 65.8;" xml:space="preserve">
<style type="text/css">
	.st0{fill:#1D3C86;}
	.st1{fill:#88B537;}
</style>
<title>brussels-mobility</title>
<g>
	<path class="st0" d="M7.4,12.4c-4,0-7.2,3.1-7.3,7.1c0,0.1,0,0.2,0,0.2c0,4.4,4.1,7.3,7.7,7.3c3.9,0,5.8-1.2,9.2-0.6
		c1.8,0.3,3.4,1.2,4.7,2.5c0.3,0.3,0.7,0.3,1,0.2c0.3-0.2,0.5-0.5,0.3-1.4c-0.6-2.2-1.5-4.3-2.8-6.2C17.8,17.7,12.9,12.5,7.4,12.4"
		/>
	<path class="st0" d="M41.1,12.4c4,0,7.2,3.1,7.3,7.1c0,0.1,0,0.2,0,0.2c0,4.4-4.1,7.2-7.7,7.2c-3.9,0-5.8-1.2-9.2-0.6
		c-1.8,0.3-3.4,1.2-4.7,2.5c-0.3,0.3-0.7,0.3-1,0.2c-0.3-0.2-0.5-0.5-0.3-1.4c0.6-2.2,1.5-4.3,2.8-6.2
		C30.7,17.7,35.7,12.4,41.1,12.4"/>
</g>
<path class="st1" d="M28.9,0c-1.8-0.1-3.5,0.7-4.7,2.1c-1.1-1.4-2.9-2.2-4.7-2.1c-3.9,0-7.1,3.2-7.1,7.1c0,0,0,0.1,0,0.1
	c0,1.5,0.5,3,1.4,4.3c1,1.3,2.1,2.5,3.4,3.5c2.6,2.1,4.7,4.8,6,7.8c0.1,0.5,0.6,0.7,1.1,0.6c0.3-0.1,0.5-0.3,0.6-0.6
	c1.4-3,3.4-5.7,6-7.8c1.3-1,2.4-2.2,3.4-3.5c0.9-1.2,1.4-2.7,1.4-4.3C36,3.3,32.9,0.1,29,0C29,0,28.9,0,28.9,0z M32.8,10.2
	c-2.6,3.5-6,4.6-8.6,10.1c-2.5-5.5-6-6.6-8.6-10.1c-0.6-0.8-1-1.9-1-2.9c0-2.8,2.3-5.1,5.1-5.1c2,0.1,3.8,1.3,4.5,3.1
	c0.7-1.8,2.5-3.1,4.5-3.1c2.8,0,5.1,2.3,5.1,5.1C33.8,8.3,33.4,9.3,32.8,10.2L32.8,10.2z"/>
<g>
	<path class="st1" d="M10.4,46c-0.4,0-0.7-0.3-0.8-0.7c0,0,0-0.1,0-0.1v-9.8c0-0.4,0.3-0.7,0.7-0.8c0,0,0.1,0,0.1,0h3.2
		c1.7-0.1,3.3,1.1,3.4,2.9c0,0.1,0,0.2,0,0.3c0,0.7-0.3,1.3-0.8,1.7c1.7,0.8,2.3,2.8,1.5,4.5C17.2,45.3,16,46,14.7,46H10.4z
		 M11.6,39.2h2.5c0.5-0.2,0.9-0.7,0.9-1.3c0-0.7-0.5-1.4-1.3-1.4c0,0-0.1,0-0.1,0h-2L11.6,39.2z M14.7,44.1c0.8,0,1.5-0.6,1.5-1.4
		c0,0,0-0.1,0-0.1c0-0.8-0.7-1.5-1.5-1.5c0,0-0.1,0-0.1,0h-3v3.1H14.7z"/>
	<path class="st1" d="M29,45c0.2,0.3,0.1,0.7-0.2,0.9c-0.1,0.1-0.3,0.1-0.4,0.1h-0.6c-0.3,0-0.6-0.2-0.8-0.4l-2.5-4h-1.7v3.6
		c0,0.4-0.3,0.7-0.7,0.8c0,0-0.1,0-0.1,0h-0.4c-0.4,0-0.7-0.3-0.8-0.7c0,0,0-0.1,0-0.1v-9.7c0-0.4,0.3-0.7,0.7-0.8c0,0,0.1,0,0.1,0
		h3.6c1.9-0.1,3.5,1.3,3.7,3.1c0,0.1,0,0.2,0,0.4c0,1.5-0.9,2.8-2.3,3.2L29,45z M22.7,36.6v3.2H25c1.1,0,1.8-0.6,1.8-1.5
		c0.1-0.9-0.6-1.6-1.4-1.6c-0.1,0-0.1,0-0.2,0H22.7z"/>
	<path class="st1" d="M31.6,42.1v-6.7c0-0.4,0.3-0.7,0.7-0.8c0,0,0.1,0,0.1,0h0.4c0.4,0,0.7,0.3,0.8,0.7c0,0,0,0.1,0,0.1v6.7
		c-0.1,1.1,0.8,2,1.9,2.1c0.1,0,0.2,0,0.2,0c1.1,0.1,2.1-0.8,2.1-1.9c0-0.1,0-0.2,0-0.2v-6.7c0-0.4,0.3-0.7,0.7-0.8c0,0,0.1,0,0.1,0
		H39c0.4,0,0.7,0.3,0.8,0.7c0,0,0,0.1,0,0.1v6.7c0.1,2.1-1.4,3.9-3.5,4c-0.2,0-0.4,0-0.6,0C33.2,46.1,31.6,44.6,31.6,42.1z"/>
	<path class="st1" d="M51,42.6c0,1.8-1.6,3.5-4.2,3.5c-2.6,0-4.4-1.3-4.4-3.9c0-0.4,0.3-0.7,0.7-0.8c0,0,0,0,0.1,0h0.5
		c0.4,0,0.8,0.3,0.8,0.7c0,0,0,0,0,0c0,1.1,0.9,2.1,2.1,2.1c0.1,0,0.2,0,0.3,0c1.3,0,2.2-0.7,2.2-1.6c0-0.7-0.4-1.1-1.4-1.3
		c-0.6-0.1-1.2-0.3-1.9-0.5c-1.3-0.4-2.8-1.1-2.8-3c0-2.1,1.7-3.3,3.9-3.3c2-0.2,3.7,1.2,4,3.2c0.1,0.4-0.2,0.7-0.6,0.8
		c-0.1,0-0.1,0-0.2,0h-0.4c-0.4,0-0.8-0.3-0.8-0.7c-0.1-0.9-0.9-1.4-2-1.4s-1.8,0.6-1.8,1.4c0,0.8,0.7,1,1.5,1.2
		c0.6,0.2,1.1,0.3,1.8,0.4C50.1,40,51,41,51,42.6z"/>
	<path class="st1" d="M61.5,42.6c0,1.8-1.6,3.5-4.2,3.5s-4.4-1.3-4.4-3.9c0-0.4,0.3-0.7,0.7-0.8c0,0,0,0,0.1,0h0.5
		c0.4,0,0.8,0.3,0.8,0.7c0,0,0,0,0,0c0,1.1,0.9,2.1,2.1,2.1c0.1,0,0.2,0,0.3,0c1.3,0,2.2-0.7,2.2-1.6c0-0.7-0.4-1.1-1.4-1.3
		c-0.6-0.1-1.2-0.3-1.9-0.5c-1.3-0.4-2.8-1.1-2.8-3c0-2.1,1.7-3.3,3.9-3.3c2-0.2,3.7,1.2,4,3.2c0.1,0.4-0.2,0.7-0.6,0.8
		c-0.1,0-0.1,0-0.2,0H60c-0.4,0-0.8-0.3-0.8-0.7c-0.1-0.9-0.9-1.4-2-1.4c-1.1,0-1.8,0.6-1.8,1.4c0,0.8,0.7,1,1.5,1.2
		c0.6,0.2,1.1,0.3,1.8,0.4C60.6,40,61.5,41,61.5,42.6z"/>
	<path class="st1" d="M66.1,36.6v2.6h3.5c0.4,0,0.8,0.3,0.8,0.7c0,0,0,0.1,0,0.1v0.4c0,0.4-0.3,0.7-0.7,0.8c0,0-0.1,0-0.1,0h-3.5v3
		h4.8c0.4,0,0.8,0.3,0.8,0.7c0,0,0,0,0,0v0.4c0,0.4-0.3,0.7-0.7,0.8c0,0,0,0-0.1,0h-6c-0.4,0-0.7-0.2-0.8-0.6c0,0,0-0.1,0-0.1v-9.8
		c0-0.4,0.3-0.7,0.7-0.8c0,0,0.1,0,0.1,0h5.8c0.4,0,0.7,0.3,0.7,0.7c0,0,0,0,0,0.1v0.4c0,0.4-0.3,0.7-0.7,0.8c0,0,0,0-0.1,0
		L66.1,36.6z"/>
	<path class="st1" d="M74.8,46c-0.4,0-0.7-0.2-0.7-0.6c0,0,0-0.1,0-0.1v-9.8c0-0.4,0.3-0.7,0.7-0.8c0,0,0,0,0.1,0h0.4
		c0.4,0,0.7,0.3,0.7,0.7c0,0,0,0,0,0.1v8.6h4.5c0.4,0,0.7,0.3,0.7,0.6c0,0,0,0.1,0,0.1v0.4c0,0.4-0.3,0.7-0.6,0.7c0,0-0.1,0-0.1,0
		L74.8,46z"/>
	<path class="st1" d="M90.9,42.6c0,1.8-1.6,3.5-4.2,3.5c-2.6,0-4.4-1.3-4.4-3.9c0-0.4,0.3-0.7,0.7-0.8c0,0,0,0,0.1,0h0.5
		c0.4,0,0.8,0.3,0.8,0.7c0,0,0,0,0,0c0,1.1,0.9,2.1,2.1,2.1c0.1,0,0.2,0,0.3,0c1.3,0,2.2-0.7,2.2-1.6c0-0.7-0.4-1.1-1.4-1.3
		c-0.6-0.1-1.2-0.3-1.9-0.5c-1.3-0.4-2.8-1.1-2.8-3c0-2.1,1.7-3.3,3.9-3.3c2-0.2,3.7,1.2,4,3.2c0.1,0.4-0.2,0.7-0.6,0.8
		c-0.1,0-0.1,0-0.2,0h-0.4c-0.4,0-0.8-0.3-0.8-0.7c-0.1-0.9-0.9-1.4-2-1.4c-1.1,0-1.8,0.6-1.8,1.4c0,0.8,0.7,1,1.5,1.2
		c0.6,0.2,1.1,0.3,1.8,0.4C90,40,90.9,41,90.9,42.6z"/>
	<path class="st1" d="M105.9,38.2l-2.4,5.1c-0.1,0.3-0.4,0.5-0.7,0.5h-0.7c-0.3,0-0.6-0.2-0.7-0.4l-2.4-5.1l0.1,7
		c0,0.4-0.2,0.7-0.6,0.7c0,0-0.1,0-0.1,0h-0.4c-0.4,0-0.7-0.2-0.7-0.6c0,0,0-0.1,0-0.1v-9.8c0-0.4,0.3-0.7,0.7-0.8c0,0,0,0,0.1,0
		h0.8c0.3,0,0.6,0.2,0.7,0.4l3,6.3l3.1-6.3c0.1-0.3,0.4-0.4,0.7-0.4h0.8c0.4,0,0.7,0.3,0.8,0.7c0,0,0,0.1,0,0.1v9.8
		c0,0.4-0.3,0.7-0.7,0.8c0,0-0.1,0-0.1,0h-0.4c-0.4,0-0.7-0.2-0.7-0.6c0,0,0-0.1,0-0.1L105.9,38.2z"/>
	<path class="st1" d="M110.3,40.4c0-3.4,1.9-5.8,4.7-5.8c2.8,0,4.7,2.4,4.7,5.8c0,3.4-1.8,5.8-4.7,5.8
		C112.2,46.1,110.3,43.7,110.3,40.4z M112.3,40.4c0,2.2,1,3.9,2.7,3.9c1.7,0,2.7-1.6,2.7-3.9c0-2.2-1-4-2.7-4
		C113.3,36.4,112.3,38.1,112.3,40.4L112.3,40.4z"/>
	<path class="st1" d="M123.1,46c-0.4,0-0.7-0.3-0.8-0.7c0,0,0-0.1,0-0.1v-9.8c0-0.4,0.3-0.7,0.7-0.8c0,0,0.1,0,0.1,0h3.2
		c1.7-0.1,3.3,1.1,3.4,2.9c0,0.1,0,0.2,0,0.3c0,0.7-0.3,1.3-0.8,1.7c1.7,0.8,2.3,2.8,1.5,4.5c-0.6,1.2-1.8,1.9-3.1,1.9H123.1z
		 M124.3,39.2h2.5c0.5-0.2,0.9-0.7,0.9-1.3c0-0.7-0.5-1.4-1.3-1.4c0,0-0.1,0-0.1,0h-2L124.3,39.2z M127.3,44.1
		c0.8,0,1.5-0.6,1.5-1.4c0,0,0-0.1,0-0.1c0-0.8-0.7-1.5-1.5-1.5c0,0-0.1,0-0.1,0h-3v3.1H127.3z"/>
	<path class="st1" d="M133.8,35.4c0-0.4,0.2-0.7,0.6-0.7c0,0,0.1,0,0.1,0h0.4c0.4,0,0.7,0.3,0.8,0.7c0,0,0,0.1,0,0.1v9.8
		c0,0.4-0.3,0.7-0.7,0.7c0,0-0.1,0-0.1,0h-0.4c-0.4,0-0.7-0.3-0.8-0.6c0,0,0-0.1,0-0.1L133.8,35.4z"/>
	<path class="st1" d="M140,46c-0.4,0-0.7-0.2-0.7-0.6c0,0,0-0.1,0-0.1v-9.8c0-0.4,0.3-0.7,0.7-0.8c0,0,0,0,0.1,0h0.4
		c0.4,0,0.7,0.3,0.7,0.7c0,0,0,0,0,0.1v8.6h4.5c0.4,0,0.7,0.3,0.7,0.6c0,0,0,0.1,0,0.1v0.4c0,0.4-0.3,0.7-0.6,0.7c0,0-0.1,0-0.1,0
		L140,46z"/>
	<path class="st1" d="M148.6,35.4c0-0.4,0.2-0.7,0.6-0.7c0,0,0.1,0,0.1,0h0.4c0.4,0,0.7,0.3,0.8,0.7c0,0,0,0.1,0,0.1v9.8
		c0,0.4-0.3,0.7-0.6,0.7c0,0-0.1,0-0.1,0h-0.4c-0.4,0-0.7-0.3-0.8-0.6c0,0,0-0.1,0-0.1L148.6,35.4z"/>
	<path class="st1" d="M153.6,36.6c-0.4,0-0.7-0.3-0.7-0.7c0,0,0,0,0-0.1v-0.4c0-0.4,0.3-0.7,0.7-0.8c0,0,0.1,0,0.1,0h7.3
		c0.4,0,0.7,0.3,0.8,0.7c0,0,0,0.1,0,0.1v0.4c0,0.4-0.3,0.7-0.7,0.8c0,0,0,0-0.1,0h-2.7v8.7c0,0.4-0.3,0.7-0.7,0.7c0,0,0,0-0.1,0
		H157c-0.4,0-0.7-0.3-0.7-0.7c0,0,0-0.1,0-0.1v-8.7H153.6z"/>
	<path class="st1" d="M166.7,40l2.5-4.9c0.1-0.3,0.4-0.4,0.7-0.4h0.6c0.4,0,0.6,0.3,0.7,0.6c0,0.1,0,0.3-0.1,0.4l-3.5,6.2v3.4
		c0,0.4-0.2,0.7-0.6,0.7c0,0-0.1,0-0.1,0h-0.4c-0.4,0-0.7-0.3-0.8-0.7c0,0,0-0.1,0-0.1v-3.4l-3.5-6.2c-0.2-0.3-0.1-0.7,0.2-0.9
		c0.1-0.1,0.3-0.1,0.4-0.1h0.6c0.3,0,0.6,0.2,0.7,0.4L166.7,40z"/>
</g>
<g>
	<path class="st0" d="M10.2,65.7c-0.3,0-0.5-0.2-0.6-0.5c0,0,0,0,0-0.1v-7.4c0-0.3,0.2-0.6,0.5-0.6c0,0,0,0,0.1,0h2.4
		c1.3-0.1,2.4,0.9,2.6,2.2c0,0.1,0,0.2,0,0.2c0,0.5-0.2,1-0.6,1.3c1.3,0.6,1.8,2.1,1.2,3.3c-0.4,0.9-1.3,1.5-2.3,1.4H10.2z
		 M11.1,60.6H13c0.4-0.1,0.7-0.5,0.7-1c0-0.6-0.4-1-0.9-1.1c0,0-0.1,0-0.1,0h-1.5V60.6z M13.4,64.3c0.6,0,1.1-0.4,1.1-1
		c0,0,0-0.1,0-0.1c0-0.6-0.5-1.1-1.1-1.2c0,0-0.1,0-0.1,0h-2.2v2.3H13.4z"/>
	<path class="st0" d="M24.2,64.9c0.2,0.2,0.1,0.5-0.1,0.7c-0.1,0.1-0.2,0.1-0.3,0.1h-0.5c-0.2,0-0.5-0.1-0.6-0.3l-1.9-3h-1.3v2.7
		c0,0.3-0.2,0.5-0.5,0.6c0,0,0,0-0.1,0h-0.3c-0.3,0-0.6-0.2-0.6-0.5c0,0,0,0,0-0.1v-7.3c0-0.3,0.2-0.6,0.5-0.6c0,0,0,0,0.1,0h2.7
		c1.4-0.1,2.7,1,2.8,2.4c0,0.1,0,0.2,0,0.3c0,1.1-0.7,2.1-1.7,2.4L24.2,64.9z M19.5,58.6V61h1.7c0.9,0,1.3-0.5,1.3-1.2
		c0-0.6-0.4-1.2-1.1-1.2c-0.1,0-0.1,0-0.2,0L19.5,58.6z"/>
	<path class="st0" d="M26.1,62.8v-5c0-0.3,0.2-0.6,0.5-0.6c0,0,0,0,0.1,0h0.4c0.3,0,0.6,0.2,0.6,0.5c0,0,0,0,0,0.1v5.1
		c0,0.9,0.7,1.6,1.6,1.6c0.9,0,1.6-0.7,1.6-1.6v-5.1c0-0.3,0.2-0.6,0.5-0.6c0,0,0,0,0.1,0h0.3c0.3,0,0.6,0.2,0.6,0.5c0,0,0,0,0,0.1
		v5c0.1,1.6-1.1,2.9-2.6,3c-0.2,0-0.3,0-0.5,0c-1.5,0.2-3-0.9-3.2-2.4C26.1,63.1,26.1,62.9,26.1,62.8z"/>
	<path class="st0" d="M40.8,63.1c0,1.3-1.2,2.6-3.2,2.6c-2,0-3.3-1-3.3-3c0-0.3,0.2-0.6,0.5-0.6c0,0,0,0,0,0h0.4
		c0.3,0,0.6,0.2,0.6,0.5c0,0,0,0,0,0c0,0.9,0.7,1.6,1.6,1.6c0.1,0,0.2,0,0.2,0c1,0,1.6-0.5,1.6-1.2s-0.3-0.8-1-1
		c-0.4-0.1-0.9-0.2-1.4-0.4c-1-0.3-2.1-0.9-2.1-2.2c0-1.6,1.3-2.5,2.9-2.5c1.5-0.1,2.8,0.9,3,2.4c0.1,0.3-0.1,0.5-0.4,0.6
		c-0.1,0-0.1,0-0.2,0h-0.3c-0.3,0-0.6-0.2-0.6-0.5c-0.1-0.7-0.7-1.1-1.5-1.1c-0.8,0-1.5,0.5-1.5,1.1s0.5,0.8,1.1,0.9
		c0.6,0.1,0.8,0.2,1.3,0.3C40.1,61.1,40.8,61.9,40.8,63.1z"/>
	<path class="st0" d="M48.7,63.1c0,1.3-1.2,2.6-3.2,2.6c-2,0-3.3-1-3.3-3c0-0.3,0.2-0.6,0.5-0.6c0,0,0,0,0,0h0.4
		c0.3,0,0.6,0.2,0.6,0.5c0,0,0,0,0,0c0,0.9,0.7,1.6,1.6,1.6c0.1,0,0.2,0,0.2,0c1,0,1.6-0.5,1.6-1.2s-0.3-0.8-1-1
		c-0.4-0.1-0.9-0.2-1.4-0.4c-1-0.3-2.1-0.9-2.1-2.2c0-1.6,1.3-2.5,2.9-2.5c1.5-0.1,2.8,0.9,3,2.4c0.1,0.3-0.1,0.5-0.4,0.6
		c-0.1,0-0.1,0-0.2,0h-0.3c-0.3,0-0.6-0.2-0.6-0.5c-0.1-0.7-0.7-1.1-1.5-1.1s-1.4,0.4-1.4,1s0.5,0.8,1.1,0.9s0.8,0.2,1.3,0.3
		C48,61.1,48.7,61.9,48.7,63.1z"/>
	<path class="st0" d="M52.1,58.6v2h2.6c0.3,0,0.6,0.2,0.6,0.5c0,0,0,0,0,0.1v0.3c0,0.3-0.2,0.6-0.5,0.6c0,0,0,0-0.1,0h-2.6v2.3h3.6
		c0.3,0,0.6,0.2,0.6,0.5c0,0,0,0,0,0v0.3c0,0.3-0.2,0.6-0.5,0.6c0,0,0,0-0.1,0h-4.5c-0.3,0-0.5-0.2-0.6-0.5c0,0,0,0,0-0.1v-7.4
		c0-0.3,0.2-0.6,0.5-0.6c0,0,0,0,0.1,0h4.3c0.3,0,0.5,0.2,0.6,0.5c0,0,0,0,0,0.1V58c0,0.3-0.2,0.6-0.5,0.6c0,0,0,0,0,0L52.1,58.6z"
		/>
	<path class="st0" d="M58.7,65.7c-0.3,0-0.5-0.2-0.6-0.5c0,0,0-0.1,0-0.1v-7.4c0-0.3,0.2-0.6,0.5-0.6c0,0,0,0,0.1,0H59
		c0.3,0,0.5,0.2,0.6,0.5c0,0,0,0,0,0.1v6.5h3.4c0.3,0,0.5,0.2,0.6,0.5c0,0,0,0,0,0.1v0.3c0,0.3-0.2,0.5-0.5,0.6c0,0,0,0-0.1,0
		L58.7,65.7z"/>
	<path class="st0" d="M70.8,63.1c0,1.3-1.2,2.6-3.2,2.6s-3.3-1-3.3-3c0-0.3,0.2-0.6,0.5-0.6c0,0,0,0,0,0h0.4c0.3,0,0.6,0.2,0.6,0.5
		c0,0,0,0,0,0c0,0.9,0.7,1.6,1.6,1.6c0.1,0,0.2,0,0.2,0c1,0,1.6-0.5,1.6-1.2s-0.3-0.8-1-1c-0.4-0.1-0.9-0.2-1.4-0.4
		c-1-0.3-2.1-0.9-2.1-2.2c0-1.6,1.3-2.5,2.9-2.5c1.5-0.1,2.8,0.9,3,2.4c0.1,0.3-0.1,0.5-0.4,0.6c-0.1,0-0.1,0-0.2,0h-0.4
		c-0.3,0-0.6-0.2-0.6-0.5c-0.1-0.7-0.7-1.1-1.5-1.1c-0.8,0-1.4,0.5-1.4,1.1s0.5,0.8,1.1,0.9c0.6,0.1,0.8,0.2,1.3,0.3
		C70.1,61.1,70.8,61.9,70.8,63.1z"/>
	<path class="st0" d="M81.7,64.9c0.2,0.2,0.1,0.5-0.1,0.7c-0.1,0.1-0.2,0.1-0.3,0.1h-0.5c-0.2,0-0.5-0.1-0.6-0.3l-1.9-3H77v2.7
		c0,0.3-0.2,0.5-0.5,0.6c0,0,0,0-0.1,0H76c-0.3,0-0.6-0.2-0.6-0.5c0,0,0,0,0-0.1v-7.3c0-0.3,0.2-0.6,0.5-0.6c0,0,0,0,0.1,0h2.7
		c1.4-0.1,2.7,1,2.8,2.4c0,0.1,0,0.2,0,0.3c0,1.1-0.7,2.1-1.7,2.4L81.7,64.9z M77,58.6V61h1.7c0.9,0,1.3-0.5,1.3-1.2
		c0-0.6-0.4-1.2-1.1-1.2c-0.1,0-0.1,0-0.2,0L77,58.6z"/>
	<path class="st0" d="M85.1,58.6v2h2.6c0.3,0,0.6,0.2,0.6,0.5c0,0,0,0,0,0.1v0.3c0,0.3-0.2,0.6-0.5,0.6c0,0,0,0-0.1,0h-2.6v2.3h3.6
		c0.3,0,0.6,0.2,0.6,0.5c0,0,0,0,0,0v0.3c0,0.3-0.2,0.6-0.5,0.6c0,0,0,0-0.1,0h-4.5c-0.3,0-0.5-0.2-0.6-0.5c0,0,0,0,0-0.1v-7.4
		c0-0.3,0.2-0.6,0.5-0.6c0,0,0,0,0.1,0h4.3c0.3,0,0.5,0.2,0.6,0.5c0,0,0,0,0,0.1V58c0,0.3-0.2,0.6-0.5,0.6c0,0,0,0,0,0L85.1,58.6z"
		/>
	<path class="st0" d="M97,60l-0.3,0.1c-0.3,0.1-0.6,0-0.7-0.3c0,0,0,0,0,0c-0.2-0.8-1-1.3-1.8-1.3c-1.3,0-2.1,1.3-2.1,3
		s0.7,2.9,2.1,2.9c1,0.1,1.9-0.7,2-1.8c0-0.1,0-0.2,0-0.2h-1.5c-0.3,0-0.5-0.2-0.6-0.5c0,0,0,0,0-0.1v-0.3c0-0.3,0.2-0.6,0.5-0.6
		c0,0,0,0,0.1,0H97c0.3,0,0.5,0.2,0.5,0.5c0,0,0,0.1,0,0.1V62c0,2.4-1.4,3.8-3.5,3.8c-2.2,0-3.5-1.8-3.5-4.3s1.5-4.4,3.6-4.4
		c1.4-0.1,2.7,0.8,3.1,2.2C97.4,59.6,97.3,59.8,97,60C97,60,97,60,97,60z"/>
	<path class="st0" d="M99.9,57.7c0-0.3,0.2-0.5,0.5-0.6c0,0,0.1,0,0.1,0h0.3c0.3,0,0.5,0.2,0.6,0.5c0,0,0,0,0,0.1v7.4
		c0,0.3-0.2,0.5-0.5,0.6c0,0-0.1,0-0.1,0h-0.3c-0.3,0-0.5-0.2-0.6-0.5c0,0,0,0,0-0.1L99.9,57.7z"/>
	<path class="st0" d="M103.6,61.4c0-2.5,1.4-4.4,3.5-4.4s3.5,1.8,3.5,4.4s-1.4,4.3-3.5,4.3S103.6,64,103.6,61.4z M105.1,61.4
		c0,1.7,0.8,2.9,2,2.9s2-1.2,2-2.9s-0.8-3-2-3S105.1,59.8,105.1,61.4L105.1,61.4z"/>
	<path class="st0" d="M112.6,57.7c0-0.3,0.2-0.6,0.5-0.6c0,0,0,0,0.1,0h0.6c0.2,0,0.4,0.1,0.5,0.3l3.1,5.4v-5.2
		c0-0.3,0.2-0.6,0.5-0.6c0,0,0,0,0,0h0.3c0.3,0,0.5,0.2,0.6,0.5c0,0,0,0,0,0.1v7.4c0,0.3-0.2,0.6-0.5,0.6c0,0,0,0,0,0h-0.5
		c-0.2,0-0.4-0.1-0.5-0.3l-3.2-5.6v5.4c0,0.3-0.2,0.5-0.5,0.6c0,0-0.1,0-0.1,0h-0.4c-0.3,0-0.5-0.2-0.6-0.5c0,0,0-0.1,0-0.1
		L112.6,57.7z"/>
	<path class="st0" d="M122.6,63.5l-0.7,1.8c-0.1,0.3-0.3,0.4-0.6,0.4h-0.5c-0.2,0-0.4-0.2-0.5-0.4c0-0.1,0-0.2,0-0.2l2.8-7.4
		c0.1-0.3,0.4-0.5,0.7-0.5h0.4c0.3,0,0.6,0.2,0.6,0.5l2.8,7.4c0.1,0.2,0,0.5-0.2,0.6c-0.1,0-0.2,0.1-0.3,0h-0.5
		c-0.3,0-0.5-0.2-0.6-0.4l-0.7-1.8L122.6,63.5z M123.1,62.1h1.9l-1-2.8L123.1,62.1z"/>
	<path class="st0" d="M130,65.7c-0.3,0-0.5-0.2-0.6-0.5c0,0,0-0.1,0-0.1v-7.4c0-0.3,0.2-0.6,0.5-0.6c0,0,0,0,0.1,0h0.3
		c0.3,0,0.5,0.2,0.6,0.5c0,0,0,0,0,0.1v6.5h3.4c0.3,0,0.5,0.2,0.6,0.5c0,0,0,0,0,0.1v0.3c0,0.3-0.2,0.5-0.5,0.6c0,0,0,0-0.1,0
		L130,65.7z"/>
	<path class="st0" d="M142.2,57.2c1.4-0.1,2.7,0.9,2.8,2.3c0,0.1,0,0.2,0,0.4c0.1,1.4-1,2.6-2.4,2.7c-0.2,0-0.3,0-0.5,0h-1.9v2.5
		c0,0.3-0.2,0.6-0.5,0.6c0,0,0,0-0.1,0h-0.3c-0.3,0-0.6-0.2-0.6-0.5c0,0,0,0,0,0v-7.3c0-0.3,0.2-0.6,0.5-0.6c0,0,0,0,0,0H142.2z
		 M140.3,58.6v2.6h1.9c0.7,0.1,1.3-0.4,1.4-1c0-0.1,0-0.1,0-0.2c0-0.7-0.5-1.3-1.2-1.3c-0.1,0-0.1,0-0.2,0L140.3,58.6z"/>
	<path class="st0" d="M146.7,62.8v-5c0-0.3,0.2-0.6,0.5-0.6c0,0,0,0,0.1,0h0.3c0.3,0,0.6,0.2,0.6,0.5c0,0,0,0,0,0.1v5.1
		c0,0.9,0.7,1.6,1.6,1.6s1.6-0.7,1.6-1.6v-5.1c0-0.3,0.2-0.6,0.5-0.6c0,0,0,0,0.1,0h0.3c0.3,0,0.6,0.2,0.6,0.5c0,0,0,0,0,0.1v5
		c-0.1,1.7-1.6,3-3.3,2.9C148.1,65.6,146.8,64.3,146.7,62.8L146.7,62.8z"/>
	<path class="st0" d="M155.8,65.7c-0.3,0-0.5-0.2-0.6-0.5c0,0,0,0,0-0.1v-7.4c0-0.3,0.2-0.6,0.5-0.6c0,0,0,0,0.1,0h2.4
		c1.3-0.1,2.4,0.9,2.6,2.2c0,0.1,0,0.2,0,0.2c0,0.5-0.2,1-0.6,1.3c1.3,0.6,1.8,2.1,1.2,3.3c-0.4,0.9-1.3,1.5-2.3,1.4H155.8z
		 M156.7,60.6h1.9c0.4-0.2,0.7-0.6,0.7-1c0-0.6-0.4-1-0.9-1.1c0,0-0.1,0-0.1,0h-1.5L156.7,60.6z M159,64.3c0.6,0,1.1-0.4,1.1-1
		c0,0,0-0.1,0-0.1c0-0.6-0.5-1.1-1.1-1.1c0,0,0,0,0,0h-2.2v2.3H159z"/>
	<path class="st0" d="M164.1,65.7c-0.3,0-0.5-0.2-0.6-0.5c0,0,0-0.1,0-0.1v-7.4c0-0.3,0.2-0.6,0.5-0.6c0,0,0,0,0.1,0h0.3
		c0.3,0,0.5,0.2,0.6,0.5c0,0,0,0,0,0.1v6.5h3.4c0.3,0,0.5,0.2,0.6,0.5c0,0,0,0,0,0.1v0.3c0,0.3-0.2,0.5-0.5,0.6c0,0,0,0-0.1,0
		L164.1,65.7z"/>
	<path class="st0" d="M170.6,57.7c0-0.3,0.2-0.5,0.5-0.6c0,0,0.1,0,0.1,0h0.3c0.3,0,0.5,0.2,0.6,0.5c0,0,0,0,0,0.1v7.4
		c0,0.3-0.2,0.5-0.5,0.6c0,0-0.1,0-0.1,0h-0.3c-0.3,0-0.5-0.2-0.6-0.5c0,0,0,0,0-0.1L170.6,57.7z"/>
	<path class="st0" d="M180.4,62.7h0.4c0.4,0,0.6,0.3,0.4,0.7c-0.5,1.4-1.9,2.4-3.4,2.3c-2.2,0-3.6-1.9-3.6-4.3
		c0-2.5,1.4-4.4,3.7-4.4c1.5,0,2.8,1,3.2,2.5c0.1,0.3-0.1,0.6-0.3,0.7c0,0,0,0,0,0l-0.3,0.1c-0.3,0.1-0.6,0-0.7-0.3c0,0,0,0,0,0
		c-0.2-0.9-0.9-1.5-1.8-1.5c-1.3,0-2.2,1.2-2.2,2.9c0,1.8,0.8,2.9,2.1,2.9c0.8,0.1,1.6-0.4,1.9-1.2
		C179.9,62.8,180.2,62.7,180.4,62.7z"/>
	<path class="st0" d="M192.1,63.1c0,1.3-1.2,2.6-3.2,2.6c-2,0-3.3-1-3.3-3c0-0.3,0.2-0.6,0.5-0.6c0,0,0,0,0,0h0.4
		c0.3,0,0.6,0.2,0.6,0.5c0,0,0,0,0,0c0,0.9,0.7,1.6,1.6,1.6c0.1,0,0.2,0,0.2,0c1,0,1.6-0.5,1.6-1.2s-0.3-0.8-1-1
		c-0.4-0.1-0.9-0.2-1.4-0.4c-1-0.3-2.1-0.9-2.1-2.2c0-1.6,1.3-2.5,2.9-2.5c1.5-0.1,2.8,0.9,3,2.4c0.1,0.3-0.1,0.5-0.4,0.6
		c-0.1,0-0.1,0-0.2,0H191c-0.3,0-0.6-0.2-0.6-0.5c-0.1-0.7-0.7-1.1-1.5-1.1s-1.4,0.4-1.4,1c0,0.6,0.5,0.8,1.1,0.9s0.8,0.2,1.3,0.3
		C191.4,61.1,192.1,61.9,192.1,63.1z"/>
	<path class="st0" d="M195.5,58.6v2h2.6c0.3,0,0.6,0.2,0.6,0.5c0,0,0,0,0,0.1v0.3c0,0.3-0.2,0.6-0.5,0.6c0,0,0,0-0.1,0h-2.6v2.3h3.6
		c0.3,0,0.6,0.2,0.6,0.5c0,0,0,0,0,0v0.3c0,0.3-0.2,0.6-0.5,0.6c0,0,0,0-0.1,0h-4.5c-0.3,0-0.5-0.2-0.6-0.5c0,0,0-0.1,0-0.1v-7.4
		c0-0.3,0.2-0.5,0.5-0.6c0,0,0.1,0,0.1,0h4.3c0.3,0,0.5,0.2,0.6,0.5c0,0,0,0,0,0.1V58c0,0.3-0.2,0.6-0.5,0.6c0,0,0,0,0,0L195.5,58.6
		z"/>
	<path class="st0" d="M207.7,64.9c0.2,0.2,0.1,0.5-0.1,0.7c-0.1,0.1-0.2,0.1-0.3,0.1h-0.5c-0.2,0-0.5-0.1-0.6-0.3l-1.9-3H203v2.7
		c0,0.3-0.2,0.5-0.5,0.6c0,0,0,0-0.1,0h-0.3c-0.3,0-0.6-0.2-0.6-0.5c0,0,0,0,0-0.1v-7.3c0-0.3,0.2-0.6,0.5-0.6c0,0,0,0,0.1,0h2.7
		c1.4-0.1,2.7,1,2.8,2.4c0,0.1,0,0.2,0,0.3c0,1.1-0.7,2.1-1.7,2.4L207.7,64.9z M203,58.6V61h1.7c0.9,0,1.3-0.5,1.3-1.2
		c0-0.6-0.4-1.2-1.1-1.2c-0.1,0-0.1,0-0.2,0L203,58.6z"/>
	<path class="st0" d="M213,65.3c-0.1,0.2-0.3,0.4-0.5,0.4h-0.5c-0.2,0-0.5-0.2-0.5-0.4l-2.6-7.4c-0.1-0.4,0.1-0.7,0.5-0.7h0.5
		c0.3,0,0.5,0.2,0.6,0.4l1.9,5.9l1.9-5.9c0.1-0.2,0.3-0.4,0.6-0.4h0.4c0.3,0,0.5,0.2,0.5,0.5c0,0.1,0,0.2,0,0.2L213,65.3z"/>
	<path class="st0" d="M217.6,57.7c0-0.3,0.2-0.5,0.5-0.6c0,0,0.1,0,0.1,0h0.3c0.3,0,0.5,0.2,0.6,0.5c0,0,0,0,0,0.1v7.4
		c0,0.3-0.2,0.5-0.5,0.6c0,0-0.1,0-0.1,0h-0.3c-0.3,0-0.5-0.2-0.6-0.5c0,0,0,0,0-0.1L217.6,57.7z"/>
	<path class="st0" d="M227.5,62.7h0.4c0.4,0,0.6,0.3,0.4,0.7c-0.5,1.4-1.8,2.4-3.3,2.3c-2.2,0-3.6-1.9-3.6-4.3
		c0-2.5,1.4-4.4,3.7-4.4c1.5,0,2.8,1,3.2,2.5c0.1,0.3-0.1,0.6-0.3,0.7c0,0,0,0,0,0l-0.3,0.1c-0.3,0.1-0.6,0-0.7-0.3c0,0,0,0,0,0
		c-0.2-0.9-0.9-1.5-1.8-1.5c-1.3,0-2.2,1.2-2.2,2.9c0,1.8,0.8,2.9,2.1,2.9c0.8,0.1,1.6-0.4,1.9-1.2C227,62.8,227.2,62.7,227.5,62.7z
		"/>
	<path class="st0" d="M231.8,58.6v2h2.6c0.3,0,0.6,0.2,0.6,0.5c0,0,0,0,0,0.1v0.3c0,0.3-0.2,0.6-0.5,0.6c0,0,0,0-0.1,0h-2.6v2.3h3.6
		c0.3,0,0.6,0.2,0.6,0.5c0,0,0,0,0,0v0.3c0,0.3-0.2,0.6-0.5,0.6c0,0,0,0-0.1,0h-4.5c-0.3,0-0.5-0.2-0.6-0.5c0,0,0,0,0-0.1v-7.4
		c0-0.3,0.2-0.6,0.5-0.6c0,0,0,0,0.1,0h4.3c0.3,0,0.5,0.2,0.6,0.5c0,0,0,0,0,0.1V58c0,0.3-0.2,0.6-0.5,0.6c0,0,0,0,0,0L231.8,58.6z"
		/>
</g>
</svg>
