<?xml version="1.0" encoding="utf-8"?>
<!-- Generator: Adobe Illustrator 22.1.0, SVG Export Plug-In . SVG Version: 6.00 Build 0)  -->
<svg version="1.1" id="_x31_6bae706-d507-4874-9c52-0edbae45e46b"
	 xmlns="http://www.w3.org/2000/svg" xmlns:xlink="http://www.w3.org/1999/xlink" x="0px" y="0px" viewBox="0 0 171.1 46.2"
	 style="enable-background:new 0 0 171.1 46.2;" xml:space="preserve">
<style type="text/css">
	.st0{fill:#1D3C86;}
	.st1{fill:#88B537;}
</style>
<title>brussels-mobility</title>
<g>
	<g>
		<path class="st0" d="M7.3,12.4c-4,0-7.2,3.1-7.3,7.1c0,0.1,0,0.2,0,0.2C0,24.1,4.1,27,7.7,27c3.9,0,5.8-1.2,9.2-0.6
			c1.8,0.3,3.4,1.2,4.7,2.5c0.3,0.3,0.7,0.3,1,0.2c0.3-0.2,0.5-0.5,0.3-1.4c-0.6-2.2-1.5-4.3-2.8-6.2C17.7,17.7,12.8,12.5,7.3,12.4"
			/>
		<path class="st0" d="M41,12.4c4,0,7.2,3.1,7.3,7.1c0,0.1,0,0.2,0,0.2c0,4.4-4.1,7.2-7.7,7.2c-3.9,0-5.8-1.2-9.2-0.6
			c-1.8,0.3-3.4,1.2-4.7,2.5c-0.3,0.3-0.7,0.3-1,0.2c-0.3-0.2-0.5-0.5-0.3-1.4c0.6-2.2,1.5-4.3,2.8-6.2C30.6,17.7,35.6,12.4,41,12.4
			"/>
	</g>
	<path class="st1" d="M28.8,0c-1.8-0.1-3.5,0.7-4.7,2.1C23,0.7,21.2-0.1,19.4,0c-3.9,0-7.1,3.2-7.1,7.1v0.1c0,1.5,0.5,3,1.4,4.3
		c1,1.3,2.1,2.5,3.4,3.5c2.6,2.1,4.7,4.8,6,7.8c0.1,0.5,0.6,0.7,1.1,0.6c0.3-0.1,0.5-0.3,0.6-0.6c1.4-3,3.4-5.7,6-7.8
		c1.3-1,2.4-2.2,3.4-3.5c0.9-1.2,1.4-2.7,1.4-4.3c0.3-3.9-2.8-7.1-6.7-7.2H28.8z M32.7,10.2c-2.6,3.5-6,4.6-8.6,10.1
		c-2.5-5.5-6-6.6-8.6-10.1c-0.6-0.8-1-1.9-1-2.9c0-2.8,2.3-5.1,5.1-5.1c2,0.1,3.8,1.3,4.5,3.1c0.7-1.8,2.5-3.1,4.5-3.1
		c2.8,0,5.1,2.3,5.1,5.1C33.7,8.3,33.3,9.3,32.7,10.2L32.7,10.2z"/>
	<g>
		<path class="st1" d="M10.3,46c-0.4,0-0.7-0.3-0.8-0.7v-0.1v-9.8c0-0.4,0.3-0.7,0.7-0.8h0.1h3.2c1.7-0.1,3.3,1.1,3.4,2.9
			c0,0.1,0,0.2,0,0.3c0,0.7-0.3,1.3-0.8,1.7c1.7,0.8,2.3,2.8,1.5,4.5c-0.5,1.3-1.7,2-3,2H10.3z M11.5,39.2H14
			c0.5-0.2,0.9-0.7,0.9-1.3c0-0.7-0.5-1.4-1.3-1.4h-0.1h-2V39.2z M14.6,44.1c0.8,0,1.5-0.6,1.5-1.4v-0.1c0-0.8-0.7-1.5-1.5-1.5h-0.1
			h-3v3.1L14.6,44.1L14.6,44.1z"/>
		<path class="st1" d="M28.9,45c0.2,0.3,0.1,0.7-0.2,0.9C28.6,46,28.4,46,28.3,46h-0.6c-0.3,0-0.6-0.2-0.8-0.4l-2.5-4h-1.7v3.6
			c0,0.4-0.3,0.7-0.7,0.8h-0.1h-0.4c-0.4,0-0.7-0.3-0.8-0.7v-0.1v-9.7c0-0.4,0.3-0.7,0.7-0.8h0.1h3.6c1.9-0.1,3.5,1.3,3.7,3.1
			c0,0.1,0,0.2,0,0.4c0,1.5-0.9,2.8-2.3,3.2L28.9,45z M22.6,36.6v3.2h2.3c1.1,0,1.8-0.6,1.8-1.5c0.1-0.9-0.6-1.6-1.4-1.6
			c-0.1,0-0.1,0-0.2,0h-2.5V36.6z"/>
		<path class="st1" d="M31.5,42.1v-6.7c0-0.4,0.3-0.7,0.7-0.8h0.1h0.4c0.4,0,0.7,0.3,0.8,0.7v0.1v6.7c-0.1,1.1,0.8,2,1.9,2.1
			c0.1,0,0.2,0,0.2,0c1.1,0.1,2.1-0.8,2.1-1.9c0-0.1,0-0.2,0-0.2v-6.7c0-0.4,0.3-0.7,0.7-0.8h0.1h0.4c0.4,0,0.7,0.3,0.8,0.7v0.1v6.7
			c0.1,2.1-1.4,3.9-3.5,4c-0.2,0-0.4,0-0.6,0C33.1,46.1,31.5,44.6,31.5,42.1z"/>
		<path class="st1" d="M50.9,42.6c0,1.8-1.6,3.5-4.2,3.5c-2.6,0-4.4-1.3-4.4-3.9c0-0.4,0.3-0.7,0.7-0.8c0,0,0,0,0.1,0h0.5
			c0.4,0,0.8,0.3,0.8,0.7l0,0c0,1.1,0.9,2.1,2.1,2.1c0.1,0,0.2,0,0.3,0c1.3,0,2.2-0.7,2.2-1.6c0-0.7-0.4-1.1-1.4-1.3
			c-0.6-0.1-1.2-0.3-1.9-0.5c-1.3-0.4-2.8-1.1-2.8-3c0-2.1,1.7-3.3,3.9-3.3c2-0.2,3.7,1.2,4,3.2c0.1,0.4-0.2,0.7-0.6,0.8
			c-0.1,0-0.1,0-0.2,0h-0.4c-0.4,0-0.8-0.3-0.8-0.7c-0.1-0.9-0.9-1.4-2-1.4S45,37,45,37.8c0,0.8,0.7,1,1.5,1.2
			c0.6,0.2,1.1,0.3,1.8,0.4C50,40,50.9,41,50.9,42.6z"/>
		<path class="st1" d="M61.4,42.6c0,1.8-1.6,3.5-4.2,3.5s-4.4-1.3-4.4-3.9c0-0.4,0.3-0.7,0.7-0.8c0,0,0,0,0.1,0h0.5
			c0.4,0,0.8,0.3,0.8,0.7l0,0c0,1.1,0.9,2.1,2.1,2.1c0.1,0,0.2,0,0.3,0c1.3,0,2.2-0.7,2.2-1.6c0-0.7-0.4-1.1-1.4-1.3
			c-0.6-0.1-1.2-0.3-1.9-0.5c-1.3-0.4-2.8-1.1-2.8-3c0-2.1,1.7-3.3,3.9-3.3c2-0.2,3.7,1.2,4,3.2c0.1,0.4-0.2,0.7-0.6,0.8
			c-0.1,0-0.1,0-0.2,0h-0.6c-0.4,0-0.8-0.3-0.8-0.7c-0.1-0.9-0.9-1.4-2-1.4s-1.8,0.6-1.8,1.4c0,0.8,0.7,1,1.5,1.2
			c0.6,0.2,1.1,0.3,1.8,0.4C60.5,40,61.4,41,61.4,42.6z"/>
		<path class="st1" d="M66,36.6v2.6h3.5c0.4,0,0.8,0.3,0.8,0.7V40v0.4c0,0.4-0.3,0.7-0.7,0.8h-0.1H66v3h4.8c0.4,0,0.8,0.3,0.8,0.7
			l0,0v0.4c0,0.4-0.3,0.7-0.7,0.8c0,0,0,0-0.1,0h-6c-0.4,0-0.7-0.2-0.8-0.6v-0.1v-9.8c0-0.4,0.3-0.7,0.7-0.8h0.1h5.8
			c0.4,0,0.7,0.3,0.7,0.7c0,0,0,0,0,0.1V36c0,0.4-0.3,0.7-0.7,0.8c0,0,0,0-0.1,0L66,36.6z"/>
		<path class="st1" d="M74.7,46c-0.4,0-0.7-0.2-0.7-0.6v-0.1v-9.8c0-0.4,0.3-0.7,0.7-0.8c0,0,0,0,0.1,0h0.4c0.4,0,0.7,0.3,0.7,0.7
			c0,0,0,0,0,0.1v8.6h4.5c0.4,0,0.7,0.3,0.7,0.6v0.1v0.4c0,0.4-0.3,0.7-0.6,0.7h-0.1L74.7,46z"/>
		<path class="st1" d="M90.8,42.6c0,1.8-1.6,3.5-4.2,3.5s-4.4-1.3-4.4-3.9c0-0.4,0.3-0.7,0.7-0.8c0,0,0,0,0.1,0h0.5
			c0.4,0,0.8,0.3,0.8,0.7l0,0c0,1.1,0.9,2.1,2.1,2.1c0.1,0,0.2,0,0.3,0c1.3,0,2.2-0.7,2.2-1.6c0-0.7-0.4-1.1-1.4-1.3
			c-0.6-0.1-1.2-0.3-1.9-0.5c-1.3-0.4-2.8-1.1-2.8-3c0-2.1,1.7-3.3,3.9-3.3c2-0.2,3.7,1.2,4,3.2c0.1,0.4-0.2,0.7-0.6,0.8
			c-0.1,0-0.1,0-0.2,0h-0.4c-0.4,0-0.8-0.3-0.8-0.7c-0.1-0.9-0.9-1.4-2-1.4s-1.8,0.6-1.8,1.4c0,0.8,0.7,1,1.5,1.2
			c0.6,0.2,1.1,0.3,1.8,0.4C89.9,40,90.8,41,90.8,42.6z"/>
		<path class="st1" d="M105.8,38.2l-2.4,5.1c-0.1,0.3-0.4,0.5-0.7,0.5H102c-0.3,0-0.6-0.2-0.7-0.4l-2.4-5.1l0.1,7
			c0,0.4-0.2,0.7-0.6,0.7h-0.1h-0.4c-0.4,0-0.7-0.2-0.7-0.6v-0.1v-9.8c0-0.4,0.3-0.7,0.7-0.8c0,0,0,0,0.1,0h0.8
			c0.3,0,0.6,0.2,0.7,0.4l3,6.3l3.1-6.3c0.1-0.3,0.4-0.4,0.7-0.4h0.8c0.4,0,0.7,0.3,0.8,0.7v0.1v9.8c0,0.4-0.3,0.7-0.7,0.8h-0.1
			h-0.4c-0.4,0-0.7-0.2-0.7-0.6v-0.1L105.8,38.2z"/>
		<path class="st1" d="M110.2,40.4c0-3.4,1.9-5.8,4.7-5.8c2.8,0,4.7,2.4,4.7,5.8c0,3.4-1.8,5.8-4.7,5.8
			C112.1,46.1,110.2,43.7,110.2,40.4z M112.2,40.4c0,2.2,1,3.9,2.7,3.9s2.7-1.6,2.7-3.9c0-2.2-1-4-2.7-4S112.2,38.1,112.2,40.4
			L112.2,40.4z"/>
		<path class="st1" d="M123,46c-0.4,0-0.7-0.3-0.8-0.7v-0.1v-9.8c0-0.4,0.3-0.7,0.7-0.8h0.1h3.2c1.7-0.1,3.3,1.1,3.4,2.9
			c0,0.1,0,0.2,0,0.3c0,0.7-0.3,1.3-0.8,1.7c1.7,0.8,2.3,2.8,1.5,4.5c-0.6,1.2-1.8,1.9-3.1,1.9L123,46L123,46z M124.2,39.2h2.5
			c0.5-0.2,0.9-0.7,0.9-1.3c0-0.7-0.5-1.4-1.3-1.4h-0.1h-2V39.2z M127.2,44.1c0.8,0,1.5-0.6,1.5-1.4v-0.1c0-0.8-0.7-1.5-1.5-1.5
			h-0.1h-3v3.1L127.2,44.1L127.2,44.1z"/>
		<path class="st1" d="M133.7,35.4c0-0.4,0.2-0.7,0.6-0.7h0.1h0.4c0.4,0,0.7,0.3,0.8,0.7v0.1v9.8c0,0.4-0.3,0.7-0.7,0.7h-0.1h-0.4
			c-0.4,0-0.7-0.3-0.8-0.6v-0.1L133.7,35.4z"/>
		<path class="st1" d="M139.9,46c-0.4,0-0.7-0.2-0.7-0.6v-0.1v-9.8c0-0.4,0.3-0.7,0.7-0.8c0,0,0,0,0.1,0h0.4c0.4,0,0.7,0.3,0.7,0.7
			c0,0,0,0,0,0.1v8.6h4.5c0.4,0,0.7,0.3,0.7,0.6v0.1v0.4c0,0.4-0.3,0.7-0.6,0.7h-0.1L139.9,46z"/>
		<path class="st1" d="M148.5,35.4c0-0.4,0.2-0.7,0.6-0.7h0.1h0.4c0.4,0,0.7,0.3,0.8,0.7v0.1v9.8c0,0.4-0.3,0.7-0.6,0.7h-0.1h-0.4
			c-0.4,0-0.7-0.3-0.8-0.6v-0.1V35.4z"/>
		<path class="st1" d="M153.5,36.6c-0.4,0-0.7-0.3-0.7-0.7c0,0,0,0,0-0.1v-0.4c0-0.4,0.3-0.7,0.7-0.8h0.1h7.3c0.4,0,0.7,0.3,0.8,0.7
			v0.1v0.4c0,0.4-0.3,0.7-0.7,0.8c0,0,0,0-0.1,0h-2.7v8.7c0,0.4-0.3,0.7-0.7,0.7c0,0,0,0-0.1,0h-0.5c-0.4,0-0.7-0.3-0.7-0.7v-0.1
			v-8.7L153.5,36.6L153.5,36.6z"/>
		<path class="st1" d="M166.6,40l2.5-4.9c0.1-0.3,0.4-0.4,0.7-0.4h0.6c0.4,0,0.6,0.3,0.7,0.6c0,0.1,0,0.3-0.1,0.4l-3.5,6.2v3.4
			c0,0.4-0.2,0.7-0.6,0.7h-0.1h-0.4c-0.4,0-0.7-0.3-0.8-0.7v-0.1v-3.4l-3.5-6.2c-0.2-0.3-0.1-0.7,0.2-0.9c0.1-0.1,0.3-0.1,0.4-0.1
			h0.6c0.3,0,0.6,0.2,0.7,0.4L166.6,40z"/>
	</g>
</g>
</svg>
