<?xml version="1.0" encoding="utf-8"?>
<!-- Generator: Adobe Illustrator 22.1.0, SVG Export Plug-In . SVG Version: 6.00 Build 0)  -->
<svg version="1.1" id="Layer_1" xmlns:serif="http://www.serif.com/"
	 xmlns="http://www.w3.org/2000/svg" xmlns:xlink="http://www.w3.org/1999/xlink" x="0px" y="0px" viewBox="0 0 852.1 373.3"
	 style="enable-background:new 0 0 852.1 373.3;" xml:space="preserve">
<style type="text/css">
	.st0{fill:#C6A04A;stroke:#C6A04A;stroke-width:2;stroke-miterlimit:10;}
	.st1{fill:#231F20;}
</style>
<g>
	<g id="Layer-1" transform="matrix(0.421427,0,0,0.421427,31.4295,44.065)" serif:id="Layer 1">
		<path class="st0" d="M1134.1,192.2c-10.5,24.8-25.5,47.1-44.7,66.2c-19.1,19.1-41.4,34.2-66.2,44.6c-25.7,10.9-53,16.4-81.1,16.4
			c-28.1,0-55.4-5.5-81.1-16.4c-24.8-10.5-47.1-25.5-66.2-44.6c-19.1-19.1-34.2-41.4-44.7-66.2c-10.9-25.7-16.4-53-16.4-81.1
			c0-28.1,5.5-55.4,16.4-81.1c10.5-24.8,25.5-47.1,44.7-66.2c19.1-19.1,41.4-34.2,66.2-44.6c25.7-10.9,53-16.4,81.1-16.4
			c28.1,0,55.4,5.5,81.1,16.4c24.8,10.5,47.1,25.5,66.2,44.6c19.1,19.1,34.2,41.4,44.7,66.2c10.9,25.7,16.4,53,16.4,81.1
			C1150.4,139.2,1144.9,166.5,1134.1,192.2 M1092.8-39.7c-19.6-19.6-42.4-35-67.8-45.7c-26.3-11.1-54.2-16.8-83-16.8
			c-28.8,0-56.7,5.6-83,16.8c-25.4,10.7-48.2,26.1-67.8,45.7c-19.6,19.6-35,42.4-45.7,67.8c-11.1,26.3-16.8,54.2-16.8,83
			c0,28.8,5.6,56.7,16.8,83c10.7,25.4,26.1,48.2,45.7,67.8c19.6,19.6,42.4,35,67.8,45.7c26.3,11.1,54.2,16.7,83,16.7
			c28.8,0,56.7-5.6,83-16.7c25.4-10.7,48.2-26.1,67.8-45.7c19.6-19.6,35-42.4,45.7-67.8c11.1-26.3,16.8-54.2,16.8-83
			c0-28.8-5.6-56.7-16.8-83C1127.8,2.7,1112.4-20.1,1092.8-39.7"/>
		<g transform="matrix(1,0,0,1,0,0.006)">
			<path class="st0" d="M1087.7,256.7H796.4V-34.6h291.3V256.7z M1090.1-39.5H794c-1.3,0-2.4,1.1-2.4,2.4v296.1
				c0,1.3,1.1,2.4,2.4,2.4h296.1c1.3,0,2.4-1.1,2.4-2.4V-37C1092.6-38.4,1091.5-39.5,1090.1-39.5"/>
		</g>
		<g transform="matrix(1,0,0,1,0,-0.273)">
			<path class="st0" d="M942.1,318.4L734.9,111.3L942.1-95.8l207.1,207.1L942.1,318.4z M943.8-101c-1-1-2.5-1-3.5,0L729.8,109.6
				c-0.9,1-0.9,2.5,0,3.4l210.6,210.6c0.5,0.4,1.1,0.7,1.7,0.7c0.6,0,1.3-0.3,1.7-0.7L1154.4,113c0.5-0.5,0.7-1.1,0.7-1.7
				c0-0.6-0.3-1.3-0.7-1.7L943.8-101z"/>
		</g>
		<g transform="matrix(1,0,0,1,0,0.006)">
			<path class="st0" d="M1029.5,198.5c-23.4,23.4-54.4,36.2-87.5,36.2c-33,0-64.1-12.9-87.4-36.2c-23.4-23.4-36.2-54.4-36.2-87.5
				c0-33,12.8-64.1,36.2-87.5C878,0.2,909-12.6,942-12.6c33,0,64.1,12.9,87.5,36.2c23.4,23.4,36.2,54.4,36.2,87.5
				C1065.7,144.1,1052.9,175.1,1029.5,198.5 M942-17.5c-34.3,0-66.6,13.4-90.9,37.7c-24.3,24.3-37.6,56.6-37.6,90.9
				c0,34.4,13.4,66.6,37.6,90.9c24.3,24.3,56.6,37.7,90.9,37.7c34.4,0,66.6-13.4,90.9-37.7c24.3-24.3,37.7-56.6,37.7-90.9
				c0-34.3-13.4-66.6-37.7-90.9C1008.7-4.1,976.4-17.5,942-17.5"/>
		</g>
		<g transform="matrix(1,0,0,1,0,-413.982)">
			<path class="st0" d="M942.1,312c-1.3,0-2.4,1.1-2.4,2.4v84.5c0,1.3,1.1,2.4,2.4,2.4s2.4-1.1,2.4-2.4v-84.5
				C944.5,313.1,943.4,312,942.1,312"/>
		</g>
		<g transform="matrix(1,0,0,1,0,414.555)">
			<path class="st0" d="M942.1-179.6c-1.3,0-2.4,1.1-2.4,2.4v84.5c0,1.3,1.1,2.4,2.4,2.4s2.4-1.1,2.4-2.4v-84.5
				C944.5-178.5,943.4-179.6,942.1-179.6"/>
		</g>
		<g transform="matrix(1,0,0,1,0,0.297)">
			<path class="st0" d="M1152.7,108.4h-84.5c-1.3,0-2.4,1.1-2.4,2.4c0,1.3,1.1,2.4,2.4,2.4h84.5c1.3,0,2.4-1.1,2.4-2.4
				C1155.2,109.5,1154.1,108.4,1152.7,108.4"/>
		</g>
		<g transform="matrix(1,0,0,1,0,0.297)">
			<path class="st0" d="M815.8,108.4h-84.5c-1.3,0-2.4,1.1-2.4,2.4c0,1.3,1.1,2.4,2.4,2.4h84.5c1.3,0,2.4-1.1,2.4-2.4
				C818.3,109.5,817.2,108.4,815.8,108.4"/>
		</g>
		<g transform="matrix(1,0,0,1,0,-292.935)">
			<path class="st0" d="M1089.3,253.4l-59.7,59.7c-0.9,0.9-0.9,2.5,0,3.4c0.5,0.5,1.1,0.7,1.7,0.7c0.6,0,1.3-0.2,1.7-0.7l59.7-59.7
				c0.9-1,0.9-2.5,0-3.4C1091.8,252.5,1090.3,252.5,1089.3,253.4"/>
		</g>
		<g transform="matrix(1,0,0,1,0,292.954)">
			<path class="st0" d="M851.1-94.3l-59.7,59.7c-1,0.9-1,2.5,0,3.4c0.5,0.5,1.1,0.7,1.7,0.7c0.6,0,1.2-0.2,1.7-0.7l59.7-59.7
				c1-0.9,1-2.5,0-3.4C853.6-95.2,852-95.2,851.1-94.3"/>
		</g>
		<g transform="matrix(1,0,0,1,0,292.954)">
			<path class="st0" d="M1033-94.3c-1-0.9-2.5-0.9-3.4,0c-1,0.9-1,2.5,0,3.4l59.7,59.7c0.5,0.5,1.1,0.7,1.7,0.7
				c0.6,0,1.3-0.2,1.7-0.7c1-1,1-2.5,0-3.4L1033-94.3z"/>
		</g>
		<g transform="matrix(1,0,0,1,0,-292.935)">
			<path class="st0" d="M794.8,253.4c-0.9-1-2.5-1-3.4,0c-1,1-1,2.5,0,3.4l59.7,59.7c0.5,0.5,1.1,0.7,1.7,0.7c0.6,0,1.2-0.2,1.7-0.7
				c0.9-0.9,0.9-2.5,0-3.4L794.8,253.4z"/>
		</g>
		<g transform="matrix(1,0,0,1,0,-174.907)">
			<path class="st0" d="M888.8,236.9c-0.9,0-1.8-0.5-2.2-1.4c-1.8-3.9-2.7-8.1-2.7-12.5c0-16.7,13.6-30.3,30.3-30.3
				c16.7,0,30.3,13.6,30.3,30.3c0,1.3-1.1,2.4-2.4,2.4c-1.3,0-2.4-1.1-2.4-2.4c0-14.1-11.4-25.5-25.5-25.5
				c-14.1,0-25.5,11.4-25.5,25.5c0,3.7,0.8,7.2,2.3,10.5c0.5,1.2,0,2.6-1.2,3.1C889.4,236.8,889.1,236.9,888.8,236.9"/>
		</g>
		<g transform="matrix(1,0,0,1,0,-49.865)">
			<path class="st0" d="M888.4,151.3c-10.4,0-18.9-8.5-18.9-18.9c0-1.3,1.1-2.4,2.4-2.4c1.3,0,2.4,1.1,2.4,2.4
				c0,7.8,6.3,14.2,14.2,14.2c5.7,0,10.8-3.4,13-8.7c0.5-1.2,1.9-1.8,3.1-1.3c1.2,0.5,1.8,1.9,1.3,3.1
				C902.8,146.7,896,151.3,888.4,151.3"/>
		</g>
		<g transform="matrix(1,0,0,1,0,71.79)">
			<path class="st0" d="M893.5,108.5c-12.2,0-23.7-4.8-32.3-13.4c-8.6-8.6-13.4-20.1-13.4-32.3c0-6.5,1.3-12.8,4-18.6
				c2.5-5.7,6.2-10.7,10.8-14.9c1-0.9,2.4-0.8,3.3,0.1c0.9,1,0.8,2.4-0.1,3.3c-4.1,3.8-7.4,8.3-9.6,13.4c-2.4,5.3-3.5,10.9-3.5,16.7
				c0,10.9,4.3,21.2,12,29c7.7,7.7,18,12,28.9,12c4.3,0,8.5-0.7,12.6-2c1.2-0.4,2.6,0.3,3,1.5c0.4,1.2-0.3,2.6-1.5,3
				C903,107.8,898.3,108.5,893.5,108.5"/>
		</g>
		<g transform="matrix(1,0,0,1,0,39.08)">
			<path class="st0" d="M868.2,106.3c-0.8,0-1.7-0.5-2.1-1.2c-2.7-5-3.8-10.7-3-16.3c1-7.5,5-14.2,11.2-18.6
				c1.1-0.8,2.6-0.5,3.3,0.6c0.8,1.1,0.5,2.5-0.6,3.3c-5.1,3.6-8.4,9.2-9.2,15.3c-0.6,4.7,0.3,9.3,2.5,13.5c0.6,1.2,0.2,2.6-1,3.2
				C869,106.2,868.6,106.3,868.2,106.3"/>
		</g>
		<g transform="matrix(1,0,0,1,0,191.52)">
			<path class="st0" d="M908.8,13c-8,0-15.7-2.9-21.7-8.2c-5.9-5.2-9.8-12.4-10.8-20.2c-0.2-1.3,0.7-2.5,2-2.7
				c1.3-0.2,2.5,0.7,2.7,2c0.9,6.7,4.2,12.8,9.2,17.3c5.1,4.5,11.7,7,18.6,7c4.7,0,9.3-1.2,13.4-3.4c1.2-0.6,2.6-0.2,3.2,0.9
				c0.6,1.1,0.2,2.6-0.9,3.2C919.7,11.7,914.3,13,908.8,13"/>
		</g>
		<g transform="matrix(1,0,0,1,0,-6.586)">
			<path class="st0" d="M942.1,177.6c-1.3,0-2.4-1.1-2.4-2.4V54.7c0-1.3,1.1-2.4,2.4-2.4c1.3,0,2.4,1.1,2.4,2.4v120.5
				C944.5,176.5,943.4,177.6,942.1,177.6"/>
		</g>
		<g transform="matrix(1,0,0,1,0,194.542)">
			<path class="st0" d="M928,19.5c-6.3,0-12.1-3.7-14.8-9.4c-0.6-1.2-0.1-2.6,1.1-3.1c1.2-0.6,2.6-0.1,3.2,1.1
				c1.9,4.1,6.1,6.7,10.5,6.7c6.4,0,11.7-5.2,11.7-11.7v-29c0-1.3,1.1-2.4,2.4-2.4c1.3,0,2.4,1.1,2.4,2.4v29
				C944.5,12.1,937.1,19.5,928,19.5"/>
		</g>
		<g transform="matrix(1,0,0,1,0,-173.876)">
			<path class="st0" d="M898.5,225c-1.3,0-2.4-1.1-2.4-2.4c0-10.5,8.6-19.1,19.1-19.1c1.3,0,2.4,1.1,2.4,2.4c0,1.3-1.1,2.4-2.4,2.4
				c-7.9,0-14.4,6.5-14.4,14.4C900.9,223.9,899.8,225,898.5,225"/>
		</g>
		<g transform="matrix(1,0,0,1,0,-105.346)">
			<path class="st0" d="M912.9,184.2C912.8,184.2,912.8,184.2,912.9,184.2c-1.4,0-2.4-1.1-2.4-2.5c0.1-3.1-0.8-6.1-2.6-8.7
				c-1.7-2.5-4.3-4.4-7.1-5.4c-1.2-0.4-1.9-1.8-1.5-3c0.4-1.2,1.8-1.9,3-1.5c3.8,1.3,7.1,3.8,9.4,7.1c2.4,3.4,3.6,7.4,3.4,11.6
				C915.2,183.2,914.1,184.2,912.9,184.2"/>
		</g>
		<g transform="matrix(1,0,0,1,0,-3.547)">
			<path class="st0" d="M928.1,122.9c-1.3,0-2.4-1.1-2.4-2.4c0-6.8-5.5-12.3-12.3-12.3c-1.3,0-2.4-1.1-2.4-2.4
				c0-1.3,1.1-2.4,2.4-2.4c9.4,0,17.1,7.7,17.1,17.1C930.5,121.8,929.4,122.9,928.1,122.9"/>
		</g>
		<g transform="matrix(1,0,0,1,0,81.413)">
			<path class="st0" d="M884.3,81c-0.7,0-1.3-0.3-1.8-0.8c-3.4-3.9-5.3-9-5.3-14.2c0-11.9,9.7-21.6,21.6-21.6c3.8,0,7.5,1,10.8,2.9
				c1.1,0.7,1.5,2.1,0.9,3.2c-0.7,1.1-2.1,1.5-3.2,0.9c-2.5-1.5-5.4-2.2-8.4-2.2c-9.3,0-16.9,7.6-16.9,16.9c0,4.1,1.5,8,4.1,11.1
				c0.9,1,0.8,2.5-0.2,3.3C885.4,80.8,884.9,81,884.3,81"/>
		</g>
		<g transform="matrix(1,0,0,1,0,93.563)">
			<path class="st0" d="M904.2,71.7c-1.2,0-2.2-0.8-2.3-2c-0.2-1.3,0.7-2.5,2-2.7c13.1-1.9,22.4-13,20.7-24.7
				c-0.2-1.3,0.7-2.5,2-2.7c1.3-0.2,2.5,0.7,2.7,2c1,6.9-1,13.9-5.7,19.6c-4.7,5.6-11.4,9.3-19,10.5
				C904.4,71.7,904.3,71.7,904.2,71.7"/>
		</g>
		<g transform="matrix(1,0,0,1,0,78.39)">
			<path class="st0" d="M902.4,76.6c-1.3,0-2.4-1.1-2.4-2.4c0-8-5.4-15-13.2-16.8c-1.3-0.3-2.1-1.6-1.7-2.9c0.3-1.3,1.6-2.1,2.9-1.7
				c4.7,1.2,9,3.9,12,7.7c3.1,3.9,4.8,8.7,4.8,13.7C904.8,75.5,903.7,76.6,902.4,76.6"/>
		</g>
		<g transform="matrix(1,0,0,1,0,177.3)">
			<path class="st0" d="M914.5,12.3c-2.3,0-4.5-0.5-6.6-1.5c-1.2-0.5-1.7-2-1.2-3.1c0.5-1.2,2-1.7,3.1-1.2c1.8,0.9,3.8,1.2,5.8,0.9
				c3.8-0.4,7.2-2.9,8.8-6.4c0.5-1.2,1.9-1.7,3.1-1.2c1.2,0.5,1.7,1.9,1.2,3.1c-2.3,5-7.1,8.6-12.6,9.2
				C915.7,12.3,915.1,12.3,914.5,12.3"/>
		</g>
		<g transform="matrix(1,0,0,1,0,160.062)">
			<path class="st0" d="M918.5,29c-0.9,0-1.7-0.5-2.1-1.4c-0.8-1.7-1.3-3.5-1.5-5.4c-0.5-4.5,0.8-9,3.6-12.5
				c2.9-3.6,6.9-5.8,11.4-6.3c1.8-0.2,3.7-0.1,5.5,0.3c1.3,0.3,2.1,1.6,1.8,2.8c-0.3,1.3-1.5,2.1-2.8,1.8c-1.3-0.3-2.7-0.4-4-0.2
				c-3.3,0.4-6.2,2-8.3,4.5c-2.1,2.6-3,5.8-2.6,9.1c0.1,1.4,0.5,2.7,1.1,3.9c0.6,1.2,0,2.6-1.1,3.2C919.1,28.9,918.8,29,918.5,29"/>
		</g>
		<g transform="matrix(1,0,0,1,0,-121.894)">
			<path class="st0" d="M933.4,201.6c-0.6,0-1.2-0.2-1.7-0.7c-3.5-3.6-5.7-10.6-5.7-18.1c0-6.4,1.5-12.3,4.2-16.2
				c0.7-1.1,2.2-1.4,3.3-0.6c1.1,0.7,1.3,2.2,0.6,3.3c-2.1,3.1-3.4,8.2-3.4,13.6c0,6.2,1.7,12,4.4,14.8c0.9,0.9,0.9,2.4-0.1,3.3
				C934.6,201.3,934,201.6,933.4,201.6"/>
		</g>
		<g transform="matrix(1,0,0,1,0,-137.163)">
			<path class="st0" d="M928.2,199.5L928.2,199.5c-5.6-0.2-9.9-5.4-9.8-11.8c0-1.3,1.1-2.3,2.4-2.3h0.1c1.3,0,2.3,1.1,2.3,2.4
				c-0.1,3.7,2.2,6.8,5.1,6.9c1.3,0,2.3,1.1,2.3,2.4C930.5,198.4,929.4,199.5,928.2,199.5"/>
		</g>
		<g transform="matrix(1,0,0,1,0,-46.544)">
			<path class="st0" d="M886.3,146.7c-0.5,0-1.1-0.2-1.5-0.6c-1-0.8-1.1-2.3-0.3-3.3c2.2-2.6,2.3-6.1,0.3-7.8
				c-1-0.8-1.1-2.3-0.3-3.3c0.8-1,2.3-1.1,3.3-0.3c4,3.4,4.1,9.9,0.3,14.5C887.6,146.4,886.9,146.7,886.3,146.7"/>
		</g>
		<g transform="matrix(1,0,0,1,0,-67.205)">
			<path class="st0" d="M900.6,176.3c0-0.3-0.1-0.7-0.2-1c-0.5-1.2-1.9-1.7-3.1-1.2c-3.3,1.5-6.9,2.3-10.5,2.3
				c-14.1,0-25.5-11.5-25.5-25.5c0-14.1,11.5-25.5,25.5-25.5c1.3,0,2.4-1.1,2.4-2.4c0-1.3-1.1-2.4-2.4-2.4
				c-16.7,0-30.3,13.6-30.3,30.3c0,16.7,13.6,30.3,30.3,30.3c4.4,0,8.6-0.9,12.5-2.7C900.1,178.1,900.6,177.2,900.6,176.3"/>
		</g>
		<g transform="matrix(1,0,0,1,0,-174.907)">
			<path class="st0" d="M995.4,236.9c-0.3,0-0.7-0.1-1-0.2c-1.2-0.5-1.7-1.9-1.2-3.1c1.5-3.3,2.3-6.9,2.3-10.5
				c0-14.1-11.4-25.5-25.5-25.5c-14.1,0-25.5,11.4-25.5,25.5c0,1.3-1.1,2.4-2.4,2.4c-1.3,0-2.4-1.1-2.4-2.4
				c0-16.7,13.6-30.3,30.3-30.3c16.7,0,30.3,13.6,30.3,30.3c0,4.4-0.9,8.6-2.7,12.5C997.2,236.4,996.3,236.9,995.4,236.9"/>
		</g>
		<g transform="matrix(1,0,0,1,0,-67.205)">
			<path class="st0" d="M983.6,176.3c0-0.3,0.1-0.7,0.2-1c0.5-1.2,1.9-1.7,3.1-1.2c3.3,1.5,6.9,2.3,10.5,2.3
				c14.1,0,25.5-11.5,25.5-25.5c0-14.1-11.5-25.5-25.5-25.5c-1.3,0-2.4-1.1-2.4-2.4c0-1.3,1.1-2.4,2.4-2.4
				c16.7,0,30.3,13.6,30.3,30.3c0,16.7-13.6,30.3-30.3,30.3c-4.4,0-8.6-0.9-12.5-2.7C984.1,178.1,983.6,177.2,983.6,176.3"/>
		</g>
		<g transform="matrix(1,0,0,1,0,-49.865)">
			<path class="st0" d="M995.8,151.3c-7.6,0-14.4-4.5-17.4-11.5c-0.5-1.2,0.1-2.6,1.3-3.1c1.2-0.5,2.6,0.1,3.1,1.3
				c2.2,5.3,7.3,8.7,13,8.7c7.8,0,14.2-6.4,14.2-14.2c0-1.3,1.1-2.4,2.4-2.4c1.3,0,2.4,1.1,2.4,2.4
				C1014.7,142.8,1006.2,151.3,995.8,151.3"/>
		</g>
		<g transform="matrix(1,0,0,1,0,71.79)">
			<path class="st0" d="M990.7,108.5c-4.8,0-9.5-0.8-14.1-2.2c-1.2-0.4-1.9-1.7-1.5-3c0.4-1.3,1.7-1.9,3-1.5c4.1,1.3,8.3,2,12.6,2
				c10.9,0,21.2-4.2,29-12c7.7-7.7,12-18,12-29c0-5.8-1.2-11.4-3.5-16.7c-2.3-5.1-5.5-9.6-9.6-13.4c-1-0.9-1-2.4-0.1-3.3
				c0.9-1,2.4-1,3.3-0.1c4.6,4.2,8.2,9.3,10.8,14.9c2.6,5.9,4,12.2,4,18.6c0,12.2-4.7,23.7-13.4,32.3
				C1014.3,103.8,1002.9,108.5,990.7,108.5"/>
		</g>
		<g transform="matrix(1,0,0,1,0,39.08)">
			<path class="st0" d="M1015.9,106.3c-0.4,0-0.8-0.1-1.1-0.3c-1.1-0.6-1.6-2.1-0.9-3.2c2.2-4.1,3.1-8.8,2.5-13.5
				c-0.8-6.2-4.2-11.8-9.2-15.3c-1.1-0.8-1.3-2.2-0.6-3.3c0.7-1.1,2.2-1.3,3.3-0.6c6.1,4.4,10.2,11.1,11.2,18.6
				c0.7,5.7-0.3,11.3-3,16.3C1017.6,105.9,1016.8,106.3,1015.9,106.3"/>
		</g>
		<g transform="matrix(1,0,0,1,0,191.52)">
			<path class="st0" d="M975.4,13c-5.5,0-10.9-1.4-15.7-4c-1.1-0.6-1.6-2.1-0.9-3.2c0.6-1.1,2.1-1.6,3.2-0.9
				c4.1,2.2,8.7,3.4,13.4,3.4c6.8,0,13.4-2.5,18.5-7c5.1-4.5,8.4-10.6,9.2-17.3c0.2-1.3,1.4-2.2,2.7-2c1.3,0.2,2.2,1.4,2,2.7
				c-1,7.8-4.9,15-10.8,20.2C991.1,10.1,983.3,13,975.4,13"/>
		</g>
		<g transform="matrix(1,0,0,1,0,-6.586)">
			<path class="st0" d="M942.1,177.6c-1.3,0-2.4-1.1-2.4-2.4V54.7c0-1.3,1.1-2.4,2.4-2.4c1.3,0,2.4,1.1,2.4,2.4v120.5
				C944.5,176.5,943.4,177.6,942.1,177.6"/>
		</g>
		<g transform="matrix(1,0,0,1,0,194.542)">
			<path class="st0" d="M956.1,19.5c-9.1,0-16.4-7.4-16.4-16.4v-29c0-1.3,1.1-2.4,2.4-2.4c1.3,0,2.4,1.1,2.4,2.4v29
				c0,6.4,5.2,11.7,11.7,11.7c4.5,0,8.6-2.6,10.5-6.7c0.6-1.2,2-1.7,3.2-1.1c1.2,0.6,1.7,2,1.1,3.1
				C968.2,15.8,962.4,19.5,956.1,19.5"/>
		</g>
		<g transform="matrix(1,0,0,1,0,-173.876)">
			<path class="st0" d="M985.7,225c-1.3,0-2.4-1.1-2.4-2.4c0-7.9-6.5-14.4-14.4-14.4c-1.3,0-2.4-1.1-2.4-2.4c0-1.3,1.1-2.4,2.4-2.4
				c10.5,0,19.1,8.6,19.1,19.1C988,223.9,987,225,985.7,225"/>
		</g>
		<g transform="matrix(1,0,0,1,0,-105.346)">
			<path class="st0" d="M971.3,184.2c-1.3,0-2.3-1-2.4-2.3c-0.1-4.2,1.1-8.2,3.4-11.6c2.3-3.3,5.7-5.8,9.4-7.1
				c1.2-0.4,2.6,0.2,3,1.5c0.4,1.2-0.2,2.6-1.5,3c-2.8,1-5.4,2.9-7.1,5.4c-1.8,2.5-2.7,5.6-2.6,8.7
				C973.7,183.1,972.7,184.2,971.3,184.2C971.4,184.2,971.3,184.2,971.3,184.2"/>
		</g>
		<g transform="matrix(1,0,0,1,0,-3.547)">
			<path class="st0" d="M956.1,122.9c-1.3,0-2.4-1.1-2.4-2.4c0-9.4,7.7-17.1,17.1-17.1c1.3,0,2.4,1.1,2.4,2.4c0,1.3-1.1,2.4-2.4,2.4
				c-6.8,0-12.3,5.5-12.3,12.3C958.5,121.8,957.4,122.9,956.1,122.9"/>
		</g>
		<g transform="matrix(1,0,0,1,0,81.413)">
			<path class="st0" d="M999.8,81c-0.5,0-1.1-0.2-1.6-0.6c-1-0.9-1.1-2.4-0.2-3.3c2.7-3.1,4.1-7,4.1-11.1c0-9.3-7.6-16.9-16.9-16.9
				c-2.9,0-5.9,0.8-8.4,2.2c-1.1,0.6-2.6,0.3-3.2-0.9c-0.7-1.1-0.3-2.6,0.9-3.2c3.3-1.9,7-2.9,10.7-2.9c11.9,0,21.6,9.7,21.6,21.6
				c0,5.2-1.9,10.3-5.3,14.2C1001.2,80.8,1000.5,81,999.8,81"/>
		</g>
		<g transform="matrix(1,0,0,1,0,93.563)">
			<path class="st0" d="M980,71.7c-0.1,0-0.2,0-0.3,0c-7.6-1.1-14.3-4.8-18.9-10.5c-4.7-5.7-6.8-12.7-5.7-19.6
				c0.2-1.3,1.4-2.2,2.7-2c1.3,0.2,2.2,1.4,2,2.7C958,53.9,967.2,65,980.4,67c1.3,0.2,2.2,1.4,2,2.7C982.2,70.8,981.2,71.7,980,71.7
				"/>
		</g>
		<g transform="matrix(1,0,0,1,0,78.39)">
			<path class="st0" d="M981.7,76.6c-1.3,0-2.4-1.1-2.4-2.4c0-5,1.7-9.8,4.8-13.7c3-3.8,7.3-6.6,12-7.7c1.3-0.3,2.6,0.5,2.9,1.7
				c0.3,1.3-0.5,2.6-1.7,2.9c-7.8,1.9-13.2,8.8-13.2,16.8C984.1,75.5,983,76.6,981.7,76.6"/>
		</g>
		<g transform="matrix(1,0,0,1,0,177.3)">
			<path class="st0" d="M969.6,12.3c-0.6,0-1.2,0-1.7-0.1c-5.5-0.6-10.3-4.1-12.6-9.2c-0.5-1.2,0-2.6,1.2-3.1c1.2-0.5,2.6,0,3.1,1.2
				c1.6,3.5,4.9,6,8.8,6.4c2,0.2,4-0.1,5.8-0.9c1.2-0.6,2.6,0,3.1,1.2c0.5,1.2,0,2.6-1.1,3.1C974.2,11.8,971.9,12.3,969.6,12.3"/>
		</g>
		<g transform="matrix(1,0,0,1,0,160.062)">
			<path class="st0" d="M965.7,29c-0.3,0-0.7-0.1-1-0.2c-1.2-0.6-1.7-2-1.1-3.2c0.6-1.2,0.9-2.5,1.1-3.9c0.4-3.3-0.6-6.5-2.6-9.1
				c-2.1-2.6-5-4.2-8.3-4.5c-1.3-0.2-2.7-0.1-4,0.2c-1.3,0.3-2.5-0.5-2.8-1.8c-0.3-1.3,0.5-2.5,1.8-2.8c1.8-0.4,3.7-0.5,5.5-0.3
				c4.5,0.5,8.6,2.7,11.5,6.3c2.8,3.6,4.1,8,3.6,12.5c-0.2,1.9-0.7,3.7-1.5,5.4C967.5,28.5,966.6,29,965.7,29"/>
		</g>
		<g transform="matrix(1,0,0,1,0,-121.894)">
			<path class="st0" d="M950.7,201.6c-0.6,0-1.2-0.2-1.6-0.7c-1-0.9-1-2.4-0.1-3.3c2.7-2.8,4.4-8.6,4.4-14.8
				c0-5.4-1.3-10.4-3.4-13.6c-0.7-1.1-0.5-2.6,0.6-3.3c1.1-0.7,2.6-0.5,3.3,0.6c2.7,3.9,4.2,9.8,4.2,16.2c0,7.5-2.2,14.4-5.7,18.1
				C952,201.3,951.3,201.6,950.7,201.6"/>
		</g>
		<g transform="matrix(1,0,0,1,0,-137.204)">
			<path class="st0" d="M956,199.5c-1.3,0-2.3-1-2.4-2.3c0-1.3,1-2.4,2.3-2.4c2.9-0.1,5.2-3.2,5.1-6.9c0-1.3,1-2.4,2.3-2.4
				c1.3,0,2.4,1,2.4,2.3C965.9,194.1,961.6,199.3,956,199.5L956,199.5z"/>
		</g>
		<g transform="matrix(1,0,0,1,0,-46.544)">
			<path class="st0" d="M997.9,146.7c-0.7,0-1.3-0.3-1.8-0.8c-3.9-4.6-3.7-11.1,0.3-14.5c1-0.8,2.5-0.7,3.3,0.3
				c0.8,1,0.7,2.5-0.3,3.3c-2,1.7-1.9,5.2,0.3,7.8c0.8,1,0.7,2.5-0.3,3.3C999,146.6,998.4,146.7,997.9,146.7"/>
		</g>
	</g>
	<g transform="matrix(1,0,0,1,0,3.471)">
		<g>
			<path class="st1" d="M97.4,293.7c-2.4-5.5-5.8-10.4-9.8-14.5c-8.8-9.1-20.9-14.5-34.3-14.5c-13.4,0-25.5,5.5-34.3,14.5
				c-8.8,9.1-14.2,21.4-14.2,34.9c0,13.7,5.5,26,14.2,34.9c8.8,9.1,20.9,14.7,34.3,14.7c13.4,0,25.5-5.6,34.3-14.7
				c4-4.2,7.4-8.9,9.8-14.4h2.5c-2.5,6.1-6.2,11.6-10.7,16.2C80,360.2,67.4,366,53.3,366c-14.1,0-26.7-5.8-35.9-15.3
				C8.3,341.4,2.5,328.4,2.5,314c0-14.3,5.8-27.2,14.9-36.5c9.2-9.5,21.8-15.3,35.9-15.3c14.1,0,26.7,5.8,35.9,15.3
				c4.5,4.6,8.2,10.1,10.7,16.2H97.4z"/>
			<path class="st1" d="M53.3,368.5c-14.3,0-27.7-5.7-37.7-16C5.5,342.1,0,328.5,0,314c0-14.3,5.5-27.9,15.6-38.3
				c10-10.4,23.4-16.1,37.7-16.1c14.3,0,27.7,5.7,37.7,16.1c4.8,4.9,8.6,10.8,11.2,17l1.4,3.5h-7.9l-0.7-1.5
				c-2.2-5-5.3-9.6-9.3-13.8c-8.6-8.9-20.1-13.8-32.5-13.8c-12.4,0-23.9,4.9-32.5,13.8c-8.7,9-13.5,20.8-13.5,33.1
				c0,12.5,4.8,24.3,13.5,33.1c8.7,9,20.2,14,32.5,14s23.8-4.9,32.5-13.9c4.1-4.2,7.2-8.8,9.3-13.6l0.7-1.5h7.9l-1.4,3.5
				c-2.6,6.2-6.4,12-11.2,17C81,362.8,67.6,368.5,53.3,368.5z"/>
		</g>
	</g>
	<g transform="matrix(1,0,0,1,0,3.076)">
		<g>
			<path class="st1" d="M200.2,278.4c-9.2-9.3-22-15.1-35.9-15.1c-14,0-26.6,5.8-35.8,15.1c-9.1,9.2-14.8,21.8-14.8,35.9
				c0,14.1,5.8,26.7,14.8,35.9c9.2,9.4,21.8,15.1,35.8,15.1c14,0,26.7-5.8,35.9-15.1c9.1-9.2,14.7-21.8,14.7-35.9
				C214.9,300.2,209.3,287.6,200.2,278.4 M126.9,276.6c9.5-9.8,22.9-15.7,37.4-15.7c14.7,0,27.9,5.9,37.6,15.7
				c9.5,9.6,15.6,23,15.6,37.7c0,14.7-6.1,28.1-15.6,37.7c-9.6,9.8-22.9,15.7-37.6,15.7c-14.5,0-27.9-5.9-37.4-15.7
				c-9.5-9.7-15.6-23-15.6-37.7C111.3,299.6,117.4,286.2,126.9,276.6"/>
			<path class="st1" d="M164.3,370.2c-14.8,0-29-6-39.2-16.5c-10.5-10.7-16.3-24.7-16.3-39.4c0-14.8,5.8-28.8,16.3-39.4
				c10.2-10.5,24.4-16.5,39.2-16.5c14.9,0,28.9,5.9,39.3,16.5c10.5,10.7,16.3,24.7,16.3,39.5s-5.8,28.8-16.3,39.5
				C193.2,364.4,179.2,370.2,164.3,370.2z M164.3,265.7c-12.8,0-24.9,5.1-34,14.4c-9.1,9.3-14.1,21.4-14.1,34.2
				c0,12.8,5,24.9,14.1,34.2c9.1,9.3,21.2,14.4,34,14.4c12.9,0,25-5.1,34.1-14.4c9-9.2,14-21.3,14-34.2c0-12.9-5-25-14-34.2h0
				C189.3,270.8,177.2,265.7,164.3,265.7z"/>
		</g>
	</g>
	<g transform="matrix(1,0,0,1,0,3.475)">
		<g>
			<path class="st1" d="M325.5,293.1c-7.1-18.6-24.9-29.7-44.1-29.7c-13.5,0-25.5,5.8-34.4,15c-8.6,9.2-14.1,21.7-14.1,35.6
				c0,14,5.5,26.6,14.1,35.6c8.9,9.4,20.9,15,34.4,15c20.8,0,42.9-16.5,46.8-38.4h-45.9v-2.4h48.8c-0.3,3.6-1.2,7-2.5,10.4
				c-6.8,19-28.6,33-47.2,33c-14.1,0-26.9-6.1-36.1-15.7c-9.1-9.5-14.8-22.7-14.8-37.4c0-14.5,5.8-27.8,14.8-37.4
				c9.2-9.6,22-15.6,36.1-15.6c20.5,0,39.8,12.3,46.6,32.1H325.5z"/>
			<path class="st1" d="M281.4,369.7c-14.3,0-27.7-5.9-37.9-16.5c-10-10.5-15.5-24.4-15.5-39.1c0-14.6,5.5-28.4,15.5-39.1
				c10.1-10.6,23.5-16.4,37.9-16.4c22.3,0,42,13.6,49,33.7l1.1,3.3h-7.8l-0.6-1.6c-6.5-17.1-22.9-28.1-41.8-28.1
				c-12.2,0-23.8,5.1-32.6,14.2c-8.6,9.2-13.4,21.3-13.4,33.9c0,12.8,4.8,24.8,13.4,33.9c8.7,9.2,20.3,14.2,32.6,14.2
				c19.5,0,38.8-15,43.7-33.4h-45.3v-7.4h54.1l-0.2,2.7c-0.3,3.6-1.2,7.3-2.7,11.1C324.1,354.2,301.9,369.7,281.4,369.7z"/>
		</g>
	</g>
	<g transform="matrix(1,0,0,1,0,2.939)">
		<g>
			<path class="st1" d="M347.9,366.4V262.3l2.1,0.2l69,99.8v-99.8h2.2v103.9h-2.4l-68.6-99.2v99.2H347.9z"/>
			<polygon class="st1" points="421.5,370.2 420.6,368.9 417.6,368.9 352.8,275.2 352.8,368.9 345.4,368.9 345.4,259.6 347.8,259.8 
				347.8,259.2 348.2,259.8 351.4,260.1 416.5,354.2 416.5,260 423.7,260 423.7,368.9 421.5,368.9 			"/>
		</g>
	</g>
	<g transform="matrix(1,0,0,1,0,3.211)">
		<g>
			<path class="st1" d="M481.4,264.4h-22.1v99.5h22.1v2.2H435v-2.2h22.1v-99.5H435v-2.1h46.5V264.4z"/>
			<polygon class="st1" points="483.9,368.6 432.5,368.6 432.5,361.4 454.6,361.4 454.6,266.9 432.5,266.9 432.5,259.9 483.9,259.9 
				483.9,266.9 461.8,266.9 461.8,361.4 483.9,361.4 			"/>
		</g>
	</g>
	<g transform="matrix(1,0,0,1,0,3.211)">
		<g>
			<path class="st1" d="M495.8,262.4h73.3l1.6,2.7l-75.3,98.9H571v2.2h-77.2l-1.3-2.1l75.4-99.3h-72.1V262.4z"/>
			<polygon class="st1" points="573.5,368.6 492.5,368.6 491,366.4 490.4,366.4 490.8,366 489.5,363.9 562.9,267.2 493.3,267.2 
				493.3,259.9 570.5,259.9 572,262.2 572.9,262.2 572.4,263 573.8,265.2 500.5,361.4 573.5,361.4 			"/>
		</g>
	</g>
	<g transform="matrix(1,0,0,1,0,3.076)">
		<g>
			<path class="st1" d="M660.3,278.4c-9.2-9.3-22-15.1-35.9-15.1c-14,0-26.6,5.8-35.8,15.1c-9.1,9.2-14.8,21.8-14.8,35.9
				c0,14.1,5.8,26.7,14.8,35.9c9.2,9.4,21.8,15.1,35.8,15.1c14,0,26.7-5.8,35.9-15.1c9.1-9.2,14.7-21.8,14.7-35.9
				C675,300.2,669.4,287.6,660.3,278.4 M587,276.6c9.5-9.8,22.9-15.7,37.4-15.7c14.7,0,27.9,5.9,37.6,15.7
				c9.5,9.6,15.6,23,15.6,37.7c0,14.7-6.1,28.1-15.6,37.7c-9.6,9.8-22.9,15.7-37.6,15.7c-14.6,0-27.9-5.9-37.4-15.7
				c-9.5-9.7-15.6-23-15.6-37.7C571.4,299.6,577.5,286.2,587,276.6"/>
			<path class="st1" d="M624.4,370.2c-14.7,0-29-6-39.2-16.5c-10.5-10.7-16.3-24.7-16.3-39.4c0-14.8,5.8-28.8,16.3-39.5
				c10.2-10.5,24.4-16.5,39.2-16.5c14.9,0,28.9,5.9,39.3,16.5c10.5,10.7,16.3,24.7,16.3,39.5s-5.8,28.8-16.3,39.5
				C653.3,364.4,639.3,370.2,624.4,370.2z M624.4,265.7c-12.8,0-24.9,5.1-34,14.4c-9.1,9.3-14.1,21.4-14.1,34.2
				c0,12.8,5,24.9,14.1,34.2c9.1,9.3,21.2,14.4,34,14.4c12.9,0,25-5.1,34.1-14.4c9-9.1,14-21.3,14-34.2c0-12.9-5-25-14-34.2
				C649.4,270.8,637.3,265.7,624.4,265.7z"/>
		</g>
	</g>
	<g transform="matrix(1,0,0,1,0,2.939)">
		<g>
			<path class="st1" d="M695.6,366.4V262.3l2.1,0.2l69,99.8v-99.8h2.2v103.9h-2.4L698,267.2v99.2H695.6z"/>
			<polygon class="st1" points="769.2,370.2 768.3,368.9 765.2,368.9 700.5,275.2 700.5,368.9 693.1,368.9 693.1,259.6 695.5,259.8 
				695.5,259.2 695.9,259.8 699.1,260.1 764.2,354.2 764.2,260 771.4,260 771.4,368.9 769.2,368.9 			"/>
		</g>
	</g>
	<g transform="matrix(1,0,0,1,0,3.211)">
		<g>
			<path class="st1" d="M794.4,363.9h55.2v2.2h-57.3H792V262.4h57.3v2.2h-54.9V313h53.7v2.4h-53.7V363.9z"/>
			<polygon class="st1" points="852.1,368.6 789.5,368.6 789.5,259.9 851.8,259.9 851.8,267.1 796.9,267.1 796.9,310.5 850.7,310.5 
				850.7,317.9 796.9,317.9 796.9,361.4 852.1,361.4 			"/>
		</g>
	</g>
</g>
</svg>
