<?xml version="1.0" encoding="utf-8"?>
<!-- Generator: Adobe Illustrator 22.1.0, SVG Export Plug-In . SVG Version: 6.00 Build 0)  -->
<svg version="1.1" id="Layer_1" xmlns="http://www.w3.org/2000/svg" xmlns:xlink="http://www.w3.org/1999/xlink" x="0px" y="0px"
	 viewBox="0 0 118.1 166.8" style="enable-background:new 0 0 118.1 166.8;" xml:space="preserve">
<style type="text/css">
	.st0{fill:#EE701E;}
	.st1{fill:#FDFDFB;}
	.st2{fill:none;stroke:#EE701E;stroke-width:7;stroke-miterlimit:10;}
	.st3{fill:#A24717;}
	.st4{font-family:'OpenSans-Bold';}
	.st5{font-size:28px;}
	.st6{font-size:11px;}
</style>
<title>ComPasMiddel 8</title>
<g id="Laag_2">
	<g id="Laag_1-2">
		<path class="st0" d="M87.6,32.4c0,0.8-0.3,1.6-0.7,2.3c-6,10.4-12.1,20.8-18.1,31.2c-0.3,0.5-0.7,1-1.3,1.3L35.8,85.6
			c-1.4,0.9-3.2,0.7-4.3-0.4c-1.1-1.1-1.3-2.7-0.3-4.5c2.7-4.8,5.5-9.5,8.3-14.3c3.2-5.6,6.5-11.2,9.7-16.8c0.4-0.8,1.1-1.5,1.9-2
			c10.4-6,20.7-12,31.1-18C84.7,28.1,87.6,29.5,87.6,32.4z"/>
		<path class="st1" d="M59,64c-3.4,0.1-6.3-2.7-6.3-6.1c0-0.1,0-0.2,0-0.4c0-3.5,2.8-6.4,6.3-6.4c0.1,0,0.1,0,0.2,0
			c3.6,0.1,6.4,3,6.4,6.5c0,3.5-2.9,6.4-6.4,6.3C59.1,64,59,64,59,64z"/>
		<circle class="st2" cx="59" cy="59" r="55.5"/>
		<text transform="matrix(1 0 0 1 3.56 142.37)" class="st3 st4 st5">ComPas</text>
		<text transform="matrix(1 0 0 1 4.45 155.57)" class="st3 st4 st6">IEDEREEN TELT MEE!</text>
	</g>
</g>
</svg>
