<?xml version="1.0" encoding="utf-8"?>
<!-- Generator: Adobe Illustrator 22.1.0, SVG Export Plug-In . SVG Version: 6.00 Build 0)  -->
<svg version="1.1" id="Laag_1" xmlns="http://www.w3.org/2000/svg" xmlns:xlink="http://www.w3.org/1999/xlink" x="0px" y="0px"
	 viewBox="0 0 112.3 21.5" style="enable-background:new 0 0 112.3 21.5;" xml:space="preserve">
<style type="text/css">
	.st0{fill:#33333C;}
	.st1{fill:#E62063;}
</style>
<g>
	<path class="st0" d="M9.7,3.7c-1.7,0-2.9,0.6-3.8,1.9c-0.9,1.2-1.4,3-1.4,5.2c0,4.6,1.7,6.9,5.2,6.9c1.5,0,3.2-0.4,5.3-1.1v3.7
		c-1.7,0.7-3.6,1.1-5.7,1.1c-3,0-5.3-0.9-6.9-2.7C0.8,16.7,0,14.1,0,10.7c0-2.2,0.4-4,1.2-5.7C2,3.4,3.1,2.2,4.6,1.3
		C6,0.4,7.7,0,9.7,0c2,0,4,0.5,6.1,1.5L14.4,5c-0.8-0.4-1.6-0.7-2.3-1S10.5,3.7,9.7,3.7z"/>
	<path class="st0" d="M51.2,21h-4.3v-9.2c0-1.1-0.2-2-0.6-2.6c-0.4-0.6-1-0.9-1.8-0.9c-1.1,0-1.9,0.4-2.4,1.2s-0.8,2.1-0.8,4V21H37
		V5.2h3.3l0.6,2h0.2c0.4-0.7,1-1.3,1.8-1.7c0.8-0.4,1.7-0.6,2.8-0.6c2.4,0,4,0.8,4.8,2.3h0.4c0.4-0.7,1.1-1.3,1.9-1.7
		c0.8-0.4,1.8-0.6,2.8-0.6c1.8,0,3.2,0.5,4.1,1.4c0.9,0.9,1.4,2.4,1.4,4.4V21h-4.3v-9.2c0-1.1-0.2-2-0.6-2.6c-0.4-0.6-1-0.9-1.8-0.9
		c-1.1,0-1.8,0.4-2.4,1.1c-0.5,0.8-0.8,2-0.8,3.6V21z"/>
	<path class="st0" d="M80.1,6.8c0,2.2-0.7,3.9-2.1,5.1c-1.4,1.2-3.4,1.8-5.9,1.8h-1.9V21h-4.4V0.3h6.6c2.5,0,4.4,0.5,5.7,1.6
		C79.5,3,80.1,4.6,80.1,6.8z M70.2,10h1.4c1.4,0,2.4-0.3,3-0.8c0.7-0.5,1-1.3,1-2.3c0-1-0.3-1.8-0.8-2.3s-1.4-0.7-2.6-0.7h-2V10z"/>
	<path class="st0" d="M93.8,21l-0.8-2.2h-0.1c-0.7,0.9-1.5,1.6-2.2,1.9c-0.8,0.4-1.8,0.5-3,0.5c-1.5,0-2.7-0.4-3.6-1.3
		c-0.9-0.9-1.3-2.1-1.3-3.7c0-1.7,0.6-2.9,1.8-3.7c1.2-0.8,2.9-1.2,5.3-1.3l2.7-0.1v-0.7C92.5,8.8,91.7,8,90,8
		c-1.3,0-2.8,0.4-4.5,1.1l-1.4-2.9c1.8-1,3.8-1.4,6.1-1.4c2.1,0,3.8,0.5,4.9,1.4s1.7,2.3,1.7,4.2V21H93.8z M92.5,13.7l-1.7,0.1
		c-1.3,0-2.2,0.3-2.8,0.7c-0.6,0.4-0.9,1-0.9,1.9c0,1.2,0.7,1.8,2.1,1.8c1,0,1.8-0.3,2.4-0.9c0.6-0.6,0.9-1.3,0.9-2.3V13.7z"/>
	<path class="st0" d="M112.3,16.3c0,1.6-0.6,2.9-1.7,3.7s-2.8,1.3-5.1,1.3c-1.2,0-2.1-0.1-2.9-0.2c-0.8-0.2-1.6-0.4-2.3-0.7v-3.6
		c0.8,0.4,1.7,0.7,2.7,0.9c1,0.3,1.9,0.4,2.7,0.4c1.6,0,2.4-0.5,2.4-1.4c0-0.3-0.1-0.6-0.3-0.8c-0.2-0.2-0.6-0.5-1.1-0.7
		c-0.5-0.3-1.2-0.6-2-0.9c-1.2-0.5-2.1-1-2.7-1.4c-0.6-0.4-1-0.9-1.2-1.5c-0.3-0.6-0.4-1.3-0.4-2.1c0-1.4,0.5-2.5,1.6-3.3
		c1.1-0.8,2.6-1.2,4.6-1.2c1.9,0,3.8,0.4,5.6,1.2l-1.3,3.1c-0.8-0.3-1.5-0.6-2.2-0.8c-0.7-0.2-1.4-0.3-2.1-0.3c-1.3,0-1.9,0.3-1.9,1
		c0,0.4,0.2,0.7,0.6,1c0.4,0.3,1.3,0.7,2.7,1.3c1.2,0.5,2.1,1,2.7,1.4c0.6,0.4,1,0.9,1.3,1.5C112.1,14.8,112.3,15.5,112.3,16.3z"/>
	<g>
		<path class="st1" d="M28.7,10.7c0,0.1,0,0.2-0.1,0.2c-0.6,1-1.2,2-1.7,3c0,0.1-0.1,0.1-0.1,0.1c-1,0.6-2,1.2-3.1,1.8
			c-0.1,0.1-0.3,0.1-0.4,0c-0.1-0.1-0.1-0.3,0-0.4c0.3-0.5,0.5-0.9,0.8-1.4c0.3-0.5,0.6-1.1,0.9-1.6c0-0.1,0.1-0.1,0.2-0.2
			c1-0.6,2-1.1,3-1.7C28.5,10.3,28.7,10.4,28.7,10.7z M26.6,13.1c0-0.3-0.3-0.6-0.6-0.6c-0.3,0-0.6,0.3-0.6,0.6
			c0,0.4,0.3,0.6,0.6,0.6C26.3,13.7,26.6,13.4,26.6,13.1z"/>
	</g>
	<g>
		<path class="st1" d="M26,21.5c-4.6,0-8.3-3.7-8.3-8.2S21.4,5,26,5s8.3,3.7,8.3,8.2S30.6,21.5,26,21.5z M26,8.3c-2.7,0-5,2.2-5,4.9
			c0,2.7,2.2,4.9,5,4.9s5-2.2,5-4.9C31,10.5,28.7,8.3,26,8.3z"/>
	</g>
</g>
</svg>
