<?xml version="1.0" encoding="utf-8"?>
<!-- Generator: Adobe Illustrator 22.1.0, SVG Export Plug-In . SVG Version: 6.00 Build 0)  -->
<svg version="1.1" id="Layer_1" xmlns="http://www.w3.org/2000/svg" xmlns:xlink="http://www.w3.org/1999/xlink" x="0px" y="0px"
	 viewBox="0 0 819 604.2" style="enable-background:new 0 0 819 604.2;" xml:space="preserve">
<style type="text/css">
	.st0{fill:#CBCBCB;}
	.st1{fill:#006698;}
	.st2{fill:#FDFEFE;}
	.st3{fill:#D8D8D8;}
	.st4{fill:#FDFDFE;}
	.st5{fill:#FEFEFE;}
</style>
<g>
	<path class="st0" d="M447.9,603.1c-5.8,0-11.7,0.1-17.5,0c-11.1-0.2-18.6-6-20-16.9c-1-7.8-1.3-15.9,0.6-23.8
		c1.8-7.4,6.6-11.7,13.9-13.2c3.9-0.8,7.9-1.1,11.9-1c10,0.1,20,0,30,0c1.5,0,3-0.1,4.4,0.6c1.5,0.7,2.5,1.8,2.5,3.4
		c0,1.6-1,2.7-2.5,3.4c-1.6,0.8-3.3,0.6-4.9,0.6c-10.8,0-21.6,0-32.5,0c-8.9,0-13.6,3.6-14.5,12.3c-0.6,5.9-0.9,11.9,0.7,17.8
		c1.5,5.7,5.1,8.8,11,8.9c10.2,0.1,20.3-0.1,30.5,0.1c3.7,0.1,5.1-1.8,5.5-5c0.1-1.1,0.1-2.3,0-3.5c-0.1-5.1-1.5-6.6-6.5-6.7
		c-5-0.1-10,0-15,0c-2.6,0-5.2-0.3-5.9-3.4c-0.5-2.4,2.4-4.5,6-4.5c6.3-0.1,12.7-0.1,19,0c8.2,0.2,11.4,3.5,11.5,11.7
		c0,3.2,0.1,6.3,0,9.5c-0.2,6.1-3.5,9.6-9.6,9.7C460.2,603.2,454,603.1,447.9,603.1C447.9,603.1,447.9,603.1,447.9,603.1z"/>
	<path class="st0" d="M705.9,603.1c-7.3,0-14.7,0.1-22,0c-6.6-0.1-9.9-3.3-9.9-9.8c-0.1-11.5-0.1-23,0-34.5
		c0.1-7.3,3.4-10.6,10.8-10.7c14.5-0.1,29,0,43.4,0c1.1,0,2.4,0,3.4,0.5c1.4,0.6,2.3,1.8,2.3,3.5c0,1.5-0.9,2.4-2.2,3.1
		c-1.7,0.9-3.5,0.8-5.4,0.8c-12.2,0-24.3,0-36.5,0c-5.9,0-6.9,1-6.9,7c0,1.2-0.1,2.3,0,3.5c0.3,4.3,1.6,5.5,5.9,5.5
		c11.2,0,22.3,0,33.5,0c1.6,0,3.3-0.1,4.9,0.6c1.7,0.8,2.9,1.8,2.6,3.8c-0.2,1.9-1.5,3-3.2,3.4c-1.3,0.3-2.7,0.1-4,0.1
		c-11,0-22,0-33,0c-5.5,0-6.6,1.2-6.7,6.8c0,0.8,0,1.7,0,2.5c0.1,4.7,1.1,5.8,6,5.8c12,0,24,0,36,0c2.2,0,4.3,0.2,6.4,0.9
		c1.9,0.6,2.6,1.8,2.6,3.7c0,2.1-1.5,2.9-3.1,3.3c-1.1,0.3-2.3,0.2-3.5,0.2C720.2,603.2,713.1,603.2,705.9,603.1
		C705.9,603.2,705.9,603.1,705.9,603.1z"/>
	<g>
		<path class="st1" d="M819,434.1c-1.5,1.1-1.3,2.9-2,4.4c-4.9,10.1-12.7,16.5-24.1,16.7c-22,0.3-44,0.1-66,0.1
			c-4.3,0-7.3-1.8-9-5.8c-1.6-3.7-1-7.2,1.5-10.3c2.1-2.7,5.1-3.3,8.5-3.3c20,0.1,40,0,60,0c1.7,0,3.4,0,5-0.4c4.5-1,7-4.4,6.6-8.7
			c-0.4-4.3-3.4-7.1-8.1-7.2c-8.7-0.1-17.3,0-26-0.1c-8-0.1-16,0.5-24-0.4c-14.2-1.6-24.9-14.2-24.2-28.7
			c0.7-14.5,12.6-26.3,26.8-26.4c21.5-0.1,43,0.1,64.5-0.1c5,0,7.9,2.6,10.6,6.1c0,2.3,0,4.7,0,7c-2.2,6.4-4.8,8.3-12.8,8.4
			c-16.5,0.2-32.9,0-49.4,0.1c-3.7,0-7.3-0.1-11,0.1c-3.7,0.1-6.5,1.5-7.1,5.6c-0.5,3.5,2,6.2,6.2,7.1c2,0.4,4,0.3,6,0.3
			c13.1,0,26.3,0,39.4,0c15.6,0,25.7,8.3,28.6,23.5C819,426.1,819,430.1,819,434.1z"/>
		<path class="st1" d="M0,385.1c1.5-1,1.4-2.9,2.1-4.3c5.3-10.6,13.5-16.6,25.6-16.7c21.3-0.1,42.6,0,63.9,0c5.3,0,8.8,2.7,10,7.3
			c1.1,4.1-0.8,8.6-4.4,10.8c-2.2,1.4-4.7,1.4-7.2,1.4c-19.6,0-39.3,0-58.9,0c-9.2,0-11.6,2.4-11.6,11.4c0,9.8,0,19.6,0,29.5
			c0,8.7,2.7,11.4,11.3,11.4c20.3,0,40.6,0.2,60.9-0.1c6.7-0.1,12.5,6.8,9.3,13.8c-1.6,3.5-4.2,5.6-8.1,5.7
			c-22.8,0-45.6,0.4-68.4-0.2c-10.7-0.3-18-7-22.6-16.5c-0.7-1.5-0.5-3.3-2-4.4C0,417.8,0,401.5,0,385.1z"/>
		<path class="st2" d="M819,422.1c-2.1-5.4-4.2-10.7-8.6-14.7c-5.6-4.9-12-7.5-19.5-7.5c-14.5,0.1-29,0-43.4,0c-2.2,0-4.4,0.1-6.3-1
			c-3.3-1.8-4.7-4.7-4.1-8.3c0.5-3.4,2.5-5.8,5.9-6.6c1.8-0.4,3.6-0.4,5.5-0.4c19.5,0,39-0.1,58.4,0.1c5.5,0.1,9.7-1.5,12.2-6.6
			C819,392.1,819,407.1,819,422.1z"/>
		<path class="st3" d="M819,526.1c-0.3,0-0.7-0.1-1-0.1c-2.4-6.6-2.5-13.3,0-19.9c0.3,0,0.7,0,1,0C819,512.8,819,519.5,819,526.1z"
			/>
		<path class="st0" d="M468.3,156.2c-5.7,0-11.5,0-17.3,0c-2.8,0-3.4,2.5-4.5,4.2c-6.3,10.1-15.5,16.1-26.9,19.1
			c-25.3,6.7-51.3-12.6-53.9-37.9c-2.4-23.5,14.1-44,33.9-47.6c12.2-2.2,10-3,10.2,7.7c0,0.7,0,1.3,0,2c0,5.6,0,5.6-5.6,6.9
			c-11.2,2.6-19.4,11.1-21.2,21.9c-1.8,10.5,3.3,21.2,13,27.2c15.7,9.7,36.3,0.1,39.7-18.9c0.7-3.8,2.1-4.6,5.4-4.5
			c16.3,0.1,32.7,0,49,0.1c4.8,0,5,0.1,4.8,5.1c-0.5,14.1-4.7,27.1-11.9,39.1c-12.9,21.6-32,34.9-56.3,40.1
			c-21.5,4.6-42,1-60.9-10.2c-21.4-12.7-34.8-31.6-40-55.8c-4.8-22-1.1-42.9,10.6-62.3c11-18.2,26.8-30.6,47.1-37.1
			c2.2-0.7,3.8-1.5,3.7-4.4c-0.2-6.8-0.1-13.6-0.1-20.9c-7.4,0.5-14,3.2-20.4,6c-30.8,13.6-51.9,36.4-61.7,68.6
			c-10.9,35.8-4.6,69.1,17.9,98.9c17.4,23,40.9,36.9,69.3,41.5c30.6,4.9,58.9-2.3,83.6-21c23.1-17.5,36.9-41.1,42-69.6
			c0.8-4.5,1.8-9.2,1.3-13.8c-0.4-3.4,1.1-4.3,4.3-4.2c6,0.2,12,0.3,18,0c3.6-0.2,4.9,0.8,4.8,4.7c-0.4,17.5-4.2,34.2-11.1,50.2
			c-7.2,16.7-17.3,31.5-30.5,44c-20.3,19.2-44.1,31.6-71.8,36.2c-35.7,5.9-68.8-0.9-98.9-20.8c-31.6-20.9-51.3-50.5-58.4-87.5
			c-7.9-41.2,1.5-79,27.6-111.9c20.6-26,47.8-41.8,80.2-48.6c7.4-1.5,15-2.6,22.7-2.4c2.9,0.1,4.1,0.7,4.1,3.9
			c-0.1,21.8-0.1,43.7,0,65.5c0,2.3-0.6,3.4-3.1,4c-3.1,0.8-6.2,0.5-9.4,1.2c-26.5,6.1-43.4,22.2-49.6,48.7
			c-4.4,18.9-0.1,36.2,11.5,51.6c9.5,12.7,22.2,20.3,37.6,23.6c29.6,6.3,60.6-10.3,71.4-39.1C468.7,158.7,469.1,157.9,468.3,156.2z"
			/>
		<path class="st0" d="M818,506.1c0,6.6,0,13.3,0,19.9c-1.8,0-3.7,0.1-5.5,0.1c-131.8,0-263.6,0-395.4,0c-1.3,0-2.7-0.1-4,0
			c-2.5,0.2-3.2-1-3.1-3.3c0.1-4.5,0.1-9,0-13.5c-0.1-2.3,0.7-3.5,3.1-3.3c0.8,0.1,1.7,0,2.5,0c133.1,0,266.3,0,399.4,0
			C816,506.1,817,506.1,818,506.1z"/>
		<path class="st1" d="M221.5,419.6c7.9,7,15.3,13.4,22.6,19.9c1.9,1.7,3.5,3.5,3.9,6.1c0.7,4.9-0.9,8.7-4.7,10.6
			c-4.1,2-8.1,1.7-11.6-1.4c-12.2-10.6-24.4-21.2-36.5-31.9c-2.5-2.3-5-3.4-8.5-3.3c-7.5,0.2-14.9,0.1-23,0.1c0,7.5,0,14.6,0,21.7
			c0,2.2,0.1,4.3,0,6.5c-0.4,5.8-4.5,9.5-10.2,9.4c-5.4-0.2-9.3-4-9.4-9.6c-0.1-12.5,0-25,0-37.5c0-11.7,0-23.3,0-35
			c0-7.6,3.5-11,11-11c20.5,0,41,0.4,61.5-0.1c15.2-0.4,27.6,10.4,29.2,24.4C247.6,403.6,238.3,415.9,221.5,419.6z"/>
		<path class="st1" d="M336.9,455.3c-7.8,0-15.7,0.1-23.5,0c-15.2-0.1-26.9-11.3-27.3-26.6c-0.3-12.8-0.4-25.7,0-38.5
			c0.4-14.5,12.5-26,27-26c15.8-0.1,31.7-0.1,47.5,0c15.1,0.1,27.2,12.3,27.3,27.4c0.1,12.2,0.1,24.3,0,36.5
			c-0.1,14.9-12.1,27-26.9,27.2C352.9,455.4,344.9,455.3,336.9,455.3z"/>
		<path class="st1" d="M625,455.3c-8,0-16,0.1-24,0c-15.1-0.1-26.9-11.9-27.1-26.9c-0.1-12.3-0.1-24.7,0-37
			c0.1-15.3,12.1-27.2,27.4-27.2c15.5-0.1,31,0,46.5,0c15.6,0,27.6,11.6,28,27.2c0.3,12.3,0.3,24.7,0,37
			c-0.4,15.4-12.5,26.8-27.8,26.9C640.3,455.3,632.6,455.3,625,455.3z"/>
		<path class="st1" d="M511.8,422.8c0-1.7,0-3.3,0-4.8c0-15,0-30,0-45c0-6.8,3.7-10.9,9.6-11c6-0.1,10,3.8,10,10.6
			c0.1,24,0.1,48,0,72c0,4.5-1.4,8.4-5.9,10.1c-4.2,1.6-8,0.7-11.5-2.4c-19.8-17.4-39.6-34.6-59.5-51.9c-1.6-1.4-3.2-2.8-5.7-4.8
			c0,2.3,0,3.7,0,5.1c0,15.5,0.1,31,0,46.5c0,8.1-7.7,12.8-14.6,9c-3.4-1.9-4.9-4.9-4.9-8.7c0-24.5,0-49,0-73.5c0-4.2,1.8-7.4,5.8-9
			c4.3-1.7,8-0.7,11.5,2.4c20.2,17.7,40.4,35.2,60.6,52.8C508.6,421.1,509.5,422.7,511.8,422.8z"/>
		<path class="st4" d="M164,400c0-5.7,0-10.8,0-15.7c1.2-0.9,2.4-0.7,3.6-0.7c16.1,0,32.2,0,48.4,0c0.8,0,1.7,0,2.5,0.1
			c5,0.6,8.2,4,8.1,8.4c-0.2,4.5-3.5,7.8-8.6,7.8c-10.1,0.1-20.3,0-30.4,0C179.9,400,172.3,400,164,400z"/>
		<path class="st5" d="M337,383.7c7.2,0,14.3-0.1,21.5,0c6.9,0.1,9.6,2.9,9.6,9.8c0,11,0.1,22,0,32.9c0,6.4-3,9.5-9.5,9.5
			c-14.5,0.1-28.9,0.1-43.4,0c-6.7,0-9.6-3.1-9.7-9.9c-0.1-10.8-0.1-21.6,0-32.4c0-7.1,2.8-9.8,10-9.9
			C322.7,383.6,329.9,383.7,337,383.7z"/>
		<path class="st5" d="M625,383.7c7.2,0,14.3-0.1,21.5,0c6.8,0.1,9.5,2.9,9.6,9.8c0,11,0,22,0,32.9c0,6.1-2.9,9.4-9.1,9.4
			c-14.8,0.1-29.6,0.1-44.4,0c-6-0.1-9.2-3.4-9.3-9.5c-0.2-11.1-0.2-22.3,0-33.4c0.1-6.4,3.2-9.2,9.8-9.3
			C610.3,383.6,617.7,383.7,625,383.7z"/>
	</g>
	<path class="st0" d="M552.6,588c-1.5-2.4-4.5-4.1-3.9-7.7c3.3-2.1,7.6-2.6,10.1-6c3.9-5.3,4.4-11.3,1.8-17c-2.8-6.1-8.5-8.9-15-9
		c-12.2-0.3-24.3-0.2-36.5,0c-7,0.1-10.2,3.6-10.2,10.7c0,12.8,0,25.7,0,38.5c0,6.1,0.7,6.7,7,6.8c2.2-1.1,2-3.2,2-5.2
		c0-4.3-0.1-8.6,0-13c0.1-4.2,1.7-5.7,5.8-5.8c4.3-0.1,8.7,0.4,12.9-0.1c6.7-0.9,10.7,2.3,14.5,7.3c4.3,5.8,7.9,12.3,13.7,16.9
		c6.4-0.6,7.4-2.6,3.8-7.8C556.9,593.6,554.5,591,552.6,588z M543,572.2c-4.7,0-9.3,0-14,0c-5.2,0-10.3-0.1-15.5,0
		c-3.7,0.1-5.1-1.9-5.4-5.1c-0.2-1.8-0.1-3.7,0-5.5c0.3-4.3,1.5-5.6,5.9-5.6c10,0,20-0.1,30,0c5.7,0,8.9,2.9,9.1,7.7
		c0.2,5.1-3.1,8.1-9,8.3C543.7,572.2,543.3,572.2,543,572.2z"/>
	<path class="st0" d="M650.6,565.1c-0.9-7.6-4.9-14.1-13.2-15.6c-13.3-2.4-26.8-2.3-40.1-0.1c-6.5,1.1-11.4,5.5-13,12.4
		c-2.1,9.2-2,18.5,0,27.6c1.3,5.9,5,9.7,10.8,12c7.2,2.8,14.5,1.2,20,1.7c6.5,0,11.3,0.1,16.2,0c10.2-0.3,16.8-5.6,19-15.6
		C651.9,580.1,651.5,572.5,650.6,565.1z M641.1,585.9c-1.6,5.9-5.3,9.1-11.3,9.3c-4.2,0.1-8.3,0-12.5,0c-4.3,0-8.7,0.1-13,0
		c-7.2-0.3-11.3-4.5-11.4-11.7c-0.1-5-0.1-10,0-15c0.1-7.9,4.5-12.2,12.5-12.3c7.3-0.1,14.7,0,22,0c8.8,0,13.5,3.8,14.3,12.5
		C642.3,574.3,642.6,580.1,641.1,585.9z"/>
	<path class="st0" d="M818.1,560.1c-1.6-7.3-7.5-11.7-16.7-11.9c-11.1-0.2-22.3-0.1-33.4,0c-7.6,0.1-10.8,3.5-10.9,11.1
		c-0.1,12.6,0,25.3,0,37.9c0,5.9,1,6.9,6.9,7c2.7-1.8,2.8-4.7,2.9-7.5c0.1-3.3,0-6.6,0-10c0-6,0.5-6.6,6.5-6.6
		c9.3,0,18.6,0.2,27.9-0.1c7.9-0.3,16.4-4.5,16.7-11.8C818.1,565.5,818.1,562.8,818.1,560.1z M798.3,572.2c-4,0-8,0-12,0
		c-5,0-10-0.1-15,0c-3.2,0.1-4.5-1.3-4.5-4.4c0.1-13.6-1.3-11.5,11.2-11.6c6.8-0.1,13.6,0,20.4,0c7.4,0,10.6,2.5,10.5,8.2
		C809,569.8,805.9,572.1,798.3,572.2z"/>
</g>
</svg>
