<?xml version="1.0" encoding="utf-8"?>
<!-- Generator: Adobe Illustrator 22.1.0, SVG Export Plug-In . SVG Version: 6.00 Build 0)  -->
<svg version="1.1" id="Layer_1" xmlns="http://www.w3.org/2000/svg" xmlns:xlink="http://www.w3.org/1999/xlink" x="0px" y="0px"
	 viewBox="0 0 532.9 137" style="enable-background:new 0 0 532.9 137;" xml:space="preserve">
<style type="text/css">
	.st0{fill:#F9A72B;}
	.st1{fill:#244AA5;}
	.st2{fill:#F7ED05;}
	.st3{fill:#F8ED04;}
	.st4{fill:#F9EE04;}
	.st5{fill:#F8EE04;}
	.st6{fill:#FAEF03;}
	.st7{fill:#FAEE03;}
	.st8{fill:#F9EE03;}
	.st9{fill:#FBEF03;}
	.st10{fill:#A1A24D;}
	.st11{fill:#858A65;}
	.st12{fill:#808966;}
	.st13{fill:#ADA947;}
	.st14{fill:#959A56;}
	.st15{fill:#D2CD24;}
	.st16{fill:#C5C72A;}
	.st17{fill:#BFC130;}
	.st18{fill:#CDC928;}
	.st19{fill:#BBBB36;}
	.st20{fill:#DCD51C;}
	.st21{fill:#A7A749;}
	.st22{fill:none;}
	.st23{fill:#3871C2;}
</style>
<g>
	<polygon class="st0" points="0,137 258.8,137 258.8,0 247.4,12.3 226,75.5 205.2,106.8 175,97.8 155.5,108.4 142,97.1 95.9,83.5 
		67.1,106 46.5,103 0,75.6 	"/>
	<g>
		<path class="st1" d="M274.8,70.8c0.3-0.1,0.5-0.2,0.8-0.2c0.4,0,0.8,0,1.2,0c29.5,0,59,0,88.5,0c2.3,0,2-0.3,2,2.1
			c0,20.6,0,41.2,0,61.9c0,0.1,0,0.2,0,0.3c0,1.9,0.2,1.7-1.7,1.7c-8.2,0-16.3,0-24.5,0c-0.5,0-1,0.1-1.6,0.1c-0.5,0-1-0.1-1.4-0.1
			c-20.5,0-41,0-61.5,0c-0.5,0-1-0.1-1.4,0.1c-0.2,0-0.3-0.2-0.4-0.3c0-0.4,0.1-0.9,0.1-1.3c0-21,0-41.9,0-62.9
			C274.8,71.7,274.8,71.3,274.8,70.8z"/>
		<g>
			<path class="st2" d="M303.2,111.5c0.5,0.3,0.4,0.9,0.6,1.4c0.1,0.4,0.3,0.6,0.7,0.5c0.5,0,0.9,0,1.4,0c0.1,0.4-0.1,0.5-0.3,0.6
				c-0.3,0.2-0.5,0.4-0.8,0.6c-0.3,0.2-0.4,0.5-0.3,0.9c0.2,0.5,0.4,1,0.4,1.6c-0.6-0.1-0.9-0.6-1.3-0.9c-0.3-0.2-0.5-0.2-0.8,0
				c-0.4,0.3-0.8,0.6-1.3,0.9c-0.1-0.6,0.1-0.9,0.2-1.3c0.2-0.6,0.2-1-0.4-1.4c-0.3-0.2-0.5-0.4-0.8-0.6c-0.1-0.1-0.1-0.2-0.1-0.3
				c0-0.1,0.1-0.1,0.2-0.2c0.6-0.1,1.3,0.3,1.8-0.2c0.3-0.4,0.4-1.1,0.6-1.6C303.1,111.6,303.1,111.5,303.2,111.5z"/>
			<path class="st3" d="M328.5,121.5c0.5,0,1,0,1.5,0c0.3,0,0.5-0.1,0.6-0.5c0.2-0.5,0.2-1,0.6-1.5c0.4,0.1,0.3,0.5,0.4,0.7
				c0.1,0.3,0.2,0.5,0.3,0.8c0.1,0.3,0.3,0.4,0.5,0.4c0.6,0,1.1,0,1.8,0c-0.4,0.6-0.9,0.9-1.3,1.2c-0.2,0.2-0.3,0.4-0.2,0.8
				c0.1,0.5,0.5,1,0.3,1.5c-0.6,0-0.9-0.6-1.4-0.8c-0.1,0-0.2-0.1-0.3-0.1c-0.3,0.1-0.6,0.3-0.8,0.5c-0.3,0.2-0.5,0.5-0.9,0.5
				c-0.2-0.5,0.1-0.9,0.3-1.4c0.2-0.6,0-0.9-0.4-1.2c-0.3-0.2-0.7-0.5-1-0.8C328.5,121.7,328.5,121.6,328.5,121.5z"/>
			<path class="st2" d="M309.1,125.3c-0.1-0.8,0.2-1.3,0.4-1.7c0.1-0.4,0-0.6-0.3-0.9c-0.4-0.3-0.9-0.6-1.2-1
				c0.2-0.4,0.5-0.2,0.8-0.2c0.2,0,0.5,0,0.7,0c0.4,0,0.6-0.1,0.7-0.5c0.1-0.4,0.2-0.7,0.3-1.1c0-0.1,0.1-0.2,0.4-0.3
				c0.1,0.4,0.3,0.9,0.4,1.3c0.2,0.5,0.2,0.6,0.8,0.6c0.4,0,0.8,0,1.1,0c0.1,0,0.2,0,0.2,0.1c0,0.1,0,0.2-0.1,0.3
				c-0.3,0.3-0.7,0.6-1,0.8c-0.3,0.2-0.4,0.5-0.3,0.9c0.1,0.5,0.5,1,0.3,1.5c-0.4,0-0.7-0.3-1-0.6c-0.7-0.5-0.6-0.6-1.4,0
				C309.8,124.8,309.5,125,309.1,125.3z"/>
			<path class="st4" d="M340.1,116.9c-0.4-0.3-0.8-0.6-1.2-0.9c-0.5,0.2-0.9,0.6-1.3,0.9c-0.3,0.1-0.4-0.1-0.4-0.4
				c0-0.5,0.5-1,0.3-1.5c-0.2-0.5-0.8-0.7-1.2-1c-0.1-0.1-0.2-0.2-0.3-0.3c0.1-0.4,0.4-0.2,0.6-0.2c0.2,0,0.5,0,0.7,0
				c0.7,0,0.8,0,1-0.8c0.1-0.4,0.2-0.8,0.5-1.2c0.4,0.4,0.4,1,0.6,1.5c0.1,0.3,0.3,0.5,0.6,0.5c0.5,0,1,0,1.7,0
				c-0.3,0.6-0.7,0.8-1.1,1.1c-0.4,0.3-0.6,0.7-0.4,1.2c0.1,0.3,0.2,0.5,0.2,0.8C340.5,116.8,340.4,116.9,340.1,116.9z"/>
			<path class="st5" d="M301.8,105.9c-0.4-0.3-0.8-0.6-1.3-1c-0.6,0.4-1.1,0.8-1.7,1.2c-0.2-0.5,0.1-0.9,0.2-1.2
				c0.3-1,0.2-0.9-0.5-1.5c-0.3-0.2-0.6-0.3-0.7-0.7c0.1-0.4,0.5-0.2,0.7-0.2c0.2,0,0.5,0,0.7,0c0.4,0,0.6-0.2,0.7-0.6
				c0.2-0.5,0.1-1.1,0.7-1.5c0.2,0.6,0.4,1.1,0.5,1.6c0.1,0.2,0.3,0.4,0.5,0.4c0.4,0,0.9,0,1.3,0c0.1,0,0.2,0,0.2,0.1
				c0,0.1,0,0.2-0.1,0.3c-0.3,0.3-0.6,0.5-0.9,0.7c-0.4,0.3-0.4,0.6-0.3,1c0.1,0.3,0.2,0.6,0.3,1C302.2,105.9,302.1,106,301.8,105.9
				z"/>
			<path class="st6" d="M337.2,94.3c0.4-1,0.2-1.7-0.8-2.2c-0.2-0.1-0.3-0.2-0.4-0.4c0.1-0.4,0.3-0.3,0.5-0.3c0.4,0,0.8,0,1.1,0
				c0.2,0,0.3-0.1,0.4-0.3c0.3-0.6,0.2-1.2,0.7-1.8c0.2,0.6,0.3,1.1,0.5,1.6c0.1,0.3,0.3,0.5,0.6,0.5c0.5,0,1,0,1.4,0
				c0.2,0.4-0.1,0.5-0.2,0.6c-0.3,0.2-0.5,0.4-0.8,0.6c-0.3,0.2-0.3,0.5-0.2,0.8c0.1,0.5,0.4,1,0.4,1.7c-0.6-0.2-0.9-0.6-1.3-0.9
				c-0.3-0.2-0.5-0.2-0.8,0c-0.4,0.3-0.8,0.5-1.2,0.8C337.1,94.8,337.1,94.6,337.2,94.3z"/>
			<path class="st4" d="M312.2,86.9c-0.3-0.2-0.6-0.5-0.9-0.7c-0.4-0.3-0.5-0.3-1,0c-0.3,0.3-0.7,0.5-1.1,0.8
				c-0.3-0.6,0.1-1,0.2-1.4c0.2-0.6,0.1-1-0.4-1.3c-0.3-0.2-0.6-0.5-0.9-0.7c0.1-0.4,0.5-0.2,0.7-0.3c0.2,0,0.5,0,0.7,0
				c0.4,0,0.6-0.1,0.7-0.5c0.1-0.4,0.2-0.8,0.4-1.2c0-0.1,0.1-0.1,0.2-0.1c0.1,0,0.2,0.1,0.2,0.1c0.1,0.4,0.3,0.8,0.4,1.2
				c0.1,0.4,0.4,0.5,0.7,0.5c0.5,0,0.9,0,1.6,0c-0.4,0.6-0.9,0.8-1.3,1.1c-0.2,0.2-0.4,0.4-0.3,0.7c0.1,0.4,0.3,0.8,0.4,1.2
				C312.6,86.9,312.4,87,312.2,86.9z"/>
			<path class="st5" d="M340.1,105c0-0.2,0-0.4,0.1-0.6c0.1-0.3,0-0.5-0.2-0.8c-0.4-0.3-0.9-0.5-1.1-1c0.3-0.3,0.6-0.2,0.8-0.2
				c0.2,0,0.5,0,0.7,0c0.3,0,0.5-0.2,0.6-0.5c0.1-0.4,0.2-0.8,0.4-1.2c0-0.1,0.1-0.1,0.2-0.2c0.1,0,0.2,0,0.2,0.1
				c0.2,0.6,0.2,1.4,0.7,1.7c0.5,0.3,1.2,0.1,1.8,0.2c0.1,0.3-0.2,0.4-0.3,0.6c-0.3,0.3-0.9,0.5-1,1c-0.1,0.4,0.2,0.9,0.3,1.4
				c0,0.2,0.1,0.4,0.1,0.6c-0.4,0.2-0.5-0.2-0.7-0.3c-0.2-0.1-0.5-0.3-0.7-0.5c-0.2-0.2-0.4-0.2-0.6,0c-0.3,0.3-0.7,0.5-1.1,0.7
				c-0.1,0.1-0.2,0.1-0.3,0c0-0.1,0-0.2,0-0.3C340,105.4,340,105.2,340.1,105z"/>
			<path class="st7" d="M322.6,84c-0.5-0.3-1-0.7-1.6-1c-0.6,0.4-1.1,0.8-1.8,1.2c0-0.6,0.2-1.1,0.4-1.6c0.2-0.5,0-0.8-0.4-1.1
				c-0.3-0.2-0.7-0.5-1-0.9c0.6-0.2,1.1-0.1,1.6-0.1c0.3,0,0.5-0.2,0.5-0.4c0.2-0.5,0.4-1.1,0.6-1.7c0.5,0.5,0.5,1.2,0.7,1.7
				c0.1,0.2,0.3,0.4,0.5,0.4c0.5,0,1,0,1.7,0.1c-0.4,0.5-0.8,0.8-1.2,1c-0.4,0.3-0.5,0.6-0.3,1.1c0.1,0.2,0.1,0.5,0.2,0.7
				C322.7,83.6,322.7,83.8,322.6,84z"/>
			<path class="st4" d="M304.7,95c0,0-0.1,0-0.1-0.1c-0.5-0.3-0.8-0.9-1.4-0.8c-0.5,0.1-0.9,0.6-1.3,0.9c-0.1,0.1-0.3,0.1-0.4,0
				c0.1-0.5,0.2-1,0.4-1.5c0.1-0.3,0-0.5-0.3-0.7c-0.4-0.3-0.8-0.6-1.2-1c0.3-0.3,0.6-0.2,0.8-0.2c0.2,0,0.5,0,0.7,0
				c0.3,0,0.5-0.1,0.6-0.5c0.2-0.5,0.3-1,0.5-1.6c0.5,0.4,0.5,1,0.7,1.4c0.1,0.4,0.3,0.6,0.7,0.6c0.5,0,1,0,1.5,0
				c-0.1,0.6-0.5,0.7-0.8,0.9c-0.5,0.4-0.8,0.8-0.5,1.4c0.1,0.1,0,0.3,0.1,0.4C304.9,94.5,304.9,94.8,304.7,95z"/>
			<path class="st8" d="M332.6,86.9c-0.5-0.3-0.8-0.9-1.4-0.9c-0.5,0-0.8,0.6-1.3,0.8c0,0-0.1,0-0.1,0.1c-0.2-0.2-0.2-0.5-0.1-0.7
				c0.4-1,0.2-1.7-0.8-2.2c-0.2-0.1-0.3-0.2-0.4-0.4c0.2-0.4,0.4-0.2,0.6-0.2c0.2,0,0.4,0,0.6,0c0.8,0,0.8,0,1-0.7
				c0.1-0.3,0.2-0.6,0.3-1c0-0.1,0.2-0.2,0.3-0.4c0.2,0.6,0.3,1,0.5,1.5c0.1,0.4,0.4,0.5,0.7,0.5c0.5,0,0.9,0,1.6,0
				c-0.4,0.6-0.9,0.8-1.3,1.1c-0.2,0.2-0.4,0.4-0.3,0.7c0.1,0.4,0.2,0.8,0.4,1.2C333,86.9,332.9,87,332.6,86.9z"/>
			<path class="st9" d="M322.6,128.1c-0.5-0.3-1-0.7-1.5-1c-0.7,0.2-1.1,0.9-1.9,1.1c0.2-0.6,0.3-1.2,0.5-1.7c0.1-0.3,0-0.6-0.2-0.8
				c-0.4-0.3-0.7-0.6-1.1-0.9c0.5-0.3,0.5-0.3,1.2-0.3c0.8,0,0.8-0.1,1-0.7c0.1-0.4,0.3-0.8,0.4-1.2c0,0,0.1-0.1,0.1-0.1
				c0.5,0.4,0.4,1,0.6,1.6c0.1,0.4,0.4,0.5,0.7,0.5c0.4,0,0.9-0.1,1.3,0.1c-0.1,0.5-0.5,0.7-0.8,0.9c-0.4,0.3-0.7,0.7-0.4,1.2
				c0.1,0.2,0.1,0.5,0.2,0.7C322.7,127.7,322.7,127.9,322.6,128.1z"/>
			<path class="st10" d="M340.1,116.9c0.1-0.1,0.3-0.2,0.4-0.4c0.1,0.1,0.2,0.2,0.2,0.3c0,0.1,0,0.3-0.1,0.4c-0.1,0-0.3-0.1-0.4-0.1
				C340.2,117.1,340.1,117,340.1,116.9z"/>
			<path class="st11" d="M332.6,86.9c0.2,0,0.3-0.2,0.3-0.3c0.1,0.1,0.2,0.2,0.2,0.3c0,0.1,0,0.2-0.1,0.4c-0.1,0-0.2-0.1-0.4-0.1
				C332.7,87.1,332.7,87,332.6,86.9z"/>
			<path class="st12" d="M312.2,86.9c0.2,0,0.3-0.2,0.3-0.4c0.1,0.1,0.1,0.1,0.2,0.2c0.1,0.2,0.1,0.4,0,0.5c-0.2,0.1-0.3,0-0.4-0.2
				C312.2,87,312.2,87,312.2,86.9z"/>
			<path class="st13" d="M337.2,116.5c0.1,0.1,0.3,0.2,0.4,0.4c0,0.1-0.1,0.2-0.1,0.2c-0.1,0.1-0.2,0.1-0.4,0.1
				c0-0.1-0.1-0.3-0.1-0.4C337,116.7,337.1,116.6,337.2,116.5z"/>
			<path class="st14" d="M301.8,105.9c0.2-0.1,0.3-0.2,0.4-0.4c0.1,0.1,0.2,0.2,0.2,0.3c0,0.1,0,0.2-0.1,0.4c-0.1,0-0.3-0.1-0.4-0.1
				C301.9,106.1,301.8,106,301.8,105.9z"/>
			<path class="st15" d="M304.7,95c0-0.2,0.1-0.5,0.1-0.7c0.2,0.2,0.3,0.4,0.3,0.6C305,95.2,304.9,95.2,304.7,95z"/>
			<path class="st16" d="M337.2,94.3c0,0.2,0,0.5,0,0.7c-0.1,0.1-0.2,0.2-0.3,0C336.9,94.8,337,94.5,337.2,94.3z"/>
			<path class="st17" d="M322.6,84c0-0.2,0-0.4,0-0.7c0.2,0.2,0.3,0.4,0.3,0.6C322.8,84.2,322.7,84.3,322.6,84z"/>
			<path class="st18" d="M329.7,86.2c0,0.2,0,0.5,0.1,0.7c-0.2,0.2-0.3,0.2-0.3-0.1C329.4,86.6,329.5,86.4,329.7,86.2z"/>
			<path class="st19" d="M322.6,128.1c0-0.2,0-0.4,0-0.7c0.2,0.2,0.3,0.4,0.2,0.7C322.8,128.3,322.6,128.2,322.6,128.1z"/>
			<path class="st20" d="M340.1,105c0,0.2,0,0.5-0.2,0.6C339.9,105.4,340,105.2,340.1,105z"/>
			<path class="st21" d="M301.5,94.9c0.1,0,0.2,0,0.4,0c-0.1,0.1-0.2,0.2-0.3,0.2c0,0-0.1-0.1-0.2-0.1
				C301.4,95.1,301.5,95,301.5,94.9z"/>
			<path class="st20" d="M339.9,105.9c0.1,0,0.2,0,0.3,0c0,0.1-0.1,0.2-0.3,0.2C339.9,106.1,339.9,106,339.9,105.9z"/>
		</g>
		<g>
			<path d="M386.4,73.1v1.2h-7.6v5.5h6.9V81h-6.9v6h7.6v1.2h-8.8v-15H386.4z"/>
			<path d="M397.3,88.2h-1.2v-1.5c-0.6,1-1.6,1.6-3.2,1.6c-2.4,0-4-1.5-4-4.6v-6.4h1.2v6.4c0,2.5,1.2,3.4,2.9,3.4
				c2.1,0,3.1-1.4,3.1-3.3v-6.5h1.2V88.2z"/>
			<path d="M401.6,81.6v6.5h-1.2V77.3h1.2v1.5c0.5-1,1.4-1.6,2.7-1.6c1.4,0,2.3,0.5,3.1,1.5l-1,0.7c-0.6-0.7-1.2-1.1-2.2-1.1
				C402.5,78.3,401.6,79.6,401.6,81.6z"/>
			<path d="M412.6,88.3c-2.8,0-4.4-1.7-4.4-4.8v-1.6c0-3.1,1.6-4.8,4.4-4.8s4.4,1.7,4.4,4.8v1.6C417,86.5,415.5,88.3,412.6,88.3z
				 M415.8,81.9c0-2.4-1.2-3.7-3.2-3.7c-2.1,0-3.2,1.3-3.2,3.7v1.6c0,2.3,1,3.7,3.2,3.7c2.1,0,3.2-1.4,3.2-3.7V81.9z"/>
			<path d="M428.2,83.5c0,3-1.4,4.8-4.2,4.8c-1.7,0-2.7-0.5-3.3-1.4v5.4h-1.2v-15h1.2v1.4c0.6-1,1.6-1.5,3.3-1.5
				c2.7,0,4.2,1.7,4.2,4.8V83.5z M427,83.5v-1.6c0-2.4-1.1-3.7-3.1-3.7c-2.3,0-3.2,1.4-3.2,3.5v1.9c0,2,0.8,3.5,3.2,3.5
				C426,87.2,427,85.8,427,83.5z"/>
			<path d="M431.4,83v0.5c0,2.2,1,3.7,3.3,3.7c1.3,0,2.2-0.4,2.8-1.3l1,0.7c-0.8,1.2-2,1.8-3.7,1.8c-2.9,0-4.6-1.8-4.6-4.8v-1.6
				c0-3.1,1.5-4.8,4.2-4.8s4.2,1.7,4.2,4.8V83H431.4z M431.4,81.9h6v0c0-2.4-1-3.7-3-3.7S431.4,79.6,431.4,81.9L431.4,81.9z"/>
			<path d="M444.4,82h3.2v-1.3c0-1.8-0.7-2.3-2.7-2.3c-1.3,0-2.2,0.1-2.8,1.2l-0.9-0.6c0.8-1.3,1.8-1.7,3.8-1.7
				c2.7,0,3.9,0.8,3.9,3.5v7.5h-1.2v-1.3c-0.6,1.2-1.7,1.5-3.1,1.5c-2.4,0-3.8-1.2-3.8-3.2C440.7,83,442.1,82,444.4,82z M447.6,83
				h-3.2c-1.9,0-2.5,0.9-2.5,2c0,1.5,1.1,2.1,2.6,2.1c1.8,0,3.1-0.6,3.1-3V83z"/>
			<path d="M451.8,77.3h1.2v1.5c0.6-1,1.6-1.6,3.2-1.6c2.4,0,4,1.5,4,4.6v6.4H459v-6.4c0-2.5-1.2-3.5-2.9-3.5c-2,0-3.1,1.3-3.1,3.3
				v6.5h-1.2V77.3z"/>
			<path d="M475.3,83.1l5-10h1.2v15h-1.3V75.9l-4.4,8.9h-1.1l-4.4-8.9v12.2h-1.3v-15h1.2L475.3,83.1z"/>
			<path d="M488.2,82h3.2v-1.3c0-1.8-0.7-2.3-2.7-2.3c-1.3,0-2.2,0.1-2.8,1.2l-0.9-0.6c0.8-1.3,1.8-1.7,3.8-1.7
				c2.7,0,3.9,0.8,3.9,3.5v7.5h-1.2v-1.3c-0.6,1.2-1.7,1.5-3.1,1.5c-2.4,0-3.8-1.2-3.8-3.2C484.5,83,485.9,82,488.2,82z M491.3,83
				h-3.2c-1.9,0-2.5,0.9-2.5,2c0,1.5,1.1,2.1,2.6,2.1c1.8,0,3.1-0.6,3.1-3V83z"/>
			<path d="M496.8,81.6v6.5h-1.2V77.3h1.2v1.5c0.5-1,1.4-1.6,2.7-1.6c1.4,0,2.3,0.5,3.1,1.5l-1,0.7c-0.6-0.7-1.2-1.1-2.2-1.1
				C497.7,78.3,496.8,79.6,496.8,81.6z"/>
			<path d="M504.2,73.1h1.5v1.5h-1.5V73.1z M504.3,77.3h1.2v10.9h-1.2V77.3z"/>
			<path d="M508.9,77.3h1.2v1.5c0.6-1,1.6-1.6,3.2-1.6c2.4,0,4,1.5,4,4.6v6.4h-1.2v-6.4c0-2.5-1.2-3.5-2.9-3.5c-2,0-3.1,1.3-3.1,3.3
				v6.5h-1.2V77.3z"/>
			<path d="M521,83v0.5c0,2.2,1,3.7,3.3,3.7c1.3,0,2.2-0.4,2.8-1.3l1,0.7c-0.8,1.2-2,1.8-3.7,1.8c-2.9,0-4.6-1.8-4.6-4.8v-1.6
				c0-3.1,1.5-4.8,4.2-4.8s4.2,1.7,4.2,4.8V83H521z M521,81.9h6v0c0-2.4-1-3.7-3-3.7S521,79.6,521,81.9L521,81.9z"/>
			<path d="M382.2,111.4c-3.2,0-5.3-2-5.3-6.7v-1.8c0-4.7,2.1-6.7,5.3-6.7c3.2,0,5.3,2,5.3,6.7v1.8
				C387.5,109.4,385.4,111.4,382.2,111.4z M378.1,104.6c0,4.1,1.6,5.6,4.1,5.6s4.1-1.5,4.1-5.6v-1.8c0-4-1.6-5.6-4.1-5.6
				s-4.1,1.5-4.1,5.6V104.6z"/>
			<path d="M391.4,101.7c0.6-1,1.6-1.5,3.3-1.5c2.7,0,4.2,1.7,4.2,4.8v1.6c0,3-1.4,4.8-4.2,4.8c-1.7,0-2.7-0.5-3.3-1.4v1.3h-1.2v-15
				h1.2V101.7z M397.7,106.6V105c0-2.4-1.1-3.7-3.1-3.7c-2.3,0-3.2,1.4-3.2,3.5v1.9c0,2,0.8,3.5,3.2,3.5
				C396.7,110.3,397.7,108.8,397.7,106.6z"/>
			<path d="M407.6,102.7c-0.7-1-1.4-1.3-3-1.3c-1.5,0-2.6,0.5-2.6,1.8c0,1.5,1.4,1.8,2.9,2c2.1,0.3,3.9,0.9,3.9,3.2c0,1.7-1.1,3-4,3
				c-2.2,0-3.3-0.7-4.1-1.8l0.9-0.7c0.7,0.9,1.5,1.3,3.2,1.3c1.7,0,2.8-0.5,2.8-1.8c0-1.4-1.1-1.9-3.2-2.2c-1.8-0.2-3.5-0.9-3.5-3.1
				c0-1.8,1.3-2.9,3.8-2.9c1.7,0,3,0.5,3.8,1.8L407.6,102.7z"/>
			<path d="M412.1,106.1v0.5c0,2.2,1,3.7,3.3,3.7c1.3,0,2.2-0.4,2.8-1.3l1,0.7c-0.8,1.2-2,1.8-3.7,1.8c-2.9,0-4.6-1.8-4.6-4.8V105
				c0-3.1,1.5-4.8,4.2-4.8s4.2,1.7,4.2,4.8v1.1H412.1z M412.1,105h6v0c0-2.4-1-3.7-3-3.7S412.1,102.6,412.1,105L412.1,105z"/>
			<path d="M423.1,104.7v6.5H422v-10.9h1.2v1.5c0.5-1,1.4-1.6,2.7-1.6c1.4,0,2.3,0.5,3.1,1.5l-1,0.7c-0.6-0.7-1.2-1.1-2.2-1.1
				C424.1,101.4,423.1,102.7,423.1,104.7z"/>
			<path d="M439.1,100.4l-4.4,10.9h-1.2l-4.4-10.9h1.3l3.7,9.3l3.7-9.3H439.1z"/>
			<path d="M443.8,105.1h3.2v-1.3c0-1.8-0.7-2.3-2.7-2.3c-1.3,0-2.2,0.1-2.8,1.2l-0.9-0.6c0.8-1.3,1.8-1.7,3.8-1.7
				c2.7,0,3.9,0.8,3.9,3.5v7.5H447v-1.3c-0.6,1.2-1.7,1.5-3.1,1.5c-2.4,0-3.8-1.2-3.8-3.2C440.1,106,441.6,105.1,443.8,105.1z
				 M447,106.1h-3.2c-1.9,0-2.5,0.9-2.5,2c0,1.5,1.1,2.1,2.6,2.1c1.8,0,3.1-0.6,3.1-3V106.1z"/>
			<path d="M450.3,100.4h1.4V98h1.2v2.4h2.7v1.1h-2.7v6.1c0,1.7,0.2,2.5,2,2.5h0.7v1.2h-0.8c-2.4,0-3.1-1.1-3.1-3.3v-6.4h-1.4V100.4
				z"/>
			<path d="M458.1,96.2h1.5v1.5h-1.5V96.2z M458.3,100.4h1.2v10.9h-1.2V100.4z"/>
			<path d="M466.7,111.4c-2.8,0-4.4-1.7-4.4-4.8V105c0-3.1,1.6-4.8,4.4-4.8s4.4,1.7,4.4,4.8v1.6
				C471.1,109.5,469.6,111.4,466.7,111.4z M469.9,105c0-2.4-1.2-3.7-3.2-3.7c-2.1,0-3.2,1.3-3.2,3.7v1.6c0,2.3,1,3.7,3.2,3.7
				c2.1,0,3.2-1.4,3.2-3.7V105z"/>
			<path d="M473.6,100.4h1.2v1.5c0.6-1,1.6-1.6,3.2-1.6c2.4,0,4,1.5,4,4.6v6.4h-1.2v-6.4c0-2.5-1.2-3.5-2.9-3.5
				c-2,0-3.1,1.3-3.1,3.3v6.5h-1.2V100.4z"/>
			<path d="M493.6,105.1h3.2v-1.3c0-1.8-0.7-2.3-2.7-2.3c-1.3,0-2.2,0.1-2.8,1.2l-0.9-0.6c0.8-1.3,1.8-1.7,3.8-1.7
				c2.7,0,3.9,0.8,3.9,3.5v7.5h-1.2v-1.3c-0.6,1.2-1.7,1.5-3.1,1.5c-2.4,0-3.8-1.2-3.8-3.2C489.9,106,491.4,105.1,493.6,105.1z
				 M496.8,106.1h-3.2c-1.9,0-2.5,0.9-2.5,2c0,1.5,1.1,2.1,2.6,2.1c1.8,0,3.1-0.6,3.1-3V106.1z"/>
			<path d="M501,100.4h1.2v1.5c0.6-1,1.6-1.6,3.2-1.6c2.4,0,4,1.5,4,4.6v6.4h-1.2v-6.4c0-2.5-1.2-3.5-2.9-3.5c-2,0-3.1,1.3-3.1,3.3
				v6.5H501V100.4z"/>
			<path d="M519.5,96.2h1.2v15h-1.2v-1.3c-0.6,1-1.7,1.5-3.3,1.5c-2.8,0-4.2-1.8-4.2-4.8V105c0-3.1,1.5-4.8,4.2-4.8
				c1.6,0,2.7,0.5,3.3,1.5V96.2z M519.5,106.6V105c0-2.2-0.9-3.7-3.2-3.7c-2.1,0-3.1,1.3-3.1,3.7v1.6c0,2.3,1,3.7,3.1,3.7
				C518.7,110.3,519.5,108.7,519.5,106.6z"/>
			<path d="M377.6,135.3v-15h4.6c3.3,0,5.4,1.8,5.4,6.6v1.8c0,4.8-2.1,6.6-5.4,6.6H377.6z M386.3,128.7v-1.8c0-4.1-1.6-5.4-4.2-5.4
				h-3.3v12.7h3.3C384.7,134.1,386.3,132.9,386.3,128.7z"/>
			<path d="M393.5,129.1h3.2v-1.3c0-1.8-0.7-2.3-2.7-2.3c-1.3,0-2.2,0.1-2.8,1.2l-0.9-0.6c0.8-1.3,1.8-1.7,3.8-1.7
				c2.7,0,3.9,0.8,3.9,3.5v7.5h-1.2V134c-0.6,1.2-1.7,1.5-3.1,1.5c-2.4,0-3.8-1.2-3.8-3.2C389.8,130.1,391.2,129.1,393.5,129.1z
				 M396.6,130.2h-3.2c-1.9,0-2.5,0.9-2.5,2c0,1.5,1.1,2.1,2.6,2.1c1.8,0,3.1-0.6,3.1-3V130.2z"/>
			<path d="M399.9,124.4h1.4v-2.4h1.2v2.4h2.7v1.1h-2.7v6.1c0,1.7,0.2,2.5,2,2.5h0.7v1.2h-0.8c-2.4,0-3.1-1.1-3.1-3.3v-6.4h-1.4
				V124.4z"/>
			<path d="M410.7,129.1h3.2v-1.3c0-1.8-0.7-2.3-2.7-2.3c-1.3,0-2.2,0.1-2.8,1.2l-0.9-0.6c0.8-1.3,1.8-1.7,3.8-1.7
				c2.7,0,3.9,0.8,3.9,3.5v7.5h-1.2V134c-0.6,1.2-1.7,1.5-3.1,1.5c-2.4,0-3.8-1.2-3.8-3.2C407,130.1,408.4,129.1,410.7,129.1z
				 M413.8,130.2h-3.2c-1.9,0-2.5,0.9-2.5,2c0,1.5,1.1,2.1,2.6,2.1c1.8,0,3.1-0.6,3.1-3V130.2z"/>
			<path d="M433.9,120.3v15h-1.2l-7.5-12.5v12.5H424v-15h1.2l7.5,12.6v-12.6H433.9z"/>
			<path d="M438,130.2v0.5c0,2.2,1,3.7,3.3,3.7c1.3,0,2.2-0.4,2.8-1.3l1,0.7c-0.8,1.2-2,1.8-3.7,1.8c-2.9,0-4.6-1.8-4.6-4.8v-1.6
				c0-3.1,1.5-4.8,4.2-4.8s4.2,1.7,4.2,4.8v1.1H438z M438,129.1h6v0c0-2.4-1-3.7-3-3.7S438,126.7,438,129.1L438,129.1z"/>
			<path d="M446.9,124.4h1.4v-2.4h1.2v2.4h2.7v1.1h-2.7v6.1c0,1.7,0.2,2.5,2,2.5h0.7v1.2h-0.8c-2.4,0-3.1-1.1-3.1-3.3v-6.4h-1.4
				V124.4z"/>
			<path d="M460.7,126.4l-3.2,9h-1.1l-3.2-10.9h1.3l2.5,8.7l3.1-8.7h1l3.2,8.7l2.5-8.7h1.3l-3.2,10.9h-1.1L460.7,126.4z"/>
			<path d="M473.7,135.5c-2.8,0-4.4-1.7-4.4-4.8v-1.6c0-3.1,1.6-4.8,4.4-4.8s4.4,1.7,4.4,4.8v1.6
				C478.1,133.6,476.6,135.5,473.7,135.5z M476.9,129.1c0-2.4-1.2-3.7-3.2-3.7c-2.1,0-3.2,1.3-3.2,3.7v1.6c0,2.3,1,3.7,3.2,3.7
				c2.1,0,3.2-1.4,3.2-3.7V129.1z"/>
			<path d="M481.8,128.8v6.5h-1.2v-10.9h1.2v1.5c0.5-1,1.4-1.6,2.7-1.6c1.4,0,2.3,0.5,3.1,1.5l-1,0.7c-0.6-0.7-1.2-1.1-2.2-1.1
				C482.7,125.4,481.8,126.8,481.8,128.8z"/>
			<path d="M497.1,124.4l-4.7,4.8l5.4,6.1h-1.6l-4.7-5.2l-1.4,1.4v3.7H489v-15h1.2v9.6l5.3-5.5H497.1z"/>
		</g>
		<g>
			<path d="M306.2,7v6.9h-20.8v12.4h18.8V33h-18.8V47h20.8v6.8h-28.7V7H306.2z"/>
			<path d="M334.6,34.1L348.2,7h7.5v46.8h-7.6V22.4l-10.7,22.3h-5.6l-10.5-22.1v31.2h-7.6V7h7.5L334.6,34.1z"/>
			<path d="M381.6,54.4c-10.5,0-17.5-6.3-17.5-21v-6c0-14.7,7.1-21,17.5-21c10.5,0,17.6,6.3,17.6,21v6
				C399.2,48.1,392.1,54.4,381.6,54.4z M372,33.4c0,10.1,3.4,14.2,9.6,14.2c6.2,0,9.7-4.1,9.7-14.2v-6c0-10.1-3.5-14.2-9.7-14.2
				c-6.2,0-9.6,4.1-9.6,14.2V33.4z"/>
			<path d="M407.6,53.8V7h15.8C434,7,441,12.6,441,27.6v5.6c0,15-7.1,20.6-17.6,20.6H407.6z M433.1,33.2v-5.6c0-9.6-3-13.8-9.7-13.8
				h-7.9V47h7.9C430.2,47,433.1,42.8,433.1,33.2z"/>
			<path d="M448.1,19.9h7.1v3.1c1.5-2,3.9-3.7,8.4-3.7c7,0,12.4,3.5,12.4,13.3v21.2h-7.2V33.4c0-6-2.7-7.7-6.4-7.7
				c-4.5,0-7,3.1-7,7.6v20.5h-7.3V19.9z"/>
			<path d="M509.4,48.6c-2.4,4.1-6.2,5.8-12.2,5.8c-9.7,0-14.9-6.3-14.9-15.3v-4.6c0-10,4.9-15.2,13.8-15.2
				c9.3,0,13.7,5.6,13.7,15.6v3.7h-20.3v0.1c0,5.3,2,9.4,7.4,9.4c4,0,5.6-1.2,7-3.3L509.4,48.6z M489.7,33h13
				c-0.3-5-2.3-7.5-6.4-7.5C492,25.6,490,28.4,489.7,33z"/>
			<path d="M514.2,19.9h4.3v-7.5h7.2v7.5h7.2v6.2h-7.2v15.5c0,3.9,0.6,5.6,4.4,5.6h2.8v6.5h-3.3c-8.1,0-11.1-2.8-11.1-10.8V26.1
				h-4.3V19.9z"/>
		</g>
	</g>
	<path class="st22" d="M155.5,101.2L142,89.9l-22.6-6.7c9.1,15.6,25.2,26,43.6,26c12.4,0,23.7-4.7,32.6-12.6L175,90.6L155.5,101.2z"
		/>
	<path class="st23" d="M117.7,24.2c-12.4-1.3-23.2-4.9-30.5-9.8c-5.5,12-8.7,25.6-8.7,39.9c0,11.1,1.9,21.7,5.3,31.5l12.1-9.4
		l20.8,6.1c-4.4-8.3-7-17.9-7-28.2C109.7,43.3,112.6,33,117.7,24.2z"/>
	<path class="st23" d="M229.9,24.1c-8.5,0-16.5-1-23.6-2.9c6.2,9.3,9.9,20.8,9.9,33.1c0,17.2-7.2,32.6-18.5,43.1l7.4,2.2L226,68.3
		l15.1-44.8C237.5,23.9,233.7,24.1,229.9,24.1z"/>
	<path class="st23" d="M85.5,13.2c-4-3.1-6.8-6.6-8-10.4c-3.7,12.4-25,22-50.9,22c-9.8,0-18.9-1.4-26.7-3.7v47.3l46.5,27.4l20.6,3
		l15-11.7c-3.6-10.2-5.6-21.2-5.6-32.8C76.5,39.6,79.7,25.6,85.5,13.2z"/>
	<path class="st23" d="M135.6,54.3c0,15.7,12.3,28.5,27.4,28.5s27.4-12.8,27.4-28.5c0-15.4-11.8-27.9-26.4-28.5v15.6
		c6.6,0.5,11.9,6.1,11.9,12.8c0,7.1-5.8,12.9-12.9,12.9c-7.1,0-12.9-5.8-12.9-12.9c0-6.8,5.2-12.3,11.9-12.8V25.8
		C147.3,26.4,135.6,38.9,135.6,54.3z"/>
	<path class="st23" d="M203.3,20.4c-12.4-3.8-21.3-10.1-24-17.5c-1.7,5.8-7.3,10.9-15.3,14.7v6.2c15.7,0.6,28.4,14,28.4,30.5
		c0,16.8-13.2,30.5-29.4,30.5s-29.4-13.7-29.4-30.5c0-16.5,12.6-29.9,28.4-30.5v-5.3c-9,3.9-20.7,6.2-33.5,6.2
		c-2.9,0-5.7-0.1-8.5-0.4c-5.2,8.6-8.3,18.9-8.3,29.9c0,10.6,2.8,20.5,7.7,29l22.6,6.7l13.5,11.2L175,90.6l20.6,6.1
		c11.4-10.1,18.7-25.4,18.7-42.4C214.2,41.5,210.1,29.7,203.3,20.4z"/>
</g>
</svg>
