<?xml version="1.0" encoding="utf-8"?>
<!-- Generator: Adobe Illustrator 22.1.0, SVG Export Plug-In . SVG Version: 6.00 Build 0)  -->
<svg version="1.1"
	 id="svg15656" xmlns:cc="http://creativecommons.org/ns#" xmlns:dc="http://purl.org/dc/elements/1.1/" xmlns:rdf="http://www.w3.org/1999/02/22-rdf-syntax-ns#" xmlns:svg="http://www.w3.org/2000/svg"
	 xmlns="http://www.w3.org/2000/svg" xmlns:xlink="http://www.w3.org/1999/xlink" x="0px" y="0px" viewBox="0 0 300 207.7"
	 style="enable-background:new 0 0 300 207.7;" xml:space="preserve">
<style type="text/css">
	.st0{fill:#BDBCBC;}
	.st1{fill:#254AA5;}
	.st2{fill:#FFF200;}
	.st3{fill:#5A5758;}
</style>
<path id="path5555" class="st0" d="M0,54.6c0,0,88.9-11.5,91.4-11.9c3.8-0.6,7.3-1.4,10.4-2.2c7.2-2,13.8-5,19.7-8.9
	c5.6-3.8,10.8-9.2,16-15.3c3.3-3.8,6.7-8.8,10-13.6V0.3c-3.8,5.7-7.6,10.6-11.5,14.9c-5.1,5.7-10.5,10.4-16,13.9
	c-5.7,3.7-12.1,6.4-19,8.1c-3.1,0.8-6.4,1.4-10.2,1.9c-2.5,0.3-5,0.6-7.4,0.9C82.5,40.1,0,48.8,0,48.8L0,54.6L0,54.6z"/>
<path id="path5559" class="st0" d="M119.2,39.7c-5.6,3.2-12,5.5-19.1,7c-3,0.6-6.3,1.1-10.1,1.5c-2.2,0.2-4.4,0.4-6.7,0.6
	c-1.2,0.1-2.4,0.2-3.6,0.3c-27.2,2.4-54.3,5-79.7,7.5v5.8c25.5-3.1,52.8-6.3,80.1-9.4c1.2-0.1,2.4-0.3,3.6-0.4
	c2.2-0.2,4.5-0.5,6.7-0.8c3.9-0.5,7.3-1.1,10.4-1.8c7.4-1.7,14.1-4.3,19.8-7.7c5.7-3.4,10.8-8.3,16.2-14.1
	c3.4-3.7,7.2-8.8,10.7-13.7v-2.1c-4.2,5.6-8.1,10.4-12,14.4C130.2,32.2,124.7,36.5,119.2,39.7"/>
<path id="path5563" class="st0" d="M134.8,38.3c-5.4,5-11.1,8.9-16.8,11.6c-5.6,2.7-11.9,4.6-19.2,5.8c-3,0.5-6.3,0.9-10,1.3L0,64.2
	V70l78.8-8.4L89,60.6c3.8-0.4,7.2-0.9,10.2-1.5c7.6-1.4,14.1-3.6,19.9-6.5c5.9-3,11.8-8,17.3-13.3c3.7-3.5,7.2-8.1,11-12.9v-1.9
	C143.1,29.9,138.9,34.4,134.8,38.3"/>
<path id="path5567" class="st0" d="M113.3,68.1c-5.2,2.9-9,4.6-16.4,5.3c-4.5,0.5-9,0.7-13.5,0.9c-2.1,0.1-4.3,0.2-6.4,0.4
	c-13.4,0.8-26.5,1.6-40,2.5L0,79.7v5.8L37.4,82c12.1-1.1,26.1-2.3,39.9-3.5l10-0.8c3.9-0.3,7.1-0.6,10-1c7.6-1,14.1-2.5,19.8-4.7
	c6.2-2.3,12-5.9,17.8-10.1c5.3-3.8,12.5-11.3,12.6-11.4v-2c-4.8,4.6-7.5,7.3-12.7,10.7C128.6,63.4,117.9,65.6,113.3,68.1"/>
<path id="path5571" class="st0" d="M115.2,79.1c-5.6,1.6-11.9,2.8-19.2,3.4c-3,0.3-6.2,0.5-9.8,0.6l-9.9,0.4
	C51.6,84.6,27,85.9,0,87.4v5.7c25.8-2,51.1-3.9,76.4-5.7l9.9-0.7c3.8-0.3,7-0.5,10-0.9c7.5-0.8,14-2.1,19.7-4
	c6.3-2,12.5-4.9,18.4-8.7c4.3-2.8,8.6-6,13.1-9.9v-0.1c-4.9,4.2-9.7,5.2-14.3,8C127.4,74.6,121.4,77.3,115.2,79.1"/>
<path id="path5575" class="st0" d="M114.3,88.6c-5.6,1.3-11.7,2.2-19.2,2.7c-2.9,0.2-6,0.3-9.8,0.5l-9.8,0.4
	C50.7,93,25.6,94.1,0,95.2v5.7c25.5-1.7,50.5-3.4,75.7-5l9.8-0.6c3.8-0.2,7-0.4,9.9-0.7c7.6-0.7,13.8-1.7,19.6-3.2
	c6.5-1.7,12.7-4.1,18.7-7.3c4.6-2.4,9.2-5.3,13.9-8.9v-2.5c-5.1,3.7-10,6.7-14.9,9.2C126.7,84.9,120.6,87.1,114.3,88.6"/>
<path id="path5579" class="st0" d="M113.4,97.9c-5.7,1-11.7,1.7-19.2,2.1c-2.8,0.1-5.8,0.2-9.7,0.3L0,102.7v5.7l75-3.9l9.7-0.5
	c3.8-0.2,6.9-0.4,9.8-0.6c7.5-0.6,13.7-1.4,19.5-2.6c6.5-1.4,12.9-3.3,18.9-5.9c4.8-2,9.6-4.5,14.7-7.6V85
	c-5.4,3.1-10.5,5.6-15.5,7.6C126.1,95,119.8,96.8,113.4,97.9"/>
<path id="path5583" class="st0" d="M112.8,107.3c-10.4,1.4-21.1,1.5-31.4,1.7c-2.4,0-4.7,0.1-7.1,0.1L0,110.5v5.7l74.4-3.2
	c2.4-0.1,4.7-0.2,7.1-0.3c10.4-0.4,21.2-0.8,31.7-2.5c6.7-1,13.1-2.6,19-4.6c5-1.7,10.1-3.8,15.3-6.3V97c-5.5,2.5-10.8,4.7-16,6.2
	C125.6,105.1,119.3,106.5,112.8,107.3"/>
<path id="path5587" class="st0" d="M112.2,116.8c-9.7,0.8-19.7,0.8-29.3,0.8c-3,0-6,0-9,0c-24.6,0.1-49,0.3-73.9,0.5v5.7
	c23.7-0.8,48.8-1.6,74-2.4c3-0.1,6-0.2,9-0.3c9.7-0.2,19.7-0.5,29.5-1.6c6.9-0.7,13.1-1.8,19.1-3.3c5.2-1.3,10.6-3,16-5v-2.1
	c-5.6,2-11.1,3.6-16.5,4.8C125.1,115.3,118.9,116.2,112.2,116.8"/>
<path id="path5591" class="st0" d="M111.8,126.1c-4.1,0.2-8.4,0.2-13.4,0.2c-1.9,0-3.8,0-5.6,0l-19.1-0.2
	c-13.1-0.1-26.1-0.1-38.3-0.1L0,126v5.7l35.4-0.9c12.2-0.3,25.2-0.6,38.2-0.8l19.1-0.3c5.2-0.1,12.2-0.2,19.2-0.7
	c6.9-0.4,13.1-1.1,19.1-2.1c5.4-0.9,10.9-2,16.4-3.4v-2c-5.7,1.3-11.3,2.3-16.8,3.1C124.8,125.3,118.6,125.8,111.8,126.1"/>
<path id="path5595" class="st0" d="M92.5,135.1l-19.1-0.2c-24.3-0.3-48.7-0.8-73.5-1.3v5.7c23.7-0.2,48.8-0.3,73.5-0.6l19.1-0.3
	c6.4-0.1,12.7-0.2,19.1-0.4c13.1-0.4,24.9-1.3,35.8-2.8v-2c-11,1.2-22.8,1.8-35.9,1.9C105.3,135.2,98.9,135.1,92.5,135.1"/>
<path id="path5599" class="st0" d="M147.5,145.2L0,141.5v5.7h147.5V145.2z"/>
<path id="path5603" class="st0" d="M134.2,49.1c-5.6,4.5-9.9,7.7-16.8,10.4c-6,2.4-12.4,3.3-19.7,4.3c-4.7,0.7-9.6,1.6-14.4,2
	c-1.9,0.1-3.9,0.3-5.8,0.4L0,71.9v5.7L77.9,70L88,69.1c3.7-0.4,7.1-0.8,10.2-1.3c7.5-1.2,14.1-3.1,19.9-5.7c6-2.7,12.2-7,17.9-11.8
	c3.9-3.2,7.6-7.3,11.6-11.8v-2.1C142.6,41.6,138.5,45.6,134.2,49.1"/>
<path id="path5607" class="st1" d="M190.5,60.7H61.3v86.5h129.2V60.7z"/>
<path id="path5611" class="st2" d="M127.3,73h4.5l-3.6,2.8l1.4,4.5l-3.6-2.8l-3.6,2.8l1.4-4.5l-3.7-2.8h4.5l1.4-4.4L127.3,73
	L127.3,73z"/>
<path id="path5615" class="st2" d="M127.5,130.7h4.5l-3.6,2.7l1.4,4.3l-3.6-2.6l-3.6,2.6l1.4-4.3l-3.7-2.7h4.5l1.4-4.2L127.5,130.7z
	"/>
<path id="path5619" class="st2" d="M141.8,126.9h4.5l-3.6,2.7l1.4,4.3l-3.6-2.7l-3.6,2.7l1.4-4.3l-3.7-2.7h4.5l1.4-4.2L141.8,126.9z
	"/>
<path id="path5623" class="st2" d="M141.8,76.9h4.5l-3.6,2.7l1.4,4.3l-3.6-2.7l-3.6,2.7l1.4-4.3l-3.7-2.7h4.5l1.4-4.2L141.8,76.9z"
	/>
<path id="path5627" class="st2" d="M152.3,87.5h4.5l-3.6,2.7l1.4,4.3l-3.6-2.7l-3.6,2.7l1.4-4.3l-3.7-2.7h4.5l1.4-4.2L152.3,87.5z"
	/>
<path id="path5631" class="st2" d="M152.3,116.4h4.5l-3.6,2.7l1.4,4.3l-3.6-2.7l-3.6,2.7l1.4-4.3l-3.7-2.7h4.5l1.4-4.2L152.3,116.4z
	"/>
<path id="path5635" class="st2" d="M156.3,101.7h4.5l-3.6,2.7l1.4,4.3l-3.6-2.7l-3.6,2.7l1.4-4.3l-3.7-2.7h4.5l1.4-4.2L156.3,101.7z
	"/>
<path id="path5639" class="st2" d="M112.8,76.9h4.5l-3.6,2.7l1.4,4.3l-3.6-2.7l-3.6,2.7l1.4-4.3l-3.7-2.7h4.5l1.4-4.2L112.8,76.9
	L112.8,76.9z"/>
<path id="path5643" class="st2" d="M102.5,87.5h4.5l-3.6,2.7l1.4,4.3l-3.6-2.7l-3.6,2.7l1.4-4.3l-3.7-2.7h4.5l1.4-4.2L102.5,87.5
	L102.5,87.5z"/>
<path id="path5647" class="st2" d="M98.7,101.8h4.5l-3.6,2.7l1.4,4.3l-3.6-2.7l-3.6,2.7l1.4-4.3l-3.7-2.7H96l1.4-4.2L98.7,101.8z"/>
<path id="path5651" class="st2" d="M102.5,116.5h4.5l-3.6,2.7l1.4,4.3l-3.6-2.7l-3.6,2.7l1.4-4.3l-3.7-2.7h4.5l1.4-4.2L102.5,116.5
	L102.5,116.5z"/>
<path id="path5655" class="st2" d="M112.9,126.9h4.5l-3.6,2.7l1.4,4.3l-3.6-2.7l-3.6,2.7l1.4-4.3l-3.7-2.7h4.5l1.4-4.2L112.9,126.9z
	"/>
<path id="path5657" class="st1" d="M61.3,207.7h129.2v-7.4H61.3V207.7z"/>
<path id="path5661" class="st0" d="M208.9,0c0,0,26.9,42,31.9,49.7c4.9,7.7,10.6,13.8,30.5,18c19.9,4.1,28.6,6.1,28.6,6.1v1.5
	c0,0-12.7-2.6-29-6.2c-16.3-3.6-23-4.8-30.4-14.9c-6.2-8.4-31.6-44.3-31.6-44.3L208.9,0L208.9,0z"/>
<path id="path5665" class="st0" d="M208.9,11.9c0,0,27.8,39.9,31.5,44.8c3.7,4.9,8.7,12.8,30.7,17.4c5.7,1.2,28.8,5.8,28.8,5.8v1.3
	c0,0-17.6-3.4-28.8-5.8c-11.2-2.4-23.1-4.5-30.6-14c-6.8-8.6-31.7-40.5-31.7-40.5L208.9,11.9L208.9,11.9z"/>
<path id="path5669" class="st0" d="M208.9,23.9c0,0,26.2,33.9,31.5,40.7c5.3,6.8,12.6,12.4,30.7,15.8c10.4,2,28.8,5.4,28.8,5.4v1.3
	c0,0-16.1-3-28.8-5.3c-12.7-2.3-23.2-4.5-30.7-12.9c-6.6-7.4-31.6-36.5-31.6-36.5L208.9,23.9L208.9,23.9z"/>
<path id="path5673" class="st0" d="M208.9,35.7c0,0,26.6,30.8,31.7,36.2c8,8.5,11.8,11.5,30.6,15.1c7.5,1.4,28.8,5.1,28.8,5.1v1.3
	c0,0-17.6-3.2-28.8-5.1c-11.2-2-20.6-2.7-30.7-12.4c-7.7-7.4-31.5-32.3-31.5-32.3L208.9,35.7L208.9,35.7z"/>
<path id="path5677" class="st0" d="M208.9,47.9c0,0,24.5,25.2,31.6,32.4c7.5,7.7,17.2,10.5,30.5,12.9c12.8,2.2,28.8,4.8,28.8,4.8
	v1.4c0,0-15.1-2.4-28.8-4.7c-13.5-2.3-22.9-3.5-30.6-10.5c-6.9-6.2-31.5-28.9-31.5-28.9V47.9L208.9,47.9z"/>
<path id="path5681" class="st0" d="M208.9,59.3c0,0,23.3,21.2,31.6,28.5c7.6,6.7,13.8,8.8,30.6,11.7c16.8,2.9,28.8,4.7,28.8,4.7v1.5
	c0,0-15.2-2.4-28.8-4.6c-13.7-2.1-22.4-3-30.5-9.5c-9.4-7.5-31.6-25.4-31.6-25.4L208.9,59.3L208.9,59.3z"/>
<path id="path5685" class="st0" d="M208.9,71.4c0,0,26.6,20.7,31.6,24.3c5,3.6,11.6,7.9,30.7,10.6c19,2.7,28.7,4,28.7,4v1.6
	c0,0-17.2-2.5-28.7-3.9c-11.5-1.4-20.3-2-30.6-8.8c-10-6.5-31.6-21.4-31.6-21.4L208.9,71.4L208.9,71.4z"/>
<path id="path5689" class="st0" d="M208.9,83c0,0,26.7,17.4,31.8,20.2c5.1,2.8,11,7.3,30.5,9.7c19.5,2.4,28.7,3.5,28.7,3.5v1.5
	c0,0-16.1-1.7-28.8-3.1c-12.6-1.3-21.2-3.2-30.6-8.2c-9.4-5-31.5-17.7-31.5-17.7L208.9,83L208.9,83z"/>
<path id="path5693" class="st0" d="M208.9,94.7c0,0,23.6,12.6,31.6,16.5c8.9,4.4,16.6,6.5,30.6,8.1c13.7,1.6,28.8,3.2,28.8,3.2v1.4
	c0,0-13.9-1.5-28.8-2.8c-14.7-1.4-20-2-30.6-6.6c-9.5-4.1-31.7-14.2-31.7-14.2L208.9,94.7L208.9,94.7z"/>
<path id="path5697" class="st0" d="M208.9,106.5c0,0,18.6,7.8,31.7,12.9c12.9,5,22.8,5.4,30.6,6.3c3.5,0.4,28.6,2.9,28.6,2.9v1.4
	c0,0-15-1.2-28.7-2.4c-13.7-1.2-19.5-1.7-30.6-5.3c-11.2-3.6-31.7-10.6-31.7-10.6L208.9,106.5L208.9,106.5z"/>
<path id="path5701" class="st0" d="M208.9,118.5c0,0,18.9,5.7,31.7,9c12.8,3.3,24.7,4.7,30.6,5c5.9,0.4,28.6,2.2,28.6,2.2v1.3
	c0,0-12.8-0.9-28.7-2c-12.8-0.9-23.1-1.8-30.6-3.5c-8.3-1.8-31.7-7.3-31.7-7.3L208.9,118.5L208.9,118.5z"/>
<path id="path5705" class="st0" d="M208.9,130.3c0,0,15.5,2.6,31.8,5.3c12.2,2,28.8,3.2,30.5,3.3c1.8,0.1,28.8,1.9,28.8,1.9v1.4
	c0,0-17.3-0.9-28.8-1.5c-12-0.7-23.8-1.4-30.6-2c-15.1-1.6-31.7-3.6-31.7-3.6V130.3z"/>
<path id="path5709" class="st0" d="M208.9,142.5c0,0,24.3,0.9,31.7,1.1c7.4,0.2,59.3,2.2,59.3,2.2v1.4l-91-0.1V142.5L208.9,142.5z"
	/>
<path id="path5713" class="st3" d="M68.9,155.7c0-0.3,0.1-0.4,0.4-0.4h7.5c0.2,0,0.4,0.1,0.4,0.4v1.3c0,0.2-0.1,0.4-0.4,0.4h-5.6
	v3.5h4.9c0.3,0,0.4,0.1,0.4,0.4v1.3c0,0.2-0.1,0.4-0.4,0.4h-4.9v4h5.7c0.2,0,0.4,0.1,0.4,0.4v1.2c0,0.3-0.1,0.4-0.4,0.4h-7.6
	c-0.3,0-0.4-0.1-0.4-0.4L68.9,155.7L68.9,155.7z"/>
<path id="path5717" class="st3" d="M86.7,168.8h-1.4c-0.3,0-0.4-0.1-0.4-0.4v-0.6l0,0c-0.8,0.6-2.2,1.2-3.4,1.2c-2.8,0-3-1.6-3-3.8
	v-6c0-0.2,0.1-0.4,0.4-0.4h1.5c0.3,0,0.4,0.1,0.4,0.4v5.7c0,1.2,0.2,2,1.5,2c0.9,0,2.2-0.7,2.8-0.9v-6.8c0-0.2,0.1-0.4,0.4-0.4h1.4
	c0.3,0,0.4,0.1,0.4,0.4v9.2C87.1,168.7,87,168.8,86.7,168.8"/>
<path id="path5721" class="st3" d="M91.1,168.4c0,0.2-0.1,0.4-0.4,0.4h-1.5c-0.3,0-0.4-0.1-0.4-0.4v-9.2c0-0.3,0.1-0.4,0.4-0.4h1.4
	c0.3,0,0.4,0.2,0.4,0.4v0.9l0,0c0.6-0.6,2.1-1.3,3-1.4c0.3-0.1,0.4,0,0.5,0.3l0.1,1.4c0,0.3,0,0.4-0.4,0.5c-1.1,0.2-2.6,0.6-3.3,0.9
	L91.1,168.4L91.1,168.4z"/>
<path id="path5725" class="st3" d="M99.7,160.6c-1.7,0-2.1,1.1-2.1,3.2c0,2.2,0.4,3.2,2.1,3.2c1.9,0,2.2-1,2.2-3.2
	C101.9,161.7,101.5,160.6,99.7,160.6 M99.6,169c-4.1,0-4.4-3-4.4-5.3c0-1.9,0.4-5,4.4-5c4,0,4.5,2.6,4.5,5
	C104.1,166,103.9,169,99.6,169"/>
<path id="path5729" class="st3" d="M110.2,160.7c-0.8,0-2.1,0.6-2.7,0.9v5.1c0.9,0.3,1.7,0.3,2.3,0.3c1.5,0,2-0.8,2-3.3
	C111.8,161.2,111.3,160.7,110.2,160.7 M110.1,169c-0.7,0-1.6-0.1-2.5-0.5l0,0v3.6c0,0.2-0.1,0.4-0.4,0.4h-1.4
	c-0.3,0-0.4-0.1-0.4-0.4v-12.9c0-0.3,0.1-0.4,0.4-0.4h1.4c0.3,0,0.4,0.2,0.4,0.4v0.6l0.1,0c0.7-0.5,2-1.2,3.2-1.2
	c2.7,0,3.4,2,3.4,5.1C114.1,167.1,113.3,169,110.1,169"/>
<path id="path5733" class="st3" d="M117.7,162.9h4c0-1.2-0.3-2.4-2-2.4C118.2,160.5,117.8,161.4,117.7,162.9 M117.6,164.4
	c0.1,2.1,0.8,2.6,2.5,2.6c0.7,0,1.9-0.1,2.6-0.2c0.4,0,0.5,0,0.6,0.3l0.1,0.7c0.1,0.3,0,0.5-0.3,0.6c-0.8,0.3-2.3,0.5-3.3,0.5
	c-3.9,0-4.5-2.5-4.5-5.1c0-2,0.4-5.2,4.3-5.2c3.6,0,4.3,2.4,4.4,4.6c0,0.7-0.2,1.2-1,1.2L117.6,164.4L117.6,164.4z"/>
<path id="path5737" class="st3" d="M131.2,164.3h-2.5c-1,0-1.7,0.4-1.7,1.7c0,0.9,0.3,1.2,1.3,1.2c0.9,0,2.1-0.5,2.9-1L131.2,164.3
	L131.2,164.3z M131.4,167.7c-1,0.8-2.4,1.3-3.8,1.3c-2.2,0-2.8-1.2-2.8-2.9c0-2.4,1.3-3.4,3.8-3.4h2.6v-0.5c0-1.2-0.5-1.7-2.1-1.7
	c-0.7,0-2,0.1-2.8,0.2c-0.4,0.1-0.5,0-0.6-0.2l-0.2-0.8c0-0.3,0-0.4,0.5-0.6c0.9-0.3,2.5-0.4,3.4-0.4c3.5,0,4,1.4,4,3.7v3.9
	c0,0.8,0.1,0.9,0.7,0.9c0.3,0,0.4,0.1,0.4,0.3v0.9c0,0.2-0.1,0.4-0.5,0.4c-0.3,0.1-0.7,0.1-1,0.1
	C132.2,168.9,131.6,168.6,131.4,167.7L131.4,167.7L131.4,167.7z"/>
<path id="path5741" class="st3" d="M143.5,168.8H142c-0.3,0-0.4-0.1-0.4-0.4l0-5.7c0-1.2-0.3-2-1.5-2c-0.8,0-2.2,0.7-2.8,0.9v6.8
	c0,0.2-0.1,0.4-0.4,0.4h-1.4c-0.3,0-0.4-0.1-0.4-0.4v-9.2c0-0.3,0.1-0.4,0.4-0.4h1.4c0.3,0,0.4,0.1,0.4,0.4v0.6c0,0,0,0,0.1,0
	c0.8-0.5,2.2-1.2,3.4-1.2c2.8,0,3,1.8,3,3.9v5.9C143.9,168.7,143.8,168.8,143.5,168.8"/>
<path id="path5745" class="st3" d="M74.2,176.7c1,0,2.6,0.1,3.7,0.6c0.3,0.1,0.4,0.3,0.4,0.6l-0.2,0.8c-0.1,0.2-0.2,0.3-0.5,0.3
	c-1-0.1-2.2-0.3-3.3-0.3c-2.8,0-3.2,2.2-3.2,4.9c0,2.7,0.5,4.8,3.2,4.8c1.2,0,2.2-0.1,3.3-0.3c0.4,0,0.5,0.1,0.6,0.3l0.2,0.8
	c0.1,0.3,0,0.5-0.3,0.7c-1,0.4-2.8,0.6-3.8,0.6c-4.5,0-5.5-3.4-5.5-6.8C68.7,180.2,69.5,176.7,74.2,176.7"/>
<path id="path5749" class="st3" d="M82.9,182.1c-1.7,0-2.1,1.1-2.1,3.2c0,2.2,0.4,3.2,2.1,3.2c1.9,0,2.2-1,2.2-3.2
	C85.1,183.2,84.8,182.1,82.9,182.1 M82.9,190.5c-4.1,0-4.4-3-4.4-5.3c0-1.9,0.4-5,4.4-5c4,0,4.5,2.6,4.5,5
	C87.4,187.5,87.1,190.5,82.9,190.5"/>
<path id="path5753" class="st3" d="M102.8,190.3h-1.5c-0.3,0-0.4-0.1-0.4-0.4v-5.8c0-1.5-0.4-1.9-1.4-1.9c-0.8,0-2,0.6-2.6,0.9
	c0,0.2,0,0.6,0,1v5.8c0,0.2-0.1,0.4-0.4,0.4h-1.5c-0.3,0-0.3-0.1-0.3-0.4v-5.9c0-1.2-0.3-1.8-1.3-1.8c-0.7,0-1.9,0.5-2.6,0.9v6.8
	c0,0.2-0.1,0.4-0.4,0.4h-1.5c-0.3,0-0.4-0.1-0.4-0.4v-9.2c0-0.3,0.1-0.4,0.4-0.4h1.4c0.3,0,0.4,0.2,0.4,0.4v0.6l0,0
	c0.8-0.6,1.9-1.2,3-1.2c1.2,0,2.2,0.2,2.8,1.4c1-0.8,2.3-1.4,3.6-1.4c2.7,0,3,1.8,3,3.8v6C103.2,190.2,103.1,190.3,102.8,190.3"/>
<path id="path5757" class="st3" d="M118.8,190.3h-1.5c-0.3,0-0.4-0.1-0.4-0.4v-5.8c0-1.5-0.4-1.9-1.4-1.9c-0.8,0-2,0.6-2.6,0.9
	c0,0.2,0,0.6,0,1v5.8c0,0.2-0.1,0.4-0.4,0.4h-1.5c-0.3,0-0.3-0.1-0.3-0.4v-5.9c0-1.2-0.3-1.8-1.3-1.8c-0.7,0-1.9,0.5-2.6,0.9v6.8
	c0,0.2-0.1,0.4-0.4,0.4h-1.5c-0.3,0-0.4-0.1-0.4-0.4v-9.2c0-0.3,0.1-0.4,0.4-0.4h1.4c0.3,0,0.4,0.2,0.4,0.4v0.6l0,0
	c0.8-0.6,1.9-1.2,3-1.2c1.2,0,2.2,0.2,2.8,1.4c1-0.8,2.3-1.4,3.6-1.4c2.7,0,3,1.8,3,3.8v6C119.2,190.2,119.1,190.3,118.8,190.3"/>
<path id="path5761" class="st3" d="M123.1,190c0,0.2-0.1,0.4-0.4,0.4h-1.4c-0.3,0-0.4-0.1-0.4-0.4v-9.2c0-0.3,0.1-0.4,0.4-0.4h1.4
	c0.3,0,0.4,0.2,0.4,0.4V190z M122,178.9c-1.1,0-1.2-0.6-1.2-1.2c0-0.7,0.2-1.2,1.2-1.2c1,0,1.2,0.5,1.2,1.2
	C123.2,178.3,123,178.9,122,178.9"/>
<path id="path5765" class="st3" d="M128.1,190.5c-1,0-2.4-0.1-3.2-0.4c-0.4-0.2-0.5-0.4-0.4-0.7l0.1-0.7c0.1-0.3,0.2-0.3,0.5-0.3
	c0.9,0.1,2.2,0.2,2.9,0.2c1.3,0,1.8-0.3,1.8-1.2c0-0.9-0.4-1.1-1.6-1.3c-2-0.3-3.7-0.7-3.7-2.9c0-2,1.5-3.1,3.8-3.1
	c0.8,0,2.2,0.1,3.1,0.4c0.3,0.1,0.5,0.3,0.4,0.6l-0.2,0.7c-0.1,0.3-0.2,0.3-0.5,0.3c-0.9-0.1-2-0.2-2.8-0.2c-1.3,0-1.6,0.4-1.6,1.1
	c0,0.8,0.5,0.9,1.7,1.1c1.9,0.3,3.7,0.7,3.7,3.1C132.2,189.7,130.2,190.5,128.1,190.5"/>
<path id="path5769" class="st3" d="M136.6,190.5c-1,0-2.4-0.1-3.2-0.4c-0.4-0.2-0.5-0.4-0.4-0.7l0.1-0.7c0.1-0.3,0.2-0.3,0.5-0.3
	c0.9,0.1,2.2,0.2,2.9,0.2c1.3,0,1.8-0.3,1.8-1.2c0-0.9-0.4-1.1-1.6-1.3c-2-0.3-3.7-0.7-3.7-2.9c0-2,1.5-3.1,3.8-3.1
	c0.8,0,2.2,0.1,3.1,0.4c0.3,0.1,0.5,0.3,0.4,0.6l-0.2,0.7c-0.1,0.3-0.2,0.3-0.5,0.3c-0.9-0.1-2-0.2-2.8-0.2c-1.3,0-1.6,0.4-1.6,1.1
	c0,0.8,0.5,0.9,1.7,1.1c1.9,0.3,3.7,0.7,3.7,3.1C140.8,189.7,138.7,190.5,136.6,190.5"/>
<path id="path5773" class="st3" d="M144.4,190c0,0.2-0.1,0.4-0.4,0.4h-1.4c-0.3,0-0.4-0.1-0.4-0.4v-9.2c0-0.3,0.1-0.4,0.4-0.4h1.4
	c0.3,0,0.4,0.2,0.4,0.4V190z M143.3,178.9c-1.1,0-1.2-0.6-1.2-1.2c0-0.7,0.2-1.2,1.2-1.2c1,0,1.2,0.5,1.2,1.2
	C144.5,178.3,144.3,178.9,143.3,178.9"/>
<path id="path5777" class="st3" d="M150.2,182.1c-1.7,0-2.1,1.1-2.1,3.2c0,2.2,0.4,3.2,2.1,3.2c1.9,0,2.2-1,2.2-3.2
	C152.4,183.2,152.1,182.1,150.2,182.1 M150.2,190.5c-4.1,0-4.4-3-4.4-5.3c0-1.9,0.4-5,4.4-5c4,0,4.5,2.6,4.5,5
	C154.7,187.5,154.4,190.5,150.2,190.5"/>
<path id="path5781" class="st3" d="M164.1,190.3h-1.5c-0.3,0-0.4-0.1-0.4-0.4l0-5.7c0-1.2-0.3-2-1.5-2c-0.8,0-2.2,0.7-2.8,0.9v6.8
	c0,0.2-0.1,0.4-0.4,0.4h-1.4c-0.3,0-0.4-0.1-0.4-0.4v-9.2c0-0.3,0.1-0.4,0.4-0.4h1.4c0.3,0,0.4,0.1,0.4,0.4v0.6c0,0,0,0,0.1,0
	c0.8-0.5,2.2-1.2,3.4-1.2c2.8,0,3,1.8,3,3.9v5.9C164.5,190.2,164.4,190.3,164.1,190.3"/>
</svg>
