<?xml version="1.0" encoding="utf-8"?>
<!-- Generator: Adobe Illustrator 22.1.0, SVG Export Plug-In . SVG Version: 6.00 Build 0)  -->
<svg version="1.1" id="Layer_1" xmlns="http://www.w3.org/2000/svg" xmlns:xlink="http://www.w3.org/1999/xlink" x="0px" y="0px"
	 viewBox="0 0 373 112.4" style="enable-background:new 0 0 373 112.4;" xml:space="preserve">
<style type="text/css">
	.st0{fill:#3F98BD;}
	.st1{fill:#3C3C3B;}
</style>
<g>
	<path class="st0" d="M47.1,10H35.7c-1.5,0-2.5,1.1-2.5,2.5v11.3c0,1.5,1.1,2.5,2.5,2.5h11.3c1.5,0,2.5-1.1,2.5-2.5V12.5
		C49.5,11.1,48.6,10,47.1,10z"/>
	<path class="st1" d="M251.9,33.2c-20.2,0-29.6,10.8-29.6,34.2c0,24,10,33.9,33.1,33.9c6.7,0,12.6-0.8,18.2-2.1
		c1.1-0.2,1.7-1.2,1.7-2.5v-8.9c0-1.6-1-2.1-2.5-1.9c-6.2,1.1-10.4,1.7-16.4,1.7c-11.9,0-17.3-3-18.1-14.7h39c1.9,0,2.7-0.8,2.7-2.7
		V70C280.2,44,271.9,33.2,251.9,33.2z M238.5,62c0.6-11.6,4.8-15.5,13.6-15.5c8.5,0,12.2,3.9,13,15.5C265.1,62,238.5,62,238.5,62z"
		/>
	<path class="st1" d="M108.2,86.9c-1,0.2-2.7,0.4-4.8,0.4c-5.1,0-7-1.6-7-10.5V37c0-1.3-0.8-2.1-2.1-2.1H83c-1.3,0-2.1,0.8-2.1,2.1
		v41.8c0,16.4,5.8,21.8,19.3,21.8c3.8,0,7-0.4,8.4-0.7c1.6-0.2,2.1-1.3,2.1-2.5v-8.8C110.5,87.2,109.7,86.6,108.2,86.9z"/>
	<path class="st1" d="M190.9,34.7c-3.8,0-7,0.4-8.4,0.7c-1.6,0.2-2.1,1.3-2.1,2.5v8.8c0,1.5,0.8,2.1,2.3,1.7c1-0.2,2.7-0.4,4.8-0.4
		c5.1,0,7,1.6,7,10.5v39.9c0,1.3,0.8,2.1,2.1,2.1H208c1.3,0,2.1-0.8,2.1-2.1V56.5C210.2,40.1,204.3,34.7,190.9,34.7z"/>
	<path class="st1" d="M155.3,34.7c-3.8,0-7,0.4-8.4,0.7c-1.6,0.2-2.1,1.3-2.1,2.5v8.8c0,1.5,0.8,2.1,2.3,1.7c1-0.2,2.7-0.4,4.8-0.4
		c5.1,0,7,1.6,7,10.5v39.9c0,1.3,0.8,2.1,2.1,2.1h11.3c1.3,0,2.1-0.8,2.1-2.1V56.5C174.6,40.1,168.7,34.7,155.3,34.7z"/>
	<path class="st1" d="M120,34.7c-3.8,0-7,0.4-8.4,0.7c-1.6,0.2-2.1,1.3-2.1,2.5v8.8c0,1.5,0.8,2.1,2.3,1.7c1-0.2,2.7-0.4,4.8-0.4
		c5.1,0,7,1.6,7,10.5v39.9c0,1.3,0.8,2.1,2.1,2.1h11.3c1.3,0,2.1-0.8,2.1-2.1V56.5C139.3,40.1,133.5,34.7,120,34.7z"/>
	<path class="st1" d="M337.2,87.8c-4.5,0.6-7.4,0.8-10.9,0.8c-13.4,0-17.5-3.9-17.5-20.7s4.3-20.7,17.4-20.7c3.5,0,6.4,0.2,10.9,0.8
		c1.5,0.2,2.5-0.2,2.5-2.1l0.2-8.6c0-1.2-0.7-2.2-1.9-2.5c-4.3-1-9.2-1.5-14.4-1.5c-22,0-31,10-31,34.5s8.9,34.5,31,34.5
		c5.3,0,10.1-0.6,14.4-1.5c1.2-0.2,1.9-1.2,1.9-2.5v-8.6C339.7,88,338.7,87.6,337.2,87.8z"/>
</g>
</svg>
