<?xml version="1.0" encoding="utf-8"?>
<!-- Generator: Adobe Illustrator 22.1.0, SVG Export Plug-In . SVG Version: 6.00 Build 0)  -->
<svg version="1.1" id="Layer_1" xmlns="http://www.w3.org/2000/svg" xmlns:xlink="http://www.w3.org/1999/xlink" x="0px" y="0px"
	 viewBox="0 0 218.3 100" style="enable-background:new 0 0 218.3 100;" xml:space="preserve">
<style type="text/css">
	.st0{fill:none;}
	.st1{fill:#154273;}
	.st2{fill:#FFFFFF;}
</style>
<g id="Laag_1">
	<g>
		<rect class="st0" width="314" height="125"/>
		<rect class="st1" width="50" height="100"/>
	</g>
	<path class="st2" d="M25.9,77.4H25V75h0.9V77.4z M29.8,66.7H29v-2.4h0.9v2.4H29.8z M13.7,62.6c-0.1,0-0.5,0-0.5,0.1s0.2,0,0.5,0.1
		c0.7,0.1,1,0.5,1.5,0.5c0.4,0,0.9-0.3,0.7-0.9c0-0.1-0.1-0.1-0.1,0c-0.1,0.3-0.4,0.5-0.8,0.5C14.5,62.7,14.4,62.6,13.7,62.6z
		 M8.9,65c0.1,0.1,0.9,1.2-0.4,1.6c-0.1,0-0.1,0.1,0,0.1c0.9,0.4,1.4-0.3,1.4-0.3c0.5,1.1-0.3,1.7-0.3,1.7c0.1,0.2,0.5,0.5,1.2,0.7
		c0.3-0.1,0.6-0.4,0.8-0.8c0,0,0.2,0.5,0,0.9c1.9,0.2,2.6-1.3,4-1.1c0,0,0.1,0,0.1-0.1c0-0.9-0.6-2.7-2.4-3S12,63.6,12,63.6
		c0.8,0,1.2,0.3,1.2,0.3c0.1-0.2-0.1-0.5-0.1-0.5c0.1-0.1,0.1-0.4,0.1-0.4c-0.9,0-1.1-0.2-1.1-0.2c-0.1-0.5,0.2-1.2,1.5-0.5
		c0.3-0.3,0.3-0.7,0.3-0.7c0.1,0,0.2-0.2,0.2-0.3c0-0.2-1-0.8-1.3-0.9c-0.1-0.3-0.5-0.8-1.7-0.6c-0.6,0.1-1-0.1-0.8-0.4
		c0-0.1-0.1-0.1-0.1,0c-0.1,0.1-0.3,0.5,0.2,0.8S11,61,11,61.1c0,0.1-0.1,0.1-0.2,0c-0.3-0.9-1.5-1.1-2.3-0.6c0,0.5,0.6,0.8,0.9,0.8
		c0.2,0,0.4-0.2,0.4-0.4c0-0.1,0.1-0.1,0.1,0c0.1,0.3-0.4,1-1.1,0.6c-0.7,0.7-0.4,1.7-0.4,2c0.1,0.6-0.2,1.2-0.7,0.9H7.6
		C7.8,64.9,8.3,65.3,8.9,65z M13,61.2c-0.3,0.4-0.9,0.3-1-0.3C12.7,60.9,13,60.9,13,61.2z M35.1,62.7c-0.4,0-0.7-0.2-0.8-0.5
		c0-0.1-0.1-0.1-0.1,0c-0.2,0.6,0.3,0.9,0.7,0.9c0.5,0,0.8-0.4,1.5-0.5c0.3-0.1,0.5,0,0.5-0.1s-0.5-0.1-0.5-0.1
		C35.6,62.6,35.5,62.7,35.1,62.7z M42.2,64.5C42.2,64.4,42.2,64.4,42.2,64.5c-0.6,0.2-0.9-0.4-0.8-1c0.1-0.3,0.4-1.3-0.4-2
		c-0.7,0.4-1.2-0.3-1.1-0.6c0-0.1,0.1-0.1,0.1,0c0,0.2,0.2,0.4,0.4,0.4c0.3,0,0.8-0.3,0.9-0.8c-0.8-0.5-2-0.3-2.3,0.6
		c0,0.1-0.2,0.1-0.2,0s0-0.6,0.6-0.9c0.5-0.2,0.3-0.6,0.2-0.8c-0.1-0.1-0.2,0-0.1,0c0.2,0.3-0.2,0.5-0.8,0.4
		c-1.2-0.2-1.6,0.3-1.7,0.6c-0.3,0.1-1.3,0.6-1.3,0.9c0,0.1,0.1,0.2,0.2,0.3c0,0,0,0.4,0.3,0.7c1.3-0.8,1.6-0.1,1.5,0.5
		c0,0-0.2,0.2-1.1,0.2c0,0,0,0.3,0.1,0.4c0,0-0.2,0.2-0.1,0.5c0,0,0.4-0.3,1.2-0.3c0,0,0.5,0.7-1.3,1.1c-1.8,0.3-2.4,2.1-2.4,3
		c0,0,0,0.1,0.1,0.1c1.5-0.3,2.1,1.2,4,1.1c-0.2-0.4,0-0.9,0-0.9c0.1,0.4,0.5,0.7,0.8,0.8c0.7-0.2,1.1-0.5,1.2-0.7
		c0,0-0.7-0.6-0.2-1.7c0,0,0.5,0.7,1.4,0.3c0.1,0,0.1-0.1,0-0.1C40.1,66.2,41,65.1,41,65C41.7,65.3,42.2,64.9,42.2,64.5z M38.1,60.9
		c-0.1,0.6-0.7,0.7-1,0.3C37.1,60.9,37.4,60.9,38.1,60.9z M24.7,50.2c0,0.2,0.1,0.3,0.1,0.4c0.1,0.2,0.1,0.2,0,0.3s-0.1,0.1-0.3,0
		c-0.1-0.1-0.2-0.1-0.4-0.1c-0.3,0-0.4,0.2-0.4,0.3c0,0.2,0.1,0.3,0.4,0.3c0.2,0,0.3-0.1,0.4-0.1c0.2-0.1,0.2-0.1,0.3,0
		c0.1,0.1,0,0.6-0.1,1C24.2,52.4,24,52.8,24,53c0,0.5,0.6,0.9,0.9,1c0.3-0.2,0.9-0.5,0.9-1c0-0.2-0.2-0.6-0.7-0.7
		c-0.1-0.4-0.1-1-0.1-1c0.1-0.1,0.1-0.1,0.3,0c0.1,0.1,0.2,0.1,0.4,0.1c0.3,0,0.4-0.2,0.4-0.3c0-0.2-0.1-0.3-0.4-0.3
		c-0.2,0-0.3,0.1-0.4,0.1c-0.2,0.1-0.2,0.1-0.3,0c-0.1-0.1-0.1-0.1,0-0.3c0.1-0.1,0.1-0.2,0.1-0.4c0-0.3-0.2-0.4-0.3-0.4
		C24.9,49.8,24.7,49.9,24.7,50.2z M25,54.3c-0.4,0-0.7,0.3-0.7,0.7s0.3,0.7,0.7,0.7c0.4,0,0.7-0.3,0.7-0.7S25.4,54.3,25,54.3z
		 M25,60.7c2.7,0,4.2,0.5,4.2,0.5c0-1.3,0-2.1,0.8-2c-0.4-1.1,1.4-1.6,1.4-3.1c0-1-0.7-1.1-0.9-1.1c-0.6,0-0.5,0.4-1,0.4
		c-0.1,0-0.1,0-0.1,0c0,0.2,0.1,0.5,0.4,0.5s0.3-0.3,0.6-0.3c0.1,0,0.2,0.1,0.2,0.4c0,0.6-0.4,1.3-0.9,1.9c-0.1-0.2-0.3-0.2-0.4-0.2
		c-0.3,0-0.5,0.3-0.5,0.7c0,0.1,0,0.2,0.1,0.4c-0.2,0.1-0.3,0.1-0.4,0.1c-0.2,0-0.5-0.1-0.5-0.6c0-1.1,1.4-2,1.4-3.4
		c0-0.6-0.4-1.3-1.3-1.3c-1,0-0.8,0.9-1.6,0.9h-0.1c0,0.1,0.1,0.5,0.6,0.5s0.6-0.8,1-0.8c0.2,0,0.4,0.1,0.4,0.6
		c0,0.4-0.2,1.1-0.5,1.8c-0.1-0.1-0.3-0.2-0.4-0.2c-0.4,0-0.6,0.3-0.6,0.8c0,0.3,0.1,0.5,0.3,0.7c-0.2,0.3-0.4,0.5-0.7,0.5
		c-0.6,0-0.8-0.3-0.8-0.7s0.7-0.5,0.7-1.1c0-0.4-0.3-0.6-0.5-0.6c-0.3,0-0.4,0.2-0.4,0.2S25.3,56,25.1,56c-0.3,0-0.5,0.2-0.5,0.6
		c0,0.6,0.7,0.7,0.7,1.1c0,0.4-0.3,0.7-0.8,0.7c-0.3,0-0.5-0.2-0.7-0.5c0.2-0.2,0.3-0.4,0.3-0.7c0-0.4-0.3-0.8-0.6-0.8
		c-0.2,0-0.3,0.1-0.4,0.2c-0.3-0.7-0.5-1.3-0.5-1.8s0.2-0.6,0.4-0.6c0.4,0,0.5,0.8,1,0.8c0.4,0,0.6-0.5,0.6-0.5s0,0-0.1,0
		c-0.8,0-0.7-0.9-1.6-0.9s-1.3,0.6-1.3,1.3c0,1.4,1.4,2.3,1.4,3.4c0,0.5-0.3,0.6-0.5,0.6c-0.1,0-0.3-0.1-0.4-0.1
		c0-0.1,0.1-0.2,0.1-0.4c0-0.4-0.3-0.7-0.5-0.7s-0.3,0.1-0.4,0.2c-0.5-0.5-0.9-1.2-0.9-1.9c0-0.3,0.1-0.4,0.2-0.4
		c0.2,0,0.2,0.3,0.6,0.3c0.2,0,0.4-0.3,0.4-0.5h-0.1c-0.5,0-0.4-0.4-1-0.4c-0.2,0-0.9,0.1-0.9,1.1c0,1.5,1.8,1.9,1.4,3.1
		c0.8-0.1,0.8,0.6,0.8,2C20.9,61.2,22.4,60.7,25,60.7z M20.1,62.7c-0.7,0.2-1.2,0.3-1.5,0.4c0-0.3,0.1-0.6,0.4-0.7v-0.1
		c-0.6-0.4-1,0.4-1,0.4c-0.2,0-0.6,0.1-0.6,0.4c0,0.9-2.1,1.4-2.6,1.5C15.7,64.9,16,66,16,66c0.6-0.6,1.4-1.2,1.5-1.2
		c0.2,0,0.2,0.2,0.2,0.3c0,0,0,0.1,0.1,0c0.3-0.5,0.2-0.6,0.1-0.7c0-0.1,0-0.5,0.5-0.5v6.2h-0.2c-0.1,0-1-0.7-2.1-1.5
		c-1-0.7-1.6-0.3-2.8,0.4c-1.5,0.8-3.1,0.1-3.1,0.1c-1.3,1-1.8,3.7-1.8,3.7C8.1,72.9,7.7,73,7.3,73c-1,0-1.2-0.6-1.2-1
		c0-1.6,2-2.2,2-3.8c0-0.4-0.2-1.9-2.1-1.9c-0.2,0-1.7,0-1.7,0c-0.7,0-0.9-0.5-1-0.7c0-0.1-0.1,0-0.1,0c0.1,0.1-0.1,0.3-0.1,0.7
		c0,0.6,0.4,1,1.1,1c0.3,0,0.6-0.1,0.7-0.1s0.1,0,0.1,0.1c-0.3,0.4-0.3,1-0.2,1.2h0.1c0.2-0.7,0.8-1.3,1.6-1.3c1,0,1,0.9,1,1.1
		c0,1.3-2.2,2.2-2.2,3.9c0,1.8,1.9,2.1,2.9,1.9c-0.1,1.8-2.1,2.4-2.1,1.1c0-0.1,0-0.1-0.1,0c-0.3,0.6-0.2,1.2,0.6,1.3
		c0.1,0,0,0,0,0.1c-0.8,0.5-0.4,2.4-0.3,3c0.1,0.8-0.8,0.7-0.8,0.7s-0.1,0,0,0.1C6.2,81.1,7,80.5,7,80.5c0.5,0.2,0.2,0.6-0.2,0.9
		c-0.1,0-0.1,0.1,0,0.1s0.9,0.1,1.1-0.6c0.4,0.4,0.9,0.3,1,0.2c0.2-0.1,0.9-0.4,1,0.5c0,0.1,0,0,0.1,0c0.6-0.7,0-1.2-0.4-1.3
		c0,0,0.5-0.4,0.9,0.1h0.1c0-0.9-0.7-1-1.2-0.6c0-0.1-0.2-0.6,0.6-0.6c0,0,0.1,0,0-0.1c-0.6-0.6-1.1-0.1-1.2,0.1
		c-0.3,0.3-0.9,0.2-1,0.2c0.2-3.3,3.1-2.1,3.5-3.7c0-0.1,0.1-0.1,0.1,0c0.1,0.4,1.1,0.4,1.3-0.3c0,0,0-0.1,0,0
		c-0.8,0.8-2.7-1.8-0.1-3.9c2.2-1.8,4.2-0.8,4.9-0.2c0,0.3-0.1,0.3-0.2,0.4c0,0,0,0,0,0.1c0.2,0.1,0.5,0.1,0.6-0.1
		c0.5,0.3,0.1,0.7-0.1,0.9v0.1c0.4,0.1,0.8-0.4,0.8-0.6h0.1V74c0,2.7,3.1,3,6.4,5.3c3.4-2.3,6.4-2.6,6.4-5.3v-1.9h0.1
		c0,0.3,0.4,0.7,0.8,0.6c0,0,0.1,0,0-0.1c-0.2-0.1-0.6-0.5-0.1-0.9c0.1,0.2,0.4,0.2,0.6,0.1c0.1,0,0-0.1,0-0.1
		c-0.1,0-0.3-0.1-0.2-0.4c0.7-0.6,2.7-1.6,4.9,0.2c2.6,2.1,0.7,4.7-0.1,3.9l0,0c0.2,0.8,1.2,0.7,1.3,0.3c0,0,0-0.1,0.1,0
		c0.4,1.6,3.3,0.4,3.5,3.7c-0.1,0-0.7,0.1-1-0.2c-0.1-0.1-0.6-0.7-1.2-0.1v0.1c0.8,0,0.6,0.5,0.6,0.6c-0.5-0.4-1.3-0.3-1.2,0.6
		c0,0.1,0,0.1,0.1,0c0.4-0.5,0.9-0.2,0.9-0.1c-0.4,0.1-1,0.5-0.4,1.3c0,0,0.1,0.1,0.1,0c0.1-0.9,0.9-0.6,1-0.5s0.7,0.2,1-0.2
		c0.1,0.7,1,0.6,1.1,0.6s0.1,0,0-0.1c-0.4-0.2-0.7-0.7-0.2-0.9c0,0,0.7,0.6,1.3-0.1c0.1-0.1,0-0.1,0-0.1c-0.1,0-0.9,0.1-0.8-0.7
		c0-0.6,0.5-2.5-0.3-3c0,0-0.1-0.1,0-0.1c0.8-0.2,0.9-0.7,0.6-1.3c0-0.1-0.1-0.1-0.1,0c-0.1,1.3-2.1,0.7-2.1-1.1
		c1.1,0.3,2.9-0.1,2.9-1.9c0-1.7-2.2-2.7-2.2-3.9c0-0.2,0-1.1,1-1.1c0.8,0,1.5,0.6,1.6,1.3c0,0,0,0,0.1,0c0.1-0.2,0.1-0.8-0.2-1.2
		c0,0,0-0.1,0.1-0.1c0.1,0.1,0.4,0.1,0.7,0.1c0.7,0,1.1-0.4,1.1-1c0-0.4-0.1-0.6-0.1-0.7s0-0.1-0.1,0c-0.1,0.2-0.3,0.7-1,0.7
		c0,0-1.4,0-1.7,0c-1.9,0-2.1,1.5-2.1,1.9c0,1.5,2,2.2,2,3.8c0,0.4-0.2,1-1.2,1c-0.4,0-0.9-0.1-1.1-0.2c0,0-0.5-2.8-1.8-3.7
		c0,0-1.6,0.8-3.1-0.1c-1.2-0.6-1.7-1.1-2.8-0.4c-1,0.7-1.9,1.5-2.1,1.5h-0.2v-6.2c0.5-0.1,0.5,0.4,0.5,0.5c0,0.1-0.2,0.3,0.1,0.7
		h0.1c0-0.1,0.1-0.3,0.2-0.3c0.2,0,0.9,0.6,1.5,1.2c0,0,0.4-1.1,1.2-1.4c-0.5-0.1-2.6-0.6-2.6-1.5c0-0.3-0.3-0.4-0.6-0.4
		c0,0-0.4-0.9-1-0.4v0.1c0.3,0.1,0.4,0.4,0.4,0.7c-0.6-0.2-3.3-0.9-6.4-0.9c-1.5,0-2.9,0.2-4,0.4v2.1h-0.9L20.1,62.7L20.1,62.7
		 M14.4,84.6c-0.2-0.1-0.4-0.2-0.4-0.5v-1.3c-0.4-0.1-1.4-0.5-3.5-0.5c-1.7,0-2.3,0.4-2.3,0.5l-0.5,2.5c0,0,0.7-0.6,3.2-0.5
		c3,0.2,6.2,2,6.2,0.1v-1.1C14.7,83.8,14.4,84.5,14.4,84.6z M33,83.8v1.1c0,1.9,3.1,0.1,6.2-0.1c2.5-0.2,3.2,0.5,3.2,0.5l-0.5-2.5
		c0-0.1-0.6-0.5-2.3-0.5c-2.1,0-3.1,0.4-3.5,0.5v1.3c0,0.3-0.2,0.5-0.4,0.5C35.7,84.5,35.3,83.8,33,83.8z M25,82.6
		c4.9,0,9.8,0.3,10.5,1c0.1,0.1,0.1,0,0.1,0V81c0-0.8-5.1-1.2-10.5-1.2S14.6,80.2,14.6,81v2.6c0,0,0,0.1,0.1,0
		C15.2,82.9,20.2,82.6,25,82.6z M20.7,70.5l-0.5-0.1v0.1l-0.6-0.3c0,0,0.4,0,0.5,0c0,0,0.1,0,0-0.1c-0.2-0.2-0.4-0.4-0.4-0.4
		s0.2,0.1,0.6,0.2c0,0,0.1,0,0,0c-0.2-0.2-0.4-0.6-0.4-0.6s0.5,0.3,0.6,0.4c0,0,0.1,0,0,0c-0.1-0.3-0.3-0.6-0.3-0.6l0.5,0.5l0,0
		c0-0.2-0.1-0.6-0.1-0.6l0.4,0.5c0,0,0,0,0.1,0c0-0.1,0-0.6,0-0.6s0.2,0.4,0.2,0.5c0,0,0,0,0.1,0c0-0.1,0.2-0.5,0.2-0.5v0.6h-0.1
		l-0.1,0.7c0.7-0.2,1.7-1.4,2.4-1.4c0.8,0,1.1,1,2.7,0.5c0.4,0.6,0.5,1.1,0.7,1.8c0.6,0.6,1.4,0.4,1.4-0.2c0-0.8-0.9-1-0.9-1.8
		c0-0.4,0.3-0.9,1-0.9c0.4,0,0.9,0.2,1.2,0.2c0.4,0,0.5-0.3,0.5-0.4s0.1-0.1,0.1,0s0,0.2,0,0.4c0,0.5-0.8,0.6-0.9,0.5c0,0-0.1,0,0,0
		c0.1,0.1,0.1,0.4,0,0.6l0,0c-0.1-0.4-0.5-0.8-0.9-0.8c-0.1,0-0.4,0.1-0.4,0.4c0,0.5,1,0.9,1,1.9s-1,1.3-2,1c0,1,1.5,1.5,1.5,0.9
		l0,0c0.2,0.3,0.1,0.5-0.2,0.6c0.3,0.1,0.3,0.6,0.4,0.9c0.1,0.5,0.6,0.2,0.6,0.2l0,0c-0.2,0.5-0.7,0.3-0.7,0.3
		c-0.3,0.2,0.1,0.3,0.3,0.4l0,0c-0.2,0.1-0.5,0.2-0.7-0.1c-0.1,0.3-0.4,0.3-0.5,0.3c-0.2,0-0.3,0.2-0.3,0.4l0,0
		c-0.4-0.3-0.2-0.6,0-0.7c0,0-0.3-0.1-0.5,0.2l0,0c-0.2-0.5,0.2-0.7,0.5-0.5c0-0.1-0.2-0.3-0.6-0.2l0,0c0.1-0.2,0.3-0.4,0.6-0.2
		c0.2,0.1,0.5-0.1,0.5-0.1c-0.6-1.3-1.9-0.2-2.2-1.2l0,0c-0.1,0.2-0.6,0.2-0.7-0.2l0,0c0.1,0.1,0.3,0.2,0.5-0.2
		c0.1-0.2,0.2-0.5,0.2-0.7c0-0.8-0.8-2.1-2-2.1c-0.8,0-1.6,0.3-2.2,0.7l0.6,0.1c-0.1,0.6-0.6,0.9-1.1,0.8l0.1-0.7
		c-0.1,0-0.3,0.1-0.4,0.3l0,0c-0.1-0.4,0.2-0.6,0.3-0.6l0,0c-0.3,0-0.4,0.2-0.5,0.3l0,0C20.6,70.8,20.6,70.6,20.7,70.5z M22.4,75
		c-0.2,0.3-0.4,0-0.7,0c-0.3,0-0.3,0.2-0.3,0.3l0,0c-0.3-0.4,0-0.6,0.2-0.7c0,0-0.3-0.2-0.5,0l0,0c0-0.5,0.4-0.6,0.7-0.3
		c0-0.2-0.1-0.3-0.3-0.3l0,0c0.1-0.1,0.2-0.1,0.3-0.1c0.3,0,0.3,0.4,0.5,0.4c0.3,0,0.7-0.4,0.7-0.4s-0.3-0.8-0.2-1.2l0,0
		c-0.1,0.1-0.5,0.1-0.5-0.4l0,0c0.2,0.2,0.4,0,0.5-0.2c0.1-0.1,0.8-1.2,1.8-1.2c0.2,0,0.5,0.1,0.7,0.3c-0.3,0.4,0,0.8,0.2,0.7l0,0
		c-1.3,0.5-1.8,0.7-1.8,1.7c0,0.6,0.2,0.9,0.5,0.8l0,0c-0.1,0.1-0.3,0.2-0.4,0.2c-0.3,0-0.3-0.1-0.4-0.1s-0.6,0.3-0.6,0.5
		c0,0.1,0.1,0.2,0.2,0.3l0,0C22.9,75.3,22.5,75.3,22.4,75z M25.7,64.7c-0.4,0-0.6,0.1-0.6,0.2C25.3,65.1,25.5,65.1,25.7,64.7z
		 M24.3,65.7c0.3-0.1,0.6,0,0.6,0v0.1c-0.6,0.1-0.6,0.3-1,0.3c-0.2,0-0.5-0.2-0.4-0.6c0,0,0,0,0.1,0C23.6,65.6,23.8,65.8,24.3,65.7z
		 M16.7,78.5c0.4,0.5,0.8,0,1.3,0c0.2,0,0.5,0.1,0.6,0.6l0,0c0.5-0.8-0.1-1.2-0.4-1.2c0.1-0.1,0.6-0.4,1,0.1h0.1
		c0-0.9-0.7-1-1.2-0.6c-0.1-0.4,0.2-0.6,0.5-0.6c0,0,0.1,0,0-0.1C18,76,17.5,76.9,17.4,77c-0.3,0.3-1.2-0.3-1.5-0.7
		c0,0,0.8-0.8,0.8-1.6v-0.1l0,0c0.1,0,0.2,0.1,0.3,0.1c0.2,0,0.5-0.1,0.5-0.7l0,0c-0.1,0.1-0.2,0.2-0.3,0.2c-0.6,0-2-2.2-3.6-2.2
		c-0.4,0-1.2,0.3-1.6,0.7c0.2,0.1,0.2,0.3,0.2,0.5c0,0.3-0.2,0.4-0.5,0.5c0,0,0,0,0,0.1c0.8,0.3,2.3,0.9,2.6,1.2
		c0.4,0.3,0.3,1,0.1,1.9s-0.7,0.7-0.9,0.7l0,0c0.2,0.3,0.5,0.4,0.7,0.4c0.4,0,0.6-0.3,0.8-0.3c0.4,0,1.1,0.5,1.1,0.9
		c0,0.2-0.2,0.4-0.4,0.6l0,0C15.9,79.1,16.6,79.2,16.7,78.5z M34.4,79.1L34.4,79.1c-0.2-0.2-0.4-0.4-0.4-0.6c0-0.4,0.8-0.9,1.1-0.9
		c0.2,0,0.4,0.3,0.8,0.3c0.2,0,0.5-0.1,0.7-0.4l0,0c-0.2,0-0.6,0.1-0.9-0.7c-0.2-0.9-0.3-1.5,0.1-1.9c0.3-0.3,1.8-0.8,2.6-1.2
		c0,0,0,0,0-0.1c-0.2-0.1-0.4-0.2-0.5-0.5c0-0.2,0-0.4,0.2-0.5c-0.4-0.4-1.2-0.7-1.6-0.7c-1.6,0-2.9,2.2-3.6,2.2
		c-0.1,0-0.2,0-0.3-0.2l0,0c0,0.7,0.3,0.7,0.5,0.7c0.1,0,0.2,0,0.3-0.1l0,0v0.1c0,0.8,0.8,1.6,0.8,1.6c-0.4,0.4-1.3,1-1.5,0.7
		c-0.1-0.1-0.6-1-1.2-0.3v0.1c0.4,0,0.6,0.2,0.5,0.6C31.6,77,30.9,77,30.9,78c0,0,0,0,0.1,0c0.3-0.5,0.9-0.2,1-0.1
		c-0.4,0.1-1,0.5-0.4,1.2l0,0c0.1-0.5,0.4-0.6,0.6-0.6c0.5,0,0.9,0.5,1.3,0C33.5,79.2,34.2,79.1,34.4,79.1z M21.4,66.6
		c-0.1,0.1-0.2,0-0.3,0l0,0c0,0.1,0.2,0.4,0.4,0.4c0.1,0,0.3-0.1,0.3-0.1s0.9,0.3,1.4,0.4c-0.2,0.2-0.3,0.5-0.3,0.8
		c-0.4-0.2-1.9-1-1.9-1l-0.5,0.6c-0.1,0.1-0.4-0.2-0.4-0.3l0.4-0.5c-0.1-0.1-0.4,0-0.5,0l0,0c0-0.1,0.2-0.4,0.7-0.3
		c0-0.3-0.4-0.2-0.5-0.2l0,0c0.1-0.1,0.4-0.4,0.8-0.2l0.2-0.2l-0.3-0.3l0.2-0.3l0.2,0.3l1.7-2.4c0-0.1,0.4-0.2,0.5-0.2
		c0,0.1,0,0.5,0,0.5L21.8,66l0.4,0.1L22,66.4l-0.4-0.2L21.4,66.6z M27.5,66.2c0,0.2,0.1,0.5,0.4,0.4l0,0c0,0.2-0.5,0.5-0.7,0.2
		c-0.2,0.4-0.1,0.7,0.2,0.9c0,0,0,0,0,0.1C27.3,68,27,68,26.8,67.6c-0.3,0.2-0.3,0.7-0.1,0.9c0,0-0.9,0.5-1.6,0.1
		c-0.5-0.2-0.9-0.6-1.6-0.5c0.1-0.9,0.6-1.2,1.4-1.3c0.7-0.1,0.8-0.4,0.7-0.7c-0.2-0.1-0.7,0.2-0.7,0.2c-0.1-0.1,0-0.3,0-0.3
		c0-0.1-0.1-0.2-0.1-0.2c0.5,0,0.6-0.1,0.6-0.1c0.1-0.5-0.4-0.6-0.8-0.3c-0.2-0.2-0.2-0.4-0.2-0.4c-0.1,0-0.1-0.1-0.1-0.1
		c0-0.1,0.6-0.4,0.7-0.5c0-0.2,0.2-0.4,0.8-0.3c0.1-0.2,0-0.7-0.1-0.9c0,0,0-0.1,0.1,0c0.2,0.1,0.4,0.6,0.6,0.6c0,0,0.7-0.4,0.7-0.3
		l0.1,0.8c0.1,0.1,0.6,0,0.8,0.1c0.1,0,0.1,0.1,0,0.1c-0.2,0-0.7,0.3-0.8,0.4C27.7,65.3,27.5,66,27.5,66.2z"/>
</g>
<g id="Isolatiemodus">
	<g>
		<path d="M61.4,64.5c0.6-0.2,0.9-0.5,0.9-0.9l0.7-7.9l-0.9-0.3V55c0.7-0.1,1.6-0.1,2.1-0.1h0.6l2.4,7.5l0,0l2.4-7.5h0.7
			c0.6,0,1.3,0,1.9,0.1v0.4l-1,0.2l0.7,8.5l0.9,0.2v0.3c-0.4,0.2-0.9,0.3-1.5,0.3c-0.7,0-1.2,0-1.7-0.2v-0.3
			c0.7-0.2,0.9-0.5,0.9-1.2l-0.4-7l0,0l-2.8,8.6l-0.6,0.1l-2.8-8.7l0,0L63.4,64l1,0.3v0.3c-0.7,0.2-1,0.3-1.8,0.3
			c-0.4,0-0.8-0.1-1.2-0.2V64.5z"/>
		<path d="M74,64.5c0.4-0.2,0.8-0.5,0.8-0.8v-5.2l-1-0.4v-0.3c0.7-0.2,1.4-0.3,1.8-0.3h0.5L76,58.3v5.9l0.9,0.2v0.3
			c-0.5,0.2-1,0.3-1.8,0.3c-0.4,0-0.8,0-1.2-0.1L74,64.5L74,64.5z M74.7,55.1c0-0.5,0.3-0.9,0.9-0.9c0.4,0,0.8,0.3,0.8,0.8
			s-0.4,1-0.9,1C75,56,74.7,55.6,74.7,55.1z"/>
		<path d="M78.3,64.5c0.4-0.2,0.8-0.5,0.8-0.8v-5.2l-1-0.4v-0.3c0.7-0.2,1.4-0.3,1.9-0.3h0.4v0.8c0.5-0.5,1.4-0.9,2.3-0.9
			c1.3,0,2.2,0.8,2.2,2.4v4.3l0.8,0.2v0.3c-0.4,0.2-1,0.3-1.6,0.3c-0.3,0-0.7,0-1-0.1v-0.3c0.4-0.2,0.6-0.5,0.6-1v-3
			c0-1.5-0.6-2.1-1.6-2.1c-0.6,0-1.3,0.2-1.6,0.5v5.2l0.9,0.2v0.3c-0.5,0.2-1,0.3-1.8,0.3c-0.4,0-0.8,0-1.2-0.1v-0.3H78.3z"/>
		<path d="M86.9,64.5c0.4-0.2,0.8-0.5,0.8-0.8v-5.2l-1-0.4v-0.3c0.7-0.2,1.4-0.3,1.8-0.3H89l0,0.7v5.9l0.9,0.2v0.3
			c-0.5,0.2-1,0.3-1.8,0.3c-0.4,0-0.8,0-1.2-0.1V64.5z M87.6,55.1c0-0.5,0.3-0.9,0.9-0.9c0.4,0,0.8,0.3,0.8,0.8s-0.4,1-0.9,1
			C87.9,56,87.6,55.6,87.6,55.1z"/>
		<path d="M91.2,63.1c0.7,0.7,1.4,1,2.2,1c0.9,0,1.3-0.4,1.3-1c0-0.5-0.3-0.9-1.3-1.3l-0.8-0.3c-0.9-0.4-1.4-1-1.4-1.9
			c0-1.2,1.1-2.3,2.7-2.3c1.2,0,1.7,0.4,1.7,1c0,0.2,0,0.4-0.1,0.7c-0.5-0.3-1.2-0.6-1.8-0.6c-1,0-1.5,0.4-1.5,1s0.3,0.9,1.2,1.2
			l0.8,0.3c1.1,0.4,1.5,1,1.5,1.9c0,1.2-1.1,2.3-2.9,2.3c-1.4,0-2-0.4-2-1.3C91,63.5,91.1,63.3,91.2,63.1z"/>
		<path d="M97.7,60.5v-2.1h-0.9V58l1.7-1.7l0.5-0.1l-0.1,1.4h2l-0.1,0.8h-2v2c0,0.7,0,1.2,0,1.8c0,1.3,0.4,1.7,0.9,1.7
			s0.8-0.2,1.1-0.4l0.2,0.1c-0.1,0.9-0.6,1.4-1.7,1.4c-1.2,0-1.8-0.7-1.8-2.2C97.7,62.1,97.7,61.2,97.7,60.5z"/>
		<path d="M102,64.5c0.4-0.2,0.8-0.5,0.8-0.8v-5.2l-1-0.4v-0.3c0.7-0.2,1.4-0.3,1.9-0.3h0.4v1.1l0,0l0.4-0.5
			c0.4-0.4,0.8-0.7,1.4-0.7c0.5,0,0.8,0.2,0.8,0.7c0,0.3-0.1,0.6-0.2,0.9c-0.3-0.2-0.6-0.4-1-0.4c-0.5,0-0.9,0.2-1.4,0.6v4.9
			l1.1,0.2v0.3c-0.5,0.2-1,0.3-1.9,0.3c-0.4,0-0.9,0-1.2-0.1v-0.3H102z"/>
		<path d="M109.3,64.3l-2.5-6.1l-0.6-0.4v-0.4h2.9v0.4l-0.8,0.4l1.6,4.7l0,0l1.5-4.7l-0.9-0.4v-0.4h2.3v0.4l-0.4,0.3l-2.2,6
			c-1.2,3.4-2.5,4.4-3.2,4.4c-0.6,0-0.9-0.3-0.9-1.2c0.2,0,0.4,0.1,0.7,0.1c0.7,0,1.6-0.7,2.2-2.4L109.3,64.3z"/>
		<path d="M120.2,57.3c1.9,0,3.4,1.4,3.4,3.6c0,2.6-1.8,4.2-3.6,4.2c-1.9,0-3.4-1.3-3.4-3.6C116.6,58.9,118.3,57.3,120.2,57.3z
			 M120.1,64.1c1,0,2.1-1,2.1-3.1c0-1.8-1-2.8-2.1-2.8s-2.1,1.1-2.1,3.1C118,63.1,119,64.1,120.1,64.1z"/>
		<path d="M125,64.5c0.4-0.2,0.8-0.5,0.8-0.8v-5.2H125V58l0.9-0.3v-1.1c0-1.6,1.1-2.8,3-2.8c1.1,0,1.5,0.3,1.5,0.7
			c0,0.1,0,0.4-0.1,0.5c-0.6-0.2-1.4-0.3-2.1-0.3c-0.6,0-1.1,0.6-1.1,1.7c0,0.2,0,1.1,0.1,1.4h2l-0.2,0.8h-1.8v5.6l1,0.2v0.3
			c-0.5,0.2-1.1,0.3-1.9,0.3c-0.4,0-0.8,0-1.2-0.1L125,64.5L125,64.5z"/>
		<path d="M132.9,64.5c0.5-0.2,0.9-0.4,0.9-1.2v-7.6l-1-0.2v-0.3c0.6-0.2,1.2-0.2,1.8-0.2s1,0,1.4,0.2v0.3c-0.7,0.2-0.9,0.5-0.9,1.1
			v7.7l1,0.2v0.3c-0.5,0.2-1.1,0.3-1.8,0.3c-0.6,0-1,0-1.4-0.2V64.5z"/>
		<path d="M137.6,64.5c0.4-0.2,0.8-0.5,0.8-0.8v-5.2l-1-0.4v-0.3c0.7-0.2,1.4-0.3,1.9-0.3h0.4v0.8c0.5-0.5,1.4-0.9,2.3-0.9
			c1.3,0,2.2,0.8,2.2,2.4v4.3l0.8,0.2v0.3c-0.4,0.2-1,0.3-1.6,0.3c-0.3,0-0.7,0-1-0.1v-0.3c0.4-0.2,0.6-0.5,0.6-1v-3
			c0-1.5-0.6-2.1-1.6-2.1c-0.6,0-1.3,0.2-1.6,0.5v5.2l0.9,0.2v0.3c-0.5,0.2-1,0.3-1.8,0.3c-0.4,0-0.8,0-1.2-0.1L137.6,64.5
			L137.6,64.5z"/>
		<path d="M146.2,64.5c0.4-0.2,0.8-0.5,0.8-0.8v-5.2h-0.9V58l0.9-0.3v-1.1c0-1.6,1.1-2.8,3-2.8c1.1,0,1.5,0.3,1.5,0.7
			c0,0.1,0,0.4-0.1,0.5c-0.6-0.2-1.4-0.3-2.1-0.3c-0.6,0-1.1,0.6-1.1,1.7c0,0.2,0,1.1,0.1,1.4h2l-0.2,0.8h-1.8v5.6l1,0.2v0.3
			c-0.5,0.2-1.1,0.3-1.9,0.3c-0.4,0-0.8,0-1.2-0.1V64.5z"/>
		<path d="M151,64.5c0.4-0.2,0.8-0.5,0.8-0.8v-5.2l-1-0.4v-0.3c0.7-0.2,1.4-0.3,1.9-0.3h0.4v1.1l0,0l0.4-0.5
			c0.4-0.4,0.8-0.7,1.4-0.7c0.5,0,0.8,0.2,0.8,0.7c0,0.3-0.1,0.6-0.2,0.9c-0.3-0.2-0.6-0.4-1-0.4c-0.5,0-0.9,0.2-1.4,0.6v4.9
			l1.1,0.2v0.3c-0.5,0.2-1,0.3-1.9,0.3c-0.4,0-0.9,0-1.2-0.1v-0.3H151z"/>
		<path d="M160.1,60.7v-0.4c0-1.7-0.4-2-1.4-2c-0.9,0-1.7,0.4-2.3,1c0-0.2,0-0.3,0-0.5c0-1,0.7-1.6,2.5-1.6c1.6,0,2.5,0.8,2.5,2.1
			c0,0.3,0,1.1-0.1,1.6v2.5c0.1,0.3,0.3,0.6,0.6,0.8c-0.2,0.3-0.7,0.6-1.1,0.8c-0.3-0.2-0.5-0.4-0.7-0.8c-0.4,0.4-1.3,0.7-2.1,0.7
			c-1.2,0-2-0.7-2-1.7C156.1,61.9,157.5,60.7,160.1,60.7z M158.6,64.1c0.5,0,1.1-0.2,1.5-0.4v-2.2c-1.8,0-2.7,0.7-2.7,1.6
			C157.4,63.7,157.8,64.1,158.6,64.1z"/>
		<path d="M163.2,63.1c0.7,0.7,1.4,1,2.2,1c0.9,0,1.3-0.4,1.3-1c0-0.5-0.3-0.9-1.3-1.3l-0.8-0.3c-0.9-0.4-1.4-1-1.4-1.9
			c0-1.2,1.1-2.3,2.7-2.3c1.2,0,1.7,0.4,1.7,1c0,0.2,0,0.4-0.1,0.7c-0.5-0.3-1.2-0.6-1.8-0.6c-1,0-1.5,0.4-1.5,1s0.3,0.9,1.2,1.2
			l0.8,0.3c1.1,0.4,1.5,1,1.5,1.9c0,1.2-1.1,2.3-2.9,2.3c-1.4,0-2-0.4-2-1.3C163.1,63.5,163.1,63.3,163.2,63.1z"/>
		<path d="M169.8,60.5v-2.1H169V58l1.7-1.7l0.5-0.1l-0.1,1.4h2l-0.1,0.8h-2v2c0,0.7,0,1.2,0,1.8c0,1.3,0.4,1.7,0.9,1.7
			s0.8-0.2,1.1-0.4l0.2,0.1c-0.1,0.9-0.6,1.4-1.7,1.4c-1.2,0-1.8-0.7-1.8-2.2C169.8,62.1,169.8,61.2,169.8,60.5z"/>
		<path d="M174,64.5c0.4-0.2,0.8-0.5,0.8-0.8v-5.2l-1-0.4v-0.3c0.7-0.2,1.4-0.3,1.9-0.3h0.4v1.1l0,0l0.4-0.5
			c0.4-0.4,0.8-0.7,1.4-0.7c0.5,0,0.8,0.2,0.8,0.7c0,0.3-0.1,0.6-0.2,0.9c-0.3-0.2-0.6-0.4-1-0.4c-0.5,0-0.9,0.2-1.4,0.6v4.9
			l1.1,0.2v0.3c-0.5,0.2-1,0.3-1.9,0.3c-0.4,0-0.9,0-1.2-0.1v-0.3H174z"/>
		<path d="M180,58.4l-0.9-0.4v-0.3c0.7-0.2,1.3-0.3,1.7-0.3h0.5l-0.1,0.9v3.5c0,1.6,0.5,2.2,1.5,2.2c0.6,0,1.2-0.2,1.5-0.4v-5
			l-0.9-0.4v-0.3c0.7-0.2,1.3-0.3,1.8-0.3h0.5l-0.1,0.9v5.2c0.1,0.3,0.3,0.5,0.6,0.8c-0.2,0.2-0.7,0.5-1.1,0.7
			c-0.3-0.2-0.6-0.5-0.7-0.9c-0.4,0.4-1.3,0.8-2.2,0.8c-1.3,0-2.1-0.8-2.1-2.5V58.4z"/>
		<path d="M191.2,57.3c1.3,0,1.7,0.4,1.7,0.9c0,0.3-0.1,0.6-0.2,0.8c-0.6-0.5-1.1-0.7-1.8-0.7c-1.1,0-2,1.1-2,2.9
			c0,1.8,1,2.8,2.2,2.8c0.6,0,1.3-0.3,1.8-0.6c0,0.1,0.1,0.2,0.1,0.4c0,0.7-0.8,1.3-2.3,1.3c-1.7,0-3.1-1.4-3.1-3.6
			C187.5,58.9,189.1,57.3,191.2,57.3z"/>
		<path d="M194.7,60.5v-2.1h-0.9V58l1.7-1.7l0.5-0.1l-0.1,1.4h2l-0.1,0.8h-2v2c0,0.7,0,1.2,0,1.8c0,1.3,0.4,1.7,0.9,1.7
			s0.8-0.2,1.1-0.4l0.2,0.1c-0.1,0.9-0.6,1.4-1.7,1.4c-1.2,0-1.8-0.7-1.8-2.2C194.6,62.1,194.6,61.2,194.7,60.5z"/>
		<path d="M199.6,58.4l-0.9-0.4v-0.3c0.7-0.2,1.3-0.3,1.7-0.3h0.5l-0.1,0.9v3.5c0,1.6,0.5,2.2,1.5,2.2c0.6,0,1.2-0.2,1.5-0.4v-5
			L203,58v-0.3c0.7-0.2,1.3-0.3,1.8-0.3h0.5l-0.1,0.9v5.2c0.1,0.3,0.3,0.5,0.6,0.8c-0.2,0.2-0.7,0.5-1.1,0.7
			c-0.3-0.2-0.6-0.5-0.7-0.9c-0.4,0.4-1.3,0.8-2.2,0.8c-1.3,0-2.1-0.8-2.1-2.5L199.6,58.4L199.6,58.4z"/>
		<path d="M207.2,64.5c0.4-0.2,0.8-0.5,0.8-0.8v-5.2l-1-0.4v-0.3c0.7-0.2,1.4-0.3,1.9-0.3h0.4v1.1l0,0l0.4-0.5
			c0.4-0.4,0.8-0.7,1.4-0.7c0.5,0,0.8,0.2,0.8,0.7c0,0.3-0.1,0.6-0.2,0.9c-0.3-0.2-0.6-0.4-1-0.4c-0.5,0-0.9,0.2-1.4,0.6v4.9
			l1.1,0.2v0.3c-0.5,0.2-1,0.3-1.9,0.3c-0.4,0-0.9,0-1.2-0.1v-0.3H207.2z"/>
		<path d="M215.6,57.3c1.7,0,2.7,1.1,2.7,2.9c0,0.3,0,0.6,0,1h-4.6c0,1.7,1,2.7,2.3,2.7c0.8,0,1.6-0.3,2.2-0.7
			c0,0.1,0.1,0.2,0.1,0.4c0,0.7-1,1.3-2.7,1.3c-1.8,0-3.2-1.4-3.2-3.6C212.4,58.7,214,57.3,215.6,57.3z M217.1,60.4
			c0-1.5-0.7-2.2-1.6-2.2c-0.9,0-1.8,1-1.8,2.2H217.1z"/>
		<path d="M65.7,78.3v-0.4c0-1.7-0.4-2-1.4-2c-0.9,0-1.7,0.4-2.3,1c0-0.2,0-0.3,0-0.5c0-1,0.7-1.6,2.5-1.6c1.6,0,2.5,0.8,2.5,2.1
			c0,0.3,0,1.1-0.1,1.6V81c0.1,0.3,0.3,0.6,0.6,0.8c-0.2,0.3-0.7,0.6-1.1,0.8c-0.3-0.2-0.5-0.4-0.7-0.8c-0.4,0.4-1.3,0.7-2.1,0.7
			c-1.2,0-2-0.7-2-1.7C61.6,79.5,63.1,78.3,65.7,78.3z M64.2,81.7c0.5,0,1.1-0.2,1.5-0.4v-2.2c-1.8,0-2.7,0.7-2.7,1.6
			C63,81.3,63.4,81.7,64.2,81.7z"/>
		<path d="M68.9,82.1c0.4-0.2,0.8-0.5,0.8-0.8V76l-1-0.4v-0.3c0.7-0.2,1.4-0.3,1.9-0.3H71v0.8c0.5-0.5,1.4-0.9,2.3-0.9
			c1.3,0,2.2,0.8,2.2,2.4v4.3l0.8,0.2v0.3c-0.4,0.2-1,0.3-1.6,0.3c-0.3,0-0.7,0-1-0.1V82c0.4-0.2,0.6-0.5,0.6-1v-3
			c0-1.5-0.6-2.1-1.6-2.1c-0.6,0-1.3,0.2-1.6,0.5v5.2l0.9,0.2v0.3c-0.5,0.2-1,0.3-1.8,0.3c-0.4,0-0.8,0-1.2-0.1v-0.2H68.9z"/>
		<path d="M81.1,74.9c0.4,0,0.8,0,1.1,0.1v-2.7l-1.1-0.4v-0.3c0.7-0.2,1.5-0.3,1.9-0.3h0.5l-0.1,0.9V81c0.1,0.3,0.3,0.6,0.6,0.9
			c-0.3,0.3-0.7,0.5-1.1,0.7c-0.3-0.2-0.6-0.6-0.7-0.9c-0.5,0.5-1.3,0.9-2,0.9c-1.6,0-2.8-1.3-2.8-3.4
			C77.4,76.4,79.1,74.9,81.1,74.9z M82.2,81.1V76c-0.3-0.1-0.7-0.2-1.1-0.2c-1.3,0-2.3,1-2.3,3.2c0,1.7,0.9,2.6,1.9,2.6
			C81.2,81.6,81.8,81.4,82.2,81.1z"/>
		<path d="M88.5,73.2L87.6,73v-0.3c0.5-0.2,1.1-0.3,1.6-0.3s0.9,0,1.4,0.1v0.3c-0.5,0.1-0.6,0.4-0.5,0.9l1.7,6.2l0,0l1.6-6.7
			L92.6,73v-0.3c0.6-0.2,1.1-0.2,1.7-0.2c0.5,0,0.9,0,1.3,0.2V73c-0.3,0.1-0.4,0.4-0.3,0.8l1.5,6.3l0,0l1.7-6.7L97.6,73v-0.3
			c0.6-0.2,1.1-0.2,1.6-0.2c0.4,0,0.7,0,1,0.2V73c-0.4,0.3-0.6,0.5-0.8,1.1l-2.5,8.5l-0.6,0.1l-2.2-8.2l0,0L92,82.4l-0.6,0.1
			L88.5,73.2z"/>
		<path d="M104.3,78.3v-0.4c0-1.7-0.4-2-1.4-2c-0.9,0-1.7,0.4-2.3,1c0-0.2,0-0.3,0-0.5c0-1,0.7-1.6,2.5-1.6c1.6,0,2.5,0.8,2.5,2.1
			c0,0.3,0,1.1-0.1,1.6V81c0.1,0.3,0.3,0.6,0.6,0.8c-0.2,0.3-0.7,0.6-1.1,0.8c-0.3-0.2-0.5-0.4-0.7-0.8c-0.4,0.4-1.3,0.7-2.1,0.7
			c-1.2,0-2-0.7-2-1.7C100.3,79.5,101.8,78.3,104.3,78.3z M102.8,81.7c0.5,0,1.1-0.2,1.5-0.4v-2.2c-1.8,0-2.7,0.7-2.7,1.6
			C101.6,81.3,102.1,81.7,102.8,81.7z"/>
		<path d="M108.2,78.1V76h-0.9v-0.5l1.7-1.7l0.5-0.1l-0.1,1.4h2l-0.1,0.8h-2v2c0,0.7,0,1.2,0,1.8c0,1.3,0.4,1.7,0.9,1.7
			s0.8-0.2,1.1-0.4l0.2,0.1c-0.1,0.9-0.6,1.4-1.7,1.4c-1.2,0-1.8-0.7-1.8-2.2C108.2,79.7,108.2,78.8,108.2,78.1z"/>
		<path d="M115.6,74.9c1.7,0,2.7,1.1,2.7,2.9c0,0.3,0,0.6,0,1h-4.6c0,1.7,1,2.7,2.3,2.7c0.8,0,1.6-0.3,2.2-0.7
			c0,0.1,0.1,0.2,0.1,0.4c0,0.7-1,1.3-2.7,1.3c-1.8,0-3.2-1.4-3.2-3.5C112.3,76.3,113.9,74.9,115.6,74.9z M117,78
			c0-1.5-0.7-2.2-1.6-2.2s-1.8,1-1.8,2.2H117z"/>
		<path d="M119.6,82.1c0.4-0.2,0.8-0.5,0.8-0.8V76l-1-0.4v-0.3c0.7-0.2,1.4-0.3,1.9-0.3h0.4v1.1l0,0l0.4-0.5
			c0.4-0.5,0.8-0.7,1.4-0.7c0.5,0,0.8,0.2,0.8,0.7c0,0.3-0.1,0.6-0.2,0.9c-0.3-0.2-0.6-0.4-1-0.4c-0.5,0-0.9,0.2-1.4,0.6v4.9
			l1.1,0.2v0.3c-0.5,0.2-1,0.3-1.9,0.3c-0.4,0-0.9,0-1.2-0.1v-0.2H119.6z"/>
		<path d="M127.6,82.1c0.6-0.2,0.9-0.4,0.9-0.9l0.7-7.9l-0.9-0.3v-0.5c0.7-0.1,1.6-0.1,2.1-0.1h0.6l2.4,7.5l0,0l2.4-7.5h0.7
			c0.6,0,1.3,0,1.9,0.1V73l-1,0.2l0.7,8.5l0.9,0.2v0.3c-0.4,0.2-0.9,0.3-1.5,0.3c-0.7,0-1.2,0-1.7-0.2V82c0.7-0.2,0.9-0.5,0.9-1.2
			l-0.4-7l0,0l-2.8,8.6l-0.6,0.1l-2.8-8.7l0,0l-0.5,7.8l1,0.3v0.3c-0.7,0.2-1,0.3-1.8,0.3c-0.4,0-0.8-0.1-1.2-0.2L127.6,82.1
			L127.6,82.1z"/>
		<path d="M144,78.3v-0.4c0-1.7-0.4-2-1.4-2c-0.9,0-1.7,0.4-2.3,1c0-0.2,0-0.3,0-0.5c0-1,0.7-1.6,2.5-1.6c1.6,0,2.5,0.8,2.5,2.1
			c0,0.3,0,1.1-0.1,1.6V81c0.1,0.3,0.3,0.6,0.6,0.8c-0.2,0.3-0.7,0.6-1.1,0.8c-0.3-0.2-0.5-0.4-0.7-0.8c-0.4,0.4-1.3,0.7-2.1,0.7
			c-1.2,0-2-0.7-2-1.7C139.9,79.5,141.4,78.3,144,78.3z M142.5,81.7c0.5,0,1.1-0.2,1.5-0.4v-2.2c-1.8,0-2.7,0.7-2.7,1.6
			C141.3,81.3,141.7,81.7,142.5,81.7z"/>
		<path d="M147.2,82.1c0.4-0.2,0.8-0.5,0.8-0.8V76l-1-0.4v-0.3c0.7-0.2,1.4-0.3,1.9-0.3h0.4v0.8c0.5-0.5,1.4-0.9,2.3-0.9
			c1.3,0,2.2,0.8,2.2,2.4v4.3l0.8,0.2v0.3c-0.4,0.2-1,0.3-1.6,0.3c-0.3,0-0.7,0-1-0.1V82c0.4-0.2,0.6-0.5,0.6-1v-3
			c0-1.5-0.6-2.1-1.6-2.1c-0.6,0-1.3,0.2-1.6,0.5v5.2l0.9,0.2v0.3c-0.5,0.2-1,0.3-1.8,0.3c-0.4,0-0.8,0-1.2-0.1L147.2,82.1
			L147.2,82.1z"/>
		<path d="M159.6,78.3v-0.4c0-1.7-0.4-2-1.4-2c-0.9,0-1.7,0.4-2.3,1c0-0.2,0-0.3,0-0.5c0-1,0.7-1.6,2.5-1.6c1.6,0,2.5,0.8,2.5,2.1
			c0,0.3,0,1.1-0.1,1.6V81c0.1,0.3,0.3,0.6,0.6,0.8c-0.2,0.3-0.7,0.6-1.1,0.8c-0.3-0.2-0.5-0.4-0.7-0.8c-0.4,0.4-1.3,0.7-2.1,0.7
			c-1.2,0-2-0.7-2-1.7C155.6,79.5,157.1,78.3,159.6,78.3z M158.1,81.7c0.5,0,1.1-0.2,1.5-0.4v-2.2c-1.8,0-2.7,0.7-2.7,1.6
			C156.9,81.3,157.3,81.7,158.1,81.7z"/>
		<path d="M164.2,80.1L164.2,80.1c-0.7-0.3-1.4-1.1-1.4-2.2c0-1.7,1.4-3.1,3.1-3.1c0.6,0,1.4,0.3,1.7,0.5c0.3-0.3,0.9-0.5,1.4-0.5
			c0.3,0,0.5,0,0.7,0.1l-0.1,1c-0.5-0.1-1.1-0.2-1.7-0.2l0,0c0.5,0.4,0.9,1.1,0.9,1.7c0,1.8-1.5,3-3.1,3c-0.3,0-0.7-0.1-1-0.2
			c-0.2,0.1-0.5,0.5-0.5,0.7c0,0.5,0.4,0.7,1,0.7h2.2c1.3,0,2,0.6,2,1.7c0,1.5-1.6,2.7-3.8,2.7c-2,0-3-0.8-3-1.8
			c0-0.8,0.6-1.5,1.5-1.7l0,0c-0.6-0.2-0.9-0.6-0.9-1.2S163.6,80.3,164.2,80.1z M165.7,85.4c1.5,0,2.5-0.7,2.5-1.5
			c0-0.6-0.4-0.9-1.1-0.9h-2.5c-0.5,0.2-0.8,0.7-0.8,1.2C163.7,84.8,164.4,85.4,165.7,85.4z M167.3,77.6c0-1.3-0.7-1.9-1.5-1.9
			c-0.9,0-1.6,0.8-1.6,2.2c0,1.3,0.7,1.9,1.5,1.9C166.6,79.8,167.3,79.1,167.3,77.6z"/>
		<path d="M173.4,74.9c1.7,0,2.7,1.1,2.7,2.9c0,0.3,0,0.6,0,1h-4.6c0,1.7,1,2.7,2.3,2.7c0.8,0,1.6-0.3,2.2-0.7
			c0,0.1,0.1,0.2,0.1,0.4c0,0.7-1,1.3-2.7,1.3c-1.8,0-3.2-1.4-3.2-3.5C170.1,76.3,171.8,74.9,173.4,74.9z M174.8,78
			c0-1.5-0.7-2.2-1.6-2.2c-0.9,0-1.8,1-1.8,2.2H174.8z"/>
		<path d="M177.4,82.1c0.4-0.2,0.8-0.5,0.8-0.8V76l-1-0.4v-0.3c0.7-0.2,1.4-0.3,1.9-0.3h0.4v0.8c0.5-0.5,1.4-0.9,2.3-0.9
			c0.7,0,1.4,0.4,1.8,0.9c0.5-0.5,1.5-0.9,2.4-0.9c1.3,0,2.2,0.8,2.2,2.5v4.3l0.8,0.2v0.3c-0.4,0.2-1,0.3-1.6,0.3
			c-0.3,0-0.7,0-1-0.1v-0.3c0.4-0.2,0.6-0.5,0.6-1v-3c0-1.4-0.6-2-1.6-2c-0.6,0-1.1,0.1-1.5,0.4c0.1,0.3,0.1,0.8,0.1,1.2v4.2
			l0.8,0.2v0.3c-0.4,0.2-1,0.3-1.6,0.3c-0.3,0-0.7,0-1-0.1v-0.3c0.4-0.2,0.6-0.5,0.6-1v-2.9c0-1.7-0.5-2.2-1.5-2.2
			c-0.6,0-1.2,0.2-1.5,0.5v5.2l0.9,0.2v0.3c-0.5,0.2-1,0.3-1.8,0.3c-0.4,0-0.8,0-1.2-0.1v-0.5H177.4z"/>
		<path d="M193.2,74.9c1.7,0,2.7,1.1,2.7,2.9c0,0.3,0,0.6,0,1h-4.6c0,1.7,1,2.7,2.3,2.7c0.8,0,1.6-0.3,2.2-0.7
			c0,0.1,0.1,0.2,0.1,0.4c0,0.7-1,1.3-2.7,1.3c-1.8,0-3.2-1.4-3.2-3.5C190,76.3,191.6,74.9,193.2,74.9z M194.7,78
			c0-1.5-0.7-2.2-1.6-2.2c-0.9,0-1.8,1-1.8,2.2H194.7z"/>
		<path d="M197.2,82.1c0.4-0.2,0.8-0.5,0.8-0.8V76l-1-0.4v-0.3c0.7-0.2,1.4-0.3,1.9-0.3h0.4v0.8c0.5-0.5,1.4-0.9,2.3-0.9
			c1.3,0,2.2,0.8,2.2,2.4v4.3l0.8,0.2v0.3c-0.4,0.2-1,0.3-1.6,0.3c-0.3,0-0.7,0-1-0.1V82c0.4-0.2,0.6-0.5,0.6-1v-3
			c0-1.5-0.6-2.1-1.6-2.1c-0.6,0-1.3,0.2-1.6,0.5v5.2l0.9,0.2v0.3c-0.5,0.2-1,0.3-1.8,0.3c-0.4,0-0.8,0-1.2-0.1L197.2,82.1
			L197.2,82.1z"/>
		<path d="M206.5,78.1V76h-0.9v-0.5l1.7-1.7l0.5-0.1l-0.1,1.4h2l-0.1,0.8h-2v2c0,0.7,0,1.2,0,1.8c0,1.3,0.4,1.7,0.9,1.7
			s0.8-0.2,1.1-0.4l0.2,0.1c-0.1,0.9-0.6,1.4-1.7,1.4c-1.2,0-1.8-0.7-1.8-2.2C206.5,79.7,206.5,78.8,206.5,78.1z"/>
	</g>
	<g>
		<rect class="st0" width="314" height="125"/>
	</g>
</g>
</svg>
