<?xml version="1.0" encoding="utf-8"?>
<!-- Generator: Adobe Illustrator 22.1.0, SVG Export Plug-In . SVG Version: 6.00 Build 0)  -->
<svg version="1.1" id="Layer_1" xmlns="http://www.w3.org/2000/svg" xmlns:xlink="http://www.w3.org/1999/xlink" x="0px" y="0px"
	 viewBox="0 0 164.4 107.4" style="enable-background:new 0 0 164.4 107.4;" xml:space="preserve">
<style type="text/css">
	.st0{fill:#005BAA;}
</style>
<g>
	<path class="st0" d="M82.2,96.1c-35.8,0-64.8-19-64.8-42.4c0-23.3,29.1-42.4,64.8-42.4s64.8,19,64.8,42.4S118,96.1,82.2,96.1
		L82.2,96.1z M135.9,53.7c0-20.9-24-37.8-53.7-37.8S28.5,32.8,28.5,53.7s24,37.8,53.7,37.8S135.9,74.6,135.9,53.7L135.9,53.7z"/>
	<path class="st0" d="M81.4,24.9c16.8,0,27.2,7.9,27.2,15.7c0,6.4-4.4,9.9-5.6,10.5c-2.6,1.4-0.5,1.5,0.5,1.8s9,4.3,9,11.9
		c0,10.5-12.2,18.5-30.8,18.5c-13.2,0-23.4-6.3-26.9-8.6c-1.7-1.1-1.4-1.6-0.9-2.2c0.6-0.6,2-2.3,2.8-3.1c0.8-0.9,1-0.5,1.6-0.2
		c0.6,0.2,1.7,0.6,1.7-1s0-26.8,0-28.3s-0.6-1.6-1.3-1.1c-0.8,0.3-1.6,1.5-2.8,0.3c-1-1.1-1.5-1.6-2.3-2.6c-0.8-0.9-0.6-1.5,0.5-2.4
		C57.7,31.2,67,24.9,81.4,24.9L81.4,24.9z M74.5,34.6c0,0,0,11.7,0,13.1s0.7,1.5,1.3,1.5c0.6,0,6.5,0,6.5,0c1.4,0,9-1.3,9-8.8
		s-7.5-8.6-8.4-8.6c-1,0-4.9,0-4.9,0C76.3,31.8,74.5,32.4,74.5,34.6L74.5,34.6z M78.5,76c0,0,4.9,0,6.2,0c1.4,0,10.5-1.3,10.5-10
		c0-8.8-9.4-10.3-11.1-10.3c0,0-7.5,0-8.2,0c-0.8,0-1.6,0.3-1.6,2c0,1.6,0,15.6,0,15.6C74.3,75.6,76.7,76,78.5,76L78.5,76z"/>
</g>
</svg>
