<svg id="Layer_1" data-name="Layer 1" xmlns="http://www.w3.org/2000/svg" xmlns:xlink="http://www.w3.org/1999/xlink" viewBox="0 0 2000 460"><defs><style>.cls-1{fill:url(#linear-gradient);}</style><linearGradient id="linear-gradient" x1="51.87" y1="-19.91" x2="2007.11" y2="477.79" gradientUnits="userSpaceOnUse"><stop offset="0" stop-color="#3ddaae"/><stop offset="1" stop-color="#048ccd"/></linearGradient></defs><title>logo-gradient</title><path class="cls-1" d="M898.7,231.33c7.13,1.15,13.88,2.08,20.43,2.9v10.14c-7.07-.87-14.35-1.86-22-3.11-83.69-13.55-127.22-3.12-149.33,8.65-3.15.23-6.26.35-9.44.63-3.8.35-7.5.79-11.12,1.3C744.57,235.76,789.16,213.58,898.7,231.33ZM459.6,133.07c12.66,28.25,19.08,60.32,19.08,95.31s-6.42,67.2-19.07,95.71-30.17,53-52.14,73a239.25,239.25,0,0,1-76.13,46.33c-28.72,10.89-59.8,16.41-92.37,16.41A260.4,260.4,0,0,1,147,443.39c-29-10.9-54.65-26.51-76.22-46.38s-39-44.46-51.67-72.91S0,263.43,0,228.38s6.45-67.1,19.17-95.32S49.22,80.6,70.87,61s47.27-34.79,76.3-45.12A272.73,272.73,0,0,1,239,.33c32.59,0,63.62,5.22,92.23,15.51a231.94,231.94,0,0,1,76.22,45.08C429.38,80.57,446.92,104.85,459.6,133.07ZM169.55,26.42c1.75-.49,3.49-1,5.26-1.49C173,25.38,171.3,25.93,169.55,26.42ZM462,228.38c0-32.62-5.93-62.39-17.62-88.47s-27.87-48.46-48.06-66.54a215.33,215.33,0,0,0-70.76-41.81C298.75,21.92,269.62,17,239,17a265.18,265.18,0,0,0-45.81,4c22.87.78,41.16-.75,55.74-3.56A268.67,268.67,0,0,1,277.17,20a145.78,145.78,0,0,1-28.79,8c-21.34,3.76-49.61,4.83-86.57.88-3,.94-6.08,1.72-9,2.77a214.07,214.07,0,0,0-51.87,26.88c12.56,1.05,26.19,2.7,41,5.11,148.46,24,170.6-27.39,170.8-27.91A29.17,29.17,0,0,1,316.62,29c2.74.87,5.55,1.58,8.25,2.55.72.26,1.39.6,2.11.87a27.32,27.32,0,0,0-4.81,6.79c-.72,1.93-11.39,27.89-65.2,37.38-26.8,4.73-64.3,5.36-116.62-3.11A496.93,496.93,0,0,0,89,67.71c-2.28,1.89-4.69,3.64-6.88,5.63a191.24,191.24,0,0,0-28.9,33.37c24.75-2.1,56.49-1.09,97.36,5.54a483.84,483.84,0,0,0,56.65,6c-1.36.39-2.67.87-4,1.31A108.76,108.76,0,0,1,239,113.93a116.92,116.92,0,0,1,21,2c51.19-8,61.25-31.21,61.39-31.56.63-1.69,8.7-21.1,45.12-32.53,3.83,2.38,7.62,4.81,11.27,7.42-38.75,9.64-46.86,28.38-47,28.69h0c-.64,1.73-9.49,22.89-50.43,34,1.65.7,3.36,1.29,5,2.09a106.73,106.73,0,0,1,31.15,23.33c10.48-7.43,13.43-14.15,13.5-14.34h0c.81-2.18,14-33.84,84.49-39.82,2.62,3.14,5.29,6.25,7.72,9.57-70,4.07-82.65,33.43-82.8,33.82-.4,1.08-4,9.65-16.34,18.66a113.92,113.92,0,0,1,15.07,27.32c.26-.48.43-.83.45-.87.87-2.35,16.41-40,105.56-40.79,1.43,3.25,2.56,6.7,3.82,10.06-85.15-.16-99.8,33.88-100,34.31h0a34.67,34.67,0,0,1-5.91,9.14,127.61,127.61,0,0,1,4.71,34c0,1-.1,2-.12,3,.29-.54.49-.92.5-1C348,228,364.23,189,458,189.62c.54,3.34,1.07,6.68,1.47,10.09-87.78-1-102.83,33.82-103,34.25-.34.91-3.07,7.22-11.35,14.6a137.34,137.34,0,0,1-5.09,21.65,117.4,117.4,0,0,1-17.18,33.15c26.56-10,32.7-24,32.81-24.28.89-2.38,16.43-39.86,105.16-40.78-.13,3.39-.21,6.79-.47,10.12-80.95,1.09-95.13,33.83-95.29,34.24h0c-.67,1.8-10.1,24.56-55.2,35.28a102.19,102.19,0,0,1-23.75,16.48c-13.38,6.7-29,10.09-46.36,10.09s-33-3.4-46.37-10.11a100.83,100.83,0,0,1-33.61-26.85,116.39,116.39,0,0,1-20.28-37.33,134.71,134.71,0,0,1,0-83.68A111.6,111.6,0,0,1,159.46,150,100.81,100.81,0,0,1,192.61,124,88,88,0,0,1,203,119.65,81.34,81.34,0,0,0,192,124c-1.84.92-3.53,2-5.28,3-11.64-1.06-24.17-2.62-37.73-4.82-44.83-7.26-78.06-7.61-102.73-4.58a214,214,0,0,0-11.8,22.33,187,187,0,0,0-8.08,21.59c26.11-7.37,65.7-10.6,125.32-1.7q-2.92,4.5-5.43,9.36c-61.1-8.69-99.25-4-122.87,4a225.74,225.74,0,0,0-6.09,43.49c21.66-9.91,57.68-17.32,117-11.38q-.87,5-1.35,10C70.44,209,35.65,218.14,16.71,228.27c0,0,0,.07,0,.11a242.08,242.08,0,0,0,3.41,39.75c19.93-10.75,54.62-19.93,114.47-15q1,5.18,2.35,10.31c-63.31-5.65-97.19,4.78-114.88,15.34a197.62,197.62,0,0,0,11.28,35.71c22-10.4,59.46-18.33,122.44-11.45,1.11,1.52,2.16,3.07,3.35,4.54,1.92,2.37,4,4.58,6.1,6.75-67.89-8.81-106.29-.67-127.59,9.43a209.27,209.27,0,0,0,20,33.42c27.08-8.31,69.51-12.23,135.81-1.48,148.46,24,170.59-27.39,170.8-27.91.83-2.23,14.57-35.32,89.47-40.2-.91,3.46-1.68,7-2.76,10.35-65.11,5.25-77.15,33-77.3,33.43-.72,1.93-11.4,27.89-65.2,37.38-26.81,4.73-64.3,5.36-116.62-3.11-62-10-101.85-6.89-127.39.18a191.39,191.39,0,0,0,17.67,18.92A204.24,204.24,0,0,0,100,399.25c25.38-2.66,58.58-1.92,102.06,5.12,148.46,24,170.6-27.39,170.8-27.91.7-1.88,10.61-25.72,58.64-36.07-2.56,4.26-5.15,8.49-8,12.5-33.83,10-41.14,26.84-41.26,27.14h0c-.72,1.93-11.39,27.89-65.2,37.38-26.8,4.73-64.3,5.36-116.61-3.11-35.93-5.82-64.4-7.19-87-6a225.37,225.37,0,0,0,39.47,19.4A243.75,243.75,0,0,0,239,443.08c30.56,0,59.63-5.16,86.45-15.33a222.54,222.54,0,0,0,70.84-43.09c20.22-18.36,36.4-41,48.09-67.37S462,261,462,228.38ZM239,130.64c-14.75,0-27.84,2.81-38.88,8.33a84.32,84.32,0,0,0-27.75,21.64,95,95,0,0,0-16.95,31.12,118,118,0,0,0,0,73.33,98.44,98.44,0,0,0,17.36,32,83.25,83.25,0,0,0,28.12,22.43c11,5.54,24.07,8.33,38.89,8.33,15,0,27.69-2.72,38.89-8.33a83.14,83.14,0,0,0,28.12-22.42,98.89,98.89,0,0,0,17.38-32A118.6,118.6,0,0,0,330,228.38a111.57,111.57,0,0,0-6.21-36.53,96.92,96.92,0,0,0-17.68-31.13A89.5,89.5,0,0,0,277.81,139C266.74,133.45,253.68,130.64,239,130.64ZM1571.42,22v416a8.36,8.36,0,0,1-8.35,8.35h-137a8.36,8.36,0,0,1-8.35-8.35V22a8.36,8.36,0,0,1,8.35-8.35h137A8.36,8.36,0,0,1,1571.42,22Zm-16.71,8.35H1434.43V70.82c19-11.86,54.51-23.1,119.63-17.68V63.26c-71.14-6-104.56,8.39-119.63,20v42.47c15.41-13.11,48.95-29,119.63-24.52v10.08c-83.7-5.39-111.62,18.68-119.63,29v43.24c8.94-12.3,37.44-37.49,119.63-34.06v10.08c-97.5-4.12-113.78,33.51-114,34h0a34.61,34.61,0,0,1-5.67,8.84v43.06a29.07,29.07,0,0,0,4.85-6.79c.9-2.43,17.5-42.52,114.78-40.73V208c-89.87-1.62-105.2,33.78-105.37,34.21-.38,1-3.62,8.64-14.26,17v42.35c10.41-7.41,13.36-14.09,13.44-14.28.89-2.39,16.52-40.16,106.19-40.8v10.12c-82.27.7-96.62,33.84-96.78,34.26-.46,1.24-5.21,12.47-22.84,22.84v41.77c17.49-9.18,21.93-19.27,22-19.5.86-2.31,15.53-37.72,97.61-40.62V305.5c-74.71,2.83-88,33.67-88.2,34.07h0c-.53,1.43-6.59,16-31.43,27.32v41.23c24.7-10,30.5-23.17,30.61-23.43.83-2.22,14.5-35.2,89-40.17v10.14c-67.16,4.76-79.46,33.22-79.61,33.61-.59,1.58-8,19.2-40,30.77v10.7h41c5.29-8.76,23.69-30.21,78.58-35.8V404.1c-39.82,4.32-58.07,17.32-65.82,25.62h66.48ZM925.83,128.18c7.08,28.12,10.67,61.82,10.67,100.2v209.7a8.36,8.36,0,0,1-8.35,8.35H802.84a8.36,8.36,0,0,1-8.35-8.35V415c-10.29,10.8-23.28,19.68-38.79,26.53-22.42,9.9-47,14.91-73.12,14.91a222.37,222.37,0,0,1-53.83-7,160.67,160.67,0,0,1-51.56-22.92c-15.69-10.66-28.78-25.07-38.92-42.84S523,343.67,523,317.78c0-32.09,9-58.41,26.73-78.25,17.31-19.33,39.76-34.41,66.74-44.82,26.51-10.26,56.33-17.19,88.61-20.57,28.86-3.06,57.49-4.74,85.23-5-.35-16.94-6.27-29-18-37-13-8.76-29.46-13.19-48.78-13.19a125.15,125.15,0,0,0-52.91,11.77c-17.2,8-32.08,17.6-44.26,28.68a8.35,8.35,0,0,1-11.74-.48L545.25,84.54a8.36,8.36,0,0,1,.35-11.75,250,250,0,0,1,88.6-54.43A303.08,303.08,0,0,1,736.83.33c35.92,0,66.8,4.53,91.8,13.44,25.56,9.1,46.59,23.45,62.5,42.64C906.85,75.26,918.53,99.41,925.83,128.18ZM595.26,55.68c54.6-4.09,72.54-23.88,77.24-31a292.51,292.51,0,0,0-32.65,9.38A237.7,237.7,0,0,0,595.26,55.68ZM745.86,187.63c5.44-.34,10.83-.58,16.22-.84C756.69,187,751.31,187.29,745.86,187.63ZM679.7,194.7c2.34-.41,4.65-.86,7-1.23C684.36,193.84,682,194.28,679.7,194.7Zm-18.6,3.78,3.37-.77Zm-96.71,50c124.27,14,143.71-31.12,143.9-31.61.57-1.53,7.26-17.61,35.59-29.12-12.29.8-24.61,1.66-37,3-6.18.65-12.18,1.53-18.15,2.44-9.82,6.22-24.07,12.32-44.78,16A227.42,227.42,0,0,1,618.7,212C597,220.93,578.78,233.17,564.4,248.51Zm355.39-20.14c0-37-3.42-69.33-10.16-96.09C903,106,892.41,84,878.28,67.09c-14-16.86-32.57-29.5-55.27-37.59C799.82,21.23,770.83,17,736.83,17a282.64,282.64,0,0,0-51,4.73,22.77,22.77,0,0,0-2.48,4h0c-.71,1.93-11.39,27.89-65.2,37.38a246.12,246.12,0,0,1-39,3.33c-5.49,4.06-10.85,8.31-16,12.86l24,25.77c80.94-1.09,95.15-33.81,95.31-34.23,1-2.7,20.93-50.64,145.46-38.94a133.93,133.93,0,0,1,25.38,13.2C713.42,24.71,692.15,73.91,692,74.42h0c-.72,1.93-11.39,27.89-65.2,37.38a234.27,234.27,0,0,1-30.36,3.09l24.95,26.76a195.79,195.79,0,0,1,42.24-26.1,142.74,142.74,0,0,1,42.23-12.1c-.65.08-1.3.13-1.95.21,18.94-15.81,64.28-35.38,169.09-18.4,6.46,1,12.6,1.9,18.59,2.67,2,3.5,3.88,7,5.62,10.79-8.23-.95-16.72-2.06-25.82-3.53-80.07-13-123.34-4-146.3,7.14,22,.25,41.07,5.55,56.56,15.94a57.15,57.15,0,0,1,11,9.57c23.44-1.23,52.57.21,89,6.11,10.13,1.64,19.62,2.9,28.61,3.88q1.16,5,2.17,10.32c-10.14-1-20.85-2.4-32.39-4.26-32.61-5.28-59.06-6.89-80.59-6.23,5.07,9.27,7.72,20.29,7.72,33.1v5.52c22.39-.71,49.67,1,83.06,6.37,9.6,1.55,18.65,2.78,27.23,3.74.27,3.36.57,6.69.78,10.15-9.35-1-19.1-2.25-29.61-4C740,168.53,717.91,220,717.7,220.48c-.72,1.93-11.39,27.89-65.2,37.38-23.11,4.08-54.24,5.08-95.9-.15-7.19,10.06-12,21.76-14.56,35.19,1.35.2,2.66.38,4,.61,46.06,7.46,79.94,7.65,104.79,4.35a52.59,52.59,0,0,0-1.95,10.42c-25.67,3-59.58,2.43-104.45-4.84-1.34-.22-2.6-.39-3.9-.59a141.8,141.8,0,0,0-.84,14.93,151.09,151.09,0,0,0,1.77,22.44c4.29.6,8.66,1.24,13.16,2,47.55,7.7,82.09,7.64,107.15,4a49.55,49.55,0,0,0,9.89,7.94c.3.19.69.3,1,.48-1,.2-2,.43-3,.62-26.8,4.73-64.3,5.36-116.61-3.11-3.32-.54-6.52-1-9.71-1.46a94.93,94.93,0,0,0,9.44,24.83,120.43,120.43,0,0,0,10.59,15.4c140.84,22.77,167.87-22.36,170.42-27.43a137.66,137.66,0,0,1-17,1.11,119.9,119.9,0,0,1-22.44-2.26,65.68,65.68,0,0,1-22-8.18,50.2,50.2,0,0,1-16.46-15.95c-4.48-6.81-6.78-15.11-6.78-24.59,0-14.57,4.8-26.56,14.25-35.66,8.72-8.38,19.76-14.78,32.84-19.06A198.16,198.16,0,0,1,739,250.55c15.85-1.4,31.43-2.11,46.32-2.11h17.55a8.36,8.36,0,0,1,8.35,8.35V271c0,1.15-.1,2.24-.13,3.37,24.59-2,56-.88,96.21,5.64,4.06.66,8,1.23,11.85,1.78v10.11c-4.42-.61-8.81-1.21-13.46-2-40.44-6.55-71.44-7.47-95.25-5.37-1.63,15.82-6.15,29.71-13.61,41.48,27-5.13,65.1-6.1,119,2.64,1.11.18,2.16.32,3.26.49v10.15c-1.65-.25-3.19-.44-4.87-.71-62-10-101.84-6.89-127.38.19l-.19.22c-10.34,10.74-23.61,18.1-39.6,22.07a25.26,25.26,0,0,0-3.63,5.43c-.72,1.92-11.39,27.89-65.2,37.38-24.59,4.34-58.36,5.12-104.12-1.31a102.37,102.37,0,0,0,12.44,10.16,144.1,144.1,0,0,0,46.21,20.53c42.62,10.65,82.27,7.92,116.16-7,19.8-8.73,34.68-21.12,44.24-36.81a8.35,8.35,0,0,1,7.14-4h-.66a8.13,8.13,0,0,0-5.48,2.41c-34.59,9.93-42,27.09-42.15,27.39-.32.86-2.69,6.57-10,13.45a158.88,158.88,0,0,1-39.3,9.73c32.71-10,39.79-26.46,39.91-26.76,1.09-2.91,24.15-58.37,176.49-35.06v10.17c-53.83-8.37-90.72-6.71-115.78-1.23a8.3,8.3,0,0,1,7.85,8.25V424c24.78-5.14,59.43-6.72,107.93,0v5.73h.66Zm-125.3,36.77H785.3c-14.4,0-29.48.69-44.81,2a181.72,181.72,0,0,0-39.08,7.57c-10.66,3.49-19.56,8.62-26.44,15.22-6.14,5.91-9.13,13.63-9.13,23.62,0,6.25,1.33,11.31,4.07,15.47A33.8,33.8,0,0,0,681,339.84a49.26,49.26,0,0,0,16.48,6.07,103.44,103.44,0,0,0,19.28,2c25.74,0,44.66-6.68,57.89-20.42s19.83-32.33,19.83-56.44ZM722.84,102.24c-4.17,0-8.31.3-12.42.71,4.22-.39,8.46-.68,12.73-.69Zm1063.28,38.43c0,8.3,3.95,13.65,12.81,17.35,11.5,4.83,30.57,10.31,56.69,16.28A319,319,0,0,1,1904,188.87a174.53,174.53,0,0,1,45.16,25.42,124.76,124.76,0,0,1,33.13,39.39c8.42,15.6,12.69,34.35,12.69,55.74,0,27.52-5.71,51.29-17,70.63a138.9,138.9,0,0,1-44.07,46.63,187,187,0,0,1-59.82,25.38,285.83,285.83,0,0,1-65.42,7.73,324.16,324.16,0,0,1-102.52-16.71c-33.64-11.25-62.11-28.05-84.63-50a8.36,8.36,0,0,1-.23-11.74l76.89-81a7.87,7.87,0,0,1,6.14-2.6,8.35,8.35,0,0,1,6.08,2.71A145.72,145.72,0,0,0,1753.08,332a117.76,117.76,0,0,0,53.09,12.48,65.91,65.91,0,0,0,29.33-7.07c8-3.93,11.62-10.25,11.62-20.5,0-5.93-1.58-14.54-15.2-20.8-13-5.92-33.53-12.19-61.1-18.66a337.22,337.22,0,0,1-44.53-13.74,145.66,145.66,0,0,1-41.16-23.91,122.09,122.09,0,0,1-30.08-37.64c-7.81-15.1-11.76-33.25-11.76-54,0-26.56,5.73-49.52,17-68.23a143.5,143.5,0,0,1,43.45-45.66,192.1,192.1,0,0,1,58.07-25.78c53.4-13.84,106.35-9.59,156.78,6.84,30.89,10.12,57.38,25.5,78.76,45.72a8.35,8.35,0,0,1,.26,11.88l-75.19,77.71a8.33,8.33,0,0,1-11.75.25,146.8,146.8,0,0,0-37.2-25.3,101,101,0,0,0-43.95-10,75.69,75.69,0,0,0-32,6.73C1789.65,126,1786.12,131.67,1786.12,140.67ZM1839,99.43c-.88-.09-1.78-.08-2.66-.15C1837.18,99.33,1838.07,99.36,1839,99.43Zm-61.25-77.28c3.11-.64,6.23-1.34,9.34-1.85C1783.94,20.82,1780.82,21.51,1777.71,22.15Zm-82.92,41.1c59.84-6.4,71.19-32.45,71.36-32.87a29.59,29.59,0,0,1,3.81-6.55c-1.3.31-2.59.51-3.89.85a175.64,175.64,0,0,0-53,23.53A124.62,124.62,0,0,0,1694.78,63.25Zm-24.19,290.47c39.23,4.65,68.27,3.54,89.62-.29a119.51,119.51,0,0,0,13.17,3.73A134.46,134.46,0,0,1,1745.61,347a165.85,165.85,0,0,1-41.26-28.84Zm-31.34,33A182,182,0,0,0,1654.73,399l.71.11c148.46,24,170.59-27.39,170.8-27.91.41-1.1,4.09-9.69,16.52-18.72a83.21,83.21,0,0,1-36.58,8.74,136.08,136.08,0,0,1-27.8-3c.95.19,1.88.44,2.84.61a160,160,0,0,1-19.36,4.63c-23.83,4.2-56.22,5.11-99.86-.69Zm151.32-279.57a89.7,89.7,0,0,1,26.62-7.44c-.4,0-.82,0-1.21.09C1840.59,89,1883.05,81.52,1955.3,92l-8.66,9c-43.58-5.75-75.08-4.55-97.76-.3a118,118,0,0,1,31.89,9.89A167.62,167.62,0,0,1,1916,133.27l63.57-65.71c-18.42-15.75-40.63-28-66.17-36.32-40.37-13.17-82.43-18-125.11-11.12-9.91,7.23-12.71,13.65-12.79,13.84-.72,1.93-11.39,27.89-65.2,37.38a227.6,227.6,0,0,1-25.46,2.84,132.55,132.55,0,0,0-10.25,14.42,95.65,95.65,0,0,0-10.17,24.57c94.23,3,110.09-33.66,110.26-34.1h0c1.06-2.84,22.95-55.59,165-36.72A190.21,190.21,0,0,1,1963.81,56c-3-.44-5.81-.8-8.88-1.29-148.46-24-170.59,27.39-170.8,27.91-.72,1.92-11.39,27.89-65.2,37.38-15.14,2.67-33.87,3.94-56.58,3.09a140.77,140.77,0,0,0-2.35,25.07q0,6.76.62,13.05c61.13,4,92.6-7.79,108.24-18.46a34.85,34.85,0,0,0,2.16,10.78c-9.77,5.94-23.7,11.66-43.51,15.16-17.06,3-38.55,4.3-65.33,2.7a85.54,85.54,0,0,0,7.7,23.07,111.46,111.46,0,0,0,10.25,16c95.54,3.46,111.6-33.59,111.77-34a21.57,21.57,0,0,1,1.2-2.51c2.88,1.17,6.05,2.36,9.63,3.58a17.08,17.08,0,0,0-1.42,2.5h0c-.72,1.93-11.39,27.89-65.2,37.38a256,256,0,0,1-47,3.38c2.16,2.16,4.38,4.25,6.72,6.19a129.14,129.14,0,0,0,36.47,21.17c6.07,2.34,12.2,4.4,18.35,6.36,41.22-9.41,49.73-29,49.86-29.37.67-1.79,9.62-23.31,51.47-34.36q11.25,2.43,22.63,5.86c-54.12,7.54-64.56,31.72-64.7,32.08-.59,1.59-8,19.46-40.7,31,1.81.46,3.62,1,5.43,1.47q20.44,4.79,36,9.51c6.16-10.69,33.84-44.15,135.3-36.56a106.66,106.66,0,0,1,10,11c-98.33-9.7-128,18.58-135.3,28.76a193.5,193.5,0,0,1,18.29,7.05A46.35,46.35,0,0,1,1855,292.68c23.34-9,60.74-14.88,120.13-7.84.7,3.34,1.27,6.78,1.67,10.35-58-7.19-94.09-1.85-116.2,6.32a38.37,38.37,0,0,1,3.22,15.42c0,13.14-4.66,23.54-13.44,30.64,20.65-11.65,58.16-21.81,125.36-14.92-.5,3.36-1,6.76-1.69,9.95-119.3-12-138.22,31.69-138.41,32.17h0c-.72,1.93-11.39,27.89-65.2,37.38-22.71,4-53.22,5-93.79.08a229.86,229.86,0,0,0,34.81,15,301.87,301.87,0,0,0,93.6,15.79c24.08-9.92,29.66-22.88,29.76-23.14.94-2.53,18.49-44.71,122.93-40.47q-3.53,5.16-7.5,9.85c-90.45-1.81-105.85,33.77-106,34.2-.4,1.08-4,9.75-16.51,18.82-7.48.58-15,.78-22.4.76a275.49,275.49,0,0,0,65-7.24,170.46,170.46,0,0,0,54.51-23.09,122.15,122.15,0,0,0,38.78-41.09c9.75-16.73,14.7-37.67,14.7-62.2,0-18.59-3.6-34.67-10.69-47.8a108.2,108.2,0,0,0-28.73-34.18,157.71,157.71,0,0,0-40.89-23A301,301,0,0,0,1852,190.62c-27.58-6.31-47-11.92-59.54-17.19-19.07-8-23.07-22.21-23.07-32.76C1769.41,125.18,1776.73,113.6,1790.57,107.19Zm38.34-8.28c-.53,0-1,.1-1.55.11.63,0,1.24-.09,1.88-.1Zm-473.1-37.83a8.35,8.35,0,0,1,.26,11.88l-75.19,77.71a8.33,8.33,0,0,1-11.75.25,147,147,0,0,0-37.2-25.3,101,101,0,0,0-43.95-10,75.62,75.62,0,0,0-32,6.73c-7.93,3.68-11.47,9.32-11.47,18.32,0,8.3,3.95,13.65,12.81,17.35,11.5,4.83,30.57,10.31,56.69,16.28a319.75,319.75,0,0,1,48.35,14.57,174.53,174.53,0,0,1,45.16,25.42,124.76,124.76,0,0,1,33.13,39.39c8.42,15.62,12.69,34.37,12.69,55.74,0,27.53-5.71,51.3-17,70.63a138.64,138.64,0,0,1-44,46.63,187,187,0,0,1-59.82,25.38,285.86,285.86,0,0,1-65.43,7.73,324.09,324.09,0,0,1-102.51-16.71c-33.64-11.24-62.11-28.05-84.63-50a8.36,8.36,0,0,1-.23-11.74l76.88-81a8.33,8.33,0,0,1,6.06-2.6h.08a8.35,8.35,0,0,1,6.08,2.71A146,146,0,0,0,1111.5,332a117.76,117.76,0,0,0,53.09,12.48,65.86,65.86,0,0,0,29.32-7.07c8-3.93,11.62-10.25,11.62-20.5,0-5.93-1.58-14.54-15.19-20.8-13-5.93-33.55-12.2-61.1-18.66a337.87,337.87,0,0,1-44.54-13.74,145.6,145.6,0,0,1-41.15-23.91,121.84,121.84,0,0,1-30.08-37.64c-7.81-15.1-11.76-33.25-11.76-54,0-26.56,5.73-49.52,17-68.23A143.5,143.5,0,0,1,1062.2,34.3a192.1,192.1,0,0,1,58.07-25.78c53.4-13.83,106.34-9.59,156.78,6.84C1307.92,25.47,1334.41,40.86,1355.81,61.08ZM1159,18.46c3.64-.37,7.27-.65,10.9-.87C1166.25,17.82,1162.62,18.06,1159,18.46Zm-16.14,2.23,1.07-.18Zm-85.25,302.9c2.5-1.06,4.9-2.13,7-3.23,2.65,2.45,5.37,4.83,8.22,7.12-7.47,4.33-17.27,8.47-30,11.67l-42.28,44.55c80.39-1.25,94.53-33.8,94.7-34.22a27.28,27.28,0,0,1,2.94-5.33c1.73.94,3.4,1.93,5.18,2.82,1.32.66,2.7,1.12,4,1.74a22.52,22.52,0,0,0-2.75,4.34h0c-.72,1.93-11.39,27.89-65.2,37.38a236.91,236.91,0,0,1-33,3.23,208.59,208.59,0,0,0,57.45,31.25c32.72-10,39.86-26.46,40-26.75.73-2,11.35-27.51,64.1-37.15-1.11,0-2.23.2-3.34.2A134.28,134.28,0,0,1,1104,347a165.73,165.73,0,0,1-41.26-28.84ZM1338,67.56c-18.43-15.76-40.65-28-66.17-36.32C1240.4,21,1207.93,15.87,1175,17.29c15.12.93,31.89,2.76,50.61,5.8,11.58,1.88,22.31,3.24,32.41,4.26,4.42,1.23,8.85,2.46,13.23,3.89a217.29,217.29,0,0,1,21.18,8.29c-19.39-.28-42-2.22-68.43-6.5-55.8-9-93.64-7.38-119.29-1.8a171.87,171.87,0,0,0-33.2,17,124.55,124.55,0,0,0-21,17.6,48.94,48.94,0,0,1-7.24,8.44,132.52,132.52,0,0,0-10.19,14.35c-7.14,11.82-11.64,25.83-13.55,41.74,26.59-10,32.72-24,32.83-24.3h0c1.09-2.94,24.58-59.74,181.81-34.27,39.65,6.42,70.22,7.43,93.84,5.49L1317.61,88c-22.77.88-50.66-.7-85.08-6.28-148.46-24-170.59,27.39-170.8,27.91h0c-.6,1.62-8.41,20.26-42.95,31.78-.1,2.28-.37,4.44-.37,6.79a112.31,112.31,0,0,0,4.56,32.63c30.95-10.06,37.82-25.8,37.94-26.08.78-2.08,12.81-31,75.29-38.86a32.47,32.47,0,0,0-6.73,11.21c-49.3,8.35-59,30.88-59.16,31.22-.61,1.63-8.52,20.56-43.79,32.06.6,1.36,1.1,2.82,1.77,4.11A106.36,106.36,0,0,0,1049,222.13c16.28-9,20.44-18.49,20.53-18.72.75-2,11.89-28.84,68.23-37.86a42,42,0,0,0,12.51,7.88c.41.17.9.35,1.33.53-61.09,6.15-72.52,32.66-72.66,33h0c-.45,1.22-5,12-21.74,22.22a127.88,127.88,0,0,0,25.42,15.46c11.87-15.34,52.27-47.09,177.32-26.83,10.21,1.65,19.78,2.92,28.83,3.9,2.69,1.84,5.34,3.71,7.88,5.7,2.29,1.79,4.42,3.73,6.55,5.69-13.63-1-28.44-2.69-44.86-5.36-114.29-18.51-153.66,7.69-165.85,21a321.48,321.48,0,0,0,40.6,12.46c4.69,1.1,9.12,2.19,13.43,3.29,27.1-5.64,66-7,122,2a472.78,472.78,0,0,0,61.73,6.24,90.82,90.82,0,0,1,3,10.14,476.58,476.58,0,0,1-66.29-6.45c-41-6.64-72.36-7.5-96.3-5.29a225.32,225.32,0,0,1,26.73,9.77c16.15,7.42,22.23,18.41,24.14,28.22a500.67,500.67,0,0,1,55.62,6.06,480.55,480.55,0,0,0,58.33,6.11c-.24,3.41-.56,6.75-1,10a491.47,491.47,0,0,1-58.92-6.18,491.21,491.21,0,0,0-53.36-5.87c-.67,15.33-7.81,26.8-20.87,33.17a88.6,88.6,0,0,1-17.3,6.31c25.33-2.62,58.43-1.87,101.72,5.15,13.38,2.17,25.69,3.7,37.1,4.73-.51,1-.89,2-1.43,3-1.34,2.29-2.88,4.37-4.33,6.55-10.3-1-21.19-2.42-32.94-4.33-148.46-24-170.6,27.39-170.8,27.91h0c-.55,1.47-7,16.89-33.8,28.35a312.21,312.21,0,0,0,37.85,8.85c12-15.1,51.16-44.71,167.35-27.79-.72.49-1.36,1.07-2.09,1.55-3.69,2.42-7.53,4.66-11.45,6.78-91.13-11.21-127.92,8.58-141.69,21.37a278.87,278.87,0,0,0,99.3-5.06,170.46,170.46,0,0,0,54.51-23.09A122.13,122.13,0,0,0,1322,371.62c9.76-16.73,14.71-37.66,14.71-62.2,0-18.57-3.6-34.65-10.69-47.8a108.2,108.2,0,0,0-28.73-34.18,157.71,157.71,0,0,0-40.89-23,301.46,301.46,0,0,0-45.94-13.84c-27.56-6.31-47-11.92-59.53-17.19-19.07-8-23.07-22.21-23.07-32.76,0-15.49,7.32-27.07,21.16-33.48a92.25,92.25,0,0,1,39-8.28,117.68,117.68,0,0,1,51.2,11.65,175.14,175.14,0,0,1,21.4,12.47c7.26.95,14.27,1.75,20.87,2.32l-7.39,7.63c.12.1.27.18.39.28Z"/></svg>