<?xml version="1.0" encoding="utf-8"?>
<!-- Generator: Adobe Illustrator 22.1.0, SVG Export Plug-In . SVG Version: 6.00 Build 0)  -->
<svg version="1.1" id="Layer_1" xmlns="http://www.w3.org/2000/svg" xmlns:xlink="http://www.w3.org/1999/xlink" x="0px" y="0px"
	 viewBox="0 0 2000 869.6" style="enable-background:new 0 0 2000 869.6;" xml:space="preserve">
<style type="text/css">
	.st0{fill:#CB5758;}
</style>
<g>
	<g>
		<path class="st0" d="M622.7,212.5l-10.1-7.7c1.8-2.2,143.7-192.4,143.7-192.4l10.2,7.6C765.1,21.9,623.3,211.7,622.7,212.5"/>
		
			<rect x="577.1" y="152.5" transform="matrix(0.5243 -0.8515 0.8515 0.5243 159.2955 602.8777)" class="st0" width="84.3" height="12.8"/>
		
			<rect x="545.6" y="128" transform="matrix(0.4456 -0.8952 0.8952 0.4456 212.0779 611.3022)" class="st0" width="107.9" height="12.8"/>
		
			<rect x="514.1" y="109.5" transform="matrix(0.3636 -0.9316 0.9316 0.3636 258.0915 609.4999)" class="st0" width="122" height="12.8"/>
		
			<rect x="468.3" y="76.9" transform="matrix(0.2788 -0.9604 0.9604 0.2788 319.0179 591.289)" class="st0" width="169.7" height="12.8"/>
		
			<rect x="457.9" y="94.8" transform="matrix(0.1916 -0.9815 0.9815 0.1916 318.4303 588.9524)" class="st0" width="117.6" height="12.8"/>
		
			<rect x="432.6" y="95.2" transform="matrix(0.1031 -0.9947 0.9947 0.1031 335.3896 575.0887)" class="st0" width="107.9" height="12.8"/>
		
			<rect x="416.9" y="107.4" transform="matrix(1.339913e-02 -0.9999 0.9999 1.339913e-02 336.9779 569.0748)" class="st0" width="80" height="12.8"/>
		
			<rect x="420.6" y="33.8" transform="matrix(0.9971 -7.642338e-02 7.642338e-02 0.9971 -5.957 32.9081)" class="st0" width="12.8" height="120.9"/>
		
			<rect x="392.9" y="64.8" transform="matrix(0.9862 -0.1655 0.1655 0.9862 -12.946 67.6224)" class="st0" width="12.8" height="93.3"/>
		
			<rect x="366" y="81.3" transform="matrix(0.9674 -0.2532 0.2532 0.9674 -18.9271 98.2815)" class="st0" width="12.8" height="82.7"/>
		
			<rect x="333.8" y="60.6" transform="matrix(0.9408 -0.3389 0.3389 0.9408 -19.5168 122.1932)" class="st0" width="12.8" height="112.7"/>
		
			<rect x="318.3" y="126.5" transform="matrix(0.9066 -0.4219 0.4219 0.9066 -34.7796 151.3942)" class="st0" width="12.8" height="55.5"/>
		
			<rect x="290.3" y="124.8" transform="matrix(0.8652 -0.5014 0.5014 0.8652 -40.3302 170.3492)" class="st0" width="12.8" height="70.9"/>
		
			<rect x="280.9" y="184.4" transform="matrix(0.8168 -0.577 0.577 0.8168 -60.0351 201.5665)" class="st0" width="12.8" height="21.7"/>
		
			<rect x="232.3" y="123.1" transform="matrix(0.7618 -0.6479 0.6479 0.7618 -58.2899 196.9784)" class="st0" width="12.8" height="109.2"/>
		
			<rect x="217.8" y="160.6" transform="matrix(0.7006 -0.7136 0.7136 0.7006 -79.1659 221.3741)" class="st0" width="12.8" height="88.9"/>
		
			<rect x="184.7" y="152.6" transform="matrix(0.6338 -0.7735 0.7735 0.6338 -96.318 226.5568)" class="st0" width="12.8" height="124.9"/>
		
			<rect x="173.7" y="190.3" transform="matrix(0.5619 -0.8272 0.8272 0.5619 -123.059 255.8904)" class="st0" width="12.8" height="107.7"/>
		
			<rect x="121.3" y="152.8" transform="matrix(0.4855 -0.8742 0.8742 0.4855 -151.8351 239.6447)" class="st0" width="12.8" height="192"/>
		
			<rect x="163.3" y="270" transform="matrix(0.4052 -0.9142 0.9142 0.4052 -176.8899 335.8552)" class="st0" width="12.8" height="67.6"/>
		
			<rect x="105" y="228.8" transform="matrix(0.3216 -0.9469 0.9469 0.3216 -221.1427 318.1095)" class="st0" width="12.8" height="169.3"/>
		
			<rect x="86.7" y="247.9" transform="matrix(0.2354 -0.9719 0.9719 0.2354 -261.38 352.0839)" class="st0" width="12.8" height="188.5"/>
		
			<rect x="136.2" y="345.4" transform="matrix(0.1474 -0.9891 0.9891 0.1474 -257.2924 467.6734)" class="st0" width="12.8" height="75.4"/>
		
			<rect x="102.6" y="340.8" transform="matrix(5.811891e-02 -0.9983 0.9983 5.811891e-02 -305.8613 494.3235)" class="st0" width="12.8" height="136.9"/>
		
			<rect x="72.7" y="433.2" transform="matrix(0.9995 -3.152990e-02 3.152990e-02 0.9995 -13.7988 4.156)" class="st0" width="104.3" height="12.8"/>
		
			<rect x="46" y="464.3" transform="matrix(0.9926 -0.121 0.121 0.9926 -56.1372 17.0966)" class="st0" width="133.4" height="12.8"/>
		
			<rect x="103.1" y="489.1" transform="matrix(0.9778 -0.2096 0.2096 0.9778 -100.6491 41.0748)" class="st0" width="80.8" height="12.8"/>
		
			<rect x="158.9" y="509.2" transform="matrix(0.9551 -0.2964 0.2964 0.9551 -144.9498 74.8496)" class="st0" width="31" height="12.8"/>
		
			<rect x="104.1" y="546.3" transform="matrix(0.9246 -0.3808 0.3808 0.9246 -198.9875 99.7978)" class="st0" width="97.2" height="12.8"/>
		
			<rect x="102.1" y="576.2" transform="matrix(0.8867 -0.4623 0.4623 0.8867 -251.4213 139.1654)" class="st0" width="112.3" height="12.8"/>
		
			<rect x="98.2" y="607.5" transform="matrix(0.8418 -0.5398 0.5398 0.8418 -305.3212 185.9208)" class="st0" width="132.7" height="12.8"/>
		
			<rect x="126.4" y="629" transform="matrix(0.7899 -0.6132 0.6132 0.7899 -350.3403 248.0477)" class="st0" width="121" height="12.8"/>
		
			<rect x="151.7" y="649.7" transform="matrix(0.7319 -0.6814 0.6814 0.7319 -391.0701 318.2157)" class="st0" width="114.4" height="12.8"/>
		
			<rect x="169.9" y="672" transform="matrix(0.668 -0.7442 0.7442 0.668 -428.8174 395.6216)" class="st0" width="118" height="12.8"/>
		
			<rect x="201.7" y="686.7" transform="matrix(0.5986 -0.8011 0.8011 0.5986 -452.7455 482.7891)" class="st0" width="107.3" height="12.8"/>
		
			<rect x="266.4" y="680.8" transform="matrix(0.5242 -0.8516 0.8516 0.5242 -445.5386 577.0823)" class="st0" width="54.5" height="12.8"/>
		
			<rect x="226.4" y="733.5" transform="matrix(0.4457 -0.8952 0.8952 0.4457 -497.3523 676.6807)" class="st0" width="142.7" height="12.8"/>
		
			<rect x="279.8" y="729.1" transform="matrix(0.3637 -0.9315 0.9315 0.3637 -473.3227 778.0286)" class="st0" width="106" height="12.8"/>
		
			<rect x="332.2" y="720.2" transform="matrix(0.279 -0.9603 0.9603 0.279 -433.7812 875.4678)" class="st0" width="67.7" height="12.8"/>
		
			<rect x="341.6" y="741.3" transform="matrix(0.1916 -0.9815 0.9815 0.1916 -418.3169 987.4494)" class="st0" width="97.3" height="12.8"/>
		
			<rect x="369.5" y="746.4" transform="matrix(0.1031 -0.9947 0.9947 0.1031 -372.9973 1091.9131)" class="st0" width="99" height="12.8"/>
		
			<rect x="414.4" y="732.5" transform="matrix(1.350015e-02 -0.9999 0.9999 1.350015e-02 -296.5483 1177.1169)" class="st0" width="67.7" height="12.8"/>
		
			<rect x="471.1" y="704.1" transform="matrix(0.9971 -7.640576e-02 7.640576e-02 0.9971 -56.4712 38.6997)" class="st0" width="12.8" height="106.6"/>
		
			<rect x="502.4" y="700.4" transform="matrix(0.9862 -0.1655 0.1655 0.9862 -119.7207 94.7722)" class="st0" width="12.8" height="130.9"/>
		
			<rect x="538.3" y="693.2" transform="matrix(0.9674 -0.2532 0.2532 0.9674 -180.276 163.4163)" class="st0" width="12.8" height="177.7"/>
		
			<rect x="552.8" y="686.4" transform="matrix(0.9408 -0.339 0.339 0.9408 -212.9726 232.5391)" class="st0" width="12.8" height="79.1"/>
		
			<rect x="584.9" y="674.4" transform="matrix(0.9066 -0.4219 0.4219 0.9066 -251.9257 317.4302)" class="st0" width="12.8" height="107.2"/>
		
			<rect x="637" y="653.8" transform="matrix(0.8652 -0.5015 0.5015 0.8652 -293.8582 424.9841)" class="st0" width="12.8" height="210.4"/>
		
			<rect x="639.2" y="643.8" transform="matrix(0.8167 -0.577 0.577 0.8167 -287.2499 501.3047)" class="st0" width="12.8" height="118.1"/>
		<polygon class="st0" points="632.8,651.6 626.1,643.6 635.9,635.3 642.6,643.3 		"/>
		
			<rect x="682.7" y="605.8" transform="matrix(0.7006 -0.7136 0.7136 0.7006 -265.9714 689.9262)" class="st0" width="12.8" height="112.1"/>
		
			<rect x="693" y="588.2" transform="matrix(0.6338 -0.7735 0.7735 0.6338 -232.6201 772.3774)" class="st0" width="12.8" height="87.2"/>
		
			<rect x="717.7" y="561.3" transform="matrix(0.5619 -0.8272 0.8272 0.5619 -190.7086 867.9951)" class="st0" width="12.8" height="105.5"/>
		
			<rect x="721.5" y="543.1" transform="matrix(0.4855 -0.8742 0.8742 0.4855 -134.7187 936.0623)" class="st0" width="12.8" height="78.8"/>
		
			<rect x="766.1" y="497" transform="matrix(0.4052 -0.9142 0.9142 0.4052 -62.857 1046.0717)" class="st0" width="12.8" height="148.7"/>
		
			<rect x="723.7" y="506.3" transform="matrix(0.3215 -0.9469 0.9469 0.3215 -0.6145 1046.8047)" class="st0" width="12.8" height="35.2"/>
		<path class="st0" d="M848.2,532c0,0-125.7-30.5-129.4-31.4l3-12.3c0.7,0.2,129.3,31.3,129.3,31.3L848.2,532z"/>
		
			<rect x="770.9" y="425.2" transform="matrix(0.1473 -0.9891 0.9891 0.1473 190.0566 1176.3167)" class="st0" width="12.8" height="105.4"/>
		
			<rect x="766.3" y="403.2" transform="matrix(5.814195e-02 -0.9983 0.9983 5.814195e-02 280.3116 1193.4532)" class="st0" width="12.8" height="90"/>
		
			<rect x="728" y="413.4" transform="matrix(0.9995 -3.162229e-02 3.162229e-02 0.9995 -12.8931 24.2907)" class="st0" width="67" height="12.8"/>
		
			<rect x="726" y="386.3" transform="matrix(0.9927 -0.121 0.121 0.9927 -41.9627 94.2417)" class="st0" width="58.1" height="12.8"/>
		
			<rect x="721.2" y="356.5" transform="matrix(0.9778 -0.2095 0.2095 0.9778 -59.0836 167.9975)" class="st0" width="84.6" height="12.8"/>
		
			<rect x="714.9" y="335.5" transform="matrix(0.955 -0.2965 0.2965 0.955 -68.3305 233.3116)" class="st0" width="40" height="12.8"/>
		
			<rect x="705.3" y="307.2" transform="matrix(0.9247 -0.3807 0.3807 0.9247 -64.0918 303.1474)" class="st0" width="57.7" height="12.8"/>
		
			<rect x="689.6" y="265.4" transform="matrix(0.8868 -0.4622 0.4622 0.8868 -40.103 379.8641)" class="st0" width="131.3" height="12.8"/>
		
			<rect x="671.4" y="229" transform="matrix(0.8418 -0.5398 0.5398 0.8418 -7.5795 444.9727)" class="st0" width="167.9" height="12.8"/>
		
			<rect x="666.4" y="242.4" transform="matrix(0.79 -0.6131 0.6131 0.79 -8.5836 472.5395)" class="st0" width="38.2" height="12.8"/>
		<path class="st0" d="M658.8,246.3l-8.6-9.4c2-1.9,21.2-19.8,21.2-19.8l8.7,9.4C680.1,226.5,659.2,245.9,658.8,246.3"/>
		
			<rect x="600.8" y="137.4" transform="matrix(0.6678 -0.7443 0.7443 0.6678 128.5217 575.4944)" class="st0" width="216.5" height="12.8"/>
		<g>
			<path class="st0" d="M440.7,437.2c-5.3-6-13.5-10.4-24.6-13c5.1-1.9,9.4-4.1,13-6.5c3.6-2.7,6.5-5.3,8.9-8.5
				c2.2-3.1,4.1-6.3,5.1-9.9c1.2-3.4,1.7-7,1.7-10.9c0-7-1.2-13-3.6-18.8c-2.4-5.8-6.3-10.6-11.4-14.5c-5.1-3.9-11.8-7-20-9.2
				c-8.2-2.2-18.1-3.1-29.7-3.1H318v168.8h67.4c10.1,0,19.1-1.2,27.1-3.9c7.7-2.7,14.5-6.3,19.8-10.9c5.6-4.6,9.4-9.9,12.3-16.2
				c2.9-6,4.3-12.8,4.1-20C448.7,451,446,443.3,440.7,437.2z M357.4,372.3h22.9c4.3,0,8.2,0.5,11.4,1c3.1,0.5,6,1.7,8,3.4
				c1.9,1.7,3.6,3.9,4.6,6.5c1,2.9,1.4,6,1.4,10.1c0,4.1-0.7,7.5-1.9,10.1c-1.2,2.7-3.1,4.8-5.6,6.3c-2.4,1.4-5.6,2.4-8.9,3.1
				c-3.4,0.7-7.2,1-11.6,1.2h-20.3V372.3z M409.3,467.9c-0.7,2.7-1.9,4.8-3.9,7c-1.9,2.2-4.3,3.9-7.7,5.1s-7.7,1.9-12.8,1.9h-27.5
				v-42h27.3c5.1,0,9.2,0.5,12.3,1.4c3.1,1,5.8,2.2,7.7,3.9c1.9,1.7,3.4,3.9,4.3,6.3c0.7,2.7,1.2,5.3,1.2,8.5
				C410.3,462.6,410,465.2,409.3,467.9z"/>
			<polygon class="st0" points="578.8,372.7 578.8,342.8 470.2,342.8 470.2,511.6 578.8,511.6 578.8,481.4 509.5,481.4 509.5,441.1 
				562.7,441.1 562.7,412.1 509.5,412.1 509.5,372.7 			"/>
		</g>
	</g>
	<g>
		<path class="st0" d="M999.5,341.3c-28.8,0-48-20.4-48-47.2s19.2-47.2,48-47.2c28.6,0,47.8,20.6,47.8,47.2
			S1028.2,341.3,999.5,341.3z M999.5,264.7c-16.5,0-26,11.1-26,29.4c0,18.6,9.7,29.4,26,29.4c16.3,0,25.9-10.9,25.9-29.4
			C1025.5,275.8,1015.8,264.7,999.5,264.7z"/>
		<path class="st0" d="M1106.7,309.5v30.8h-21.4V248h32.5c25.9,0,37.1,13.1,37.1,30.1c0,18.4-11.6,31.3-37.1,31.3H1106.7z
			 M1106.7,293.3h11.1c11.1,0,15.7-5.6,15.7-15.1c0-8.3-4.9-14.1-15.7-14.1h-11.1V293.3z"/>
		<path class="st0" d="M1253.4,248v16.5h-37.8V286h28.9v15.8h-28.9v22h37.8v16.5H1194V248L1253.4,248z"/>
		<path class="st0" d="M1316.6,251.2l43.7,55.3c-0.3-3.6-0.5-7-0.5-9.9v-48.9h18.9v92.3h-11.1c-3.2,0-5.4-0.9-7.5-3.6l-43.4-55
			c0.2,3.2,0.5,6.3,0.5,9v49.4h-18.9v-92.3h11.2C1313.2,248,1314.4,248.5,1316.6,251.2z"/>
	</g>
	<g>
		<path class="st0" d="M977.7,456.4h3.4c3.2,0,5.4-1,6.8-2.9l20.8-30.1c2.2-3.2,4.9-4.3,9.2-4.3h18.6l-27.2,37.3
			c-2,2.7-4.1,4.4-6.3,5.6c3.2,1.2,5.8,3.1,8,6.6l27.9,42.7h-19.1c-4.9,0-6.6-1.4-8.3-3.9l-20.9-32.2c-1.5-2.4-3.6-3.2-7.7-3.2h-5.1
			v39.3h-21.3v-92.3h21.4v37.3H977.7z"/>
		<path class="st0" d="M1097.8,422.3l43.7,55.3c-0.3-3.6-0.5-7-0.5-9.9v-48.9h18.9v92.3h-11.1c-3.2,0-5.4-0.9-7.5-3.6l-43.4-55
			c0.2,3.2,0.5,6.3,0.5,9V511h-18.9v-92.3h11.2C1094.4,419.1,1095.5,419.6,1097.8,422.3z"/>
		<path class="st0" d="M1248.8,512.4c-28.8,0-48-20.4-48-47.2c0-26.7,19.2-47.2,48-47.2c28.6,0,47.8,20.6,47.8,47.2
			C1296.7,491.8,1277.4,512.4,1248.8,512.4z M1248.8,435.8c-16.5,0-26,11.1-26,29.4c0,18.6,9.7,29.4,26,29.4
			c16.3,0,25.9-10.9,25.9-29.4C1274.7,446.8,1265.2,435.8,1248.8,435.8z"/>
		<path class="st0" d="M1320.2,419.1h18c3.7,0,6.3,1.9,7.1,4.6l12.6,48.2c0.9,3.1,1.7,6.6,2.2,10.6c0.9-3.9,1.9-7.5,2.9-10.6
			l15-48.2c0.7-2.4,3.4-4.6,7-4.6h6.3c3.7,0,6.1,1.7,7.1,4.6l14.8,48.2c1,2.9,2,6.3,2.7,10c0.7-3.7,1.4-7.1,2.2-10l12.6-48.2
			c0.7-2.6,3.4-4.6,7-4.6h16.9l-28.4,92.3h-19.4l-17.4-57.2c-0.5-1.7-1.2-3.9-1.9-6.3c-0.5,2.4-1.2,4.4-1.9,6.3l-17.5,57.2h-19.4
			L1320.2,419.1z"/>
		<path class="st0" d="M1514.4,494.1h34.2v17h-55.7v-92.3h21.4V494.1z"/>
		<path class="st0" d="M1653.4,419.1v16.5h-37.8V457h28.9v15.8h-28.9v22h37.8v16.5H1594v-92.3H1653.4z"/>
		<path class="st0" d="M1734.1,511.3h-35.7v-92.3h35.7c28.6,0,47.8,19.6,47.8,46.1C1782.1,491.8,1762.9,511.3,1734.1,511.3z
			 M1734.1,435.6h-14.3v59.2h14.3c16.3,0,25.9-11.2,25.9-29.6C1760.2,446.8,1750.5,435.6,1734.1,435.6z"/>
		<path class="st0" d="M1878,493.1v-14h-9.2c-2.7,0-4.3-1.5-4.3-3.7v-11.7h32.9v39c-9.4,7-20.3,9.9-35.4,9.9
			c-26.9,0-47.2-20.1-47.2-47.2c0-27.6,19.1-47.2,48.7-47.2c15.5,0,26.9,5.3,34.4,12.4l-6.1,9.4c-1.2,1.7-2.9,2.9-4.8,2.9
			c-1.2,0-2.6-0.5-3.9-1.2c-6.8-4.1-11.6-5.8-20.1-5.8c-16,0-26,11.7-26,29.4c0,19.6,11.4,30.6,26.9,30.6
			C1869.4,495.8,1873.9,494.8,1878,493.1z"/>
		<path class="st0" d="M2000,419.1v16.5h-37.8V457h28.9v15.8h-28.9v22h37.8v16.5h-59.4v-92.3H2000z"/>
	</g>
	<g>
		<path class="st0" d="M959.8,682.4v-90.7h28.9c5.6,0,10.4,0.5,14.5,1.7s7.3,2.7,9.9,4.8c2.6,2,4.6,4.4,5.8,7.5
			c1.2,2.9,1.9,6.3,1.9,9.9c0,2.2-0.3,4.4-1,6.5c-0.7,2-1.7,3.9-3.2,5.8c-1.4,1.7-3.2,3.4-5.3,4.8c-2.2,1.4-4.6,2.6-7.5,3.4
			c6.6,1.4,11.6,3.7,15,7.1c3.4,3.4,5.1,8,5.1,13.6c0,3.9-0.7,7.3-2,10.6c-1.4,3.2-3.4,6-6.1,8.2c-2.7,2.2-6.1,4.1-10,5.3
			c-3.9,1.2-8.5,1.9-13.4,1.9h-32.3V682.4z M972.1,632.2h16.2c3.4,0,6.5-0.3,9-1.2c2.6-0.9,4.6-1.9,6.3-3.2c1.7-1.4,2.9-3.1,3.7-4.9
			c0.9-1.9,1.2-4.1,1.2-6.3c0-5.3-1.5-9.2-4.8-11.7c-3.2-2.6-8.2-3.7-15-3.7h-16.7L972.1,632.2L972.1,632.2z M972.1,641v31.5h19.6
			c3.6,0,6.5-0.3,9-1.2c2.6-0.9,4.6-1.9,6.1-3.4c1.7-1.5,2.9-3.2,3.6-5.1c0.7-2,1.2-4.3,1.2-6.6c0-4.8-1.7-8.3-4.9-11.1
			c-3.2-2.7-8.3-4.1-15-4.1H972.1z"/>
		<path class="st0" d="M1135.5,591.7v10h-43.6v30.1h35.2v9.7h-35.2v31h43.6v10h-55.8v-90.7h55.8V591.7z"/>
		<path class="st0" d="M1203.6,672h39.3v10.4h-51.6v-90.7h12.3V672z"/>
		<path class="st0" d="M1334.6,673.4c2.4,0,4.8-0.2,6.8-0.3c2-0.2,3.9-0.5,5.8-1c1.9-0.5,3.6-1,5.1-1.7s3.2-1.4,4.8-2.2V648H1343
			c-0.9,0-1.4-0.2-1.9-0.7c-0.5-0.5-0.7-1-0.7-1.7v-7h27.9v34.9c-2.2,1.7-4.6,3.1-7.1,4.3c-2.4,1.2-5.1,2.2-7.8,3.1
			c-2.7,0.9-5.8,1.4-9,1.9c-3.2,0.3-6.6,0.7-10.4,0.7c-6.6,0-12.6-1.2-18-3.4c-5.4-2.2-10.2-5.4-14.1-9.5s-7-9-9.2-14.6
			c-2.2-5.6-3.4-11.9-3.4-18.7c0-7,1-13.3,3.2-18.9c2.2-5.6,5.3-10.6,9.4-14.6s8.9-7.1,14.6-9.5c5.8-2.2,12.1-3.4,19.2-3.4
			c3.6,0,7,0.3,10,0.9c3.1,0.5,6,1.4,8.5,2.2c2.7,1,5.1,2.2,7.3,3.6c2.2,1.4,4.3,3.1,6.3,4.8l-3.4,5.6c-0.7,1.2-1.7,1.7-2.7,1.7
			c-0.7,0-1.4-0.2-2.2-0.7c-1-0.5-2.2-1.4-3.6-2.2s-2.9-1.7-4.8-2.4c-1.9-0.7-4.1-1.4-6.6-2c-2.6-0.7-5.6-0.9-9-0.9
			c-5.1,0-9.7,0.9-13.8,2.6c-4.1,1.7-7.7,4.1-10.6,7.1c-2.9,3.1-5.1,6.8-6.6,11.2s-2.4,9.4-2.4,14.8c0,5.8,0.9,10.9,2.4,15.3
			c1.7,4.4,3.9,8.3,6.8,11.4s6.5,5.4,10.6,7.1C1325.3,672.5,1329.9,673.4,1334.6,673.4z"/>
		<path class="st0" d="M1439.6,682.4h-12.3v-90.7h12.3V682.4z"/>
		<path class="st0" d="M1537.3,672.5c3.7,0,7.1-0.7,10-1.9c2.9-1.2,5.4-3.1,7.5-5.3c2-2.2,3.6-4.9,4.8-8.2s1.5-6.6,1.5-10.4v-55.2
			h12.3v55.2c0,5.3-0.9,10-2.6,14.6c-1.7,4.4-4.1,8.3-7.1,11.6c-3.1,3.2-6.8,5.8-11.4,7.7c-4.4,1.9-9.5,2.7-15.1,2.7
			c-5.6,0-10.6-0.9-15.1-2.7c-4.6-1.9-8.3-4.4-11.4-7.7c-3.1-3.2-5.4-7.1-7.1-11.6c-1.7-4.4-2.6-9.4-2.6-14.6v-55.2h12.3v55.2
			c0,3.7,0.5,7.3,1.5,10.4s2.6,6,4.8,8.2c2.2,2.2,4.6,4.1,7.5,5.3S1533.4,672.5,1537.3,672.5z"/>
		<path class="st0" d="M1678.6,652.8c0.5,1.2,0.9,2.2,1.4,3.4c0.3-1.2,0.9-2.4,1.4-3.4s1-2.2,1.5-3.2l30.6-55.8
			c0.5-1,1.2-1.5,1.7-1.7s1.4-0.3,2.6-0.3h9v90.7h-10.7v-66.7c0-0.9,0-1.9,0-2.9c0-1,0.2-2,0.2-3.1l-31.1,56.7
			c-1,1.9-2.6,2.9-4.4,2.9h-1.7c-1.9,0-3.4-1-4.4-2.9l-31.8-56.9c0.2,1,0.2,2.2,0.3,3.2c0,1,0.2,2,0.2,2.9v66.7h-10.7v-90.7h9
			c1,0,1.9,0.2,2.6,0.3c0.5,0.2,1.2,0.9,1.7,1.7l31.3,55.8C1677.6,650.6,1678.1,651.6,1678.6,652.8z"/>
	</g>
</g>
</svg>
