<?xml version="1.0" encoding="utf-8"?>
<!-- Generator: Adobe Illustrator 22.1.0, SVG Export Plug-In . SVG Version: 6.00 Build 0)  -->
<svg version="1.1" id="Layer_1" xmlns="http://www.w3.org/2000/svg" xmlns:xlink="http://www.w3.org/1999/xlink" x="0px" y="0px"
	 viewBox="0 0 1093 653.6" style="enable-background:new 0 0 1093 653.6;" xml:space="preserve">
<style type="text/css">
	.st0{fill:#55A286;}
	.st1{fill:#FFFFFF;}
</style>
<g>
	<g>
		<ellipse class="st0" cx="546.5" cy="236.9" rx="315.1" ry="236.9"/>
		<g>
			<g>
				<polygon class="st1" points="551.1,111.7 603.2,56.6 739.8,86.9 684.7,152.8 				"/>
				<polygon class="st1" points="541.8,111.7 489.8,56.6 353.2,86.9 408.3,152.8 				"/>
			</g>
			<g>
				<polygon class="st1" points="551.1,206.4 628,261.5 764.6,200.2 684.7,152.8 				"/>
				<polygon class="st1" points="541.8,206.4 465,261.5 328.3,200.2 408.3,152.8 				"/>
			</g>
			<g>
				<polygon class="st1" points="415,255.8 415,361.4 543.3,417.3 542.2,207.2 472.9,286.9 				"/>
				<polygon class="st1" points="678,255.8 678,361.4 549.6,417.3 550.7,207.2 620,286.9 				"/>
			</g>
		</g>
	</g>
	<g>
		<path class="st0" d="M84.7,588.4c0,23.5-16.7,39.1-42.3,39.1C16.8,627.4,0,611.9,0,588.4c0-23.7,16.8-39.1,42.4-39.1
			C68,549.3,84.7,564.7,84.7,588.4z M28.6,588.7c0,10.2,5.5,16.9,13.9,16.9c8.3,0,13.7-6.7,13.7-16.9c0-10.1-5.5-16.9-13.7-16.9
			C34,571.7,28.6,578.6,28.6,588.7z"/>
		<path class="st0" d="M181,588.8c0,23.4-13.6,38.6-34.6,38.6c-9,0-16.4-3.5-21.6-9.8v36H96.6V550.3h28.3v8.8
			c5-6.3,12.3-9.8,20.9-9.8C167,549.3,181,565,181,588.8z M152.5,588.1c0-10.1-5.5-16.9-13.9-16.9c-8.1,0-13.7,6.9-13.7,16.9
			s5.6,16.9,13.7,16.9C147,605,152.5,598.2,152.5,588.1z"/>
		<path class="st0" d="M266.1,595.2h-51.2c2.2,7.3,7.6,11.3,14.8,11.3c6,0,11.8-2.7,16.8-7.3l14.7,14.4c-8,8.8-19.5,13.7-33.9,13.7
			c-25.5,0-41-15.4-41-38.8c0-23.8,16.1-39.3,40.2-39.3C253.3,549.3,267.8,567.2,266.1,595.2z M226.8,568.5
			c-6.7,0-11.1,5.2-12.5,12.9h23.9C238.4,573.8,233.7,568.5,226.8,568.5z"/>
		<path class="st0" d="M357.4,578.2v48.3h-28.3v-40.2c0-7.6-4.3-12.3-10.9-12.3c-7.7,0.1-12.5,6.2-12.5,14.8v37.7h-28.3v-76.2h28.3
			v11.8c5.3-8.4,13.6-12.9,24.2-12.9C346.2,549.2,357.4,560.5,357.4,578.2z"/>
		<path class="st0" d="M424.5,622.8c-5.3,3.1-13.4,4.9-21.1,4.9c-16.2,0.1-27.2-9.2-27.2-25.1v-30.4h-10.5v-18.1h10.5v-21.1h28.1
			v21.1h18.8v18.1h-18.8v26c0,4.9,2.5,7.3,6.4,7.3c2.2,0,5.3-1,8.7-2.2L424.5,622.8z"/>
		<path class="st0" d="M515.9,578.2v48.3h-28.3v-40.2c0-7.6-4.2-12.3-10.9-12.3c-7.7,0.1-12.5,6.2-12.5,14.8v37.7H436V522.6h28.3
			v39.5c5.3-8.4,13.6-12.9,24.2-12.9C504.8,549.2,515.9,560.5,515.9,578.2z"/>
		<path class="st0" d="M604.8,595.2h-51.2c2.2,7.3,7.6,11.3,14.8,11.3c6,0,11.8-2.7,16.8-7.3l14.7,14.4c-8,8.8-19.5,13.7-33.9,13.7
			c-25.5,0-41-15.4-41-38.8c0-23.8,16.1-39.3,40.2-39.3C591.9,549.3,606.5,567.2,604.8,595.2z M565.5,568.5
			c-6.7,0-11.1,5.2-12.5,12.9h23.9C577.1,573.8,572.3,568.5,565.5,568.5z"/>
		<path class="st0" d="M701.3,588.8c0,23.4-13.6,38.6-34.6,38.6c-9,0-16.4-3.5-21.6-9.8v8.8h-28.3V522.6h28.3v36.5
			c5-6.3,12.3-9.8,20.9-9.8C687.3,549.3,701.3,565,701.3,588.8z M672.7,588.1c0-10.1-5.5-16.9-13.9-16.9c-8.1,0-13.7,6.9-13.7,16.9
			s5.6,16.9,13.7,16.9C667.2,605,672.7,598.2,672.7,588.1z"/>
		<path class="st0" d="M791.3,588.4c0,23.5-16.7,39.1-42.3,39.1c-25.6,0-42.4-15.5-42.4-39.1c0-23.7,16.8-39.1,42.4-39.1
			C774.6,549.3,791.3,564.7,791.3,588.4z M735.1,588.7c0,10.2,5.5,16.9,13.9,16.9c8.3,0,13.7-6.7,13.7-16.9
			c0-10.1-5.5-16.9-13.7-16.9C740.6,571.7,735.1,578.6,735.1,588.7z"/>
		<path class="st0" d="M823.6,550.3l10.5,19.7l11.8-19.7h30.8l-23.8,37.1l25.5,39.1h-32.5l-11.8-21.6l-13.4,21.6h-31.1l25.5-38.9
			l-23.9-37.2H823.6z"/>
		<path class="st0" d="M909.4,614.3c0,7.8-5.5,13.3-13.3,13.3c-7.7,0-13.2-5.5-13.2-13.3c0-7.7,5.5-13,13.2-13
			C904,601.3,909.4,606.6,909.4,614.3z"/>
		<path class="st0" d="M1007.7,588.8c0,23.4-13.6,38.6-34.6,38.6c-9,0-16.4-3.5-21.6-9.8v8.8h-28.3V522.6h28.3v36.5
			c5-6.3,12.3-9.8,20.9-9.8C993.7,549.3,1007.7,565,1007.7,588.8z M979.1,588.1c0-10.1-5.5-16.9-13.9-16.9
			c-8.1,0-13.7,6.9-13.7,16.9s5.6,16.9,13.7,16.9C973.7,605,979.1,598.2,979.1,588.1z"/>
		<path class="st0" d="M1092.8,595.2h-51.2c2.2,7.3,7.6,11.3,14.8,11.3c6,0,11.8-2.7,16.8-7.3l14.7,14.4c-8,8.8-19.5,13.7-33.9,13.7
			c-25.5,0-41-15.4-41-38.8c0-23.8,16.1-39.3,40.2-39.3C1079.9,549.3,1094.5,567.2,1092.8,595.2z M1053.5,568.5
			c-6.7,0-11.1,5.2-12.5,12.9h23.9C1065.1,573.8,1060.3,568.5,1053.5,568.5z"/>
	</g>
</g>
</svg>
