<?xml version="1.0" encoding="utf-8"?>
<!-- Generator: Adobe Illustrator 22.1.0, SVG Export Plug-In . SVG Version: 6.00 Build 0)  -->
<svg version="1.1" id="Layer_1" xmlns="http://www.w3.org/2000/svg" xmlns:xlink="http://www.w3.org/1999/xlink" x="0px" y="0px"
	 viewBox="0 0 170.1 119.1" style="enable-background:new 0 0 170.1 119.1;" xml:space="preserve">
<style type="text/css">
	.st0{fill:#484478;}
	.st1{fill:#DEDD26;}
</style>
<g>
	<path class="st0" d="M123.6,102c-3,0-5.1,2.4-5.1,5.3s2.1,5.4,5.1,5.4c3,0,5.1-2.4,5.1-5.3C128.7,104.4,126.5,102,123.6,102z"/>
	<path class="st0" d="M61.3,102c-3,0-5.1,2.4-5.1,5.3s2.1,5.4,5.1,5.4s5.1-2.4,5.1-5.3C66.4,104.4,64.2,102,61.3,102z"/>
	<path class="st0" d="M42.9,102c-3,0-5.1,2.4-5.1,5.3s2.1,5.4,5.1,5.4c3,0,5.1-2.4,5.1-5.3C48.1,104.4,45.9,102,42.9,102z"/>
	<path class="st0" d="M148,78.2l-5-3.4l-17.3-42.5l0,0c0-0.1-0.3-0.4-0.4-0.5c-0.2-0.3-0.3-0.6-0.3-0.8c0-0.2-0.2-1-0.2-1.8
		s0-1.2,0.1-1.9s0.1-1.3,0.3-1.8c0.1-0.5,0.1-1.4,0.2-2.4c0.1-1,1-3.9,1.2-4.3c0.2-0.4,0.4-0.8,0.6-1.6c0.2-0.7,0.1-2-0.1-2.6
		c0.2-0.8,0.6-1.8,1-2.7c1-1.9,2.2-5.3,2.8-7.3c0-0.1,0-0.2,0.1-0.3c-0.6-0.1-1.1-0.5-1.1-1.2c0.2,1.3,2.4,1,2.9,1
		c0.7,0,0.8,0.3,1,0.3c0.2,0,0.5,0,0.5-0.1c0-0.1,0.1-0.2,0.1-0.2s0,0,0.2-0.1c0.2-0.1,0.1-0.2,0.1-0.4c0-0.2-0.5-0.6-0.9-0.9
		c-0.4-0.3-1.2-1.1-1.3-1.2c-0.1-0.1-0.2-0.3-0.4-0.4c-0.2-0.1-0.4-0.1-0.6,0c-0.2-0.3-0.4-0.6-0.5-0.9c-0.2-0.2-0.3-0.3-0.5-0.2
		c-0.3-0.4-0.8-0.1-0.5,0.2c0.2,0.2,0.6,0.6,0.7,0.9c0,0-0.1,0-0.1,0c-0.2-0.1-0.3-0.2-0.5-0.2c-0.7-0.2-0.7-0.2-0.6,0.3
		c0,0.3,0.2,0.5,0.3,0.7c-0.2,0.2-0.3,0.4-0.5,0.7c-0.3,0.8-2,3.9-2.7,5.1c-0.7,1.1-2,2.6-3.3,3.3c-1.2,0.8-1.6,1.3-2.3,2.2
		c-0.5,0.6-0.9,1-1.2,1.3c0,0-0.1,0.1-0.1,0.1c-2.2,1.5-2.1,1.4-2.5,1.7c-0.3,0.2-0.7,0.6-0.9,1.3c-1.1,1.3-0.8,2.6-0.7,3.1
		c0.1,0.8,0.3,1.5,0.4,2c0.1,0.5,0.5,1.7,0,2.7c-0.4,1-0.8,1.6-0.7,2.1s0.5,1.8,0.2,4c-0.3,2.2-0.3,2.4-0.1,2.8
		c0.2,0.4,0.2,0.6,0.1,1c-0.1,0.4,0,0.6,0,0.6l-2.3,0.9L55.1,79.9L15,87.7L0,119.1h170.1L148,78.2z M26.6,109.2h-3.1v4.6H22v-13h4.8
		c2.9,0,4.8,1.6,4.8,4.1C31.7,107.8,29.3,109.2,26.6,109.2z M42.9,114c-3.9,0-6.6-3.1-6.6-6.7c0-3.6,2.7-6.7,6.6-6.7
		c3.9,0,6.6,3.1,6.6,6.7C49.6,110.9,46.9,114,42.9,114z M61.3,114c-3.9,0-6.6-3.1-6.6-6.7c0-3.6,2.7-6.7,6.6-6.7s6.6,3.1,6.6,6.7
		C67.9,110.9,65.2,114,61.3,114z M82.7,113.8h-8.8v-13h1.5v11.6h7.3V113.8z M92.8,114c-2.1,0-3.7-0.7-5.3-2.1l0.9-1.1
		c1.4,1.2,2.6,1.8,4.4,1.8c1.7,0,2.9-0.9,2.9-2.2c0-1.2-0.6-1.9-3.4-2.5c-3-0.6-4.3-1.6-4.3-3.8c0-2.1,1.8-3.6,4.3-3.6
		c1.9,0,3.2,0.5,4.6,1.6l-0.9,1.1c-1.2-1-2.4-1.4-3.7-1.4c-1.7,0-2.8,0.9-2.8,2.1c0,1.2,0.7,1.9,3.5,2.5c2.9,0.6,4.2,1.7,4.2,3.7
		C97.2,112.5,95.4,114,92.8,114z M112.4,102.2h-4.3v11.6h-1.5v-11.6h-4.3v-1.4h10.2V102.2z M116.4,35c-0.1-0.1-0.1-0.5,0-1
		c0.1-0.5-0.1-1.3,0-2s0.1-2.2,0.3-2.6c0.2-0.4,0.4-1.1,0.6-1.8s0.7-2,0.9-2.4c0.3-0.4,0.9-1.2,1.2-1.9c0.3-0.7,0.6-2.4,0.2-4
		c-0.3-1.3-1.2-2.4-2.2-2.1c1-0.3,1.9,0.7,2.4,1.9c0.3,0.8,0.4,1.5,0.4,2.2c0,0,0,0.1,0,0.1c0.6,0.1,1.1,0.2,1.5,0.1
		c0.9-0.1,1.7-0.6,2.3-0.9c0-0.1,0-0.3,0-0.4c0-1-0.2-2.3-0.1-3.1c0-0.2,0.1-0.4,0.1-0.7c-0.1,0.4-0.1,0.7-0.1,0.9
		c0,0.8,0.3,2.1,0.3,3.1c0.1,1-0.1,3.1-0.2,3.8c-0.1,0.7,0,1.7,0.1,2.7c0.2,0.9-0.1,3-0.2,3.6c-0.1,0.6,0.3,0.8,0.5,1.1
		s0.1,0.7,0,0.9c-0.1,0.1,0,0.3,0,0.4l-0.8,0.3c-0.2-0.1-0.4-0.3-0.6-0.4c-0.2-0.1-0.2-0.3-0.3-0.5c-0.1-0.2-0.2-0.3-0.3-0.5
		c-0.3-0.4-0.5-0.8-0.7-1.3c-0.2-0.5-0.4-1.1-0.6-1.6c-0.3-0.7-0.5-1.8-0.6-3c-0.1-1.2,0-2.5,0.1-3.5c0-0.2,0.1-0.4,0.1-0.6
		c-0.2,0-0.4-0.1-0.7-0.1c-0.1,0.7-0.2,1.3-0.4,1.6c-0.2,0.5-0.6,1-0.9,1.4c0,0.3,0,0.5,0,0.8c0,0.4-0.1,0.8,0,1.2
		c0.2,0.5,0.6,0.8,0.9,1.2c0.3,0.4,0.5,0.8,0.7,1.2c0.5,1.1,1.1,2.4,1.3,2.8c0.1,0.4,0.4,0.6,0.7,0.8c0.3,0.1,0.3,0.5,0.2,0.7
		c0,0,0,0.1,0,0.1l-5.5,2.1C116.9,35.4,116.5,35.1,116.4,35z M123.6,114c-3.9,0-6.6-3.1-6.6-6.7c0-3.6,2.7-6.7,6.6-6.7
		c3.9,0,6.6,3.1,6.6,6.7C130.2,110.9,127.5,114,123.6,114z M144.7,113.8l-5-6.3l-2.8,2.8v3.5h-1.5v-13h1.5v7.7l7.4-7.7h1.9l-5.6,5.7
		l5.8,7.3H144.7z"/>
	<path class="st0" d="M26.7,102.2h-3.3v5.7h3.2c2.1,0,3.6-1.1,3.6-2.9C30.2,103.2,28.8,102.2,26.7,102.2z"/>
</g>
<polygon class="st1" points="94.9,82.5 90.4,93.7 126.8,71.4 143,74.8 143,74.8 143,74.8 125.7,32.4 91.9,75.7 "/>
</svg>
