<?xml version="1.0" encoding="utf-8"?>
<!-- Generator: Adobe Illustrator 22.1.0, SVG Export Plug-In . SVG Version: 6.00 Build 0)  -->
<svg version="1.1" id="Layer_1" xmlns="http://www.w3.org/2000/svg" xmlns:xlink="http://www.w3.org/1999/xlink" x="0px" y="0px"
	 viewBox="0 0 779.7 195.4" style="enable-background:new 0 0 779.7 195.4;" xml:space="preserve">
<style type="text/css">
	.st0{enable-background:new    ;}
	.st1{fill:#225861;}
	.st2{fill:#ACAEB4;}
	.st3{fill:#F79D31;}
	.st4{fill:#F9D739;}
	.st5{fill:#EF5D51;}
</style>
<title>prisma-logo</title>
<g class="st0">
	<path class="st1" d="M346.9,79.2c0,13.6-8.3,28.4-34.1,28.4h-23.3V135c0,3.2-2.7,5.8-5.9,5.8c-3.2,0-5.8-2.6-5.8-5.8V56.7
		c0-3.2,2.6-5.9,5.8-5.9h29.1C338.6,50.9,346.9,65.7,346.9,79.2z M335.3,79.2c0-8.3-4.6-17.4-23.7-17.4h-22.1v34.8h22.1
		C330.7,96.6,335.3,87.5,335.3,79.2z"/>
	<path class="st1" d="M433,135c0,3.2-2.6,5.8-5.8,5.8c-3.6,0-5.9-2.3-5.9-5.8v-3.8c0-8.4-0.5-25.8-19.8-25.8h-26.5V135
		c0,3.2-2.7,5.8-5.9,5.8c-3.2,0-5.8-2.6-5.8-5.8V56.7c0-3.2,2.6-5.9,5.8-5.9H399c24.3,0,34.8,11.2,34.8,26c0,9.8-5.5,19.3-16.7,23.1
		c14.2,3.7,16,22,16,29.1V135z M422.1,77.7c0-9.5-5.6-15.9-24.5-15.9h-22.5v32.5h23.1C412.5,94.3,422.1,88.6,422.1,77.7z"/>
	<path class="st1" d="M466.1,56.1V135c0,3.2-2.7,5.8-5.9,5.8c-3.2,0-5.8-2.6-5.8-5.8V56.1c0-3.2,2.6-5.9,5.8-5.9
		C463.4,50.2,466.1,52.9,466.1,56.1z"/>
	<path class="st1" d="M551.7,116.4c0,14.4-12.9,24.9-32.7,24.9c-12.8,0-23-2.9-30.4-6.1c-1.9-0.8-3.6-2.9-3.6-5.2
		c0-2.8,2-5.4,5.2-5.4c0.8,0,1.5,0.1,2.4,0.5c5.8,2.6,14.2,5.2,25.2,5.2c12.7,0,22.4-3.6,22.4-14.7c0-18.9-54.3-8.4-54.3-39.9
		c0-14.2,11.5-26.2,33.1-26.2c10,0,18.5,1.7,25.4,4.2c1.8,0.6,3.6,2,3.6,5.1c0,2.6-1.9,5.4-5.1,5.4c-0.6,0-1.4-0.3-2-0.5
		c-5.9-2-12.8-3.5-20.6-3.5c-12.9,0-22.8,5-22.8,14.6C497.5,97,551.7,82.7,551.7,116.4z"/>
	<path class="st1" d="M668.3,58.7V135c0,3.2-2.6,5.8-5.8,5.8s-5.9-2.6-5.9-5.8V62.4l-29.5,73c-1.4,3.2-4.5,5.4-8.2,5.4
		s-6.8-2.2-8.2-5.4l-29.5-73V135c0,3.2-2.7,5.8-5.9,5.8c-3.2,0-5.8-2.6-5.8-5.8V58.7c0-4.6,3.7-8.4,8.3-8.4h4.2
		c3.5,0,6.5,2.3,7.8,5.4l29,72.4l29-72.4c1.3-3.1,4.3-5.4,7.8-5.4h4.2C664.6,50.2,668.3,54.1,668.3,58.7z"/>
	<path class="st1" d="M766.6,135c0,3.2-2.2,5.8-5.8,5.8c-2.4,0-4.5-1.3-5.5-3.6l-8.3-19.9h-43.5l-8.3,19.9c-1,2.3-3.1,3.6-5.5,3.6
		c-3.6,0-5.8-2.6-5.8-5.8c0-0.8,0.3-1.7,0.6-2.6l32.6-77c1.2-2.7,3.6-5.2,7.4-5.2h1.3c3.8,0,6.3,2.6,7.4,5.2l32.6,77
		C766.4,133.3,766.6,134.2,766.6,135z M742.6,106.6L725.3,65l-17.3,41.5H742.6z"/>
</g>
<path class="st2" d="M96.5,94H19.8c-3,0-5.5-2.5-5.5-5.5s2.5-5.5,5.5-5.5h76.8c3,0,5.5,2.5,5.5,5.5S99.6,94,96.5,94z M96.5,112.4
	H19.8c-3,0-5.5-2.5-5.5-5.5s2.5-5.5,5.5-5.5h76.8c3,0,5.5,2.5,5.5,5.5S99.6,112.4,96.5,112.4z"/>
<path class="st3" d="M219.2,104.4h-76.8c-3,0-5.5-2.5-5.5-5.5s2.5-5.5,5.5-5.5h76.8c3,0,5.5,2.5,5.5,5.5S222.3,104.4,219.2,104.4z"
	/>
<path class="st4" d="M142.5,88.9c-3,0-5.5-2.5-5.5-5.5c0-2.4,1.6-4.6,4-5.3l76.8-22.5c2.9-0.9,6,0.8,6.8,3.7c0.9,2.9-0.8,6-3.7,6.8
	l0,0L144,88.7C143.5,88.8,143,88.9,142.5,88.9z"/>
<path class="st5" d="M219.2,140.1c-0.4,0-0.9-0.1-1.3-0.1l-76.8-18.5c-3-0.7-4.8-3.7-4.1-6.6s3.7-4.8,6.6-4.1l76.8,18.5
	c2.9,0.7,4.8,3.7,4,6.7C224,138.4,221.8,140.1,219.2,140.1L219.2,140.1z"/>
<path class="st1" d="M89.7,77.7c-1,0-1.9-0.3-2.7-0.7c-2.6-1.5-3.5-4.9-2-7.5l21.7-37.2c4.7-8.1,15.1-10.9,23.2-6.2
	c2.6,1.5,4.7,3.6,6.2,6.2l16.4,29.2c1.3,2.8,0,6-2.7,7.3c-2.4,1.1-5.3,0.3-6.8-1.9l-16.4-29.2c-1.7-2.8-5.4-3.8-8.2-2.1
	c-0.9,0.5-1.6,1.3-2.1,2.1L94.5,75C93.5,76.7,91.7,77.7,89.7,77.7z M187.1,171.6H55.7c-9.4,0-17-7.6-17-17c0-3,0.8-5.9,2.3-8.5
	l14-24.6c1.5-2.6,4.9-3.6,7.5-2.1c2.6,1.5,3.6,4.9,2.1,7.5l-14,24.7c-1.7,2.9-0.7,6.5,2.2,8.2c0.9,0.5,1.9,0.8,3,0.8h131.4
	c3.3,0,6-2.7,6-6c0-1-0.3-2-0.8-2.9l-2.3-3.6c-1.6-2.6-0.9-6,1.7-7.6c2.6-1.6,6-0.9,7.6,1.7c0,0,0,0,0,0.1l2.4,3.9
	c4.7,8.1,1.9,18.5-6.2,23.2C193,170.8,190.1,171.6,187.1,171.6L187.1,171.6z"/>
</svg>
