<?xml version="1.0" encoding="utf-8"?>
<!-- Generator: Adobe Illustrator 22.1.0, SVG Export Plug-In . SVG Version: 6.00 Build 0)  -->
<svg version="1.1" id="Calque_1" xmlns="http://www.w3.org/2000/svg" xmlns:xlink="http://www.w3.org/1999/xlink" x="0px" y="0px"
	 viewBox="0 0 643.5 203.7" style="enable-background:new 0 0 643.5 203.7;" xml:space="preserve">
<style type="text/css">
	.st0{fill:url(#SVGID_1_);}
	.st1{fill:url(#SVGID_2_);}
	.st2{fill:#585856;}
</style>
<g>
	
		<linearGradient id="SVGID_1_" gradientUnits="userSpaceOnUse" x1="97.7" y1="109.3841" x2="264.6081" y2="109.3841" gradientTransform="matrix(1 0 0 -1 0 206)">
		<stop  offset="0" style="stop-color:#1F5F37"/>
		<stop  offset="1" style="stop-color:#B7CB3C"/>
	</linearGradient>
	<path class="st0" d="M264.6,54.3c0-1.3-11-11.6-31-10.6C179.1,48,166.1,144.8,97.7,149.6c5.5-0.3,11.3-1,17.7-2.3
		c49.3-10.4,69.3-81.6,106.2-93.9c21.9-6.9,32.1,2.6,32.1,2.6s-10.3,16.5-30.1,20.7c-16.8,3.2-22.6,1.5-22.6,1.5l0.1,0.8
		c0,0,10.3,3.8,29.2-0.2C250.6,74.3,265,56.1,264.6,54.3z"/>
	
		<linearGradient id="SVGID_2_" gradientUnits="userSpaceOnUse" x1="43.6" y1="109.5828" x2="223.1" y2="109.5828" gradientTransform="matrix(1 0 0 -1 0 206)">
		<stop  offset="0" style="stop-color:#1F5F37"/>
		<stop  offset="1" style="stop-color:#B7CB3C"/>
	</linearGradient>
	<path class="st1" d="M214,45.4c-45.5,9.7-55.4,71.4-102.2,88.3c-31.7,9.8-52.2-1.9-52.2-1.9s13.9-48.9,75.5-53.2
		c13.2-0.9,27.3-0.9,27.3-0.9V77c0,0-19.5-21.2-58.8-25.4C64,47.4,46.8,70.9,46.8,70.9s9.9,17.9,32.1,20.4l-2.5,1.6
		c-26.9,19.2-32.8,46.9-32.8,46.9s17.6,10,46.3,8.6c71.7-6,81-100.5,133.2-104.1C220.2,44.3,217.2,44.7,214,45.4z M58.3,70.9
		c0,0,16.2-17.8,49-14.4c29.5,3.1,49.4,18.7,49.4,18.7s-13.5-1.1-27.3-0.1c-18.4,1.3-32.2,5.7-43.7,12C66,84.4,58.3,70.9,58.3,70.9z
		"/>
</g>
<path class="st2" d="M345,146.9c-0.1,2.7-1.1,4.9-3,6.6c-1.9,1.7-4.3,2.5-7.3,2.5s-5.4-0.9-7.3-2.7s-2.9-4.1-2.9-7v-6.6h24.9v-10.1
	c0-3.6-1.4-6.8-4.1-9.3s-6.3-3.8-10.6-3.8c-4.4,0-7.9,1.3-10.7,3.8c-2.7,2.5-4.1,5.6-4.1,9.3V147c0,3.7,1.4,6.8,4.1,9.3
	s6.3,3.8,10.7,3.8c4.2,0,7.7-1.2,10.3-3.7c2.7-2.5,4.1-5.6,4.4-9.4v-0.3H345V146.9z M324.5,130.3c0-2.8,1-5.2,2.9-7s4.4-2.7,7.3-2.7
	s5.4,0.9,7.3,2.7c2,1.8,2.9,4.1,2.9,7v5.4h-20.4L324.5,130.3L324.5,130.3z M291,109.8h6v-6.3h-6V109.8z M535.1,116.5
	c-2.1,0-4.2,0.5-6.2,1.5s-3.3,1.8-3.9,2.4c-0.4,0.4-0.7,0.7-1,1l-0.2-4h-6.5v41.9h7.1v-28c0-2,1-3.9,3-5.6s4.3-2.6,6.9-2.6
	c2.8,0,5.1,0.9,6.6,2.5c1.5,1.7,2.3,3.8,2.3,6.4v27.3h7.1v-27.1c0-4.5-1.4-8.3-4.1-11.2C543.7,118,539.9,116.5,535.1,116.5z
	 M211.5,137.1c-2.1-0.9-4.2-1.8-6.4-2.6c-2.1-0.8-3.9-1.8-5.3-3c-1.4-1.2-2.1-2.7-2.1-4.5s0.8-3.3,2.4-4.6c1.6-1.3,3.5-1.9,5.5-1.9
	c2.3,0,4.3,0.7,6,2.1c1.6,1.4,2.5,3.1,2.6,5.1v0.3h4.8v-0.3c-0.2-2.8-1.5-5.3-3.8-7.7c-2.3-2.4-5.4-3.6-9.1-3.6c-3.6,0-6.6,1-9.1,3
	s-3.7,4.7-3.7,8c0,2.5,0.8,4.7,2.3,6.4s3.3,3,5.4,4c2.1,0.9,4.2,1.8,6.3,2.6s3.8,1.8,5.3,3.1c1.4,1.3,2.1,2.9,2.1,4.8
	c0,2.2-0.8,4-2.5,5.4s-3.8,2.2-6.4,2.2c-2.7,0-4.9-0.8-6.7-2.5s-2.7-3.7-2.7-6.1V147h-4.6v0.3c0,3.4,1.3,6.4,3.8,8.9s6,3.8,10.2,3.8
	c3.8,0,7-1.1,9.6-3.4c2.6-2.2,3.9-5,3.9-8.3c0-2.8-0.8-5.2-2.2-7.1C215.5,139.4,213.7,138,211.5,137.1z M265.3,146.9
	c-0.1,2.7-1.1,4.9-3.1,6.6c-1.9,1.7-4.3,2.5-7.1,2.5c-2.9,0-5.4-0.9-7.3-2.7c-1.9-1.8-2.9-4.1-2.9-6.8v-16.4c0-2.7,1-5,2.9-6.8
	c2-1.8,4.4-2.7,7.3-2.7c2.7,0,5,0.8,6.8,2.5s2.8,3.8,2.9,6.4v0.2h4.6v-0.3c-0.2-3.6-1.7-6.7-4.3-9.2c-2.6-2.5-6-3.7-10-3.7
	c-4.4,0-8,1.3-10.7,3.9s-4.1,5.9-4.1,9.8v16.1c0,4,1.4,7.3,4.1,9.9c2.7,2.6,6.3,3.9,10.7,3.9c4.1,0,7.6-1.3,10.2-3.8
	c2.7-2.5,4.1-5.7,4.3-9.4v-0.3h-4.4L265.3,146.9z M595.2,121c-3.1-3-7.1-4.5-12-4.5s-9,1.5-12.1,4.5s-4.7,6.7-4.7,11v12.5
	c0,4.4,1.6,8.1,4.6,11.1c3.1,3,7.1,4.5,12.1,4.5c4.9,0,8.9-1.5,12-4.5s4.7-6.7,4.7-11V132C599.9,127.7,598.3,124.1,595.2,121z
	 M592.6,145c0,2.4-0.9,4.5-2.5,6.2c-1.7,1.7-4,2.5-6.8,2.5s-5.2-0.9-6.9-2.6c-1.7-1.7-2.6-3.8-2.6-6.2v-13.3c0-2.4,0.9-4.5,2.6-6.1
	c1.7-1.7,4.1-2.5,6.9-2.5c2.8,0,5.1,0.9,6.8,2.5c1.7,1.7,2.5,3.7,2.5,6.2V145L592.6,145z M385.6,116.5c-2.3,0-4.5,0.5-6.4,1.6
	c-2,1-3.2,1.9-3.8,2.5c-0.3,0.3-0.6,0.7-0.8,0.9l-0.1-4.2h-4.4v41.9h4.6V130c0-2.6,1.1-4.8,3.1-6.7c2.1-1.9,4.7-2.8,7.6-2.8
	s5.3,0.9,7,2.7c1.8,1.8,2.7,4.4,2.7,7.6v28.4h4.6V130c0-3.8-1.3-7-3.8-9.6C393.3,117.8,389.8,116.5,385.6,116.5z M484.5,116.5
	c-3.9,0-7.3,1.2-10.2,3.5c-2.9,2.4-4.6,5.3-5,8.8v0.3h7.1v-0.2c0.3-1.7,1.2-3.2,2.6-4.2c1.5-1.1,3.4-1.6,5.6-1.6
	c2.4,0,4.3,0.8,5.7,2.2c1.4,1.5,2.1,3.3,2.1,5.4v1.9l-11.1,0.7c-3.9,0.3-7.2,1.7-9.8,4.3c-2.7,2.6-4.1,5.7-4.1,9.3
	c0,3.8,1.5,6.9,4.4,9.4s6.3,3.7,10.3,3.7c2.1,0,4.2-0.4,6.1-1.3c1.9-0.9,3.1-1.6,3.7-2.1c0.3-0.3,0.6-0.6,0.8-0.8v3.4h7v-29.1
	c0-3.9-1.3-7.2-3.9-9.8C493,117.8,489.2,116.5,484.5,116.5z M492.3,146c0,1.8-0.9,3.5-2.8,5.1s-4.3,2.5-7.2,2.5
	c-2.2,0-4.1-0.7-5.6-2s-2.3-2.9-2.3-4.8c0-1.9,0.7-3.5,2.1-4.8s3.1-2,5.2-2.2l10.6-0.7L492.3,146L492.3,146z M441.6,136.5
	c-2.1-0.9-4.2-1.7-6.3-2.4c-2-0.7-3.8-1.5-5.2-2.5c-1.4-0.9-2.1-2-2.1-3.3c0-1.5,0.6-2.8,1.9-3.8c1.2-1,2.9-1.6,4.9-1.6
	c2.1,0,3.8,0.7,5,1.9c1.2,1.3,1.8,2.8,1.8,4.5v0.3h7.3v-0.9c0-2.9-1.2-5.7-3.6-8.3c-2.4-2.6-5.9-4-10.5-4c-4.2,0-7.6,1.2-10.3,3.4
	c-2.6,2.3-4,5.3-4,8.9c0,2.4,0.8,4.5,2.3,6.2c1.5,1.6,3.3,2.9,5.5,3.8c2.1,0.9,4.3,1.6,6.3,2.4c2.1,0.7,3.8,1.6,5.3,2.7
	c1.4,1,2.1,2.3,2.1,3.9c0,1.7-0.7,3.1-2.1,4.2c-1.4,1.1-3.3,1.7-5.6,1.7c-2.7,0-4.7-0.7-6.1-2.2s-2-3.1-2-4.8v-1H419v0.8
	c0,1.4,0.3,2.9,0.8,4.4s1.4,2.9,2.4,4.4c1.1,1.4,2.7,2.6,4.8,3.5c2.1,0.9,4.5,1.3,7.2,1.3c4.1,0,7.7-1.2,10.6-3.5
	c2.9-2.4,4.4-5.3,4.4-8.6c0-2.8-0.8-5.2-2.2-7.1C445.5,138.9,443.7,137.4,441.6,136.5z M291.7,160.1h4.6v-42.8h-4.6V160.1z"/>
</svg>
