<?xml version="1.0" encoding="utf-8"?>
<!-- Generator: Adobe Illustrator 22.1.0, SVG Export Plug-In . SVG Version: 6.00 Build 0)  -->
<svg version="1.1" id="Layer_1" xmlns="http://www.w3.org/2000/svg" xmlns:xlink="http://www.w3.org/1999/xlink" x="0px" y="0px"
	 viewBox="0 0 100 46" style="enable-background:new 0 0 100 46;" xml:space="preserve">
<style type="text/css">
	.st0{fill:#1E1601;}
	.st1{fill:#FFFFFF;}
</style>
<g>
	<path class="st0" d="M61.4,23c-3.9,0-7-3.1-7-7V7.4c0-3.9-3.1-7-7-7H7.6c-3.9,0-7,3.1-7,7V16c0,3.9,3.1,7,7,7h39.8c3.9,0,7,3.1,7,7
		v8.6c0,3.9,3.1,7,7,7h31.1c3.9,0,7-3.1,7-7V30c0-3.9-3.1-7-7-7H61.4"/>
	<path class="st1" d="M69,30.3c0-0.8,0.4-1.2,1.2-1.2c0.8,0,1.2,0.4,1.2,1.2v8c0,0.8-0.4,1.2-1.2,1.2c-0.4,0-0.8-0.2-1.1-0.5
		l-4.6-5.7v5c0,0.8-0.4,1.2-1.2,1.2c-0.8,0-1.2-0.4-1.2-1.2v-8c0-0.8,0.4-1.2,1.2-1.2c0.4,0,0.8,0.2,1.1,0.6l4.6,5.6L69,30.3"/>
	<path class="st1" d="M81.1,29.2c0.7,0,1.1,0.4,1.1,1.1c0,0.7-0.4,1.1-1.1,1.1h-4.5v1.7h2.8c0.7,0,1.1,0.4,1.1,1.1s-0.4,1.1-1.1,1.1
		h-2.8v1.8h4.5c0.7,0,1.1,0.4,1.1,1.1c0,0.7-0.4,1.1-1.1,1.1h-5.7c-0.8,0-1.2-0.4-1.2-1.2v-7.8c0-0.8,0.4-1.2,1.2-1.2L81.1,29.2"/>
	<path class="st1" d="M86.8,38.3v-6.9h-1.9c-0.8,0-1.1-0.4-1.1-1.1c0-0.7,0.4-1.1,1.1-1.1H91c0.7,0,1.4,0.4,1.4,1.1
		c0,0.7-0.7,1.1-1.4,1.1h-1.9v6.9c0,0.8-0.4,1.2-1.2,1.2C87.2,39.5,86.8,39.1,86.8,38.3"/>
	<path class="st1" d="M12.6,13.8c0-0.5-0.7-0.7-1.5-1l-1.7-0.5C8.2,11.9,7.1,11,7.1,9.5c0-1.8,1.6-3.1,3.8-3.1
		c1.7,0,3.7,0.6,3.7,1.7c0,0.7-0.3,1.1-1,1.1c-0.3,0-0.6-0.1-0.9-0.2c-0.5-0.2-1-0.4-1.8-0.4c-0.6,0-1.5,0.3-1.5,0.8
		c0,0.5,0.4,0.7,1.2,0.9l1.9,0.6c1.3,0.4,2.4,1.2,2.4,2.9c0,1.9-1.8,3.1-4,3.1c-1.9,0-4.1-0.6-4.1-1.7c0-0.7,0.4-1.1,1.1-1.1
		c0.4,0,0.7,0.1,1,0.2c0.5,0.2,1.1,0.4,2,0.4C11.7,14.7,12.6,14.4,12.6,13.8"/>
	<path class="st1" d="M24.1,7.7c0-0.8,0.4-1.2,1.2-1.2c0.8,0,1.2,0.4,1.2,1.2v4.4c0,2.9-1.9,4.8-4.6,4.8c-2.6,0-4.6-1.9-4.6-4.8V7.7
		c0-0.8,0.4-1.2,1.2-1.2c0.8,0,1.2,0.4,1.2,1.2v4.4c0,1.6,1,2.5,2.3,2.5c1.3,0,2.3-0.9,2.3-2.5V7.7"/>
	<path class="st1" d="M33.6,13.7h-2.1v2.1c0,0.8-0.4,1.2-1.2,1.2c-0.8,0-1.2-0.4-1.2-1.2V7.8c0-0.8,0.4-1.2,1.2-1.2h3.3
		c2.2,0,3.8,1.5,3.8,3.6c0,1.3-0.6,2.3-1.6,2.8l1.1,2.1c0.1,0.2,0.1,0.4,0.1,0.6c0,0.7-0.8,1.1-1.3,1.1c-0.4,0-0.7-0.3-1-0.7
		L33.6,13.7 M31.5,8.8v2.7h2c0.9,0,1.6-0.4,1.6-1.3c0-1-0.7-1.4-1.6-1.4H31.5z"/>
	<path class="st1" d="M42.3,13.2v2.5c0,0.8-0.4,1.2-1.2,1.2c-0.8,0-1.2-0.4-1.2-1.2V7.8c0-0.8,0.4-1.2,1.2-1.2h5.6
		c0.7,0,1.1,0.4,1.1,1.1c0,0.7-0.4,1.1-1.1,1.1h-4.4V11H45c0.7,0,1.1,0.4,1.1,1.1c0,0.7-0.4,1.1-1.1,1.1H42.3"/>
</g>
</svg>
