<?xml version="1.0" encoding="utf-8"?>
<!-- Generator: Adobe Illustrator 22.1.0, SVG Export Plug-In . SVG Version: 6.00 Build 0)  -->
<svg version="1.1" id="Layer_1" xmlns="http://www.w3.org/2000/svg" xmlns:xlink="http://www.w3.org/1999/xlink" x="0px" y="0px"
	 viewBox="0 0 248.9 121.4" style="enable-background:new 0 0 248.9 121.4;" xml:space="preserve">
<style type="text/css">
	.st0{fill:#008ECF;}
</style>
<g>
	<polygon class="st0" points="51.9,40.1 62,40.1 71.8,68.7 81.8,40.1 91.8,40.1 77.6,81.3 66.1,81.3 	"/>
	<path class="st0" d="M100.7,49.1v23.3h4c5,0,8.5-1.7,10.7-4c2.2-2.3,3.2-5.2,3.2-7.7c0-2.9-1.3-5.8-3.8-7.9
		c-2.4-2.2-6.1-3.6-10.6-3.6L100.7,49.1L100.7,49.1z M91.1,81.3V40.1h15c6.7,0,12.2,2.3,16,6.1c3.8,3.7,5.9,8.9,5.9,14.5
		c0,3.4-0.8,6.8-2.3,9.9c-1.6,3.1-3.9,5.8-7.1,7.7c-3.3,1.9-7.2,3-12.1,3H91.1z"/>
	<path class="st0" d="M140.9,65h10.6l-5.3-15.5L140.9,65z M154.7,73.9h-16.9l-2.5,7.3h-10.1l14.2-41.2h13.9l14.2,41.2h-10.3
		L154.7,73.9z"/>
	<path class="st0" d="M176.2,64.1v10.4c4,0,7-0.1,9-0.8c2-0.7,3-1.9,3-4.3c0-2.3-0.9-3.6-2.8-4.4s-4.5-0.9-7.9-0.9L176.2,64.1
		L176.2,64.1z M176.2,46.9v9.6c3.6,0,6.1,0,7.8-0.6c1.6-0.6,2.3-1.7,2.3-3.9c0-2.3-0.7-3.6-2.3-4.3c-1.6-0.7-4-0.8-7.5-0.8
		L176.2,46.9L176.2,46.9z M166.5,81.3V40.1h12.2c2.4,0,5.1,0.2,7.5,0.8c2.4,0.6,4.6,1.6,6.2,3.2c1.6,1.6,2.6,3.9,2.6,7
		c0,2.2-0.5,3.8-1.4,5.2c-0.8,1.4-1.9,2.4-3.1,3.3c4.3,1.7,6.4,4.8,6.4,9.7c0,3.7-1.2,6.3-3.1,8c-2,1.8-4.8,2.8-8,3.3
		c-3.2,0.5-6.9,0.6-10.6,0.6L166.5,81.3L166.5,81.3z"/>
	<rect x="92.1" y="90.2" class="st0" width="71.3" height="5.9"/>
	<rect x="92.1" y="25.3" class="st0" width="71.3" height="5.9"/>
</g>
</svg>
