<?xml version="1.0" encoding="utf-8"?>
<!-- Generator: Adobe Illustrator 22.1.0, SVG Export Plug-In . SVG Version: 6.00 Build 0)  -->
<svg version="1.1" id="Calque_1" xmlns="http://www.w3.org/2000/svg" xmlns:xlink="http://www.w3.org/1999/xlink" x="0px" y="0px"
	 viewBox="0 0 318.4 32.9" style="enable-background:new 0 0 318.4 32.9;" xml:space="preserve">
<style type="text/css">
	.st0{fill:#3A75B2;}
	.st1{fill:#F2AE48;}
</style>
<g>
	<g>
		<path class="st0" d="M18.8,9.2c0.7,0,1,0.3,1,0.7c0,0.6-0.2,1.3-0.4,2l-5.8,17.2c-0.7,2.2-1.6,2.6-3.3,2.6c-1.8,0-2.8-0.3-3.7-3
			c-0.6-1.6-1.3-3.4-3.2-8.8C0.9,13.2,0,10.8,0,10.1c0-0.5,0.4-0.9,1-0.9h1.6c0.8,0,1.1,0,1.5,1c0.5,1.4,4,13.2,5.1,16.5
			c0.2,0.5,0.4,0.8,1,0.8s0.8-0.4,0.9-0.8c1-3.7,4.1-14.5,4.6-16.1c0.3-1.2,0.6-1.5,1.4-1.5L18.8,9.2L18.8,9.2z"/>
		<path class="st0" d="M27.5,10.7v19.8c0,0.8-0.2,1.1-1.9,1.1c-1.6,0-1.9-0.3-1.9-1.3c0-1.1,0.1-17.4,0.1-19.8
			c0-1.1,0.4-1.4,1.8-1.4C27,9.2,27.5,9.4,27.5,10.7 M28.4,2.7c0,1.6-0.9,2.9-2.7,2.9c-1.8,0-2.8-1.2-2.8-2.8C23,1.2,23.9,0,25.8,0
			C27.5,0,28.4,1.2,28.4,2.7"/>
		<path class="st0" d="M47.4,26c0-1.6-1-2.9-7.1-3.8c-5.7-0.9-7.6-3.6-7.6-6.4c0-4.3,3.5-7,9.4-7c6.4,0,8.9,3.2,8.9,5.7
			c0,1.2-0.7,1.6-1.7,1.6c-0.9,0-1.5-0.5-2-1.4c-1.1-1.6-2.7-2.5-5.7-2.5c-3.2,0-4.8,1.6-4.8,3.4c0,2,1,3,5.9,3.9
			c6.5,1.1,8.6,2.7,8.6,6.1c0,3.3-2.6,6.6-9.2,6.6c-6.5,0-10-3.7-10-6.7c0-0.7,0.5-1.4,1.4-1.4c2.7,0,1.8,5,8.8,5
			C45.8,29,47.4,27.7,47.4,26"/>
		<path class="st0" d="M59.6,10.7v19.8c0,0.8-0.2,1.1-1.9,1.1c-1.6,0-1.9-0.3-1.9-1.3c0-1.1,0.1-17.4,0.1-19.8
			c0-1.1,0.4-1.4,1.8-1.4C59,9.2,59.6,9.4,59.6,10.7 M60.5,2.7c0,1.6-0.9,2.9-2.7,2.9C56,5.6,55,4.4,55,2.8S55.9,0,57.8,0
			C59.6,0,60.5,1.2,60.5,2.7"/>
		<path class="st0" d="M67.9,3.5c0-1,0.3-1.6,1.8-1.6c1.4,0,1.7,0.7,1.7,1.5v5c0,0.9,0.1,0.9,0.6,0.9c0.3,0,3.7,0,4.9,0
			c0.6,0,1.3,0.3,1.3,1.6s-0.6,1.7-1.3,1.7h-4.7c-0.6,0-0.7,0.2-0.7,0.7v12.5c0,1.7,0.8,2.6,2.6,2.6c1,0,1.5-0.6,2.5-0.6
			s1.4,0.8,1.4,1.7c0,1.2-1.3,2.4-4.2,2.4c-4.6,0-6.1-2.6-6.1-6.7c0-2.4,0.1-8.2,0.1-11.8c0-0.6-0.2-0.8-0.7-0.8H65
			c-0.8,0-1.3-0.3-1.3-1.2S64,10.2,65,10c2.4-0.5,2.9-0.5,2.9-1.1V3.5z"/>
		<path class="st1" d="M85,31.9c-2.3,0-3.6-1.3-3.6-3.4c0-2.3,1.4-3.2,3.5-3.2c3,0,3.8,1.2,3.8,3.2C88.6,30.9,87.2,31.9,85,31.9"/>
		<path class="st0" d="M109.1,20.1c0-4.7-1.9-6.3-5.1-6.3c-3.1,0-5.4,1.6-5.4,6.6c0,4.2,2.1,6.8,5.1,6.8
			C107,27.2,109.1,24.7,109.1,20.1 M99,7c0,2.2-0.1,2.9-0.1,3.6c0,0.8,0.1,1,0.4,1c0.7,0,1.6-3.1,7-3.1c5.5,0,8.9,3.9,8.9,11.5
			c0,7-3.5,11.8-9.3,11.8c-6.8,0-6.7-4.1-7.6-4.1c-0.4,0-0.3,0.3-0.7,2.1c-0.3,1.3-1.1,1.7-2.6,1.7c-1.9,0-2.5-0.8-2.5-2.2
			c0-3.4,0-12,0-26.8c0-1.6,0.8-2.4,3.2-2.4C98.6,0.1,99,1,99,2.5V7z"/>
		<path class="st0" d="M124.1,29.3c0,1.6-0.6,2.3-3.1,2.3c-2.3,0-3.1-0.7-3.1-2.3c0-11.5,0.2-16.8,0.2-18.2c0-1.4,0.6-1.9,2.4-1.9
			s2.2,0.5,2.5,2.1c0.2,1.5,0.3,1.7,0.6,1.7c0.7,0,1.5-3.8,6-3.8c1.8,0,2.6,0.6,2.6,2.5c0,1.6-0.3,3-2.5,3c-3.6,0-5.5,2.2-5.5,6.5
			v8.1H124.1z"/>
		<path class="st0" d="M152.4,31.6c-1.9,0-2.5-0.8-2.8-2.1c-0.2-1-0.2-1.8-0.6-1.8c-0.7,0-1,4.5-7.1,4.5c-5.1,0-7.5-3.2-7.5-9.5
			c0-6.9,0-3.7,0-11.4c0-1.4,0.6-2.2,3.1-2.2c2.2,0,3.1,0.4,3.1,2.1c0,0.8-0.1,7.8-0.1,10c0,3.8,1.4,5.7,3.9,5.7
			c3.1,0,4.6-2.4,4.6-7.1c0-5.4-0.1-7.2-0.1-8.6c0-1.3,0.8-1.9,3.1-1.9c2.2,0,3.2,0.4,3.2,2c0,2.6-0.1,16.6-0.1,18.1
			C155,30.7,154.2,31.6,152.4,31.6"/>
		<path class="st0" d="M168.2,27.7c3,0,3.8-1.1,3.8-2.2c0-1.5-1.4-1.9-6.4-2.7c-6.2-1-7.5-3.8-7.5-6.8c0-5,4.8-7.3,9.6-7.3
			c6.7,0,9.5,2.9,9.5,6c0,1.5-1,2.2-2.8,2.2c-1.2,0-1.9-0.8-2.2-1.4c-1-1.7-2.4-2.3-4.5-2.3c-2.5,0-3.8,0.8-3.8,2.3
			c0,1.6,0.7,2.4,5.6,3.3c7.2,1.3,8.5,3.3,8.5,6.4c0,3.7-3.2,6.9-10.4,6.9c-7.1,0-9.7-3.7-9.7-5.9c0-1.6,0.6-2.3,2.2-2.3
			C162.9,23.9,162.5,27.7,168.2,27.7"/>
		<path class="st0" d="M190.6,27.7c3,0,3.8-1.1,3.8-2.2c0-1.5-1.4-1.9-6.4-2.7c-6.2-1-7.5-3.8-7.5-6.8c0-5,4.8-7.3,9.6-7.3
			c6.7,0,9.5,2.9,9.5,6c0,1.5-1,2.2-2.8,2.2c-1.2,0-1.9-0.8-2.2-1.4c-1-1.7-2.4-2.3-4.5-2.3c-2.5,0-3.8,0.8-3.8,2.3
			c0,1.6,0.7,2.4,5.6,3.3c7.2,1.3,8.5,3.3,8.5,6.4c0,3.7-3.2,6.9-10.4,6.9c-7.1,0-9.7-3.7-9.7-5.9c0-1.6,0.6-2.3,2.2-2.3
			C185.2,23.9,184.8,27.7,190.6,27.7"/>
		<path class="st0" d="M218.1,17.9c0.8,0,1.1-0.3,1.1-1c0-1.6-1.5-3.8-5.2-3.8c-3.8,0-5.3,2.3-5.3,3.8c0,0.6,0.2,0.9,1,0.9h8.4V17.9
			z M213.8,32.1c-6.9,0-11.2-4.7-11.2-12.1c0-6.6,4-11.3,11.2-11.3c6.7,0,10.6,3.3,10.6,9.3c0,2.6-0.8,3.1-2.5,3.1
			c-1.2,0-11.4,0-12.4,0s-1,0.4-1,1.1c0,2.9,2.2,5.1,5.5,5.1c5.4,0,4.4-3.5,7.6-3.5c1.1,0,2.2,0.8,2.2,2.2
			C223.8,28.2,221.1,32.1,213.8,32.1"/>
		<path class="st0" d="M227.5,2.5c0-1.5,0.8-2.3,3.1-2.3c2.1,0,2.9,0.5,2.9,2.4c0,2.5-0.2,21.7-0.2,23.8c0,0.8,0.2,1.1,0.7,1.1
			c0.3,0,0.5-0.1,1-0.1c1.1,0,1.7,0.7,1.7,2c0,1.8-1.3,2.8-3.9,2.8c-3.6,0-5.4-2.2-5.4-5.5L227.5,2.5L227.5,2.5z"/>
		<path class="st0" d="M247.9,27.7c3,0,3.8-1.1,3.8-2.2c0-1.5-1.4-1.9-6.4-2.7c-6.2-1-7.5-3.8-7.5-6.8c0-5,4.8-7.3,9.6-7.3
			c6.7,0,9.5,2.9,9.5,6c0,1.5-1,2.2-2.8,2.2c-1.2,0-1.9-0.8-2.2-1.4c-1-1.7-2.4-2.3-4.5-2.3c-2.5,0-3.8,0.8-3.8,2.3
			c0,1.6,0.7,2.4,5.6,3.3c7.2,1.3,8.5,3.3,8.5,6.4c0,3.7-3.2,6.9-10.4,6.9c-7.1,0-9.7-3.7-9.7-5.9c0-1.6,0.6-2.3,2.2-2.3
			C242.5,23.9,242.1,27.7,247.9,27.7"/>
		<path class="st0" d="M273.2,14.4c-4,0-8,3-8,8.1c0,4.9,4.5,8,8.5,8c4.3,0,6.4-1.4,10.1-0.6c2.9,0.6,4.4,2,5.2,2.7
			c0.4,0.4,0.8,0.4,1.2,0.2c0.3-0.2,0.5-0.6,0.3-1.6c-0.5-2.2-1.7-4.7-3-6.8C284.7,20.2,279.3,14.4,273.2,14.4"/>
		<path class="st0" d="M310.4,14.4c4,0,8,3,8,8.1c0,4.9-4.5,8-8.5,8c-4.3,0-6.4-1.4-10.1-0.6c-2.9,0.6-4.4,2-5.2,2.7
			c-0.4,0.4-0.8,0.4-1.2,0.2c-0.3-0.2-0.5-0.6-0.3-1.6c0.5-2.2,1.7-4.7,3-6.8C298.9,20.2,304.3,14.4,310.4,14.4"/>
		<path class="st1" d="M301.2,11.9c-2.8,3.9-6.6,5.1-9.4,11.1c-2.8-6-6.6-7.3-9.4-11.1c-0.7-1-1.1-2.1-1.1-3.2
			c0-3.1,2.5-5.7,5.6-5.7c2.7,0,4.4,2,4.9,3.5c0.6-1.4,2.3-3.5,5-3.5c3.1,0,5.6,2.6,5.6,5.7C302.4,9.9,302,10.9,301.2,11.9 M297,0.7
			c-2.2,0-4.1,0.9-5.1,2.3c-1-1.4-2.9-2.3-5.1-2.3c-4.1,0-7.8,3.2-7.8,7.9c0,2.1,0.8,3.6,1.6,4.7c0.9,1.2,2,2.3,3.7,3.9
			c2.6,2.2,4.7,4.4,6.7,8.6c0.2,0.3,0.5,0.7,0.9,0.7s0.8-0.4,0.9-0.7c2-4.2,4.1-6.4,6.7-8.6c1.8-1.5,2.9-2.6,3.7-3.9
			c0.7-1.1,1.6-2.7,1.6-4.7C304.7,3.9,301,0.7,297,0.7"/>
	</g>
</g>
</svg>
