<?xml version="1.0" encoding="utf-8"?>
<!-- Generator: Adobe Illustrator 22.1.0, SVG Export Plug-In . SVG Version: 6.00 Build 0)  -->
<svg version="1.1" id="vlaanderen-logo" xmlns="http://www.w3.org/2000/svg" xmlns:xlink="http://www.w3.org/1999/xlink" x="0px"
	 y="0px" viewBox="0 0 826.1 374.7" style="enable-background:new 0 0 826.1 374.7;" xml:space="preserve">
<style type="text/css">
	.st0{fill:#363636;}
	.st1{fill:none;stroke:#363636;stroke-width:2;stroke-miterlimit:10;}
</style>
<title>vlaanderen-logo</title>
<g>
	<path class="st0" d="M178,186.4c-9.8-7.4-14.4,0-20.6,0s-10.2-9.1-14.2-6.8c-7.7,3.9,3.1,18.2,7.8,20.6c3.5,2,7.1,3.8,10.7,5.4
		c5.5,2.5,9,8,9.1,14.1c0.3,2.3,0.3,4.5,0,6.8c-2.8,12-24,22.9-36.3,14.6c-6.6-4-11.2-10.6-12.7-18.2c-3.3-15.7-14.7-27.2-18.2-42.7
		c-2.3-9.1-3.9-19.3-6.4-28.6c-2.5-9.4-5-19.7-7.1-28.8c-2.3-9.5-5.1-18.8-8.5-28C69.9,64.8,64.8,67,64.8,67s4.2,8.4,19.5,81.7
		c2.6,15.8,6,31.4,10.3,46.8c1.5,3.8,4,12,5.6,15.6c4.9,10.5,18.2,26.5,18.6,41c0.5,8.4,1.5,15.3,1.6,21.5c0.3,4.3,1,8.6,2.2,12.7
		c3.2,9.1,28.5,37.1,55.4,37.1v-21.9c-18.7-0.4-37-6.1-52.6-16.5c0.4-5.3,1.4-10.5,3.2-15.4c3-9.7,11.6-16.7,21.7-17.6
		c9.1,0.2,18.3,1.1,27.2,2.8v-68.4L178,186.4L178,186.4z M61.9,107.9C60.9,124,35.8,146,28,160.1c-4.4,8.1-7.8,16.8-9.9,25.8
		c-2.7,14.4-0.7,29.2,5.6,42.4c8.3,19.8-1.1,27.2,5.4,23.1c8-6.5,6.8-21.7,6.2-31.1c-0.8-8.5-0.8-17.1,0-25.6
		c3.6-17.6,11.1-34.1,21.9-48.4C64.5,134.9,66.3,120.8,61.9,107.9 M66.9,153.3c0,0,2.6,12.7-9.1,45.4c-29.6,85.8,27.2,93.9,43,114.1
		c0,0,6.3-9.1-19.4-36.3c-9.1-10.2-18.2-32.7-10.4-64.9c10.6-46.6-4.5-58-4.5-58 M10.9,97.4c-1.4-4.4-2-9-1.9-13.6
		c1.8-20.2,20.2-28.3,24.8-31.3c4.2-2.7,7.5-6.7,9.4-11.4c4.9,12.3,0.3,26.4-11,33.3C23,79.9,15.6,87.9,10.9,97.4 M57.3,77.9
		c1,2.1,9.1,13.2-22.5,38.8s-21.4,43.9-21.4,43.9s-33.2-18.2,5.1-50.2s30.4-38.1,30.4-38.1C52.6,72.4,55.8,74.6,57.3,77.9
		 M97.8,87.8c5.4,0.7,9.1,17.4,21.3,21.1c9.1,2.6,18.9,1.2,21.1,6.7c-2,1.7-2.3,4.6-0.6,6.6c1,1.2,2.5,1.8,4,1.7
		C147.1,113.8,148.9,76.3,97.8,87.8L97.8,87.8z M114.7,95.6c0-1.2,1.1,0,2.5-1.1c1.4-1.8,3.3-3.3,5.4-4.4c1.8-0.6,3.8-0.6,5.6,0
		c1.1,0,0,3,0,3.6s-6.7-0.8-6.7,2.9c0,6.1,8.3,0,12.5,0c2.1,14.9-22.5,10.8-18.9-1.5L114.7,95.6z"/>
	<line class="st1" x1="169.3" y1="0.3" x2="301.3" y2="374.3"/>
	<g>
		<path class="st0" d="M405.2,76l-30.4,88.2h-18.1L326.3,76h16.3l23.1,67l23.1-67H405.2z"/>
		<path class="st0" d="M431.1,67.5v95.4h-15.4V68.8l13.4-1.3H431.1z"/>
		<path class="st0" d="M497,141.1c0,5.5,3.4,8.9,10.2,10.2l-7,12.9c-5.9,0-11.1-2.4-15.5-7.2c-3.4,2.5-6.3,4.3-8.8,5.5
			s-6.3,1.7-11.3,1.7s-9.4-1.4-13.2-4.1c-5.2-3.6-7.8-9.6-7.8-17.7c0-6.4,1.8-11.1,5.4-14.3s9.8-4.7,18.6-4.7c5.3,0,10,0.2,14,0.5
			v-3.4c0-8.4-4.5-12.6-13.4-12.6c-5.5,0-11.6,1.5-18.3,4.6L446.4,99c8.1-3.9,16.2-5.9,24.2-5.9s14.4,1.8,19.2,5.4
			c4.8,3.6,7.2,9.4,7.3,17.2v25.4H497z M481.6,135.2h-4.7c-5.8,0-9.8,0.3-11.9,0.8c-4,1-5.9,3.3-5.9,6.9c0,2.7,0.9,4.9,2.6,6.4
			c1.8,1.5,4.1,2.3,7.1,2.3c2.9,0,5.5-0.7,7.8-2.1c3.3-2.1,5-5.4,5-10.2V135.2z"/>
		<path class="st0" d="M565,141.1c0,5.5,3.4,8.9,10.2,10.2l-7,12.9c-5.9,0-11.1-2.4-15.5-7.2c-3.4,2.5-6.3,4.3-8.8,5.5
			s-6.3,1.7-11.3,1.7s-9.4-1.4-13.2-4.1c-5.2-3.6-7.8-9.6-7.8-17.7c0-6.4,1.8-11.1,5.4-14.3c3.6-3.2,9.8-4.7,18.6-4.7
			c5.3,0,10,0.2,14,0.5v-3.4c0-8.4-4.5-12.6-13.4-12.6c-5.5,0-11.6,1.5-18.3,4.6L514.3,99c8.1-3.9,16.2-5.9,24.2-5.9
			s14.4,1.8,19.2,5.4s7.2,9.4,7.3,17.2V141.1z M549.6,135.2h-4.7c-5.8,0-9.8,0.3-11.9,0.8c-4,1-5.9,3.3-5.9,6.9
			c0,2.7,0.9,4.9,2.6,6.4c1.8,1.5,4.1,2.3,7.1,2.3c2.9,0,5.5-0.7,7.8-2.1c3.3-2.1,5-5.4,5-10.2L549.6,135.2L549.6,135.2z"/>
		<path class="st0" d="M653.1,93.2c6.9,0,12.5,2,16.5,6.1s6.1,10.2,6.1,18.2v45.4h-15.4v-41.3c0-4.7-1.1-8.1-3.3-10.3
			c-2.2-2.2-5.1-3.3-8.6-3.4c-3.6,0-7.3,1.2-11.2,3.5c0.3,2.1,0.5,3.9,0.5,5.6v45.8h-15.4v-41.3c0-4.7-1.1-8.2-3.2-10.3
			c-2.1-2.2-4.9-3.3-8.3-3.3s-7.2,1.3-11.2,3.9v51h-15.4V94.5h13.1l1.4,4.8c5.7-4.1,11.9-6.1,18.8-6.1s12.2,2.7,16,8
			C639.6,95.9,646.2,93.2,653.1,93.2z"/>
		<path class="st0" d="M711.5,147.5c2.2-1.3,3.3-3.2,3.3-5.5c0-2.4-0.8-4.3-2.4-5.8c-1.6-1.5-5.4-3.1-11.4-4.8
			c-6-1.8-10.3-4.7-12.9-8.8c-1.5-2.2-2.2-5.3-2.2-9.1c0-6.7,2.2-11.8,6.7-15.2c4.4-3.4,9.8-5.1,16.1-5.1s11.7,0.9,16.3,2.6v13.8
			l-0.8,0.6c-3.9-1.8-7.7-2.8-11.3-2.8s-6.5,0.5-8.5,1.6c-2.1,1.1-3.1,2.4-3.1,4.1c0,1.8,0.7,3.1,1.9,4.1s3.1,1.9,5.5,2.7l6.9,2.4
			c9.7,3.3,14.5,9.7,14.5,19.2c0,7.5-2.5,13.2-7.7,17.1c-5.2,3.9-11.4,5.8-18.5,5.8s-13.1-1.6-18-4.7V145l0.5-0.4
			c5.9,3.2,11.5,4.8,16.9,4.8C706.7,149.4,709.3,148.8,711.5,147.5z"/>
		<path class="st0" d="M772.4,164.2c-10,0-18.3-3.1-25.1-9.3s-10.2-14.8-10.2-25.9s3.1-19.9,9.2-26.3c6.1-6.4,13.3-9.6,21.6-9.6
			c3.5,0,6.9,0.5,10.1,1.6c4.9,1.7,8.8,4.5,11.7,8.6c3.7,5.1,5.6,12.1,5.6,20.8v10.3h-41.5c1.2,5.2,3.6,8.9,7.3,11.4
			c3.7,2.4,8.3,3.6,13.7,3.6s10.8-1.5,16.4-4.5l0.6,0.2v15C786.3,162.9,779.8,164.2,772.4,164.2z M777.1,111.6
			c-2.5-2.5-5.4-3.7-8.8-3.6c-3.4,0-6.5,1.3-9.2,3.6c-2.7,2.4-4.5,5.9-5.5,10.7h27.6C781,117.6,779.6,114.1,777.1,111.6z"/>
		<path class="st0" d="M362.7,283.1c-9.8,0-17.8-3.3-23.9-10s-9.1-15.1-9.1-25.4c0-10.2,3.1-18.7,9.4-25.5s14.3-10.2,24.2-10.2
			c9.9,0,17.8,3.4,23.8,10.2s9,15.2,9,25.4c0,10.2-3.1,18.6-9.4,25.4C380.4,279.7,372.4,283.1,362.7,283.1z M349.7,232.6
			c-3.1,3.8-4.6,8.7-4.6,14.6c0,6,1.6,11,4.7,15s7.6,6,13.3,6c5.7,0,10.1-1.9,13.1-5.6s4.5-8.6,4.5-14.8s-1.5-11.2-4.5-15.2
			s-7.4-5.9-13.2-5.9C357.2,226.9,352.7,228.8,349.7,232.6z"/>
		<path class="st0" d="M423.5,281.7L400,213.3h16.7l15.4,44.7h0.4l15.4-44.7h16.7l-23.5,68.4H423.5z"/>
		<path class="st0" d="M503.2,283.1c-10,0-18.3-3.1-25.1-9.3c-6.8-6.2-10.2-14.8-10.2-25.9s3.1-19.9,9.2-26.3
			c6.1-6.4,13.3-9.6,21.6-9.6c3.5,0,6.9,0.5,10.1,1.6c4.9,1.7,8.8,4.5,11.7,8.6c3.7,5.1,5.6,12.1,5.6,20.8v10.3h-41.5
			c1.2,5.2,3.6,8.9,7.3,11.4s8.3,3.6,13.7,3.6c5.4,0,10.8-1.5,16.4-4.5l0.6,0.2v15C517,281.7,510.6,283.1,503.2,283.1z M507.9,230.4
			c-2.5-2.5-5.4-3.7-8.8-3.6c-3.4,0-6.5,1.3-9.2,3.6c-2.7,2.4-4.5,5.9-5.5,10.7H512C511.7,236.4,510.3,232.9,507.9,230.4z"/>
		<path class="st0" d="M566.9,226.8c-4.4,0-8.8,1.7-13.2,5v49.9h-15.4v-68.4h13.1l1.6,5.6c5.4-4.6,11.2-6.9,17.2-6.9
			s10.6,0.9,13.8,2.7l-4.9,15.6C575.4,228,571.3,226.8,566.9,226.8z"/>
		<path class="st0" d="M608.6,186.3v31.9c6.3-4.1,13.2-6.1,20.6-6.1c7.4,0,13.4,2.1,18.2,6.1c4.7,4,7.1,10.1,7.1,18.1v45.4H639
			v-40.8c0-4.8-1.5-8.3-4.4-10.6s-6.8-3.4-11.8-3.4s-9.8,1.4-14.2,4.2v50.6h-15.4v-94.1l13.1-1.3H608.6z"/>
		<path class="st0" d="M701.6,283.1c-10,0-18.3-3.1-25.1-9.3c-6.8-6.2-10.2-14.8-10.2-25.9s3.1-19.9,9.2-26.3
			c6.1-6.4,13.3-9.6,21.6-9.6c3.5,0,6.9,0.5,10.1,1.6c4.9,1.7,8.8,4.5,11.7,8.6c3.7,5.1,5.6,12.1,5.6,20.8v10.3H683
			c1.2,5.2,3.6,8.9,7.3,11.4s8.3,3.6,13.7,3.6s10.8-1.5,16.4-4.5l0.6,0.2v15C715.5,281.7,709,283.1,701.6,283.1z M706.3,230.4
			c-2.5-2.5-5.4-3.7-8.8-3.6c-3.4,0-6.5,1.3-9.2,3.6c-2.7,2.4-4.5,5.9-5.5,10.7h27.6C710.1,236.4,708.7,232.9,706.3,230.4z"/>
		<path class="st0" d="M744.4,204.4c-2.5,0-4.7-0.9-6.5-2.6c-1.8-1.7-2.6-3.8-2.6-6.4c0-2.5,0.9-4.7,2.6-6.5
			c1.8-1.8,3.9-2.6,6.5-2.6c2.5,0,4.7,0.9,6.5,2.7s2.6,3.9,2.6,6.4s-0.9,4.6-2.6,6.3C749.1,203.5,746.9,204.4,744.4,204.4z
			 M736.7,213.3h15.4v68.4h-15.4V213.3z"/>
		<path class="st0" d="M826.1,281.7h-11.7l-2.8-5.1c-5.8,4.3-11.9,6.5-18.4,6.5c-9.2,0-16.2-3.2-21.2-9.5s-7.5-14.1-7.5-23.3
			c0-12.5,3.3-21.9,9.9-28.5c6.6-6.5,15.3-9.8,26.1-9.8c3.3,0,6.6,0.2,10.1,0.7v-25l13.1-1.3h2.4L826.1,281.7L826.1,281.7z
			 M799.7,226.2c-6.1,0-10.9,1.8-14.4,5.4c-3.5,3.6-5.3,8.6-5.3,14.8s1.5,11.4,4.4,15.6s6.9,6.2,12,6.2c5,0,9.8-1.4,14.3-4.2v-36.4
			C806.8,226.7,803.2,226.2,799.7,226.2z"/>
	</g>
</g>
</svg>
