<?xml version="1.0" encoding="utf-8"?>
<!-- Generator: Adobe Illustrator 22.1.0, SVG Export Plug-In . SVG Version: 6.00 Build 0)  -->
<svg version="1.1" id="Laag_1" xmlns="http://www.w3.org/2000/svg" xmlns:xlink="http://www.w3.org/1999/xlink" x="0px" y="0px"
	 viewBox="0 0 194.1 87" style="enable-background:new 0 0 194.1 87;" xml:space="preserve">
<style type="text/css">
	.st0{fill:#C13932;}
</style>
<g>
	<g>
		<path class="st0" d="M37.2,84.3h-1.1C36,84.1,36,83.9,36,83.6c-0.4,0.6-0.9,0.9-1.7,0.9c-1.8,0-2.7-1.4-2.7-3.4
			c0-2,0.8-3.4,2.7-3.4c0.8,0,1.4,0.5,1.7,1v-3.6h1.2V84.3z M34.4,78.8c-1.2,0-1.5,0.9-1.5,2.3c0,1.4,0.4,2.3,1.5,2.3s1.5-1,1.5-2.3
			C35.9,79.7,35.5,78.8,34.4,78.8z"/>
		<path class="st0" d="M40.9,81.8c-0.4,0.1-0.6,0.3-0.6,0.6c0,0.3,0.4,1,1.4,1c0.8,0,1.7-0.2,2.4-0.6v1c-0.6,0.4-1.4,0.6-2.4,0.6
			c-1.9,0-2.9-1.4-2.9-3.4c0-2,1.3-3.4,3-3.4c1.6,0,2.4,0.8,2.4,1.8c0,1.1-0.7,1.6-2,1.9L40.9,81.8z M40,81.2
			c0.1-0.1,0.4-0.3,0.7-0.3l1.1-0.3c0.7-0.2,1.1-0.5,1.1-1c0-0.6-0.4-0.9-1.1-0.9c-1.1,0-1.8,0.9-1.8,2.3V81.2z"/>
		<path class="st0" d="M54,83.8c0,2-1.3,3.2-3.1,3.2c-1,0-1.7-0.3-2-0.6v-1.2c0.6,0.4,1.3,0.7,2,0.7c1.3,0,1.8-1,1.8-2v-0.6
			c-0.4,0.5-0.9,0.9-1.7,0.9c-1.8,0-2.7-1.4-2.7-3.2c0-1.9,0.9-3.2,2.7-3.2c0.8,0,1.3,0.4,1.7,0.9c0-0.3,0-0.5,0.1-0.8H54V83.8z
			 M51.3,78.8c-1.2,0-1.5,0.9-1.5,2.2c0,1.2,0.4,2.2,1.5,2.2c1.2,0,1.5-0.9,1.5-2.2C52.8,79.7,52.4,78.8,51.3,78.8z"/>
		<path class="st0" d="M57.7,81.8c-0.4,0.1-0.6,0.3-0.6,0.6c0,0.3,0.4,1,1.4,1c0.8,0,1.7-0.2,2.4-0.6v1c-0.6,0.4-1.4,0.6-2.4,0.6
			c-1.9,0-2.9-1.4-2.9-3.4c0-2,1.3-3.4,3-3.4c1.6,0,2.4,0.8,2.4,1.8c0,1.1-0.7,1.6-2,1.9L57.7,81.8z M56.9,81.2
			c0.1-0.1,0.4-0.3,0.7-0.3l1.1-0.3c0.7-0.2,1.1-0.5,1.1-1c0-0.6-0.4-0.9-1.1-0.9c-1.1,0-1.8,0.9-1.8,2.3V81.2z"/>
		<path class="st0" d="M67.9,84.3h-1.1c-0.1-0.3-0.1-0.5-0.1-0.8c-0.4,0.6-0.9,0.9-1.7,0.9c-1.8,0-2.7-1.4-2.7-3.4
			c0-2,0.8-3.4,2.7-3.4c0.8,0,1.4,0.5,1.7,1v-3.6h1.2V84.3z M65.1,78.8c-1.2,0-1.5,0.9-1.5,2.3c0,1.4,0.4,2.3,1.5,2.3
			c1.2,0,1.5-1,1.5-2.3C66.7,79.7,66.3,78.8,65.1,78.8z"/>
		<path class="st0" d="M69.9,77.9H71c0.1,0.3,0.1,0.5,0.1,0.8c0.4-0.6,1-1,1.7-1c0.2,0,0.4,0,0.5,0.1V79c-0.2-0.1-0.4-0.1-0.6-0.1
			c-1.1,0-1.5,0.6-1.5,1.6v3.8h-1.2V77.9z"/>
		<path class="st0" d="M76.1,81.8c-0.4,0.1-0.6,0.3-0.6,0.6c0,0.3,0.4,1,1.4,1c0.8,0,1.7-0.2,2.4-0.6v1c-0.6,0.4-1.4,0.6-2.4,0.6
			c-1.9,0-2.9-1.4-2.9-3.4c0-2,1.3-3.4,3-3.4c1.6,0,2.4,0.8,2.4,1.8c0,1.1-0.7,1.6-2,1.9L76.1,81.8z M75.2,81.2
			c0.1-0.1,0.4-0.3,0.7-0.3l1.1-0.3c0.7-0.2,1.1-0.5,1.1-1c0-0.6-0.4-0.9-1.1-0.9c-1.1,0-1.8,0.9-1.8,2.3V81.2z"/>
		<path class="st0" d="M82.6,84.3c-0.7-1.5-1.8-4.2-2.3-6.5h1.3c0.3,1.8,1.2,4.2,1.6,5.2c0.4-1,1.3-3.4,1.6-5.2h1.3
			c-0.5,2.3-1.6,4.9-2.3,6.5H82.6z"/>
		<path class="st0" d="M88.9,81.8c-0.4,0.1-0.6,0.3-0.6,0.6c0,0.3,0.4,1,1.4,1c0.8,0,1.7-0.2,2.4-0.6v1c-0.6,0.4-1.4,0.6-2.4,0.6
			c-1.9,0-2.9-1.4-2.9-3.4c0-2,1.3-3.4,3-3.4c1.6,0,2.4,0.8,2.4,1.8c0,1.1-0.7,1.6-2,1.9L88.9,81.8z M88.1,81.2
			c0.1-0.1,0.4-0.3,0.7-0.3l1.1-0.3c0.7-0.2,1.1-0.5,1.1-1c0-0.6-0.4-0.9-1.1-0.9c-1.1,0-1.8,0.9-1.8,2.3V81.2z"/>
		<path class="st0" d="M98.9,78.9c0.2,0.4,0.2,0.9,0.2,1.7v3.8H98V81c0-1,0-1.2-0.1-1.4c-0.1-0.4-0.5-0.7-1.1-0.7
			c-1,0-1.7,0.6-1.7,2.2v3.3h-1.2v-6.5h1.1c0.1,0.3,0.1,0.7,0.1,1c0.4-0.7,1-1.2,2.1-1.2C97.8,77.7,98.6,78,98.9,78.9z"/>
		<path class="st0" d="M109.7,81.1c0,2-0.8,3.4-2.7,3.4c-0.8,0-1.4-0.4-1.7-0.9v3.3h-1.2v-9h1.1c0.1,0.3,0.1,0.5,0.1,0.8
			c0.4-0.6,0.9-0.9,1.7-0.9C108.9,77.7,109.7,79.1,109.7,81.1z M105.4,81.1c0,1.4,0.4,2.3,1.5,2.3c1.2,0,1.5-0.9,1.5-2.3
			c0-1.4-0.4-2.3-1.5-2.3C105.8,78.8,105.4,79.7,105.4,81.1z"/>
		<path class="st0" d="M111.4,77.9h1.1c0.1,0.3,0.1,0.5,0.1,0.8c0.4-0.6,1-1,1.7-1c0.2,0,0.4,0,0.5,0.1V79c-0.2-0.1-0.4-0.1-0.6-0.1
			c-1.1,0-1.5,0.6-1.5,1.6v3.8h-1.2V77.9z"/>
		<path class="st0" d="M118.2,84.5c-1.8,0-2.9-1.4-2.9-3.4c0-2,1.1-3.4,2.9-3.4c1.8,0,2.9,1.4,2.9,3.4
			C121.1,83.1,120.1,84.5,118.2,84.5z M118.2,78.8c-1.2,0-1.6,0.9-1.6,2.3c0,1.4,0.5,2.3,1.6,2.3s1.6-1,1.6-2.3
			C119.9,79.7,119.4,78.8,118.2,78.8z"/>
		<path class="st0" d="M124.2,84.3c-0.7-1.5-1.8-4.2-2.3-6.5h1.3c0.3,1.8,1.2,4.2,1.6,5.2c0.4-1,1.3-3.4,1.6-5.2h1.3
			c-0.5,2.3-1.6,4.9-2.3,6.5H124.2z"/>
		<path class="st0" d="M129.5,75.1c0.5,0,0.9,0.4,0.9,0.9c0,0.5-0.4,0.9-0.9,0.9c-0.5,0-0.9-0.4-0.9-0.9
			C128.7,75.5,129.1,75.1,129.5,75.1z M128.9,77.9h1.2v6.5h-1.2V77.9z"/>
		<path class="st0" d="M137.3,78.9c0.2,0.4,0.2,0.9,0.2,1.7v3.8h-1.2V81c0-1,0-1.2-0.1-1.4c-0.1-0.4-0.5-0.7-1.1-0.7
			c-1,0-1.7,0.6-1.7,2.2v3.3h-1.2v-6.5h1.1c0.1,0.3,0.1,0.7,0.1,1c0.4-0.7,1-1.2,2.1-1.2C136.1,77.7,136.9,78,137.3,78.9z"/>
		<path class="st0" d="M143.5,84.2c-0.5,0.2-0.9,0.3-1.5,0.3c-1.8,0-2.9-1.4-2.9-3.4c0-2,1.1-3.4,2.9-3.4c0.6,0,1,0,1.5,0.3V79
			c-0.5-0.2-0.9-0.3-1.5-0.3c-1.2,0-1.6,0.9-1.6,2.3c0,1.4,0.5,2.3,1.6,2.3c0.6,0,1-0.1,1.5-0.3V84.2z"/>
		<path class="st0" d="M145.6,75.1c0.5,0,0.9,0.4,0.9,0.9c0,0.5-0.4,0.9-0.9,0.9c-0.5,0-0.9-0.4-0.9-0.9
			C144.7,75.5,145.1,75.1,145.6,75.1z M145,77.9h1.2v6.5H145V77.9z"/>
		<path class="st0" d="M149.9,81.8c-0.4,0.1-0.6,0.3-0.6,0.6c0,0.3,0.4,1,1.4,1c0.8,0,1.7-0.2,2.4-0.6v1c-0.6,0.4-1.4,0.6-2.4,0.6
			c-1.9,0-2.9-1.4-2.9-3.4c0-2,1.3-3.4,3-3.4c1.6,0,2.4,0.8,2.4,1.8c0,1.1-0.7,1.6-2,1.9L149.9,81.8z M149.1,81.2
			c0.1-0.1,0.4-0.3,0.7-0.3l1.1-0.3c0.7-0.2,1.1-0.5,1.1-1c0-0.6-0.4-0.9-1.1-0.9c-1.1,0-1.8,0.9-1.8,2.3V81.2z"/>
	</g>
	<g>
		<g>
			<path d="M10.4,69.1c-0.9-2.2-2.2-6.3-2.5-7.7c-0.3,1.4-1.6,5.6-2.5,7.7H3.5C2.2,66.5,0.9,61.9,0,58h2.3C2.8,61,3.7,65,4.4,66.8
				C5.2,65,6.2,61,6.9,58h1.9c0.7,3.1,1.8,7.1,2.5,8.8C12.1,65,13,61,13.5,58h2.3c-0.9,3.9-2.2,8.5-3.5,11.2H10.4z"/>
			<path d="M20.4,64.8c-0.7,0.2-1,0.5-1,1.1c0,0.6,0.7,1.7,2.4,1.7c1.4,0,3-0.4,4.2-1v1.8c-1.1,0.6-2.5,1-4.2,1c-3.3,0-5-2.3-5-5.8
				c0-3.5,2.2-5.8,5.2-5.8c2.8,0,4.1,1.4,4.1,3.2c0,1.9-1.2,2.8-3.5,3.3L20.4,64.8z M18.9,63.8c0.2-0.2,0.6-0.4,1.1-0.6l1.9-0.5
				c1.3-0.3,1.9-0.8,1.9-1.6c0-1-0.6-1.6-1.9-1.6c-1.9,0-3.1,1.6-3.1,4.1V63.8z"/>
			<path d="M35.3,58.4v1.8c-0.8-0.4-2.1-0.8-3.3-0.8c-1.1,0-1.8,0.5-1.8,1.3c0,0.8,0.4,1.1,1.9,1.6l1.2,0.4c1.8,0.6,2.6,1.6,2.6,3.1
				c0,2.3-1.6,3.5-4.5,3.5c-1.3,0-2.3-0.3-3.3-0.8v-1.9c0.8,0.4,2.1,0.9,3.3,0.9c1.5,0,2.3-0.5,2.3-1.5c0-0.8-0.5-1.2-1.8-1.6
				l-1.2-0.4c-1.6-0.5-2.7-1.4-2.7-3.3c0-1.7,1.2-3.2,4-3.2C33.4,57.7,34.6,58,35.3,58.4z"/>
			<path d="M38.8,59.7h-1.5V58h1.5v-2.7c0.2-0.1,1-0.4,2.1-0.5V58h2.8v1.7H41v5.7c0,1.7,0.2,2.1,1.5,2.1c0.5,0,1.3-0.2,1.6-0.3v1.9
				c-0.3,0.1-1,0.3-1.9,0.3c-2.5,0-3.3-1.4-3.3-3.9V59.7z"/>
			<path d="M54.9,69.1c-1.3-2.6-3.1-7.2-4-11.2h2.3c0.6,3.1,2,7.2,2.7,9c0.7-1.8,2.2-5.9,2.7-9h2.3c-0.9,3.9-2.8,8.5-4,11.2H54.9z"
				/>
			<path d="M62.6,53.3h2.1v12.3c0,1.3,0.2,1.7,1.1,1.7h0.5v1.8c-0.2,0-0.6,0.1-1,0.1c-1.8,0-2.7-1.1-2.7-3.5V53.3z"/>
			<path d="M76.5,69.1h-1.8c-0.2-0.4-0.2-0.7-0.2-1.2c-1.1,1.2-2.3,1.4-3.6,1.4c-1.8,0-3.2-1.4-3.2-3.2c0-1.5,0.8-2.8,3.4-3.5
				l1.9-0.5c1.1-0.3,1.5-0.6,1.5-1.3c0-0.7-0.6-1.3-2-1.3c-1.3,0-2.8,0.4-3.8,0.8v-1.8c1-0.5,2.5-0.8,3.8-0.8c2.6,0,4.1,1,4.1,4
				V69.1z M74.4,63.2c-0.2,0.2-0.4,0.4-0.9,0.5l-1.8,0.5c-1.6,0.5-1.9,1.1-1.9,1.8c0,1,0.7,1.6,1.6,1.6c1.9,0,3-1,3-2.3V63.2z"/>
			<path d="M87.7,69.1h-1.8c-0.2-0.4-0.2-0.7-0.2-1.2c-1.1,1.2-2.3,1.4-3.6,1.4c-1.8,0-3.2-1.4-3.2-3.2c0-1.5,0.8-2.8,3.4-3.5
				l1.9-0.5c1.1-0.3,1.5-0.6,1.5-1.3c0-0.7-0.6-1.3-2-1.3c-1.3,0-2.8,0.4-3.8,0.8v-1.8c1-0.5,2.5-0.8,3.8-0.8c2.6,0,4.1,1,4.1,4
				V69.1z M85.6,63.2c-0.2,0.2-0.4,0.4-0.9,0.5l-1.8,0.5C81.2,64.7,81,65.3,81,66c0,1,0.7,1.6,1.6,1.6c1.9,0,3-1,3-2.3V63.2z"/>
			<path d="M99.4,59.7c0.3,0.7,0.4,1.6,0.4,3v6.5h-2.1v-5.8c0-1.7-0.1-2-0.2-2.5c-0.2-0.7-0.8-1.2-1.8-1.2c-1.8,0-2.9,1.1-2.9,3.9
				v5.6h-2.1V58h1.8c0.2,0.4,0.2,1.2,0.2,1.7c0.6-1.2,1.7-2,3.6-2C97.5,57.7,98.8,58.2,99.4,59.7z"/>
			<path d="M111.8,69.1H110c-0.2-0.4-0.2-0.8-0.2-1.4c-0.7,1-1.6,1.6-3,1.6c-3.2,0-4.6-2.3-4.6-5.8c0-3.5,1.5-5.8,4.6-5.8
				c1.4,0,2.5,0.9,2.9,1.7v-6.2h2.1V69.1z M107,59.6c-2,0-2.6,1.6-2.6,4c0,2.4,0.6,4.1,2.6,4.1c2,0,2.7-1.6,2.7-4.1
				C109.7,61.2,109,59.6,107,59.6z"/>
			<path d="M117.8,64.8c-0.7,0.2-1,0.5-1,1.1c0,0.6,0.7,1.7,2.4,1.7c1.4,0,3-0.4,4.2-1v1.8c-1.1,0.6-2.5,1-4.2,1c-3.3,0-5-2.3-5-5.8
				c0-3.5,2.2-5.8,5.2-5.8c2.8,0,4.1,1.4,4.1,3.2c0,1.9-1.2,2.8-3.5,3.3L117.8,64.8z M116.3,63.8c0.2-0.2,0.6-0.4,1.1-0.6l1.9-0.5
				c1.3-0.3,1.9-0.8,1.9-1.6c0-1-0.6-1.6-1.9-1.6c-1.9,0-3.1,1.6-3.1,4.1V63.8z"/>
			<path d="M125.9,58h1.8c0.2,0.4,0.2,0.9,0.2,1.4c0.6-1,1.8-1.7,2.9-1.7c0.3,0,0.6,0,0.8,0.1v2.1c-0.4-0.1-0.7-0.2-1.1-0.2
				c-1.9,0-2.5,1-2.5,2.8v6.6h-2.1V58z"/>
			<path d="M136.1,64.8c-0.7,0.2-1,0.5-1,1.1c0,0.6,0.7,1.7,2.4,1.7c1.4,0,3-0.4,4.2-1v1.8c-1.1,0.6-2.5,1-4.2,1c-3.3,0-5-2.3-5-5.8
				c0-3.5,2.2-5.8,5.2-5.8c2.8,0,4.1,1.4,4.1,3.2c0,1.9-1.2,2.8-3.5,3.3L136.1,64.8z M134.6,63.8c0.2-0.2,0.6-0.4,1.1-0.6l1.9-0.5
				c1.3-0.3,1.9-0.8,1.9-1.6c0-1-0.6-1.6-1.9-1.6c-1.9,0-3.1,1.6-3.1,4.1V63.8z"/>
			<path d="M153,59.7c0.3,0.7,0.4,1.6,0.4,3v6.5h-2.1v-5.8c0-1.7-0.1-2-0.2-2.5c-0.2-0.7-0.8-1.2-1.8-1.2c-1.8,0-2.9,1.1-2.9,3.9
				v5.6h-2.1V58h1.8c0.2,0.4,0.2,1.2,0.2,1.7c0.6-1.2,1.7-2,3.6-2C151,57.7,152.3,58.2,153,59.7z"/>
		</g>
		<path d="M49.8,61.6h-5.2v1.8h5.8C50.2,62.8,50,62.2,49.8,61.6z"/>
	</g>
	<path class="st0" d="M113.5,25.7c12.9,1.9,23.5-7.1,32.5-14.4c-2.2,10.2,3.4,19.3,5,29.1c0.3,2,0.1,4,0.1,6
		c-11.6-1.7-22.6-5.4-31.8-14.7C116.9,29.5,115.2,27.9,113.5,25.7L113.5,25.7z"/>
	<path class="st0" d="M146,11.3c13.3-9.9,31.8-14.5,48.1-8.8c-7.4,5.5-10.1,15-10.8,24.2C172.7,17.8,158.6,15.1,146,11.3L146,11.3z"
		/>
	<path class="st0" d="M183.3,26.6c0,0-11.8,1.2-17.3,5.7c-4.6,3.7-4.6,4.7-7.8,8.1c-1.5,1.6-2,2.5-7.1,5.9c0,0,10.1,0.6,16.4,7
		c6.3,6.4,9.4,13.2,9.4,13.2s4.6-10.4,5.5-19.8c0.8-9.4,0.9-11.3,0.9-14.7C183.2,28.7,183.3,26.6,183.3,26.6z"/>
</g>
</svg>
