<?xml version="1.0" encoding="utf-8"?>
<!-- Generator: Adobe Illustrator 16.0.1, SVG Export Plug-In . SVG Version: 6.00 Build 0)  -->
<!DOCTYPE svg PUBLIC "-//W3C//DTD SVG 1.1//EN" "http://www.w3.org/Graphics/SVG/1.1/DTD/svg11.dtd">
<svg version="1.1" id="Layer_1" xmlns="http://www.w3.org/2000/svg" xmlns:xlink="http://www.w3.org/1999/xlink" x="0px" y="0px"
	 width="49px" height="50px" viewBox="0 0 49 50" enable-background="new 0 0 49 50" xml:space="preserve">
<path fill="#FFFFFF" d="M38.553,33.018c0-0.516-0.154-0.908-0.346-1.268l-0.684,1.816c0,0-0.479-0.088-0.479-0.225v-0.018
	c0.31-0.822,0.53-1.68,0.702-2.5c-0.172-0.377-0.309-0.842-0.309-1.439c0-0.549,0.119-1.234,0.394-2.125l1.284,0.377
	c-0.068,1.131-0.206,1.953-0.48,2.844c0.566,0.582,1.303,1.27,1.303,2.244c0,1.098-1.147,2.811-1.147,4.303
	c0,1.9,0.828,4.369,3.594,4.369c1.509,0,2.347-1.199,2.347-2.449c0-0.752-0.31-1.508-0.94-2.037l0.976-1.217
	c0.943,0.719,1.405,1.799,1.405,2.879c0,1.848-1.354,3.682-3.804,3.682c-3.182,0-4.946-3.018-4.946-5.244
	C37.42,35.416,38.553,33.891,38.553,33.018"/>
<path fill="#FFFFFF" d="M5.274,35.672c0.222,0.377,0.428,0.514,0.754,0.514c0.429,0,0.668-0.309,0.668-0.924
	c0-1.027-0.462-2.02-0.839-3.188c-0.6,1.662-1.387,3.443-2.382,5.398l-0.48-0.242c1.063-2.158,1.971-4.281,2.64-5.996
	c-0.138-0.531-0.207-1.096-0.207-1.695c0-0.703,0.103-1.475,0.378-2.314l1.371,0.242c-0.171,0.891-0.411,1.814-0.702,2.775
	c0.051,0.377,0.154,0.719,0.36,1.062c0.599,1.078,1.335,2.502,1.353,3.787v0.066c0.327-0.527,0.6-1.162,0.858-1.832
	c0.102,0,0.479,0.137,0.479,0.238c-0.446,1.164-1.045,2.264-1.713,3.102L7.727,36.77c-0.394,0.564-1.045,0.82-1.799,0.82
	c-0.805,0-1.456-0.463-1.696-1.164L5.274,35.672z"/>
<path fill="#FFFFFF" d="M10.894,29.607c0,0-0.343,1.422-0.771,3.615c-0.188,0.959-0.343,1.766-0.343,2.449
	c0,0.498,0.188,0.584,0.343,0.584c0.273,0,0.788-1.012,1.148-2.504l0.103-0.564c0.256-1.457,0.583-2.725,0.788-3.582h1.457
	c-0.6,2.674-1.097,4.662-1.097,6.064c0,0.498,0.188,0.584,0.343,0.584c0.446,0,1.011-0.961,1.766-2.93
	c0.083,0,0.479,0.117,0.479,0.221v0.02c-0.754,1.951-1.353,3.941-2.758,3.941c-0.754,0-1.096-0.566-1.2-1.406
	c-0.376,0.84-0.873,1.406-1.542,1.406c-0.907,0-1.217-0.824-1.217-1.973c0-0.701,0.12-1.523,0.275-2.35
	c0.428-2.227,0.771-3.58,0.771-3.58h1.455L10.894,29.607L10.894,29.607z"/>
<path fill="#FFFFFF" d="M13.774,37.422c0,0,0.154-1.559,0.633-2.846c0.343-1.938,0.634-3.668,0.839-4.969h1.475l-0.224,1.283
	c0.515-0.873,1.149-1.473,1.851-1.473c0.67,0,0.942,0.531,0.942,1.182c0,0.119-0.019,0.275-0.034,0.43
	c0.6-0.994,1.337-1.611,2.143-1.611c0.6,0,0.996,0.393,0.996,1.215c0,1.594-1.115,3.635-1.115,5.037
	c0,0.498,0.188,0.584,0.343,0.584c0.446,0,1.011-0.961,1.765-2.93c0.104,0,0.48,0.137,0.48,0.24
	c-0.754,1.953-1.525,3.941-2.932,3.941c-0.599,0-1.164-0.482-1.164-1.525c0-1.852,1.113-3.754,1.113-4.986
	c0-0.189-0.086-0.342-0.273-0.342c-0.43,0-1.199,0.822-1.783,3.34c-0.258,1.389-0.548,2.795-0.702,3.43h-1.56
	c0.41-1.885,1.199-5.553,1.199-6.289c0-0.275-0.084-0.361-0.223-0.361c-0.549,0-1.268,1.336-1.73,3.789l-0.549,2.861H13.774
	L13.774,37.422z"/>
<path fill="#FFFFFF" d="M22.53,37.422c0,0,0.155-1.559,0.634-2.846c0.343-1.938,0.634-3.668,0.84-4.969h1.473l-0.223,1.283
	c0.516-0.873,1.148-1.473,1.852-1.473c0.668,0,0.941,0.531,0.941,1.182c0,0.119-0.017,0.275-0.033,0.43
	c0.601-0.994,1.336-1.611,2.143-1.611c0.601,0,0.994,0.393,0.994,1.215c0,1.594-1.114,3.635-1.114,5.037
	c0,0.498,0.188,0.584,0.343,0.584c0.446,0,1.012-0.961,1.766-2.93c0.104,0,0.479,0.137,0.479,0.24
	c-0.752,1.953-1.523,3.941-2.93,3.941c-0.6,0-1.164-0.482-1.164-1.525c0-1.852,1.113-3.754,1.113-4.986
	c0-0.189-0.086-0.342-0.274-0.342c-0.429,0-1.199,0.822-1.781,3.34c-0.258,1.389-0.549,2.795-0.703,3.43h-1.56
	c0.412-1.885,1.199-5.553,1.199-6.289c0-0.275-0.086-0.361-0.221-0.361c-0.551,0-1.27,1.336-1.73,3.789l-0.549,2.861H22.53
	L22.53,37.422z"/>
<path fill="#FFFFFF" d="M37.044,33.326c0.103,0,0.479,0.137,0.479,0.24c-0.855,2.244-1.713,4.025-3.393,4.025
	c-1.492,0-2.107-1.371-2.107-2.98c0-2.33,1.285-5.176,3.205-5.176c0.854,0,1.283,0.617,1.283,1.406c0,1.215-1.027,2.861-3.051,3.188
	v0.256c0,1.027,0.293,1.85,1.081,1.85C35.553,36.135,36.393,35.072,37.044,33.326 M33.516,33.377
	c1.283-0.635,1.849-1.816,1.849-2.451c0-0.258-0.103-0.428-0.273-0.428C34.387,30.498,33.719,31.955,33.516,33.377"/>
<path fill="#FFFFFF" d="M3.31,42.996c0-0.883,0.194-1.564,0.582-2.039c0.388-0.479,0.943-0.715,1.664-0.715
	c0.379,0,0.708,0.064,0.99,0.195c0.282,0.131,0.517,0.318,0.704,0.561c0.186,0.242,0.326,0.531,0.416,0.871
	c0.09,0.334,0.136,0.709,0.136,1.125c0,0.883-0.197,1.561-0.586,2.039c-0.391,0.475-0.944,0.713-1.66,0.713
	c-0.382,0-0.716-0.064-0.999-0.197c-0.282-0.131-0.514-0.316-0.7-0.559c-0.184-0.24-0.321-0.533-0.412-0.867
	C3.355,43.783,3.31,43.408,3.31,42.996 M4.398,42.996c0,0.266,0.023,0.512,0.068,0.734c0.046,0.229,0.114,0.418,0.209,0.578
	c0.093,0.164,0.212,0.289,0.359,0.381c0.146,0.09,0.319,0.135,0.522,0.135c0.368,0,0.653-0.145,0.854-0.43
	c0.201-0.287,0.303-0.754,0.303-1.398c0-0.258-0.021-0.498-0.064-0.719s-0.11-0.416-0.201-0.582
	c-0.09-0.166-0.209-0.295-0.354-0.387c-0.147-0.096-0.325-0.143-0.537-0.143c-0.368,0-0.653,0.145-0.854,0.441
	C4.499,41.902,4.398,42.365,4.398,42.996"/>
<path fill="#FFFFFF" d="M5.556,45.891c-0.401,0-0.758-0.068-1.058-0.211c-0.304-0.141-0.556-0.342-0.754-0.604
	c-0.194-0.256-0.34-0.564-0.437-0.916c-0.094-0.352-0.141-0.742-0.141-1.164c0-0.912,0.208-1.629,0.614-2.131
	c0.416-0.508,1.013-0.768,1.775-0.768c0.398,0,0.75,0.072,1.05,0.211c0.303,0.141,0.559,0.346,0.757,0.604
	c0.197,0.256,0.346,0.564,0.441,0.918c0.094,0.35,0.14,0.742,0.14,1.166c0,0.91-0.208,1.627-0.618,2.127
	C6.908,45.633,6.312,45.891,5.556,45.891 M5.556,40.385c-0.682,0-1.19,0.217-1.553,0.66c-0.365,0.451-0.55,1.105-0.55,1.951
	c0,0.398,0.044,0.764,0.131,1.09C3.67,44.402,3.8,44.68,3.972,44.904c0.168,0.223,0.387,0.395,0.646,0.518
	c0.263,0.119,0.579,0.182,0.939,0.182c0.677,0,1.183-0.217,1.55-0.662c0.367-0.445,0.553-1.104,0.553-1.945
	c0-0.396-0.043-0.768-0.131-1.094c-0.086-0.312-0.217-0.592-0.392-0.814c-0.171-0.221-0.389-0.396-0.65-0.52
	C6.223,40.447,5.91,40.385,5.556,40.385 M5.556,44.969c-0.228,0-0.429-0.055-0.598-0.158c-0.165-0.102-0.302-0.246-0.408-0.43
	c-0.1-0.172-0.175-0.383-0.224-0.619c-0.047-0.229-0.071-0.488-0.071-0.766c0-0.668,0.106-1.148,0.327-1.469
	c0.228-0.336,0.556-0.506,0.973-0.506c0.238,0,0.444,0.055,0.613,0.162c0.166,0.105,0.303,0.256,0.405,0.441
	c0.098,0.18,0.168,0.389,0.215,0.623c0.045,0.229,0.066,0.48,0.066,0.748c0,0.68-0.106,1.164-0.328,1.48
	C6.297,44.803,5.97,44.969,5.556,44.969 M5.556,41.309c-0.322,0-0.563,0.123-0.736,0.379c-0.184,0.271-0.278,0.711-0.278,1.311
	c0,0.258,0.023,0.496,0.066,0.709c0.042,0.209,0.106,0.387,0.191,0.535c0.083,0.143,0.185,0.248,0.311,0.326
	c0.125,0.078,0.271,0.113,0.447,0.113c0.322,0,0.562-0.117,0.737-0.367C6.477,44.051,6.571,43.607,6.571,43
	c0-0.25-0.021-0.482-0.063-0.695c-0.04-0.205-0.102-0.387-0.185-0.537c-0.08-0.146-0.182-0.26-0.307-0.338
	C5.891,41.346,5.741,41.309,5.556,41.309"/>
<polygon fill="#FFFFFF" points="8.639,40.348 11.778,40.348 11.778,41.27 9.675,41.27 9.675,42.578 11.612,42.578 11.612,43.502 
	9.675,43.502 9.675,45.643 8.639,45.643 "/>
<path fill="#FFFFFF" d="M9.818,45.783H8.496v-5.578h3.424v1.211H9.818v1.02h1.936v1.209H9.818V45.783z M8.782,45.498h0.75v-2.139
	h1.936v-0.639H9.532v-1.592h2.103v-0.637H8.782V45.498z"/>
<rect x="3.539" y="46.643" fill="#FFFFFF" width="8.339" height="1.393"/>
<path fill="#FFFFFF" d="M20.204,47.182c-0.244,0.172-0.554,0.299-0.933,0.375c-0.377,0.072-0.764,0.111-1.16,0.111
	c-0.479,0-0.934-0.074-1.363-0.221c-0.432-0.15-0.809-0.389-1.137-0.721c-0.327-0.33-0.588-0.762-0.782-1.289
	c-0.194-0.529-0.291-1.172-0.291-1.926c0-0.783,0.108-1.441,0.326-1.971c0.217-0.529,0.5-0.955,0.845-1.279
	c0.348-0.322,0.732-0.557,1.16-0.697c0.427-0.141,0.852-0.211,1.279-0.211c0.457,0,0.844,0.031,1.16,0.09
	c0.315,0.062,0.578,0.135,0.781,0.219l-0.309,1.326c-0.176-0.084-0.383-0.146-0.624-0.184c-0.24-0.037-0.531-0.059-0.872-0.059
	c-0.633,0-1.143,0.229-1.525,0.676c-0.386,0.451-0.578,1.146-0.578,2.096c0,0.412,0.045,0.787,0.137,1.125
	c0.092,0.342,0.23,0.631,0.418,0.871c0.186,0.242,0.418,0.43,0.697,0.561c0.277,0.135,0.6,0.203,0.965,0.203
	c0.343,0,0.633-0.037,0.869-0.107c0.234-0.066,0.441-0.154,0.616-0.26L20.204,47.182z"/>
<path fill="#FFFFFF" d="M18.111,47.713c-0.481,0-0.945-0.078-1.377-0.225c-0.435-0.15-0.822-0.395-1.153-0.732
	c-0.331-0.336-0.599-0.775-0.792-1.307c-0.196-0.529-0.295-1.182-0.295-1.939c0-0.783,0.109-1.451,0.33-1.986
	c0.219-0.531,0.507-0.967,0.855-1.293c0.353-0.328,0.748-0.564,1.176-0.707c0.43-0.143,0.863-0.215,1.293-0.215
	c0.455,0,0.848,0.033,1.168,0.092c0.317,0.062,0.584,0.141,0.791,0.223l0.035,0.014l-0.33,1.414l-0.049-0.023
	c-0.173-0.082-0.377-0.145-0.611-0.178c-0.242-0.037-0.533-0.059-0.865-0.059c-0.617,0-1.118,0.223-1.492,0.66
	c-0.376,0.439-0.566,1.137-0.566,2.066c0,0.406,0.045,0.783,0.136,1.115c0.089,0.336,0.228,0.623,0.409,0.855
	c0.182,0.234,0.41,0.418,0.681,0.547c0.271,0.131,0.588,0.197,0.946,0.197c0.334,0,0.623-0.033,0.856-0.1
	c0.233-0.068,0.438-0.154,0.606-0.26l0.05-0.029l0.342,1.357l-0.024,0.016c-0.25,0.178-0.568,0.307-0.948,0.383
	C18.9,47.674,18.507,47.713,18.111,47.713 M18.146,39.396c-0.418,0-0.844,0.07-1.265,0.211c-0.417,0.135-0.802,0.367-1.144,0.686
	c-0.34,0.318-0.621,0.742-0.836,1.264c-0.213,0.523-0.322,1.184-0.322,1.953c0,0.746,0.098,1.389,0.288,1.91
	c0.19,0.52,0.45,0.949,0.772,1.277c0.322,0.324,0.699,0.564,1.121,0.707c0.424,0.146,0.879,0.221,1.35,0.221
	c0.39,0,0.777-0.035,1.152-0.113c0.355-0.07,0.654-0.186,0.892-0.35l-0.3-1.186c-0.164,0.094-0.357,0.176-0.576,0.238
	c-0.243,0.07-0.539,0.104-0.881,0.104c-0.371,0-0.702-0.066-0.984-0.207c-0.282-0.135-0.521-0.324-0.712-0.572
	c-0.188-0.242-0.332-0.539-0.425-0.887c-0.092-0.34-0.139-0.723-0.139-1.137c0-0.953,0.198-1.668,0.588-2.125
	c0.392-0.457,0.916-0.688,1.559-0.688c0.337,0,0.633,0.02,0.879,0.057c0.221,0.037,0.417,0.09,0.587,0.166l0.288-1.238
	c-0.197-0.078-0.445-0.145-0.74-0.201C18.984,39.426,18.598,39.396,18.146,39.396"/>
<path fill="#FFFFFF" d="M20.547,43.51c0-1.332,0.293-2.357,0.881-3.076c0.584-0.723,1.422-1.08,2.512-1.08
	c0.572,0,1.069,0.102,1.498,0.295c0.426,0.199,0.778,0.48,1.062,0.848c0.281,0.363,0.49,0.805,0.627,1.312
	c0.138,0.508,0.206,1.078,0.206,1.701c0,1.334-0.295,2.359-0.885,3.078c-0.59,0.721-1.426,1.082-2.508,1.082
	c-0.58,0-1.082-0.1-1.508-0.295c-0.426-0.199-0.779-0.48-1.056-0.846c-0.278-0.369-0.485-0.807-0.623-1.316
	C20.616,44.701,20.547,44.137,20.547,43.51 M22.191,43.51c0,0.404,0.033,0.775,0.103,1.113c0.069,0.342,0.173,0.631,0.315,0.877
	c0.14,0.244,0.32,0.434,0.543,0.572c0.221,0.137,0.482,0.207,0.787,0.207c0.557,0,0.986-0.219,1.291-0.652s0.457-1.141,0.457-2.115
	c0-0.389-0.03-0.752-0.098-1.084c-0.064-0.336-0.165-0.627-0.303-0.881c-0.137-0.25-0.314-0.447-0.537-0.588
	c-0.221-0.141-0.491-0.211-0.811-0.211c-0.557,0-0.987,0.223-1.291,0.668C22.343,41.859,22.191,42.559,22.191,43.51"/>
<path fill="#FFFFFF" d="M23.939,47.713c-0.582,0-1.096-0.102-1.527-0.301c-0.434-0.203-0.793-0.492-1.072-0.859
	s-0.49-0.811-0.631-1.33c-0.137-0.512-0.206-1.086-0.206-1.713c0-1.336,0.3-2.381,0.89-3.104c0.592-0.729,1.448-1.098,2.547-1.098
	c0.574,0,1.084,0.104,1.516,0.301c0.429,0.201,0.791,0.492,1.078,0.859c0.281,0.367,0.496,0.816,0.635,1.328
	c0.139,0.514,0.207,1.088,0.207,1.713c0,1.336-0.301,2.383-0.895,3.107C25.885,47.346,25.029,47.713,23.939,47.713 M23.939,39.396
	c-1.07,0-1.904,0.357-2.479,1.064c-0.577,0.707-0.87,1.73-0.87,3.049c0,0.615,0.069,1.186,0.204,1.689
	c0.138,0.506,0.345,0.941,0.616,1.301c0.27,0.355,0.62,0.637,1.04,0.832c0.42,0.191,0.921,0.291,1.491,0.291
	c1.062,0,1.896-0.355,2.473-1.062c0.581-0.711,0.876-1.734,0.876-3.053c0-0.617-0.067-1.186-0.204-1.689
	c-0.135-0.502-0.345-0.939-0.619-1.299c-0.275-0.357-0.628-0.639-1.048-0.832C24.999,39.496,24.502,39.396,23.939,39.396
	 M23.939,46.32c-0.312,0-0.586-0.072-0.812-0.217c-0.228-0.139-0.415-0.334-0.558-0.584c-0.143-0.248-0.249-0.545-0.318-0.885
	c-0.07-0.342-0.104-0.721-0.104-1.125c0-0.957,0.156-1.67,0.465-2.119c0.311-0.457,0.758-0.688,1.326-0.688
	c0.326,0,0.607,0.072,0.836,0.217c0.225,0.145,0.41,0.35,0.55,0.604c0.139,0.258,0.243,0.557,0.308,0.893
	c0.064,0.338,0.098,0.707,0.098,1.094c0,0.98-0.155,1.699-0.465,2.139C24.953,46.094,24.508,46.32,23.939,46.32 M23.939,40.789
	c-0.539,0-0.963,0.219-1.256,0.65c-0.299,0.434-0.449,1.131-0.449,2.07c0,0.4,0.033,0.77,0.102,1.107
	c0.066,0.332,0.172,0.619,0.311,0.857c0.136,0.236,0.313,0.424,0.528,0.559c0.212,0.133,0.47,0.197,0.765,0.197
	c0.539,0,0.961-0.213,1.256-0.633c0.299-0.424,0.449-1.127,0.449-2.09c0-0.381-0.031-0.744-0.097-1.076
	c-0.063-0.328-0.164-0.619-0.301-0.867c-0.131-0.24-0.308-0.436-0.521-0.568C24.514,40.857,24.25,40.789,23.939,40.789"/>
<path fill="#FFFFFF" d="M28.451,39.512c0.16-0.021,0.342-0.043,0.542-0.057c0.202-0.014,0.411-0.025,0.624-0.033
	c0.214-0.008,0.42-0.014,0.622-0.018s0.383-0.006,0.543-0.006c0.709,0,1.313,0.1,1.815,0.297c0.504,0.199,0.909,0.477,1.223,0.834
	c0.312,0.359,0.541,0.783,0.685,1.279c0.146,0.496,0.218,1.041,0.218,1.635c0,0.541-0.068,1.062-0.205,1.564
	c-0.139,0.502-0.365,0.949-0.687,1.338c-0.319,0.387-0.741,0.699-1.263,0.936c-0.521,0.236-1.166,0.355-1.938,0.355
	c-0.121,0-0.283-0.006-0.484-0.014c-0.203-0.008-0.41-0.018-0.627-0.029c-0.219-0.012-0.427-0.02-0.623-0.031
	c-0.197-0.014-0.348-0.025-0.445-0.039V39.512L28.451,39.512z M30.907,40.793c-0.167,0-0.337,0.004-0.507,0.012
	c-0.174,0.008-0.301,0.02-0.385,0.031v5.361c0.031,0.004,0.084,0.012,0.155,0.016c0.072,0.002,0.15,0.008,0.233,0.012
	c0.084,0.004,0.162,0.008,0.238,0.012c0.075,0.006,0.135,0.008,0.172,0.008c0.442,0,0.81-0.078,1.103-0.236
	c0.294-0.154,0.526-0.359,0.699-0.621c0.17-0.258,0.289-0.557,0.358-0.898c0.068-0.336,0.102-0.684,0.102-1.043
	c0-0.311-0.029-0.627-0.09-0.943c-0.062-0.316-0.174-0.6-0.338-0.848c-0.164-0.254-0.385-0.461-0.668-0.619
	C31.699,40.873,31.342,40.793,30.907,40.793"/>
<path fill="#FFFFFF" d="M30.633,47.678c-0.115,0-0.273-0.002-0.486-0.012c-0.201-0.008-0.41-0.016-0.629-0.029l-0.621-0.031
	c-0.219-0.016-0.357-0.025-0.449-0.043l-0.036-0.004v-8.082l0.036-0.008c0.158-0.02,0.338-0.043,0.545-0.057
	c0.222-0.016,0.427-0.027,0.626-0.035c0.213-0.008,0.419-0.012,0.622-0.016l0.103-0.002c0.162-0.004,0.31-0.006,0.442-0.006
	c0.707,0,1.322,0.102,1.83,0.301c0.509,0.201,0.925,0.484,1.24,0.848s0.549,0.797,0.691,1.295c0.146,0.496,0.221,1.049,0.221,1.646
	c0,0.543-0.068,1.072-0.207,1.578c-0.14,0.506-0.373,0.961-0.693,1.35c-0.32,0.393-0.751,0.713-1.277,0.949
	C32.061,47.559,31.402,47.678,30.633,47.678 M28.495,47.482c0.089,0.014,0.218,0.023,0.405,0.035l0.621,0.033
	c0.218,0.012,0.424,0.02,0.627,0.031c0.211,0.008,0.369,0.01,0.482,0.01c0.76,0,1.405-0.119,1.918-0.352
	c0.516-0.232,0.934-0.543,1.248-0.928c0.314-0.377,0.541-0.82,0.68-1.316c0.133-0.498,0.201-1.02,0.201-1.555
	c0-0.588-0.072-1.131-0.217-1.623c-0.141-0.482-0.367-0.908-0.675-1.26c-0.306-0.354-0.713-0.629-1.207-0.822
	c-0.496-0.195-1.103-0.295-1.799-0.295c-0.132,0-0.279,0.002-0.44,0.006h-0.102c-0.202,0.008-0.41,0.01-0.62,0.02
	c-0.2,0.004-0.402,0.016-0.623,0.031c-0.188,0.014-0.354,0.031-0.502,0.055L28.495,47.482L28.495,47.482z M30.816,46.285
	c-0.039,0-0.099-0.004-0.174-0.006c-0.043-0.002-0.084-0.004-0.129-0.006l-0.111-0.006c-0.068-0.002-0.133-0.006-0.195-0.01
	l-0.038-0.004c-0.073-0.004-0.128-0.01-0.162-0.02l-0.034-0.008v-5.428l0.035-0.006c0.084-0.016,0.207-0.027,0.391-0.037
	c0.17-0.006,0.343-0.01,0.51-0.01c0.439,0,0.809,0.082,1.096,0.246c0.285,0.16,0.516,0.371,0.684,0.631
	c0.166,0.254,0.281,0.545,0.343,0.865s0.093,0.641,0.093,0.949c0,0.361-0.034,0.715-0.104,1.055
	c-0.068,0.342-0.191,0.648-0.365,0.912c-0.176,0.266-0.415,0.48-0.715,0.639C31.643,46.203,31.264,46.285,30.816,46.285
	 M30.061,46.158c0.023,0.004,0.062,0.008,0.112,0.012h0.039c0.062,0.004,0.126,0.008,0.194,0.01l0.111,0.006
	c0.045,0.002,0.088,0.004,0.129,0.006c0.076,0.008,0.133,0.01,0.17,0.01c0.433,0,0.795-0.078,1.082-0.23
	c0.285-0.15,0.515-0.354,0.682-0.609c0.167-0.252,0.286-0.549,0.354-0.881c0.066-0.332,0.103-0.682,0.103-1.037
	c0-0.307-0.031-0.619-0.093-0.932c-0.06-0.312-0.17-0.594-0.328-0.838c-0.161-0.244-0.383-0.449-0.653-0.602
	c-0.274-0.156-0.629-0.234-1.053-0.234c-0.165,0-0.337,0.002-0.507,0.012c-0.152,0.006-0.264,0.018-0.342,0.027V46.158
	L30.061,46.158z"/>
<polygon fill="#FFFFFF" points="35.844,39.512 40.584,39.512 40.584,40.906 37.408,40.906 37.408,42.768 40.298,42.768 
	40.298,44.162 37.408,44.162 37.408,46.115 40.641,46.115 40.641,47.512 35.844,47.512 "/>
<path fill="#FFFFFF" d="M40.684,47.553h-4.885v-8.084h4.827v1.48h-3.175v1.775h2.891v1.48h-2.891v1.867h3.232V47.553L40.684,47.553z
	 M35.887,47.467h4.711v-1.309h-3.232v-2.041h2.89v-1.305h-2.89v-1.947h3.176v-1.311h-4.654V47.467L35.887,47.467z"/>
<path fill="#FFFFFF" d="M10.253,5.112c0,0.583-0.101,1.172-0.308,1.755C9.731,7.463,9.463,8.04,9.141,8.616
	C8.82,9.179,8.457,9.734,8.069,10.261c-0.395,0.526-0.784,1.02-1.159,1.454l-0.904,0.703V12.5l1.233-0.236h3.275v1.875H3.333V13
	c0.268-0.288,0.576-0.623,0.924-0.998c0.335-0.379,0.684-0.787,1.032-1.216C5.631,10.357,5.972,9.922,6.3,9.468
	C6.629,9.012,6.93,8.556,7.191,8.09C7.453,7.631,7.66,7.189,7.815,6.754C7.968,6.326,8.043,5.91,8.043,5.532
	c0-0.48-0.134-0.852-0.396-1.152c-0.268-0.306-0.69-0.453-1.272-0.453C6.013,3.927,5.631,4,5.256,4.154
	C4.874,4.302,4.553,4.503,4.292,4.739L3.407,3.165C3.85,2.809,4.352,2.512,4.914,2.292c0.563-0.22,1.22-0.327,1.99-0.327
	c0.489,0,0.938,0.066,1.347,0.2C8.66,2.3,9.015,2.501,9.309,2.763c0.295,0.262,0.529,0.589,0.703,0.979
	C10.173,4.126,10.253,4.588,10.253,5.112"/>
<path fill="#FFFFFF" d="M12.518,8.146c0-2.091,0.348-3.645,1.065-4.662c0.717-1.018,1.742-1.518,3.087-1.518
	c1.434,0,2.486,0.5,3.155,1.505c0.67,1.005,1.012,2.565,1.012,4.675s-0.362,3.672-1.084,4.695c-0.724,1.025-1.755,1.535-3.096,1.535
	c-1.421,0-2.472-0.543-3.134-1.607C12.839,11.697,12.518,10.157,12.518,8.146 M14.729,8.146c0,1.387,0.147,2.466,0.449,3.216
	c0.301,0.761,0.797,1.138,1.492,1.138c0.67,0,1.167-0.342,1.48-1.038c0.31-0.703,0.47-1.791,0.47-3.315
	c0-1.373-0.147-2.438-0.449-3.183c-0.288-0.757-0.798-1.132-1.507-1.132c-0.684,0-1.18,0.356-1.48,1.065
	C14.876,5.594,14.729,6.68,14.729,8.146"/>
<polygon fill="#FFFFFF" points="23.223,12.26 25.588,12.26 25.588,5.527 25.85,4.361 25.03,5.374 23.518,6.404 22.573,5.131 
	26.465,1.991 27.711,1.991 27.711,12.26 30.027,12.26 30.027,14.135 23.223,14.135 "/>
<polygon fill="#FFFFFF" points="32.721,12.26 35.086,12.26 35.086,5.527 35.348,4.361 34.527,5.374 33.016,6.404 32.071,5.131 
	35.963,1.991 37.209,1.991 37.209,12.26 39.525,12.26 39.525,14.135 32.721,14.135 "/>
<g>
	<path fill="#FFFFFF" d="M7.082,17.074c0-0.318,0.118-0.589,0.353-0.814c0.235-0.224,0.562-0.336,0.977-0.336
		c0.416,0,0.754,0.112,1.011,0.336c0.258,0.225,0.386,0.497,0.386,0.814c0,0.317-0.128,0.583-0.386,0.796
		c-0.257,0.213-0.594,0.32-1.011,0.32c-0.416,0-0.742-0.107-0.977-0.32C7.199,17.656,7.082,17.391,7.082,17.074z M7.394,19.389
		h2.135v8.213H7.394V19.389z"/>
	<path fill="#FFFFFF" d="M11.665,16.218c0.251-0.043,0.522-0.084,0.812-0.122c0.291-0.038,0.581-0.069,0.871-0.092
		c0.29-0.021,0.572-0.037,0.845-0.048c0.274-0.011,0.525-0.016,0.756-0.016c0.537,0,1.064,0.049,1.585,0.148
		c0.521,0.099,0.986,0.268,1.396,0.509c0.412,0.241,0.74,0.572,0.986,0.994c0.246,0.422,0.369,0.95,0.369,1.585
		c0,0.942-0.219,1.708-0.656,2.299c-0.438,0.591-0.72,0.892-1.453,1.122l0.5,0.62l2.629,4.386H17.71l-2.611-4.501l-1.183-0.212
		v4.713h-2.25L11.665,16.218L11.665,16.218z M15.115,17.943c-0.231,0-0.459,0.006-0.683,0.017s-0.396,0.032-0.519,0.064v3.335h0.954
		c0.624,0,1.122-0.143,1.494-0.427c0.372-0.285,0.56-0.756,0.56-1.413c0-0.494-0.155-0.879-0.461-1.158
		C16.155,18.083,15.705,17.943,15.115,17.943z"/>
	<path fill="#FFFFFF" d="M21.455,19.866c0.438-0.197,0.957-0.354,1.561-0.469c0.602-0.115,1.231-0.172,1.889-0.172
		c0.57,0,1.046,0.069,1.43,0.205c0.383,0.138,0.688,0.332,0.911,0.584c0.225,0.252,0.384,0.553,0.478,0.904
		c0.093,0.35,0.139,0.745,0.139,1.182c0,0.481-0.016,0.967-0.049,1.454c-0.034,0.487-0.051,0.966-0.057,1.436
		c-0.006,0.473,0.008,0.93,0.041,1.374s0.115,0.863,0.246,1.256h-1.741l-0.345-1.131h-0.082c-0.22,0.336-0.523,0.631-0.912,0.879
		c-0.389,0.244-0.89,0.367-1.503,0.367c-0.384,0-0.728-0.057-1.035-0.17c-0.306-0.115-0.568-0.281-0.788-0.494
		c-0.219-0.213-0.388-0.465-0.509-0.758c-0.121-0.289-0.182-0.613-0.182-0.976c0-0.503,0.113-0.929,0.338-1.272
		c0.224-0.346,0.547-0.625,0.968-0.838c0.423-0.213,0.926-0.361,1.513-0.443c0.586-0.083,1.241-0.106,1.962-0.075
		c0.078-0.613,0.034-1.052-0.131-1.322c-0.164-0.268-0.532-0.402-1.101-0.402c-0.427,0-0.879,0.044-1.355,0.131
		s-0.868,0.203-1.174,0.345L21.455,19.866z M24.165,25.978c0.427,0,0.767-0.098,1.019-0.289c0.251-0.192,0.438-0.396,0.559-0.616
		v-1.067c-0.34-0.034-0.665-0.038-0.979-0.017c-0.312,0.022-0.588,0.071-0.829,0.148s-0.432,0.186-0.574,0.328
		c-0.142,0.143-0.215,0.324-0.215,0.542c0,0.307,0.092,0.546,0.272,0.715C23.598,25.892,23.848,25.978,24.165,25.978z"/>
	<path fill="#FFFFFF" d="M29.535,17.074c0-0.318,0.119-0.589,0.354-0.814c0.235-0.224,0.562-0.336,0.978-0.336
		s0.754,0.112,1.011,0.336c0.258,0.225,0.386,0.497,0.386,0.814c0,0.317-0.128,0.583-0.386,0.796
		c-0.259,0.213-0.596,0.32-1.011,0.32c-0.417,0-0.742-0.107-0.978-0.32C29.654,17.656,29.535,17.391,29.535,17.074z M29.848,19.389
		h2.137v8.213h-2.137V19.389z"/>
	<path fill="#FFFFFF" d="M36.271,24.841c0,0.386,0.048,0.666,0.146,0.841c0.1,0.174,0.259,0.26,0.477,0.26
		c0.132,0,0.261-0.01,0.387-0.031c0.125-0.023,0.281-0.072,0.469-0.148l0.229,1.676c-0.175,0.088-0.444,0.174-0.805,0.264
		c-0.36,0.086-0.733,0.131-1.116,0.131c-0.625,0-1.101-0.146-1.431-0.436c-0.328-0.291-0.492-0.77-0.492-1.438v-9.856h2.136V24.841z
		"/>
</g>
</svg>
