<?xml version="1.0" encoding="utf-8"?>
<!-- Generator: Adobe Illustrator 16.0.1, SVG Export Plug-In . SVG Version: 6.00 Build 0)  -->
<!DOCTYPE svg PUBLIC "-//W3C//DTD SVG 1.1//EN" "http://www.w3.org/Graphics/SVG/1.1/DTD/svg11.dtd">
<svg version="1.1" id="Layer_1" xmlns="http://www.w3.org/2000/svg" xmlns:xlink="http://www.w3.org/1999/xlink" x="0px" y="0px"
	 width="49px" height="50px" viewBox="0 0 49 50" enable-background="new 0 0 49 50" xml:space="preserve">
<rect x="-3.25" y="-3.125" display="none" fill="#828282" width="56.5" height="56.5"/>
<g>
	<path fill="#FFFFFF" d="M5.13,21.813c0,0.565,0.048,1.084,0.144,1.559c0.096,0.475,0.243,0.882,0.439,1.224
		c0.197,0.34,0.451,0.607,0.759,0.799c0.309,0.191,0.676,0.287,1.103,0.287c0.778,0,1.379-0.302,1.806-0.911
		c0.425-0.607,0.64-1.593,0.64-2.957c0-0.544-0.046-1.05-0.136-1.519c-0.09-0.469-0.232-0.879-0.423-1.231
		C9.27,18.711,9.02,18.438,8.71,18.24c-0.309-0.197-0.688-0.295-1.134-0.295c-0.778,0-1.38,0.311-1.807,0.935
		C5.343,19.503,5.13,20.481,5.13,21.813 M2.828,21.813c0-1.864,0.41-3.302,1.231-4.309c0.82-1.008,1.993-1.511,3.517-1.511
		c0.799,0,1.497,0.138,2.094,0.416c0.598,0.277,1.093,0.671,1.488,1.183c0.394,0.512,0.687,1.125,0.878,1.838
		c0.192,0.715,0.289,1.508,0.289,2.382c0,1.864-0.414,3.301-1.239,4.307c-0.826,1.008-1.996,1.51-3.509,1.51
		c-0.811,0-1.514-0.137-2.11-0.414c-0.597-0.277-1.089-0.672-1.479-1.184c-0.39-0.512-0.68-1.124-0.871-1.837
		C2.925,23.481,2.828,22.687,2.828,21.813"/>
	<path fill="#FFFFFF" d="M13.889,16.33c0.449-0.085,0.941-0.152,1.479-0.199c0.538-0.048,1.074-0.072,1.606-0.072
		c0.554,0,1.11,0.046,1.67,0.135c0.56,0.091,1.062,0.272,1.51,0.544c0.447,0.271,0.812,0.647,1.095,1.134
		c0.283,0.486,0.423,1.117,0.423,1.895c0,0.703-0.121,1.298-0.367,1.782c-0.244,0.485-0.569,0.882-0.975,1.191
		c-0.404,0.309-0.865,0.532-1.383,0.671c-0.518,0.139-1.053,0.208-1.605,0.208h-0.256c-0.117,0-0.24-0.002-0.367-0.008
		c-0.129-0.005-0.254-0.013-0.375-0.024c-0.123-0.011-0.211-0.021-0.265-0.032v3.851h-2.19V16.33z M17.15,17.945
		c-0.215,0-0.415,0.007-0.607,0.024c-0.191,0.016-0.347,0.034-0.464,0.055v3.629c0.042,0.01,0.106,0.021,0.192,0.032
		c0.084,0.012,0.175,0.019,0.271,0.024c0.095,0.005,0.188,0.008,0.28,0.008h0.2c0.286,0,0.571-0.026,0.854-0.081
		c0.282-0.052,0.535-0.151,0.76-0.295c0.224-0.143,0.401-0.343,0.535-0.599c0.133-0.255,0.199-0.591,0.199-1.007
		c0-0.352-0.064-0.642-0.191-0.871c-0.127-0.229-0.295-0.413-0.504-0.551c-0.207-0.139-0.445-0.234-0.711-0.289
		C17.699,17.971,17.428,17.945,17.15,17.945"/>
	<polygon fill="#FFFFFF" points="23.032,16.217 29.666,16.217 29.666,18.169 25.223,18.169 25.223,20.773 29.266,20.773 
		29.266,22.723 25.223,22.723 25.223,25.458 29.746,25.458 29.746,27.406 23.032,27.406 	"/>
	<path fill="#FFFFFF" d="M38.553,33.018c0-0.516-0.154-0.908-0.346-1.268l-0.684,1.816c0,0-0.479-0.088-0.479-0.228v-0.018
		c0.31-0.822,0.529-1.681,0.701-2.5c-0.172-0.378-0.31-0.843-0.31-1.439c0-0.549,0.119-1.231,0.395-2.125l1.284,0.377
		c-0.068,1.134-0.206,1.953-0.48,2.847c0.566,0.582,1.306,1.271,1.306,2.244c0,1.098-1.147,2.811-1.147,4.303
		c0,1.897,0.828,4.369,3.597,4.369c1.508,0,2.346-1.199,2.346-2.449c0-0.752-0.311-1.508-0.939-2.037l0.977-1.217
		c0.942,0.719,1.405,1.799,1.405,2.879c0,1.85-1.354,3.684-3.805,3.684c-3.183,0-4.945-3.02-4.945-5.244
		C37.42,35.416,38.553,33.891,38.553,33.018"/>
	<path fill="#FFFFFF" d="M5.274,35.672c0.222,0.377,0.428,0.514,0.754,0.514c0.429,0,0.668-0.309,0.668-0.924
		c0-1.027-0.462-2.021-0.839-3.188c-0.6,1.662-1.387,3.443-2.382,5.398l-0.48-0.242c1.063-2.158,1.971-4.281,2.64-5.996
		c-0.138-0.531-0.207-1.099-0.207-1.695c0-0.703,0.103-1.475,0.378-2.314l1.37,0.242c-0.171,0.891-0.411,1.814-0.702,2.775
		c0.051,0.377,0.154,0.719,0.36,1.062c0.599,1.078,1.335,2.503,1.353,3.787v0.064c0.327-0.525,0.6-1.162,0.858-1.832
		c0.102,0,0.479,0.139,0.479,0.239c-0.446,1.164-1.045,2.263-1.713,3.103L7.726,36.77c-0.394,0.564-1.045,0.82-1.799,0.82
		c-0.805,0-1.456-0.463-1.696-1.164L5.274,35.672z"/>
	<path fill="#FFFFFF" d="M10.894,29.607c0,0-0.343,1.422-0.771,3.615C9.935,34.182,9.78,34.988,9.78,35.67
		c0,0.498,0.188,0.584,0.343,0.584c0.273,0,0.788-1.012,1.148-2.504l0.103-0.562c0.256-1.457,0.583-2.727,0.788-3.582h1.457
		c-0.6,2.675-1.097,4.662-1.097,6.062c0,0.498,0.188,0.584,0.343,0.584c0.445,0,1.011-0.961,1.766-2.93
		c0.084,0,0.479,0.117,0.479,0.221v0.021c-0.754,1.951-1.353,3.938-2.759,3.938c-0.754,0-1.096-0.563-1.2-1.403
		c-0.376,0.84-0.873,1.403-1.542,1.403c-0.907,0-1.217-0.821-1.217-1.973c0-0.701,0.12-1.523,0.275-2.351
		c0.428-2.227,0.771-3.58,0.771-3.58h1.455L10.894,29.607L10.894,29.607z"/>
	<path fill="#FFFFFF" d="M13.774,37.422c0,0,0.153-1.559,0.633-2.846c0.343-1.938,0.634-3.668,0.839-4.969h1.475l-0.224,1.283
		c0.515-0.873,1.149-1.476,1.851-1.476c0.67,0,0.942,0.528,0.942,1.185c0,0.116-0.018,0.272-0.034,0.43
		c0.601-0.994,1.338-1.611,2.144-1.611c0.599,0,0.995,0.393,0.995,1.215c0,1.594-1.115,3.635-1.115,5.037
		c0,0.498,0.188,0.584,0.343,0.584c0.446,0,1.011-0.961,1.765-2.93c0.104,0,0.48,0.137,0.48,0.24
		c-0.754,1.953-1.525,3.938-2.932,3.938c-0.598,0-1.164-0.479-1.164-1.522c0-1.854,1.113-3.754,1.113-4.986
		c0-0.189-0.086-0.342-0.273-0.342c-0.43,0-1.199,0.822-1.783,3.34c-0.257,1.389-0.548,2.795-0.702,3.43h-1.56
		c0.41-1.885,1.199-5.553,1.199-6.289c0-0.275-0.084-0.361-0.223-0.361c-0.549,0-1.268,1.336-1.73,3.789l-0.549,2.861H13.774
		L13.774,37.422z"/>
	<path fill="#FFFFFF" d="M22.53,37.422c0,0,0.155-1.559,0.634-2.846c0.344-1.938,0.635-3.668,0.84-4.969h1.473l-0.223,1.283
		c0.516-0.873,1.148-1.476,1.852-1.476c0.67,0,0.941,0.528,0.941,1.185c0,0.116-0.018,0.272-0.033,0.43
		c0.604-0.994,1.336-1.611,2.146-1.611c0.602,0,0.991,0.393,0.991,1.215c0,1.594-1.111,3.635-1.111,5.037
		c0,0.498,0.188,0.584,0.343,0.584c0.446,0,1.015-0.961,1.769-2.93c0.104,0,0.479,0.137,0.479,0.24
		c-0.752,1.953-1.523,3.938-2.93,3.938c-0.6,0-1.164-0.479-1.164-1.522c0-1.854,1.113-3.754,1.113-4.986
		c0-0.189-0.086-0.342-0.274-0.342c-0.429,0-1.198,0.822-1.78,3.34c-0.259,1.389-0.55,2.795-0.703,3.43H25.33
		c0.412-1.885,1.199-5.553,1.199-6.289c0-0.275-0.086-0.361-0.221-0.361c-0.554,0-1.271,1.336-1.73,3.789l-0.549,2.861H22.53
		L22.53,37.422z"/>
	<path fill="#FFFFFF" d="M37.045,33.326c0.104,0,0.479,0.137,0.479,0.24c-0.854,2.244-1.713,4.022-3.394,4.022
		c-1.491,0-2.106-1.371-2.106-2.979c0-2.329,1.285-5.176,3.205-5.176c0.854,0,1.282,0.615,1.282,1.404
		c0,1.217-1.026,2.859-3.051,3.188v0.258c0,1.025,0.293,1.85,1.081,1.85C35.553,36.135,36.393,35.072,37.045,33.326 M33.514,33.377
		c1.285-0.635,1.853-1.816,1.853-2.451c0-0.258-0.104-0.428-0.273-0.428C34.387,30.498,33.719,31.955,33.514,33.377"/>
	<path fill="#FFFFFF" d="M3.309,42.996c0-0.883,0.194-1.564,0.582-2.039c0.388-0.479,0.943-0.715,1.664-0.715
		c0.379,0,0.708,0.064,0.99,0.195c0.282,0.131,0.517,0.315,0.704,0.561c0.186,0.242,0.326,0.531,0.416,0.871
		c0.09,0.334,0.136,0.709,0.136,1.125c0,0.883-0.197,1.561-0.586,2.039c-0.391,0.475-0.944,0.713-1.66,0.713
		c-0.382,0-0.716-0.064-0.999-0.197c-0.282-0.131-0.514-0.316-0.7-0.559c-0.184-0.24-0.321-0.533-0.412-0.867
		C3.355,43.783,3.309,43.408,3.309,42.996 M4.398,42.996c0,0.266,0.023,0.512,0.068,0.734c0.046,0.229,0.114,0.418,0.209,0.578
		c0.093,0.164,0.212,0.289,0.359,0.381c0.146,0.09,0.319,0.135,0.522,0.135c0.368,0,0.653-0.146,0.854-0.43
		c0.201-0.287,0.303-0.754,0.303-1.398c0-0.258-0.021-0.498-0.064-0.719s-0.11-0.416-0.201-0.582
		c-0.09-0.166-0.209-0.295-0.354-0.387c-0.147-0.099-0.325-0.146-0.537-0.146c-0.368,0-0.653,0.146-0.854,0.441
		C4.499,41.902,4.398,42.365,4.398,42.996"/>
	<path fill="#FFFFFF" d="M5.555,45.891c-0.401,0-0.758-0.067-1.058-0.211c-0.304-0.141-0.556-0.342-0.754-0.604
		c-0.194-0.256-0.34-0.564-0.437-0.916c-0.094-0.352-0.141-0.742-0.141-1.164c0-0.912,0.208-1.629,0.614-2.131
		c0.416-0.508,1.013-0.768,1.775-0.768c0.398,0,0.75,0.069,1.05,0.211c0.303,0.141,0.559,0.346,0.757,0.604
		c0.197,0.256,0.346,0.564,0.441,0.918c0.094,0.35,0.14,0.742,0.14,1.166c0,0.91-0.208,1.627-0.618,2.127
		C6.908,45.633,6.312,45.891,5.555,45.891 M5.555,40.385c-0.682,0-1.19,0.217-1.553,0.66c-0.365,0.451-0.55,1.105-0.55,1.951
		c0,0.398,0.044,0.764,0.131,1.09c0.086,0.316,0.216,0.594,0.388,0.818c0.168,0.223,0.387,0.395,0.646,0.518
		c0.263,0.119,0.579,0.182,0.939,0.182c0.677,0,1.183-0.217,1.55-0.662c0.367-0.444,0.553-1.104,0.553-1.944
		c0-0.396-0.043-0.769-0.131-1.095c-0.086-0.312-0.217-0.592-0.392-0.812c-0.171-0.223-0.389-0.396-0.65-0.521
		C6.222,40.447,5.909,40.385,5.555,40.385 M5.555,44.969c-0.228,0-0.429-0.055-0.598-0.158c-0.165-0.102-0.302-0.246-0.408-0.43
		c-0.1-0.172-0.175-0.383-0.224-0.619c-0.047-0.229-0.071-0.488-0.071-0.766c0-0.668,0.106-1.148,0.327-1.469
		c0.228-0.336,0.556-0.506,0.973-0.506c0.238,0,0.444,0.055,0.613,0.162c0.166,0.104,0.303,0.256,0.405,0.438
		c0.098,0.18,0.168,0.389,0.215,0.621c0.045,0.229,0.066,0.479,0.066,0.748c0,0.682-0.106,1.164-0.328,1.479
		C6.297,44.803,5.97,44.969,5.555,44.969 M5.555,41.309c-0.322,0-0.563,0.123-0.736,0.379c-0.184,0.271-0.278,0.711-0.278,1.312
		c0,0.26,0.023,0.496,0.066,0.709c0.042,0.211,0.106,0.39,0.191,0.535c0.083,0.145,0.185,0.248,0.311,0.325
		c0.125,0.078,0.271,0.113,0.447,0.113c0.322,0,0.562-0.117,0.737-0.367C6.476,44.051,6.57,43.607,6.57,43
		c0-0.25-0.021-0.482-0.063-0.695c-0.04-0.205-0.102-0.387-0.185-0.537c-0.08-0.146-0.182-0.26-0.307-0.338
		C5.89,41.346,5.741,41.309,5.555,41.309"/>
	<polygon fill="#FFFFFF" points="8.639,40.348 11.778,40.348 11.778,41.27 9.675,41.27 9.675,42.578 11.612,42.578 11.612,43.502 
		9.675,43.502 9.675,45.643 8.639,45.643 	"/>
	<path fill="#FFFFFF" d="M9.818,45.783H8.496v-5.578h3.424v1.211H9.818v1.02h1.936v1.209H9.818V45.783z M8.782,45.498h0.75v-2.139
		h1.936v-0.642H9.532v-1.592h2.103V40.49H8.782V45.498z"/>
	<rect x="3.539" y="46.643" fill="#FFFFFF" width="8.339" height="1.394"/>
	<path fill="#FFFFFF" d="M20.203,47.182c-0.244,0.172-0.554,0.299-0.932,0.375c-0.377,0.072-0.764,0.111-1.16,0.111
		c-0.479,0-0.934-0.074-1.364-0.221c-0.431-0.15-0.809-0.389-1.136-0.721c-0.328-0.33-0.588-0.765-0.783-1.289
		c-0.193-0.529-0.291-1.172-0.291-1.929c0-0.78,0.109-1.438,0.326-1.971c0.217-0.53,0.5-0.955,0.845-1.279
		c0.349-0.319,0.733-0.559,1.16-0.694c0.427-0.144,0.853-0.211,1.28-0.211c0.457,0,0.843,0.028,1.158,0.09
		c0.316,0.062,0.578,0.135,0.783,0.219l-0.31,1.326c-0.175-0.084-0.383-0.146-0.624-0.187c-0.24-0.034-0.531-0.061-0.872-0.061
		c-0.633,0-1.142,0.229-1.524,0.678c-0.387,0.449-0.578,1.146-0.578,2.099c0,0.409,0.045,0.784,0.137,1.125
		c0.091,0.342,0.23,0.631,0.417,0.869c0.187,0.241,0.418,0.432,0.696,0.562c0.278,0.135,0.601,0.203,0.966,0.203
		c0.343,0,0.633-0.037,0.868-0.107c0.235-0.066,0.442-0.154,0.617-0.26L20.203,47.182z"/>
	<path fill="#FFFFFF" d="M18.112,47.713c-0.481,0-0.946-0.078-1.378-0.225c-0.434-0.15-0.822-0.396-1.153-0.732
		s-0.598-0.775-0.792-1.307c-0.195-0.529-0.295-1.182-0.295-1.939c0-0.783,0.109-1.451,0.33-1.986
		c0.219-0.53,0.507-0.967,0.855-1.293c0.353-0.328,0.748-0.562,1.176-0.707c0.43-0.143,0.863-0.215,1.293-0.215
		c0.455,0,0.848,0.033,1.168,0.092c0.318,0.062,0.584,0.144,0.791,0.224l0.035,0.019l-0.33,1.411l-0.049-0.021
		c-0.172-0.082-0.377-0.146-0.611-0.178c-0.242-0.037-0.533-0.062-0.865-0.062c-0.617,0-1.117,0.226-1.492,0.658
		c-0.375,0.438-0.566,1.139-0.566,2.065c0,0.406,0.045,0.783,0.136,1.115c0.089,0.336,0.228,0.623,0.409,0.855
		c0.182,0.234,0.41,0.418,0.681,0.547c0.271,0.131,0.588,0.197,0.947,0.197c0.334,0,0.622-0.033,0.856-0.103
		c0.232-0.065,0.438-0.151,0.605-0.262l0.05-0.027l0.343,1.355l-0.025,0.018c-0.249,0.181-0.568,0.31-0.948,0.386
		C18.9,47.674,18.508,47.713,18.112,47.713 M18.147,39.396c-0.419,0-0.845,0.067-1.265,0.211c-0.418,0.135-0.803,0.367-1.145,0.688
		c-0.34,0.316-0.621,0.74-0.835,1.264c-0.214,0.521-0.323,1.185-0.323,1.953c0,0.746,0.098,1.389,0.288,1.91
		c0.19,0.52,0.451,0.947,0.772,1.275c0.322,0.324,0.699,0.562,1.121,0.707c0.424,0.146,0.879,0.223,1.351,0.223
		c0.389,0,0.776-0.035,1.151-0.113c0.355-0.07,0.654-0.188,0.892-0.352l-0.299-1.186c-0.165,0.094-0.358,0.176-0.577,0.235
		c-0.243,0.07-0.539,0.104-0.881,0.104c-0.37,0-0.702-0.066-0.984-0.207c-0.281-0.135-0.521-0.324-0.712-0.572
		c-0.188-0.242-0.332-0.539-0.425-0.887c-0.092-0.34-0.139-0.724-0.139-1.138c0-0.952,0.199-1.668,0.588-2.125
		c0.392-0.456,0.916-0.688,1.559-0.688c0.337,0,0.633,0.021,0.879,0.057c0.221,0.037,0.417,0.093,0.587,0.166l0.288-1.235
		c-0.197-0.078-0.445-0.146-0.74-0.201C18.985,39.426,18.598,39.396,18.147,39.396"/>
	<path fill="#FFFFFF" d="M20.547,43.51c0-1.332,0.293-2.357,0.881-3.076c0.584-0.723,1.422-1.08,2.513-1.08
		c0.571,0,1.069,0.103,1.497,0.295c0.429,0.199,0.779,0.48,1.062,0.849c0.281,0.362,0.49,0.807,0.627,1.312
		c0.139,0.508,0.206,1.078,0.206,1.701c0,1.334-0.295,2.359-0.885,3.078c-0.591,0.721-1.427,1.082-2.507,1.082
		c-0.58,0-1.082-0.1-1.509-0.295c-0.426-0.199-0.778-0.48-1.056-0.846c-0.278-0.369-0.485-0.807-0.622-1.316
		C20.616,44.701,20.547,44.137,20.547,43.51 M22.191,43.51c0,0.404,0.033,0.775,0.104,1.113c0.068,0.342,0.172,0.631,0.314,0.877
		c0.14,0.244,0.32,0.434,0.543,0.572c0.221,0.137,0.482,0.207,0.788,0.207c0.556,0,0.985-0.219,1.291-0.652
		c0.307-0.434,0.457-1.141,0.457-2.115c0-0.389-0.028-0.752-0.099-1.084c-0.063-0.336-0.164-0.627-0.303-0.881
		c-0.138-0.25-0.314-0.447-0.537-0.588c-0.221-0.141-0.49-0.211-0.811-0.211c-0.557,0-0.987,0.223-1.291,0.668
		C22.344,41.859,22.191,42.559,22.191,43.51"/>
	<path fill="#FFFFFF" d="M23.939,47.713c-0.582,0-1.096-0.102-1.527-0.301c-0.434-0.203-0.793-0.492-1.072-0.859
		c-0.279-0.367-0.49-0.812-0.631-1.33c-0.137-0.512-0.205-1.086-0.205-1.713c0-1.336,0.299-2.381,0.889-3.104
		c0.593-0.729,1.449-1.098,2.547-1.098c0.574,0,1.083,0.104,1.516,0.301c0.43,0.201,0.791,0.492,1.078,0.856
		c0.28,0.367,0.495,0.814,0.635,1.328c0.14,0.517,0.207,1.088,0.207,1.713c0,1.336-0.301,2.386-0.896,3.104
		C25.885,47.346,25.029,47.713,23.939,47.713 M23.939,39.396c-1.07,0-1.904,0.354-2.479,1.062c-0.577,0.707-0.87,1.729-0.87,3.049
		c0,0.615,0.069,1.188,0.205,1.689c0.137,0.506,0.344,0.94,0.615,1.301c0.27,0.354,0.62,0.637,1.04,0.832
		c0.42,0.19,0.921,0.291,1.491,0.291c1.062,0,1.896-0.354,2.473-1.062c0.581-0.711,0.876-1.734,0.876-3.054
		c0-0.617-0.067-1.188-0.204-1.688c-0.135-0.502-0.345-0.939-0.619-1.299c-0.275-0.357-0.627-0.64-1.047-0.832
		C24.999,39.496,24.502,39.396,23.939,39.396 M23.939,46.32c-0.312,0-0.586-0.07-0.811-0.217c-0.228-0.142-0.416-0.334-0.559-0.584
		c-0.143-0.248-0.249-0.545-0.318-0.888c-0.07-0.342-0.104-0.721-0.104-1.125c0-0.957,0.156-1.67,0.465-2.116
		c0.311-0.457,0.758-0.688,1.327-0.688c0.325,0,0.606,0.073,0.835,0.217c0.225,0.146,0.41,0.351,0.55,0.604
		c0.14,0.256,0.242,0.556,0.308,0.892c0.063,0.338,0.099,0.707,0.099,1.094c0,0.98-0.153,1.699-0.465,2.14
		C24.953,46.094,24.508,46.32,23.939,46.32 M23.939,40.789c-0.539,0-0.963,0.219-1.256,0.65c-0.299,0.434-0.449,1.131-0.449,2.067
		c0,0.398,0.033,0.771,0.102,1.105c0.067,0.331,0.172,0.618,0.311,0.856c0.136,0.236,0.313,0.424,0.529,0.559
		c0.211,0.136,0.469,0.197,0.765,0.197c0.538,0,0.96-0.213,1.254-0.633c0.3-0.424,0.449-1.127,0.449-2.09
		c0-0.381-0.031-0.744-0.098-1.076c-0.062-0.328-0.164-0.619-0.302-0.867c-0.132-0.24-0.308-0.436-0.521-0.567
		C24.514,40.857,24.25,40.789,23.939,40.789"/>
	<path fill="#FFFFFF" d="M28.451,39.512c0.16-0.021,0.342-0.043,0.542-0.057c0.202-0.014,0.411-0.025,0.624-0.033
		c0.214-0.008,0.42-0.014,0.622-0.018s0.383-0.006,0.543-0.006c0.709,0,1.313,0.1,1.815,0.297c0.504,0.199,0.907,0.477,1.223,0.834
		c0.312,0.356,0.541,0.783,0.686,1.279c0.146,0.493,0.217,1.041,0.217,1.635c0,0.541-0.068,1.062-0.205,1.562
		c-0.139,0.502-0.365,0.947-0.687,1.338c-0.319,0.39-0.741,0.699-1.263,0.938c-0.521,0.236-1.166,0.354-1.938,0.354
		c-0.121,0-0.282-0.006-0.481-0.016c-0.203-0.008-0.412-0.018-0.629-0.027c-0.22-0.014-0.427-0.021-0.623-0.029
		c-0.195-0.016-0.349-0.024-0.443-0.039L28.451,39.512L28.451,39.512z M30.907,40.793c-0.167,0-0.337,0.004-0.507,0.012
		c-0.174,0.008-0.301,0.021-0.385,0.031v5.361c0.028,0.004,0.084,0.012,0.153,0.016c0.071,0.002,0.147,0.008,0.229,0.012
		c0.084,0.004,0.164,0.008,0.238,0.015c0.076,0.004,0.135,0.006,0.174,0.006c0.441,0,0.811-0.076,1.104-0.234
		c0.294-0.151,0.525-0.356,0.699-0.62c0.17-0.259,0.287-0.56,0.355-0.896c0.068-0.336,0.104-0.684,0.104-1.043
		c0-0.312-0.029-0.627-0.093-0.943c-0.062-0.316-0.174-0.6-0.336-0.848c-0.164-0.254-0.387-0.461-0.668-0.619
		C31.699,40.873,31.342,40.793,30.907,40.793"/>
	<path fill="#FFFFFF" d="M30.633,47.678c-0.115,0-0.273-0.002-0.484-0.012c-0.203-0.008-0.412-0.016-0.631-0.029l-0.619-0.031
		c-0.221-0.016-0.356-0.024-0.448-0.043l-0.036-0.004v-8.082l0.036-0.008c0.157-0.021,0.338-0.043,0.545-0.057
		c0.223-0.016,0.428-0.027,0.626-0.035c0.213-0.008,0.419-0.012,0.622-0.016l0.104-0.002c0.16-0.004,0.309-0.006,0.439-0.006
		c0.707,0,1.32,0.102,1.83,0.301c0.509,0.201,0.925,0.484,1.238,0.848c0.315,0.363,0.549,0.797,0.69,1.295
		c0.146,0.496,0.222,1.049,0.222,1.646c0,0.543-0.066,1.072-0.207,1.578c-0.14,0.506-0.373,0.961-0.691,1.35
		c-0.32,0.393-0.751,0.713-1.277,0.949C32.061,47.559,31.402,47.678,30.633,47.678 M28.495,47.482
		c0.089,0.014,0.218,0.021,0.405,0.035l0.621,0.03c0.218,0.015,0.424,0.021,0.627,0.031c0.211,0.008,0.369,0.01,0.479,0.01
		c0.763,0,1.405-0.116,1.918-0.353c0.519-0.231,0.937-0.543,1.248-0.928c0.312-0.377,0.541-0.819,0.683-1.315
		c0.133-0.498,0.198-1.021,0.198-1.556c0-0.588-0.069-1.131-0.217-1.623c-0.144-0.481-0.367-0.907-0.675-1.26
		c-0.309-0.354-0.715-0.629-1.207-0.822c-0.496-0.194-1.104-0.295-1.801-0.295c-0.131,0-0.277,0.002-0.438,0.006h-0.103
		c-0.2,0.009-0.408,0.011-0.618,0.021c-0.199,0.004-0.402,0.018-0.623,0.031c-0.188,0.014-0.354,0.027-0.502,0.055L28.495,47.482
		L28.495,47.482z M30.816,46.285c-0.039,0-0.101-0.004-0.174-0.006c-0.043-0.002-0.084-0.004-0.129-0.006l-0.111-0.006
		c-0.068-0.002-0.133-0.009-0.195-0.013l-0.037-0.004c-0.074-0.004-0.129-0.012-0.162-0.021l-0.035-0.008v-5.429l0.035-0.006
		c0.084-0.017,0.207-0.027,0.393-0.037c0.17-0.006,0.344-0.01,0.511-0.01c0.438,0,0.81,0.082,1.096,0.245
		c0.285,0.16,0.519,0.371,0.687,0.632c0.166,0.254,0.281,0.545,0.343,0.864s0.093,0.642,0.093,0.949
		c0,0.359-0.033,0.715-0.104,1.056c-0.068,0.342-0.191,0.646-0.365,0.911c-0.176,0.267-0.415,0.479-0.715,0.64
		C31.641,46.203,31.264,46.285,30.816,46.285 M30.061,46.158c0.022,0.004,0.062,0.008,0.111,0.012h0.039
		c0.062,0.004,0.127,0.008,0.193,0.01l0.113,0.006c0.045,0.002,0.088,0.004,0.127,0.006c0.078,0.009,0.133,0.011,0.17,0.011
		c0.434,0,0.797-0.078,1.082-0.229c0.285-0.148,0.516-0.354,0.683-0.607c0.167-0.253,0.286-0.551,0.353-0.883
		c0.067-0.332,0.104-0.683,0.104-1.036c0-0.309-0.031-0.618-0.093-0.934c-0.062-0.312-0.17-0.594-0.328-0.838
		c-0.161-0.243-0.383-0.448-0.653-0.604c-0.274-0.154-0.629-0.232-1.053-0.232c-0.165,0-0.337,0.002-0.507,0.013
		c-0.152,0.006-0.264,0.02-0.342,0.026V46.158L30.061,46.158z"/>
	<polygon fill="#FFFFFF" points="35.844,39.512 40.584,39.512 40.584,40.906 37.408,40.906 37.408,42.768 40.299,42.768 
		40.299,44.162 37.408,44.162 37.408,46.115 40.639,46.115 40.639,47.512 35.844,47.512 	"/>
	<path fill="#FFFFFF" d="M40.684,47.553h-4.885v-8.084h4.827v1.48h-3.175v1.775h2.891v1.479h-2.891v1.867h3.232V47.553
		L40.684,47.553z M35.887,47.467h4.711v-1.309h-3.229v-2.041h2.891v-1.305h-2.891v-1.947h3.176v-1.312h-4.651v7.913L35.887,47.467
		L35.887,47.467z"/>
	<polygon fill="#FFFFFF" points="37.963,16.298 37.963,22.18 37.963,22.188 37.963,23.099 37.123,21.945 36.896,21.627 
		33.053,16.217 31.455,16.217 31.455,27.486 33.534,27.486 33.534,21.653 33.529,21.625 33.529,20.719 34.52,22.051 38.441,27.566 
		40.039,27.566 40.039,16.298 	"/>
</g>
<g enable-background="new    ">
	<path fill="#FFFFFF" d="M10.313,5.145c0,0.569-0.106,1.144-0.318,1.724C9.784,7.45,9.516,8.016,9.193,8.567
		C8.87,9.12,8.51,9.657,8.113,10.181c-0.397,0.523-0.786,1.007-1.167,1.451l-0.905,0.7v0.085l1.223-0.273h3.289v1.997h-7.26v-1.195
		c0.275-0.296,0.585-0.628,0.929-0.999c0.344-0.37,0.691-0.765,1.041-1.187c0.35-0.42,0.691-0.856,1.025-1.306
		c0.333-0.449,0.627-0.896,0.882-1.34c0.254-0.444,0.46-0.879,0.619-1.306c0.159-0.427,0.239-0.822,0.239-1.187
		c0-0.432-0.122-0.799-0.366-1.101C7.417,4.221,6.998,4.07,6.405,4.07c-0.371,0-0.747,0.083-1.128,0.248
		c-0.381,0.165-0.709,0.378-0.985,0.64L3.371,3.25c0.455-0.364,0.963-0.671,1.525-0.921c0.562-0.25,1.234-0.376,2.018-0.376
		c0.487,0,0.94,0.068,1.358,0.205C8.69,2.295,9.05,2.494,9.352,2.755c0.302,0.262,0.538,0.595,0.707,0.999
		C10.229,4.158,10.313,4.622,10.313,5.145z"/>
	<path fill="#FFFFFF" d="M12.172,8.149c0-2.037,0.363-3.579,1.088-4.625c0.725-1.047,1.766-1.571,3.122-1.571
		c1.451,0,2.518,0.515,3.201,1.545c0.683,1.03,1.024,2.581,1.024,4.651c0,2.025-0.365,3.57-1.096,4.634
		c-0.73,1.064-1.774,1.596-3.129,1.596c-0.72,0-1.345-0.145-1.875-0.435c-0.53-0.29-0.967-0.706-1.311-1.246
		c-0.345-0.541-0.602-1.195-0.771-1.963C12.256,9.967,12.172,9.105,12.172,8.149z M14.459,8.149c0,1.309,0.148,2.341,0.445,3.098
		s0.789,1.135,1.478,1.135c0.699,0,1.197-0.341,1.493-1.024s0.445-1.752,0.445-3.209c0-0.648-0.035-1.231-0.103-1.75
		c-0.069-0.518-0.178-0.958-0.326-1.323c-0.148-0.364-0.347-0.643-0.596-0.836c-0.249-0.193-0.554-0.291-0.914-0.291
		c-0.688,0-1.181,0.356-1.478,1.067C14.608,5.729,14.459,6.772,14.459,8.149z"/>
	<path fill="#FFFFFF" d="M22.608,12.144h2.383V5.572l0.27-1.178l-0.826,1.024l-1.557,1.092l-0.89-1.399l3.892-3.124h1.256v10.156
		h2.334v1.997h-6.862V12.144z"/>
	<path fill="#FFFFFF" d="M34.078,12.263c0.763,0,1.348-0.162,1.756-0.487c0.407-0.324,0.611-0.793,0.611-1.408
		c0-0.66-0.238-1.144-0.715-1.451s-1.154-0.461-2.033-0.461l-1.383,0.068V2.192h5.941v2.219h-4.003v2.117l0.715-0.068
		c0.562,0.023,1.069,0.128,1.525,0.316c0.455,0.188,0.845,0.447,1.167,0.776c0.323,0.331,0.572,0.729,0.747,1.195
		c0.175,0.467,0.263,0.985,0.263,1.554c0,0.671-0.117,1.263-0.35,1.775c-0.233,0.512-0.554,0.939-0.961,1.28
		c-0.408,0.341-0.891,0.597-1.446,0.768s-1.157,0.256-1.804,0.256c-0.519,0-1.014-0.045-1.484-0.136
		c-0.472-0.091-0.866-0.21-1.184-0.358l0.604-1.98c0.265,0.102,0.553,0.188,0.865,0.256S33.612,12.263,34.078,12.263z"/>
</g>
</svg>
