<?xml version="1.0" encoding="utf-8"?>
<!-- Generator: Adobe Illustrator 22.0.1, SVG Export Plug-In . SVG Version: 6.00 Build 0)  -->
<svg version="1.1" id="Layer_1" xmlns="http://www.w3.org/2000/svg" xmlns:xlink="http://www.w3.org/1999/xlink" x="0px" y="0px"
	 viewBox="0 0 49 50" style="enable-background:new 0 0 49 50;" xml:space="preserve">
<style type="text/css">
	.st0{display:none;fill:#828282;}
	.st1{fill:#FFFFFF;}
</style>
<rect x="-3.3" y="-3.1" class="st0" width="56.5" height="56.5"/>
<g>
	<path class="st1" d="M38.6,33c0-0.5-0.2-0.9-0.3-1.3l-0.7,1.8c0,0-0.5-0.1-0.5-0.2v0c0.3-0.8,0.5-1.7,0.7-2.5
		c-0.2-0.4-0.3-0.8-0.3-1.4c0-0.5,0.1-1.2,0.4-2.1l1.3,0.4c-0.1,1.1-0.2,2-0.5,2.8c0.6,0.6,1.3,1.3,1.3,2.2c0,1.1-1.1,2.8-1.1,4.3
		c0,1.9,0.8,4.4,3.6,4.4c1.5,0,2.3-1.2,2.3-2.4c0-0.8-0.3-1.5-0.9-2l1-1.2c0.9,0.7,1.4,1.8,1.4,2.9c0,1.8-1.4,3.7-3.8,3.7
		c-3.2,0-4.9-3-4.9-5.2C37.4,35.4,38.6,33.9,38.6,33"/>
	<path class="st1" d="M5.3,35.7C5.5,36,5.7,36.2,6,36.2c0.4,0,0.7-0.3,0.7-0.9c0-1-0.5-2-0.8-3.2c-0.6,1.7-1.4,3.4-2.4,5.4L3,37.2
		c1.1-2.2,2-4.3,2.6-6c-0.1-0.5-0.2-1.1-0.2-1.7c0-0.7,0.1-1.5,0.4-2.3l1.4,0.2c-0.2,0.9-0.4,1.8-0.7,2.8c0.1,0.4,0.2,0.7,0.4,1.1
		c0.6,1.1,1.3,2.5,1.4,3.8v0.1C8.5,34.6,8.8,34,9,33.3c0.1,0,0.5,0.1,0.5,0.2c-0.4,1.2-1,2.3-1.7,3.1l-0.1,0.1
		c-0.4,0.6-1,0.8-1.8,0.8c-0.8,0-1.5-0.5-1.7-1.2L5.3,35.7z"/>
	<path class="st1" d="M10.9,29.6c0,0-0.3,1.4-0.8,3.6c-0.2,1-0.3,1.8-0.3,2.4c0,0.5,0.2,0.6,0.3,0.6c0.3,0,0.8-1,1.1-2.5l0.1-0.6
		c0.3-1.5,0.6-2.7,0.8-3.6h1.5c-0.6,2.7-1.1,4.7-1.1,6.1c0,0.5,0.2,0.6,0.3,0.6c0.4,0,1-1,1.8-2.9c0.1,0,0.5,0.1,0.5,0.2v0
		c-0.8,2-1.4,3.9-2.8,3.9c-0.8,0-1.1-0.6-1.2-1.4c-0.4,0.8-0.9,1.4-1.5,1.4c-0.9,0-1.2-0.8-1.2-2c0-0.7,0.1-1.5,0.3-2.4
		c0.4-2.2,0.8-3.6,0.8-3.6L10.9,29.6L10.9,29.6L10.9,29.6z"/>
	<path class="st1" d="M13.8,37.4c0,0,0.2-1.6,0.6-2.8c0.3-1.9,0.6-3.7,0.8-5h1.5l-0.2,1.3c0.5-0.9,1.1-1.5,1.9-1.5
		c0.7,0,0.9,0.5,0.9,1.2c0,0.1,0,0.3,0,0.4c0.6-1,1.3-1.6,2.1-1.6c0.6,0,1,0.4,1,1.2c0,1.6-1.1,3.6-1.1,5c0,0.5,0.2,0.6,0.3,0.6
		c0.4,0,1-1,1.8-2.9c0.1,0,0.5,0.1,0.5,0.2c-0.8,2-1.5,3.9-2.9,3.9c-0.6,0-1.2-0.5-1.2-1.5c0-1.9,1.1-3.8,1.1-5
		c0-0.2-0.1-0.3-0.3-0.3c-0.4,0-1.2,0.8-1.8,3.3c-0.3,1.4-0.5,2.8-0.7,3.4h-1.6c0.4-1.9,1.2-5.6,1.2-6.3c0-0.3-0.1-0.4-0.2-0.4
		c-0.5,0-1.3,1.3-1.7,3.8l-0.5,2.9H13.8L13.8,37.4z"/>
	<path class="st1" d="M22.5,37.4c0,0,0.2-1.6,0.6-2.8c0.3-1.9,0.6-3.7,0.8-5h1.5l-0.2,1.3c0.5-0.9,1.1-1.5,1.9-1.5
		c0.7,0,0.9,0.5,0.9,1.2c0,0.1,0,0.3,0,0.4c0.6-1,1.3-1.6,2.1-1.6c0.6,0,1,0.4,1,1.2c0,1.6-1.1,3.6-1.1,5c0,0.5,0.2,0.6,0.3,0.6
		c0.4,0,1-1,1.8-2.9c0.1,0,0.5,0.1,0.5,0.2c-0.8,2-1.5,3.9-2.9,3.9c-0.6,0-1.2-0.5-1.2-1.5c0-1.9,1.1-3.8,1.1-5
		c0-0.2-0.1-0.3-0.3-0.3c-0.4,0-1.2,0.8-1.8,3.3c-0.3,1.4-0.5,2.8-0.7,3.4h-1.6c0.4-1.9,1.2-5.6,1.2-6.3c0-0.3-0.1-0.4-0.2-0.4
		c-0.6,0-1.3,1.3-1.7,3.8L24,37.4H22.5L22.5,37.4z"/>
	<path class="st1" d="M37,33.3c0.1,0,0.5,0.1,0.5,0.2c-0.9,2.2-1.7,4-3.4,4c-1.5,0-2.1-1.4-2.1-3c0-2.3,1.3-5.2,3.2-5.2
		c0.9,0,1.3,0.6,1.3,1.4c0,1.2-1,2.9-3.1,3.2v0.3c0,1,0.3,1.8,1.1,1.8C35.6,36.1,36.4,35.1,37,33.3 M33.5,33.4
		c1.3-0.6,1.9-1.8,1.9-2.5c0-0.3-0.1-0.4-0.3-0.4C34.4,30.5,33.7,32,33.5,33.4"/>
	<path class="st1" d="M3.3,43c0-0.9,0.2-1.6,0.6-2c0.4-0.5,0.9-0.7,1.7-0.7c0.4,0,0.7,0.1,1,0.2c0.3,0.1,0.5,0.3,0.7,0.6
		c0.2,0.2,0.3,0.5,0.4,0.9c0.1,0.3,0.1,0.7,0.1,1.1c0,0.9-0.2,1.6-0.6,2c-0.4,0.5-0.9,0.7-1.7,0.7c-0.4,0-0.7-0.1-1-0.2
		C4.3,45.4,4,45.2,3.9,45c-0.2-0.2-0.3-0.5-0.4-0.9C3.4,43.8,3.3,43.4,3.3,43 M4.4,43c0,0.3,0,0.5,0.1,0.7c0,0.2,0.1,0.4,0.2,0.6
		c0.1,0.2,0.2,0.3,0.4,0.4c0.1,0.1,0.3,0.1,0.5,0.1c0.4,0,0.7-0.1,0.9-0.4c0.2-0.3,0.3-0.8,0.3-1.4c0-0.3,0-0.5-0.1-0.7
		s-0.1-0.4-0.2-0.6c-0.1-0.2-0.2-0.3-0.4-0.4c-0.1-0.1-0.3-0.1-0.5-0.1c-0.4,0-0.7,0.1-0.9,0.4C4.5,41.9,4.4,42.4,4.4,43"/>
	<path class="st1" d="M5.6,45.9c-0.4,0-0.8-0.1-1.1-0.2c-0.3-0.1-0.6-0.3-0.8-0.6c-0.2-0.3-0.3-0.6-0.4-0.9
		c-0.1-0.4-0.1-0.7-0.1-1.2c0-0.9,0.2-1.6,0.6-2.1c0.4-0.5,1-0.8,1.8-0.8c0.4,0,0.8,0.1,1.1,0.2c0.3,0.1,0.6,0.3,0.8,0.6
		c0.2,0.3,0.3,0.6,0.4,0.9c0.1,0.3,0.1,0.7,0.1,1.2c0,0.9-0.2,1.6-0.6,2.1C6.9,45.6,6.3,45.9,5.6,45.9 M5.6,40.4
		c-0.7,0-1.2,0.2-1.6,0.7c-0.4,0.5-0.5,1.1-0.5,2c0,0.4,0,0.8,0.1,1.1c0.1,0.3,0.2,0.6,0.4,0.8c0.2,0.2,0.4,0.4,0.6,0.5
		c0.3,0.1,0.6,0.2,0.9,0.2c0.7,0,1.2-0.2,1.5-0.7c0.4-0.4,0.6-1.1,0.6-1.9c0-0.4,0-0.8-0.1-1.1c-0.1-0.3-0.2-0.6-0.4-0.8
		c-0.2-0.2-0.4-0.4-0.7-0.5C6.2,40.4,5.9,40.4,5.6,40.4 M5.6,45c-0.2,0-0.4-0.1-0.6-0.2c-0.2-0.1-0.3-0.2-0.4-0.4
		c-0.1-0.2-0.2-0.4-0.2-0.6c0-0.2-0.1-0.5-0.1-0.8c0-0.7,0.1-1.1,0.3-1.5c0.2-0.3,0.6-0.5,1-0.5c0.2,0,0.4,0.1,0.6,0.2
		c0.2,0.1,0.3,0.3,0.4,0.4c0.1,0.2,0.2,0.4,0.2,0.6c0,0.2,0.1,0.5,0.1,0.7c0,0.7-0.1,1.2-0.3,1.5C6.3,44.8,6,45,5.6,45 M5.6,41.3
		c-0.3,0-0.6,0.1-0.7,0.4C4.6,42,4.5,42.4,4.5,43c0,0.3,0,0.5,0.1,0.7c0,0.2,0.1,0.4,0.2,0.5c0.1,0.1,0.2,0.2,0.3,0.3
		c0.1,0.1,0.3,0.1,0.4,0.1c0.3,0,0.6-0.1,0.7-0.4c0.2-0.3,0.3-0.7,0.3-1.3c0-0.3,0-0.5-0.1-0.7c0-0.2-0.1-0.4-0.2-0.5
		c-0.1-0.1-0.2-0.3-0.3-0.3C5.9,41.3,5.7,41.3,5.6,41.3"/>
	<polygon class="st1" points="8.6,40.3 11.8,40.3 11.8,41.3 9.7,41.3 9.7,42.6 11.6,42.6 11.6,43.5 9.7,43.5 9.7,45.6 8.6,45.6 	"/>
	<path class="st1" d="M9.8,45.8H8.5v-5.6h3.4v1.2H9.8v1h1.9v1.2H9.8V45.8z M8.8,45.5h0.8v-2.1h1.9v-0.6H9.5v-1.6h2.1v-0.6H8.8V45.5z
		"/>
	<rect x="3.5" y="46.6" class="st1" width="8.3" height="1.4"/>
	<path class="st1" d="M20.2,47.2c-0.2,0.2-0.6,0.3-0.9,0.4c-0.4,0.1-0.8,0.1-1.2,0.1c-0.5,0-0.9-0.1-1.4-0.2
		c-0.4-0.2-0.8-0.4-1.1-0.7c-0.3-0.3-0.6-0.8-0.8-1.3c-0.2-0.5-0.3-1.2-0.3-1.9c0-0.8,0.1-1.4,0.3-2c0.2-0.5,0.5-1,0.8-1.3
		c0.3-0.3,0.7-0.6,1.2-0.7c0.4-0.1,0.9-0.2,1.3-0.2c0.5,0,0.8,0,1.2,0.1c0.3,0.1,0.6,0.1,0.8,0.2L19.8,41c-0.2-0.1-0.4-0.1-0.6-0.2
		c-0.2,0-0.5-0.1-0.9-0.1c-0.6,0-1.1,0.2-1.5,0.7c-0.4,0.4-0.6,1.1-0.6,2.1c0,0.4,0,0.8,0.1,1.1c0.1,0.3,0.2,0.6,0.4,0.9
		c0.2,0.2,0.4,0.4,0.7,0.6c0.3,0.1,0.6,0.2,1,0.2c0.3,0,0.6,0,0.9-0.1c0.2-0.1,0.4-0.2,0.6-0.3L20.2,47.2z"/>
	<path class="st1" d="M18.1,47.7c-0.5,0-0.9-0.1-1.4-0.2c-0.4-0.2-0.8-0.4-1.2-0.7S15,46,14.8,45.4c-0.2-0.5-0.3-1.2-0.3-1.9
		c0-0.8,0.1-1.5,0.3-2c0.2-0.5,0.5-1,0.9-1.3c0.4-0.3,0.7-0.6,1.2-0.7c0.4-0.1,0.9-0.2,1.3-0.2c0.5,0,0.8,0,1.2,0.1
		c0.3,0.1,0.6,0.1,0.8,0.2l0,0l-0.3,1.4l0,0c-0.2-0.1-0.4-0.1-0.6-0.2c-0.2,0-0.5-0.1-0.9-0.1c-0.6,0-1.1,0.2-1.5,0.7
		c-0.4,0.4-0.6,1.1-0.6,2.1c0,0.4,0,0.8,0.1,1.1c0.1,0.3,0.2,0.6,0.4,0.9c0.2,0.2,0.4,0.4,0.7,0.5c0.3,0.1,0.6,0.2,0.9,0.2
		c0.3,0,0.6,0,0.9-0.1c0.2-0.1,0.4-0.2,0.6-0.3l0,0l0.3,1.4l0,0c-0.2,0.2-0.6,0.3-0.9,0.4C18.9,47.7,18.5,47.7,18.1,47.7 M18.1,39.4
		c-0.4,0-0.8,0.1-1.3,0.2c-0.4,0.1-0.8,0.4-1.1,0.7c-0.3,0.3-0.6,0.7-0.8,1.3c-0.2,0.5-0.3,1.2-0.3,2c0,0.7,0.1,1.4,0.3,1.9
		c0.2,0.5,0.5,0.9,0.8,1.3c0.3,0.3,0.7,0.6,1.1,0.7c0.4,0.1,0.9,0.2,1.4,0.2c0.4,0,0.8,0,1.2-0.1c0.4-0.1,0.7-0.2,0.9-0.4L19.9,46
		c-0.2,0.1-0.4,0.2-0.6,0.2c-0.2,0.1-0.5,0.1-0.9,0.1c-0.4,0-0.7-0.1-1-0.2c-0.3-0.1-0.5-0.3-0.7-0.6c-0.2-0.2-0.3-0.5-0.4-0.9
		c-0.1-0.3-0.1-0.7-0.1-1.1c0-1,0.2-1.7,0.6-2.1c0.4-0.5,0.9-0.7,1.6-0.7c0.3,0,0.6,0,0.9,0.1c0.2,0,0.4,0.1,0.6,0.2l0.3-1.2
		c-0.2-0.1-0.4-0.1-0.7-0.2C19,39.4,18.6,39.4,18.1,39.4"/>
	<path class="st1" d="M20.5,43.5c0-1.3,0.3-2.4,0.9-3.1c0.6-0.7,1.4-1.1,2.5-1.1c0.6,0,1.1,0.1,1.5,0.3c0.4,0.2,0.8,0.5,1.1,0.8
		c0.3,0.4,0.5,0.8,0.6,1.3c0.1,0.5,0.2,1.1,0.2,1.7c0,1.3-0.3,2.4-0.9,3.1c-0.6,0.7-1.4,1.1-2.5,1.1c-0.6,0-1.1-0.1-1.5-0.3
		c-0.4-0.2-0.8-0.5-1.1-0.8c-0.3-0.4-0.5-0.8-0.6-1.3C20.6,44.7,20.5,44.1,20.5,43.5 M22.2,43.5c0,0.4,0,0.8,0.1,1.1
		c0.1,0.3,0.2,0.6,0.3,0.9c0.1,0.2,0.3,0.4,0.5,0.6c0.2,0.1,0.5,0.2,0.8,0.2c0.6,0,1-0.2,1.3-0.7c0.3-0.4,0.5-1.1,0.5-2.1
		c0-0.4,0-0.8-0.1-1.1c-0.1-0.3-0.2-0.6-0.3-0.9c-0.1-0.3-0.3-0.4-0.5-0.6c-0.2-0.1-0.5-0.2-0.8-0.2c-0.6,0-1,0.2-1.3,0.7
		C22.3,41.9,22.2,42.6,22.2,43.5"/>
	<path class="st1" d="M23.9,47.7c-0.6,0-1.1-0.1-1.5-0.3c-0.4-0.2-0.8-0.5-1.1-0.9c-0.3-0.4-0.5-0.8-0.6-1.3
		c-0.1-0.5-0.2-1.1-0.2-1.7c0-1.3,0.3-2.4,0.9-3.1c0.6-0.7,1.4-1.1,2.5-1.1c0.6,0,1.1,0.1,1.5,0.3c0.4,0.2,0.8,0.5,1.1,0.9
		c0.3,0.4,0.5,0.8,0.6,1.3c0.1,0.5,0.2,1.1,0.2,1.7c0,1.3-0.3,2.4-0.9,3.1C25.9,47.3,25,47.7,23.9,47.7 M23.9,39.4
		c-1.1,0-1.9,0.4-2.5,1.1c-0.6,0.7-0.9,1.7-0.9,3c0,0.6,0.1,1.2,0.2,1.7c0.1,0.5,0.3,0.9,0.6,1.3c0.3,0.4,0.6,0.6,1,0.8
		c0.4,0.2,0.9,0.3,1.5,0.3c1.1,0,1.9-0.4,2.5-1.1c0.6-0.7,0.9-1.7,0.9-3.1c0-0.6-0.1-1.2-0.2-1.7c-0.1-0.5-0.3-0.9-0.6-1.3
		c-0.3-0.4-0.6-0.6-1-0.8C25,39.5,24.5,39.4,23.9,39.4 M23.9,46.3c-0.3,0-0.6-0.1-0.8-0.2c-0.2-0.1-0.4-0.3-0.6-0.6
		c-0.1-0.2-0.2-0.5-0.3-0.9c-0.1-0.3-0.1-0.7-0.1-1.1c0-1,0.2-1.7,0.5-2.1c0.3-0.5,0.8-0.7,1.3-0.7c0.3,0,0.6,0.1,0.8,0.2
		c0.2,0.1,0.4,0.4,0.5,0.6c0.1,0.3,0.2,0.6,0.3,0.9c0.1,0.3,0.1,0.7,0.1,1.1c0,1-0.2,1.7-0.5,2.1C25,46.1,24.5,46.3,23.9,46.3
		 M23.9,40.8c-0.5,0-1,0.2-1.3,0.7c-0.3,0.4-0.4,1.1-0.4,2.1c0,0.4,0,0.8,0.1,1.1c0.1,0.3,0.2,0.6,0.3,0.9c0.1,0.2,0.3,0.4,0.5,0.6
		c0.2,0.1,0.5,0.2,0.8,0.2c0.5,0,1-0.2,1.3-0.6c0.3-0.4,0.4-1.1,0.4-2.1c0-0.4,0-0.7-0.1-1.1c-0.1-0.3-0.2-0.6-0.3-0.9
		c-0.1-0.2-0.3-0.4-0.5-0.6C24.5,40.9,24.3,40.8,23.9,40.8"/>
	<path class="st1" d="M28.5,39.5c0.2,0,0.3,0,0.5-0.1c0.2,0,0.4,0,0.6,0c0.2,0,0.4,0,0.6,0s0.4,0,0.5,0c0.7,0,1.3,0.1,1.8,0.3
		c0.5,0.2,0.9,0.5,1.2,0.8c0.3,0.4,0.5,0.8,0.7,1.3c0.1,0.5,0.2,1,0.2,1.6c0,0.5-0.1,1.1-0.2,1.6c-0.1,0.5-0.4,0.9-0.7,1.3
		c-0.3,0.4-0.7,0.7-1.3,0.9c-0.5,0.2-1.2,0.4-1.9,0.4c-0.1,0-0.3,0-0.5,0c-0.2,0-0.4,0-0.6,0c-0.2,0-0.4,0-0.6,0c-0.2,0-0.3,0-0.4,0
		L28.5,39.5L28.5,39.5z M30.9,40.8c-0.2,0-0.3,0-0.5,0c-0.2,0-0.3,0-0.4,0v5.4c0,0,0.1,0,0.2,0c0.1,0,0.1,0,0.2,0c0.1,0,0.2,0,0.2,0
		c0.1,0,0.1,0,0.2,0c0.4,0,0.8-0.1,1.1-0.2c0.3-0.2,0.5-0.4,0.7-0.6c0.2-0.3,0.3-0.6,0.4-0.9s0.1-0.7,0.1-1c0-0.3,0-0.6-0.1-0.9
		c-0.1-0.3-0.2-0.6-0.3-0.8c-0.2-0.3-0.4-0.5-0.7-0.6C31.7,40.9,31.3,40.8,30.9,40.8"/>
	<path class="st1" d="M30.6,47.7c-0.1,0-0.3,0-0.5,0c-0.2,0-0.4,0-0.6,0l-0.6,0c-0.2,0-0.4,0-0.4,0l0,0v-8.1l0,0
		c0.2,0,0.3,0,0.5-0.1c0.2,0,0.4,0,0.6,0c0.2,0,0.4,0,0.6,0l0.1,0c0.2,0,0.3,0,0.4,0c0.7,0,1.3,0.1,1.8,0.3c0.5,0.2,0.9,0.5,1.2,0.8
		c0.3,0.4,0.5,0.8,0.7,1.3c0.1,0.5,0.2,1,0.2,1.6c0,0.5-0.1,1.1-0.2,1.6c-0.1,0.5-0.4,1-0.7,1.3c-0.3,0.4-0.8,0.7-1.3,0.9
		C32.1,47.6,31.4,47.7,30.6,47.7 M28.5,47.5c0.1,0,0.2,0,0.4,0l0.6,0c0.2,0,0.4,0,0.6,0c0.2,0,0.4,0,0.5,0c0.8,0,1.4-0.1,1.9-0.4
		c0.5-0.2,0.9-0.5,1.2-0.9c0.3-0.4,0.5-0.8,0.7-1.3c0.1-0.5,0.2-1,0.2-1.6c0-0.6-0.1-1.1-0.2-1.6c-0.1-0.5-0.4-0.9-0.7-1.3
		c-0.3-0.4-0.7-0.6-1.2-0.8c-0.5-0.2-1.1-0.3-1.8-0.3c-0.1,0-0.3,0-0.4,0h-0.1c-0.2,0-0.4,0-0.6,0c-0.2,0-0.4,0-0.6,0
		c-0.2,0-0.4,0-0.5,0.1L28.5,47.5L28.5,47.5z M30.8,46.3c0,0-0.1,0-0.2,0c0,0-0.1,0-0.1,0l-0.1,0c-0.1,0-0.1,0-0.2,0l0,0
		c-0.1,0-0.1,0-0.2,0l0,0v-5.4l0,0c0.1,0,0.2,0,0.4,0c0.2,0,0.3,0,0.5,0c0.4,0,0.8,0.1,1.1,0.2c0.3,0.2,0.5,0.4,0.7,0.6
		c0.2,0.3,0.3,0.5,0.3,0.9s0.1,0.6,0.1,0.9c0,0.4,0,0.7-0.1,1.1c-0.1,0.3-0.2,0.6-0.4,0.9c-0.2,0.3-0.4,0.5-0.7,0.6
		C31.6,46.2,31.3,46.3,30.8,46.3 M30.1,46.2c0,0,0.1,0,0.1,0h0c0.1,0,0.1,0,0.2,0l0.1,0c0,0,0.1,0,0.1,0c0.1,0,0.1,0,0.2,0
		c0.4,0,0.8-0.1,1.1-0.2c0.3-0.1,0.5-0.4,0.7-0.6s0.3-0.6,0.4-0.9s0.1-0.7,0.1-1c0-0.3,0-0.6-0.1-0.9c-0.1-0.3-0.2-0.6-0.3-0.8
		c-0.2-0.2-0.4-0.4-0.7-0.6c-0.3-0.2-0.6-0.2-1.1-0.2c-0.2,0-0.3,0-0.5,0c-0.2,0-0.3,0-0.3,0L30.1,46.2L30.1,46.2z"/>
	<polygon class="st1" points="35.8,39.5 40.6,39.5 40.6,40.9 37.4,40.9 37.4,42.8 40.3,42.8 40.3,44.2 37.4,44.2 37.4,46.1 
		40.6,46.1 40.6,47.5 35.8,47.5 	"/>
	<path class="st1" d="M40.7,47.6h-4.9v-8.1h4.8v1.5h-3.2v1.8h2.9v1.5h-2.9v1.9h3.2L40.7,47.6L40.7,47.6z M35.9,47.5h4.7v-1.3h-3.2
		v-2h2.9v-1.3h-2.9v-1.9h3.2v-1.3h-4.7L35.9,47.5L35.9,47.5L35.9,47.5z"/>
	<g>
		<path class="st1" d="M5.1,21.8c0,0.6,0,1.1,0.1,1.6s0.2,0.9,0.4,1.2c0.2,0.3,0.5,0.6,0.8,0.8c0.3,0.2,0.7,0.3,1.1,0.3
			c0.8,0,1.4-0.3,1.8-0.9c0.4-0.6,0.6-1.6,0.6-3c0-0.5,0-1-0.1-1.5s-0.2-0.9-0.4-1.2c-0.2-0.4-0.4-0.6-0.8-0.8
			C8.4,18,8,17.9,7.6,17.9c-0.8,0-1.4,0.3-1.8,0.9C5.3,19.5,5.1,20.5,5.1,21.8 M2.8,21.8c0-1.9,0.4-3.3,1.2-4.3c0.8-1,2-1.5,3.5-1.5
			c0.8,0,1.5,0.1,2.1,0.4c0.6,0.3,1.1,0.7,1.5,1.2c0.4,0.5,0.7,1.1,0.9,1.8c0.2,0.7,0.3,1.5,0.3,2.4c0,1.9-0.4,3.3-1.2,4.3
			c-0.8,1-2,1.5-3.5,1.5c-0.8,0-1.5-0.1-2.1-0.4C4.9,26.9,4.4,26.5,4,26c-0.4-0.5-0.7-1.1-0.9-1.8C2.9,23.5,2.8,22.7,2.8,21.8"/>
		<path class="st1" d="M13.9,16.3c0.4-0.1,0.9-0.2,1.5-0.2c0.5,0,1.1-0.1,1.6-0.1c0.6,0,1.1,0,1.7,0.1c0.6,0.1,1.1,0.3,1.5,0.5
			c0.4,0.3,0.8,0.6,1.1,1.1c0.3,0.5,0.4,1.1,0.4,1.9c0,0.7-0.1,1.3-0.4,1.8c-0.2,0.5-0.6,0.9-1,1.2c-0.4,0.3-0.9,0.5-1.4,0.7
			s-1.1,0.2-1.6,0.2h-0.3c-0.1,0-0.2,0-0.4,0c-0.1,0-0.3,0-0.4,0c-0.1,0-0.2,0-0.3,0v3.9h-2.2C13.9,27.4,13.9,16.3,13.9,16.3z
			 M17.1,17.9c-0.2,0-0.4,0-0.6,0c-0.2,0-0.3,0-0.5,0.1v3.6c0,0,0.1,0,0.2,0c0.1,0,0.2,0,0.3,0c0.1,0,0.2,0,0.3,0H17
			c0.3,0,0.6,0,0.9-0.1c0.3-0.1,0.5-0.2,0.8-0.3c0.2-0.1,0.4-0.3,0.5-0.6c0.1-0.3,0.2-0.6,0.2-1c0-0.4-0.1-0.6-0.2-0.9
			s-0.3-0.4-0.5-0.6c-0.2-0.1-0.4-0.2-0.7-0.3C17.7,18,17.4,17.9,17.1,17.9"/>
		<polygon class="st1" points="23,16.2 29.7,16.2 29.7,18.2 25.2,18.2 25.2,20.8 29.3,20.8 29.3,22.7 25.2,22.7 25.2,25.5 
			29.7,25.5 29.7,27.4 23,27.4 		"/>
		<polygon class="st1" points="38,16.3 38,22.2 38,22.2 38,23.1 37.1,21.9 36.9,21.6 33.1,16.2 31.5,16.2 31.5,27.5 33.5,27.5 
			33.5,21.7 33.5,21.6 33.5,20.7 34.5,22.1 38.4,27.6 40,27.6 40,16.3 		"/>
	</g>
</g>
<g>
	<path class="st1" d="M10.5,5.1c0,0.6-0.1,1.1-0.3,1.7C10,7.4,9.7,8,9.4,8.6c-0.3,0.6-0.7,1.1-1.1,1.6c-0.4,0.5-0.8,1-1.2,1.5
		l-0.9,0.7v0.1l1.2-0.3h3.3v2H3.5v-1.2c0.3-0.3,0.6-0.6,0.9-1c0.3-0.4,0.7-0.8,1-1.2c0.3-0.4,0.7-0.9,1-1.3C6.8,9,7.1,8.6,7.4,8.1
		C7.6,7.7,7.9,7.2,8,6.8C8.2,6.4,8.3,6,8.3,5.6c0-0.4-0.1-0.8-0.4-1.1C7.6,4.2,7.2,4.1,6.6,4.1c-0.4,0-0.7,0.1-1.1,0.2
		C5.1,4.5,4.8,4.7,4.5,5L3.6,3.3c0.5-0.4,1-0.7,1.5-0.9S6.4,2,7.1,2C7.6,2,8.1,2,8.5,2.2c0.4,0.1,0.8,0.3,1.1,0.6
		c0.3,0.3,0.5,0.6,0.7,1C10.5,4.2,10.5,4.6,10.5,5.1z"/>
	<path class="st1" d="M12.4,8.1c0-2,0.4-3.6,1.1-4.6c0.7-1,1.8-1.6,3.1-1.6c1.5,0,2.5,0.5,3.2,1.5s1,2.6,1,4.7c0,2-0.4,3.6-1.1,4.6
		c-0.7,1.1-1.8,1.6-3.1,1.6c-0.7,0-1.3-0.1-1.9-0.4s-1-0.7-1.3-1.2c-0.3-0.5-0.6-1.2-0.8-2C12.5,10,12.4,9.1,12.4,8.1z M14.7,8.1
		c0,1.3,0.1,2.3,0.4,3.1s0.8,1.1,1.5,1.1c0.7,0,1.2-0.3,1.5-1s0.4-1.8,0.4-3.2c0-0.6,0-1.2-0.1-1.8c-0.1-0.5-0.2-1-0.3-1.3
		c-0.1-0.4-0.3-0.6-0.6-0.8S17,3.9,16.6,3.9c-0.7,0-1.2,0.4-1.5,1.1C14.8,5.7,14.7,6.8,14.7,8.1z"/>
	<path class="st1" d="M22.8,12.1h2.4V5.6l0.3-1.2l-0.8,1l-1.6,1.1l-0.9-1.4L26.1,2h1.3v10.2h2.3v2h-6.9
		C22.8,14.1,22.8,12.1,22.8,12.1z"/>
	<polygon class="st1" points="31.5,4.1 36,4.1 37,3.9 36.3,4.8 32.3,14.1 34.5,14.1 39.3,2.6 39.3,2 31.5,2 	"/>
</g>
</svg>
