<?xml version="1.0" encoding="utf-8"?>
<!-- Generator: Adobe Illustrator 22.0.1, SVG Export Plug-In . SVG Version: 6.00 Build 0)  -->
<svg version="1.1" id="Layer_1" xmlns="http://www.w3.org/2000/svg" xmlns:xlink="http://www.w3.org/1999/xlink" x="0px" y="0px"
	 viewBox="0 0 1025.4 837.8" style="enable-background:new 0 0 1025.4 837.8;" xml:space="preserve">
<style type="text/css">
	.st0{fill:#FFFFFF;}
</style>
<g>
	<g>
		<path class="st0" d="M594.6,11.4l3.7,0.4l4.7,1.8l4.4,2.8L610,20l0.6,6.2l-1.6,6l-1.2,6.3l1.9,7.2l-11.3-5.3l-2.9,0.5l-1.5,4.9
			l5.5,2.4l18.1,0.7l4.8,1.2l10,4.7l5.6-1.6l6.5-6.4l6-8.1l4.1-6.7l1.8-5.1l0.8-3.9l1.6-2.5l4-1l0.7,1l7.8,5.2l5.1,9.7l-1,6.9
			l-2.9,6.6l-0.9,9l1.7,4.1l8.9,9.9l1.4,3.6l2.6,9.1l1.3,2.7l4.5,2.5l10-0.9l4.8,0.5l4.5,5.8l0.1,14.8l4.6,1.1l1.7-0.4l8.1-2
			l30.6,1.3l5.4-2l10.9-7.7l5.1-2.5l5.6,0.7l6.1,3.8l4.8,6.3l1.8,8l0.9,9.4l5.9,5.1l14.6,4.4l3.6,2.5l2.4,2.9l2.9,2h4.4l10.8-2.3
			l3.4,0.4l4.2,2.5l5.4,7.5l3.5,2.9l7.9-2l4.4,0.4l3,7.2l-3.7,3.6l-0.8,4.7l5.9,6.4l-2.4,1.6l-2.6,1l-2.8,0.5l-2.8-0.3l1.7,5.9
			l-1.9,5.6l-1.4,2.9l-2,2.7l-3-2.6l-2.1,1.3l-1.3,4l-0.6,5.5l3.5,4.8l-4.1,10l-10.2,16.4l5.7-1.6l2.5,0.1l2.6,1.5l-3,5l-4.5,9.5
			l-3.3,5.1l-1.3,1l-6,2.3l-18.6,20.9l0.5,9.2l4.2,6.2l4.3,3.1l1.6,1l5.5,2.7l4.1,1.2l-0.5,4.9L834,315l4.7,2.7l2.8,0.5l2.7-0.5
			l1.3-1.9l2.8-4.2l2.3-1.8l2.6,1l5.3,5.9l2.6,1.8l22.5-0.6l2.9,1l2.9,0.9l18.7,0.6l5.3-1l-0.2,3l4.3,2.3l0.1,3.9l-0.9,4.3l1,3.5
			l3.4,0.4l10.3-2.9l4.3,0.4l4.9,5l15.8,24.2l-3.4,2.2l3,5.9l5.3,2.8l17.9,0.4l0.6,2.5l-1.8,3.6l-3,3.6v1.5l-5.8,3.4l-8.1,6.8
			l-4.8,7.5l4.3,5.5l-2,3.1l0.3,1.9l2.1,0.8l3,0.3l-2,3.5l2.1,1.9l2.2,4.7l2.1,1.6l2.5,0.2l8.8-2.7l1.2-0.8l5.1,2.7l11.2,2.5
			l4.8,0.3l-2.9,2.9l-0.7,3.2l0.8,3.7l1.4,4.1l2.2,3.7l1.9,0.3l0.9,1.4l-0.1,6.8l-1.9,9.6l-1.8,5.4l0.4,4.8l9,15.7l0.5,5.7l-3.2,3.4
			l-6.9,1.3l-3.5-0.6l-2.9-1.2l-2.9-0.2l-3.5,2l-2.6,3.1l-1.7,3.9l-0.6,4.1l1.2,3.7l-4.8,4.3l-11.1,3.1l-5.4,2.6l-2.5,3.9l-5.9,4.2
			l-2.7,3.5l3.5,3.8l1.4,4.6l-0.1,4.6l-1.6,3.8l-1.9,1.3l-5.2,0.4l-2.2,1.4l-1.9,7.8l2.6,2.2l0.9,2.4l-0.7,2.8l-2.4,2.7l-3.8-1.7
			l-0.6-3.2l0.3-3.8l-1.2-3.7l-3.3-3.3l-2,0.3l-1.7,1.8l-2.2,1.4l-5.9,0.9l-4.1-0.9l-2.3-1.2l-1.5-2.9l-0.9-3.9l-1.7-1.8l-3.9,3.2
			l-5.6,0.6l-2.2,3.7l-1,5.5l-2.1,5.9l-3.8,4l-9.7,4.7l-4.3,3.9l-0.9,2.6l-0.5,6.6l-0.6,2.7l-1.6,2.3l-3.8,3.3l-1.6,2.5l0.3,8.5
			l-0.6,3.2l-1.9,2l-5.2,2.3l-1.6,2.1l-0.3,5.6l1.8,2.2l1,2.3l-2.8,5.5l-2.1,2l-3.9,0.9l-1.8,1.2l-2,2.8l-2.6,6.6l-9,15.7l-1.1,3.8
			l3.1,1.5l5.7,4.3l2.4,3.7l-6.8-0.7l0.1,2.3l-1.4,3.6l2.5,2.3l-3,2.1l-1.2,3.8l0.4,4.8l1.6,5.1l2.7,4.5l2.6,1.3l2.8,0.5l3.3,2
			l1.7,2.6l6.1,12.1l0.4,1.9l0.5,6.5l1.6,1.3l6.6,2.3l3.4-0.5l1.5,2.4l0.3,3.1l-2.2,3.1l-0.5,4.8l-1.2,2.7l0.9,2.9l1.8,1.4l5.2,0.6
			l1.9,1.6l1.4,5.7l-1.4,3.4l-4.7,4.9l-3.3,9.2l-2,4l-3,2.8l4.4,2.4l-2.4,6.2l-6,6.4l-6.1,2.9l-3.1-0.7l-5.6-3.5l-2.8-0.4l-2.8,1.5
			l-3.4,4.4l-3.2,1.4l-5.6-1l-5.5-2.7l-5.9-1.4l-6.4,3.3l-3.1,4.2l-1.4,4.5l-3.9,0.5l-2.2-0.6l-8.1-3.8l-4.9,2.2l-6.5,5.2l-6.7,3.9
			l-5.6-1.5l-1.6-3.5l0.3-3.6l0.8-3.7v-4.2l-1-3.7l-12.5-22.6l-4.8-4.4l-8.1-2.9l-2.9-1.8l-1.6-0.3l-3.4,5.3l-1.9,0.6l-4.3-0.8
			l-1.2-1.6l-0.7-3.7l0.8-5.6l3.3-2.8l-1.8-6l-5-6.2l-5.4-5.4l-5.6,0.2l-11.7,3.2l-6-1.7l-4.7-3.5l-3.8-3.8l-11.1-16l-3-3l-9.3-2.6
			l-5.1-3l-9.7-9.5l-4.7-2.7l-0.6,0.1l-4.8,0.2l-11.2,4l-5.9,0.9l-6.7-0.9l-2.4-3.1l0.1-15l-0.6-2.4l-2.6-4.2l-0.5-2l0.5-2.5
			l2.3-2.7l3.5-10.4l0.7-3.4l-0.5-5.3l-4-7.4l-12.3-5l-3.4-5.7l1.1-6.4l10-24.9l0.2-4.3l-0.4-3.4l0.3-3.6l4.9-10.7l1.5-0.4l2.8,3
			l0.6-7.1l1.4-8.3l0.4-7.1l-2.4-3.1l-8.1,1.7l-3-1.3l-1.1-6l-7,3.2l-27.6,28.1l-1.5,3.2l-0.7,3.9l1.5,4.5l0.3,2.8l-2,12.8l-1.8,6.4
			l-2.4,4.6l-2.8,1.9l-10.8,1.7L517,650l-7.7,1.3l-1.9-0.5l-38.9-10.7l-19.8,2.9l-3.5-1l-14.5-7.9l2.1,0.2l-0.3-5.9l-1.5-6.2
			l-1.2-0.5l1.1-4.7l1.3-3.1l1.9-2.3l4.7-4.4l6-4.3l6.2-3.1l0.1-2.7l-1.8-3.2l-1.6-3.8l-4.3-17.4l-2.6-1.3l-2.8,0.4l-5.1,2.4
			l-3.7-1.9l0.6-7.3l5-16.2l1.4-7.4l1.2-3.3l2.7-3.9l6.1-4.8l2.6-2.9l0.6-4.3l-1.6-2.6l-3.2-2.8l-3.5-2.2l-2.3-0.9l-3.3,1.4l0.2,5.4
			l-1.9,1.9l-4.7-2.3l-7.1-15.2l-5.4-4.8l-5.5-3.2l-8.6-9.6l-5-2.4l-5.5,0.6l-16.5,6.9l-5.9,0.1l-4.6-2.2l-4.4-3.2l-5.4-2.7
			l-10.7-1.3l-11.3,0.9l-3.6,1.3l-2,2.3l-4.7,8l-1.8,4.6l-2,0.7l-1,2.6l-9.1-8.6l-2.3-16.6v-18.9l-2.2-15.7l-4.2-7.7l-5.2-5
			l-5.6-2.8l-5.9-1.2l-16.7-0.1l-3.2-2.4l2.5-4.6l0.4-3.3l-1.7-2.1l-3.7-1.1l-3.7,0.3l-2.7,1.7l-2.5,2.6l-3.6,2.7l-11.3,4.2
			l-6.3,0.7l-4.5-1.2l-11.3-6l-3.4-2.7l-4.1-5.2l-1.4-4.6l-0.4-13l-6.8-23l-2.1-11.8l3.6-6.8l-2.9-9.8l-2.1-3.8l-3.5-1.1l-3.6-0.5
			l-2.1-2.4l-3.2-7.8l-3.6-6.5l-4.3-7.7l-4.3-4.2l-6.8-2.1l-20.6,6.5l-13.5,4.3l-6,3.7l-4.7,5.1l-7.8,13.6l-3.4,2.6l-5.3-1.4
			l-20.7-9.5l-4.8-4l-1.3-2.6l-3.5-8.2l-1.5-2.7l-9.6-9.3l-1.7-3.1l-0.8-2.7l-1.3-2.4l-3.4-1.8l-2.5-0.3l-4.8,0.7l-5.9-0.9l-1.9-0.8
			l-1.4-2.4l-2.2-5.2l-1.2-1.3l-3.1-1.6l-0.9-1.4l0.3-1.9l2-4.6l0.3-2.6l-5.1-18l1.5-3.8l5.9-6l1.6-2.5l-0.9-8.1l-4-6.2l-9.3-10.3
			l-2.6-8l-2.6-18.1l-3.9-9.5l5.2-3.9l9.9-3.2l35.1-26.7l53.9-31.9l52.1-34.4l58.2-18.9l2.2,16l-1,10.2l-0.2,9.7l3.6,10.4l6.3,6.9
			l1.9,0.9l6,2.8l8.2,0.9l12.3-1.9l0.8-3.9l-0.7-5.3l0.5-4.7l2.8-3l3.8-0.9l4.2-0.3l10.3-2.3l6.4-0.4l6.6,1.1l31.6,10.6l4.9,3.2
			l1.4,5.4l-0.4,4.6l0.4,4.3l3.8,4.6l3.3,1.5l30.6-0.4l5.8-1.9l11.8-9.3l32.1-16.2l12.9-10.1l10.2-14l1.4-4.1l2.3-11.3l10-0.7
			l7.6,0.3l9.3,5.1l5,1.7l12.1,0.8l4.9-2.6l1.3-7.2l-1.6-4.1l-5.8-6.9l-2-3.8l0.2-4.2l1.7-3.2l0.5-3l-3.1-3.4l13.5-7.9l13.9-5.2
			l7.7-1.3l3.3,0.6l2,3.5l-0.3,7l-2.2,5.1l-0.5,4.1l5,3.6l3.4,0.3l7.4-1.4l8.3,2.1l4-0.3l3.5-1.3l2.7-2l20-24.7L594.6,11.4
			 M594.2,9.3l-0.5,0.3l-8.6,4.4l-0.4,0.2l-0.3,0.3L564.6,39l-2.3,1.7l-3,1.1l-3.4,0.3l-8-2l-0.4-0.1l-0.4,0.1l-7.1,1.3l-2.6-0.2
			l-3.6-2.6l0.3-2.6l2.1-4.8l0.1-0.3l0-0.4l0.3-7l0-0.6l-0.3-0.5l-2-3.5L534,18l-0.9-0.2l-3.3-0.6l-0.3-0.1l-0.3,0.1l-7.7,1.3
			l-0.2,0l-0.2,0.1l-13.9,5.2l-0.2,0.1l-0.1,0.1l-13.5,7.9l-2.1,1.2l1.7,1.8l2.4,2.7l-0.3,1.7l-1.5,2.9l-0.2,0.4l0,0.4l-0.2,4.2
			l0,0.5l0.3,0.5l2,3.8l0.1,0.2l0.1,0.2l5.6,6.6l1.3,3.3l-1,5.7l-3.5,1.9l-11.3-0.7l-4.6-1.6l-9.1-5l-0.4-0.2l-0.5,0l-7.6-0.3
			l-0.1,0l-0.1,0l-10,0.7l-1.5,0.1l-0.3,1.5L450,75.6l-1.3,3.7l-9.9,13.5l-12.5,9.8l-31.9,16.1l-0.2,0.1l-0.2,0.1l-11.5,9.1
			l-5.2,1.7l-29.8,0.4l-2.5-1.1l-3.1-3.8l-0.3-3.5l0.4-4.4l0-0.3l-0.1-0.3l-1.4-5.4l-0.2-0.7l-0.6-0.4l-4.9-3.2l-0.2-0.1l-0.2-0.1
			L302.8,96l-0.2-0.1l-0.2,0l-6.6-1.1l-0.2,0l-0.2,0l-6.4,0.4l-0.2,0l-0.2,0l-10.2,2.3l-4.1,0.3l-0.2,0l-0.2,0l-3.8,0.9l-0.6,0.1
			l-0.4,0.4l-2.8,3l-0.5,0.5l-0.1,0.7l-0.5,4.7l0,0.2l0,0.2l0.7,5l-0.5,2.2l-10.7,1.6l-7.6-0.8l-5.7-2.7l-1.5-0.7l-5.8-6.3l-3.3-9.7
			l0.2-9.3l1-10.1l0-0.2l0-0.2l-2.2-16l-0.3-2.4l-2.3,0.7l-58.2,18.9l-0.3,0.1l-0.2,0.1l-52.1,34.4l-53.9,31.9l-0.1,0.1l-0.1,0.1
			l-34.8,26.5l-9.6,3.1L18,175l-0.3,0.2l-5.2,3.9l-1.2,0.9l0.6,1.4l3.8,9.3l2.6,17.9l0,0.2l0.1,0.2l2.6,8l0.1,0.4l0.3,0.3l9.2,10.2
			l3.7,5.7l0.8,6.9l-1.1,1.7l-5.8,5.9l-0.3,0.3l-0.1,0.4l-1.5,3.8l-0.2,0.6l0.2,0.7l5,17.6l-0.2,1.9l-1.9,4.3l-0.1,0.2l0,0.3
			l-0.3,1.9l-0.1,0.8l0.4,0.6l0.9,1.4l0.3,0.5l0.5,0.2l2.8,1.4l0.7,0.8l2.1,4.9l0.1,0.1l0.1,0.1l1.4,2.4l0.3,0.6l0.6,0.3l1.9,0.8
			l0.2,0.1l0.2,0l5.9,0.9l0.3,0l0.3,0l4.5-0.7l1.9,0.2l2.5,1.3l0.9,1.7L58,301l0.1,0.2l0.1,0.2l1.7,3.1l0.1,0.3l0.2,0.2l9.4,9.1
			l1.3,2.3l3.5,8.1l0,0.1l0,0.1l1.3,2.6l0.2,0.4l0.3,0.3l4.8,4l0.2,0.2l0.2,0.1l20.7,9.5l0.2,0.1l0.2,0l5.3,1.4l0.9,0.3l0.8-0.6
			l3.4-2.6l0.3-0.2l0.2-0.3l7.7-13.4l4.4-4.7l5.6-3.4l13.3-4.2l20-6.3l5.7,1.8l3.7,3.7l4.2,7.4l3.5,6.4l3.2,7.7l0.1,0.3l0.2,0.3
			l2.1,2.4l0.5,0.6l0.7,0.1l3.4,0.5l2.6,0.8l1.6,2.9l2.6,8.8l-3.2,6.1l-0.3,0.6l0.1,0.7l2.1,11.8l0,0.1l0,0.1l6.7,22.8l0.4,12.7
			l0,0.3l0.1,0.3l1.4,4.6l0.1,0.4l0.2,0.3l4.1,5.2l0.1,0.2l0.2,0.1l3.4,2.7l0.1,0.1l0.2,0.1l11.3,6l0.2,0.1l0.2,0.1l4.5,1.2l0.4,0.1
			l0.4,0l6.3-0.7l0.2,0l0.2-0.1l11.3-4.2l0.3-0.1l0.2-0.2l3.6-2.7l0.1-0.1l0.1-0.1l2.3-2.4l2.1-1.3l2.8-0.2l2.7,0.8l0.8,1l-0.3,2.1
			l-2.3,4.3l-0.8,1.5l1.4,1l3.2,2.4l0.5,0.4l0.7,0l16.5,0.1l5.4,1.1l5.1,2.5l4.8,4.6l3.9,7.1l2.1,15.2v18.8v0.1l0,0.1l2.3,16.6
			l0.1,0.7l0.5,0.5l9.1,8.6l2.2,2l1.1-2.8l0.7-1.7l1.1-0.4l0.9-0.3l0.3-0.9l1.7-4.5l4.5-7.7l1.5-1.8l2.9-1l10.8-0.9l10.2,1.2
			l4.9,2.5l4.3,3.1l0.1,0.1l0.2,0.1l4.6,2.2l0.4,0.2l0.5,0l5.9-0.1l0.4,0l0.4-0.1l16.2-6.8l4.6-0.5l4.1,2l8.3,9.3l0.2,0.2l0.3,0.2
			l5.3,3.1l4.9,4.4l6.9,14.8l0.3,0.6l0.6,0.3l4.7,2.3l1.3,0.6l1-1l1.9-1.9l0.6-0.6l0-0.9l-0.1-4l1.3-0.5l1.4,0.5l3.2,2l2.9,2.5
			l1.1,1.7l-0.4,3l-2.1,2.3l-6,4.7l-0.2,0.2l-0.2,0.2l-2.7,3.9l-0.1,0.2l-0.1,0.2l-1.2,3.3l-0.1,0.2l0,0.2l-1.4,7.3l-5,16.1
			l-0.1,0.2l0,0.2l-0.6,7.3l-0.1,1.3l1.2,0.6l3.7,1.9l0.9,0.4l0.9-0.4l4.8-2.3l1.9-0.3l1.2,0.6l4.1,16.5l0,0.2l0.1,0.1l1.6,3.8
			l0,0.1l0.1,0.1l1.5,2.7l0,1l-5.1,2.6l-0.1,0.1l-0.1,0.1l-6,4.3l-0.1,0.1l-0.1,0.1l-4.7,4.4l-0.1,0.1l-0.1,0.1l-1.9,2.3l-0.2,0.2
			l-0.1,0.3l-1.3,3.1l-0.1,0.2l0,0.2l-1.1,4.7l-0.4,1.7l1.6,0.7l0.3,0.1l1.2,5l0.2,3.4l-9.5-0.9l8.6,4.7l14.5,7.9l0.2,0.1l0.2,0.1
			l3.5,1l0.4,0.1l0.4-0.1l19.4-2.8l38.5,10.6l1.9,0.5l0.4,0.1l0.4-0.1l7.7-1.3l0.3,0l0.3-0.1l35.8-17.9l10.5-1.7l0.4-0.1l0.4-0.3
			l2.8-1.9l0.4-0.3l0.2-0.4l2.4-4.6l0.1-0.2l0.1-0.2l1.8-6.4l0-0.1l0-0.1l2-12.8l0-0.3l0-0.3l-0.3-2.8l0-0.2l-0.1-0.2l-1.3-4
			l0.6-3.1l1.2-2.7l27.1-27.6l4.3-2l0.6,3.5l0.2,1l1,0.4l3,1.3l0.6,0.3l0.6-0.1l6.9-1.4l1.2,1.5l-0.4,6.2l-1.4,8.2l0,0.1l0,0.1
			l-0.2,2.6l-0.5-0.6l-1.2,0.3l-1.5,0.4l-0.9,0.2l-0.4,0.9l-4.9,10.7l-0.1,0.3l0,0.3l-0.3,3.6l0,0.2l0,0.2l0.4,3.2l-0.2,3.8
			l-9.9,24.6l-0.1,0.2l0,0.2l-1.1,6.4l-0.1,0.7l0.4,0.6l3.4,5.7l0.3,0.6l0.6,0.3l11.6,4.7l3.5,6.4l0.4,4.6l-0.6,3l-3.3,9.9l-2,2.4
			l-0.3,0.4l-0.1,0.5l-0.5,2.5l-0.1,0.4l0.1,0.4l0.5,2l0.1,0.3l0.2,0.3l2.4,3.9l0.5,1.9l-0.1,14.7l0,0.7l0.4,0.5l2.4,3.1l0.5,0.6
			l0.8,0.1l6.7,0.9l0.3,0l0.3,0l5.9-0.9l0.2,0l0.2-0.1l10.9-3.9l4.5-0.2l0.1,0l0,0l3.9,2.2l9.5,9.3l0.2,0.2l0.2,0.1l5.1,3l0.2,0.1
			l0.3,0.1l8.8,2.5l2.5,2.5l11,15.9l0.1,0.1l0.1,0.1l3.8,3.8l0.1,0.1l0.1,0.1l4.7,3.5l0.3,0.2l0.4,0.1l6,1.7l0.5,0.2l0.5-0.1
			l11.5-3.1l4.5-0.2l4.7,4.7l4.7,5.8l1.3,4.4l-2.3,2l-0.6,0.5l-0.1,0.8l-0.8,5.6l0,0.3l0.1,0.3l0.7,3.7l0.1,0.5l0.3,0.4l1.2,1.6
			l0.5,0.6l0.8,0.1l4.3,0.8l0.5,0.1l0.5-0.2l1.9-0.6l0.7-0.2l0.4-0.6l2.7-4.1l2.5,1.6l0.2,0.1l0.2,0.1l7.7,2.8l4.3,3.9l12.2,22.1
			l0.9,3.2v3.7l-0.8,3.5l0,0.1l0,0.1l-0.3,3.6l0,0.5l0.2,0.5l1.6,3.5l0.4,0.9l0.9,0.2l5.6,1.5l0.8,0.2l0.7-0.4l6.7-3.9l0.1-0.1
			l0.1-0.1l6.3-5l3.8-1.7l7.3,3.4l0.2,0.1l0.2,0l2.2,0.6l0.4,0.1l0.4-0.1l3.9-0.5l1.3-0.2l0.4-1.2l1.3-4.2l2.6-3.6l5.3-2.7l5,1.2
			l5.3,2.6l0.3,0.1l0.3,0l5.6,1l0.6,0.1l0.6-0.2l3.2-1.4l0.5-0.2l0.3-0.4l3.1-4.1l1.8-1l1.7,0.2l5.2,3.3l0.3,0.2l0.3,0.1l3.1,0.7
			l0.7,0.2l0.6-0.3l6.1-2.9l0.3-0.2l0.3-0.3l6-6.4l0.3-0.3l0.1-0.4l2.4-6.2l0.6-1.6l-1.5-0.8l-2-1.1l1-0.9l0.3-0.2l0.2-0.3l2-4
			l0.1-0.1l0-0.1l3.2-8.8l4.4-4.6l0.3-0.3l0.1-0.3l1.4-3.4l0.2-0.6l-0.2-0.6l-1.4-5.7l-0.2-0.6l-0.5-0.4l-1.9-1.6l-0.5-0.4l-0.6-0.1
			l-4.6-0.5l-0.9-0.7l-0.5-1.6l0.9-2l0.1-0.3l0-0.3l0.4-4.3l1.9-2.7l0.4-0.6l-0.1-0.7l-0.3-3.1l0-0.5l-0.2-0.4l-1.5-2.4l-0.7-1.1
			l-1.3,0.2l-2.9,0.4l-5.8-2l-0.7-0.5l-0.4-5.6l0-0.1l0-0.1l-0.4-1.9l-0.1-0.3l-0.1-0.2l-6.1-12.1l-0.1-0.1l-0.1-0.1l-1.7-2.6
			l-0.2-0.4l-0.4-0.2l-3.3-2l-0.3-0.2l-0.4-0.1l-2.5-0.4l-1.8-0.9l-2.3-3.8l-1.5-4.7l-0.3-4.2l0.9-2.8l2.4-1.7l2-1.4l-1.8-1.7
			l-1.5-1.4l0.9-2.3l0.2-0.4l0-0.4l4.5,0.5l4.2,0.4l-2.3-3.5l-2.4-3.7l-0.2-0.3l-0.3-0.2l-5.7-4.3l-0.2-0.1l-0.2-0.1l-1.6-0.8
			l0.6-1.9l8.9-15.5l0.1-0.1l0.1-0.1l2.5-6.4l1.6-2.3l1.2-0.8l3.5-0.8l0.5-0.1l0.4-0.4l2.1-2l0.2-0.2l0.2-0.3l2.8-5.5l0.4-0.8
			l-0.4-0.9l-1-2.3l-0.1-0.3l-0.2-0.2l-1.3-1.6l0.2-4.2l0.9-1.2l4.7-2.1l0.4-0.2l0.3-0.3l1.9-2l0.4-0.4l0.1-0.6l0.6-3.2l0-0.2l0-0.2
			l-0.3-7.9l1.1-1.7l3.6-3.1l0.2-0.2l0.1-0.2l1.6-2.3l0.2-0.3l0.1-0.4l0.6-2.7l0-0.1l0-0.1l0.5-6.3l0.6-1.9l3.7-3.4l9.4-4.6l0.3-0.2
			l0.3-0.3l3.8-4l0.3-0.3l0.1-0.4l2.1-5.9l0.1-0.2l0-0.2l0.9-5.1l1.5-2.5l4.6-0.5l0.6-0.1l0.5-0.4l2.5-2l0,0l0.8,3.4l0.1,0.2
			l0.1,0.2l1.5,2.9l0.3,0.6l0.6,0.3l2.3,1.2l0.2,0.1l0.3,0.1l4.1,0.9l0.4,0.1l0.4-0.1l5.9-0.9l0.4-0.1l0.4-0.2l2.2-1.4l0.2-0.1
			l0.2-0.2l1.2-1.3l0.3,0l2.2,2.2l0.9,2.9l-0.3,3.4l0,0.3l0,0.3l0.6,3.2l0.2,1l1,0.4l3.8,1.7l1.3,0.6l1-1.1l2.4-2.7l0.3-0.4l0.1-0.5
			l0.7-2.8l0.2-0.6l-0.2-0.6l-0.9-2.4l-0.2-0.5l-0.4-0.3l-1.7-1.4l1.4-5.8l1.1-0.7l4.7-0.4l0.5,0l0.4-0.3l1.9-1.3l0.5-0.3l0.2-0.5
			l1.6-3.8l0.1-0.4l0-0.4l0.1-4.6l0-0.3l-0.1-0.3l-1.4-4.6l-0.1-0.4l-0.3-0.3l-2.4-2.6l1.5-1.9l5.7-4l0.3-0.2l0.2-0.3l2.2-3.4
			l4.7-2.3l10.9-3.1l0.4-0.1l0.3-0.3l4.8-4.3l1-0.9l-0.4-1.2l-1.1-3.3l0.5-3.4l1.5-3.4l2.2-2.6l2.7-1.5l2,0.1l2.6,1.1l0.2,0.1l0.2,0
			l3.5,0.6l0.4,0.1l0.4-0.1l6.9-1.3l0.6-0.1l0.4-0.5l3.2-3.4l0.6-0.7l-0.1-0.9l-0.5-5.7l0-0.4l-0.2-0.4l-8.8-15.3l-0.3-3.9l1.7-5
			l0-0.1l0-0.1l1.9-9.6l0-0.2l0-0.2l0.1-6.8l0-0.6l-0.3-0.5l-0.9-1.4l-0.5-0.8l-0.9-0.1l-1-0.2l-1.6-2.7l-1.3-3.8l-0.7-3.2l0.5-2.2
			l2.5-2.5l3.1-3.1l-4.4-0.3l-4.6-0.3l-10.8-2.4l-4.9-2.6l-1.1-0.6l-1,0.7l-1,0.6l-8.2,2.5l-1.5-0.1l-1.2-0.9l-2-4.3l-0.2-0.4
			l-0.3-0.3l-0.9-0.8l1.2-2.1l1.5-2.7l-3.1-0.3l-2.7-0.3l-0.8-0.3l0,0l1.6-2.5l0.8-1.2l-0.9-1.1l-3.4-4.4l3.9-6l7.7-6.5l5.7-3.3
			l1-0.6V386v-0.8l2.5-3l0.1-0.2l0.1-0.2l1.8-3.6l0.3-0.7l-0.2-0.7l-0.6-2.5l-0.4-1.5l-1.5,0l-17.4-0.4l-4.3-2.3l-1.9-3.7l1.9-1.2
			l1.7-1.1l-1.1-1.7l-15.8-24.2l-0.1-0.2l-0.1-0.1l-4.9-5l-0.5-0.5l-0.7-0.1l-4.3-0.4l-0.4,0l-0.4,0.1l-9.9,2.8l-1.7-0.2l-0.5-1.7
			l0.8-3.8l0-0.2l0-0.2l-0.1-3.9l0-1.2l-1-0.5l-3.2-1.7l0.1-1.7l0.2-2.6l-2.5,0.5l-5.1,1l-18.2-0.6l-2.6-0.8l-2.9-1l-0.3-0.1l-0.4,0
			l-21.8,0.6l-1.9-1.3l-5.1-5.7l-0.3-0.4l-0.4-0.2l-2.6-1l-1.1-0.4l-0.9,0.7l-2.3,1.8l-0.3,0.2l-0.2,0.3l-2.8,4.2l-0.8,1.2l-1.5,0.3
			l-2.1-0.4l-3.1-1.8l2.2-7.9l0-0.2l0-0.2l0.5-4.9l0.2-1.7l-1.6-0.5l-3.9-1.2l-5.3-2.6l-1.5-0.9l-4-2.9l-3.7-5.4L819,278l17.7-19.9
			l5.5-2.1l0.3-0.1l0.2-0.2l1.3-1l0.3-0.2l0.2-0.3l3.3-5.1l0.1-0.1l0.1-0.1l4.5-9.4l2.9-4.9l1-1.7l-1.8-1l-2.6-1.5l-0.4-0.2l-0.5,0
			l-2.5-0.1l-0.3,0L848,230l-0.7,0.2l7.5-12l0.1-0.1l0.1-0.2l4.1-10l0.4-1l-0.7-0.9l-3-4.2l0.5-4.5l1-3.1l0.2-0.1l1.9,1.6l1.6,1.4
			l1.3-1.7l2-2.7l0.1-0.2l0.1-0.2l1.4-2.9l0.1-0.1l0-0.1l1.9-5.6l0.2-0.6l-0.2-0.6l-0.9-3l0.1,0l0.3-0.1l2.8-0.5l0.2,0l0.2-0.1
			l2.6-1l0.2-0.1l0.2-0.1l2.4-1.6l1.9-1.3l-1.6-1.7l-5.2-5.7l0.5-3.1l3.2-3.1l1-0.9l-0.5-1.3l-3-7.2l-0.5-1.1l-1.2-0.1l-4.4-0.4
			l-0.3,0l-0.3,0.1l-6.9,1.8l-2.5-2.1l-5.3-7.3l-0.2-0.3l-0.4-0.2l-4.2-2.5l-0.4-0.2l-0.4,0l-3.4-0.4l-0.3,0l-0.3,0.1l-10.6,2.3H827
			l-2.2-1.5l-2.2-2.7l-0.2-0.2l-0.2-0.2l-3.6-2.5l-0.3-0.2l-0.3-0.1l-14.2-4.3l-5-4.3l-0.8-8.6l0-0.1l0-0.1l-1.8-8l-0.1-0.4
			l-0.3-0.3l-4.8-6.3l-0.2-0.3l-0.3-0.2l-6.1-3.8l-0.4-0.2l-0.4-0.1l-5.6-0.7l-0.6-0.1l-0.5,0.3l-5.1,2.5l-0.1,0.1l-0.1,0.1
			l-10.7,7.5l-4.8,1.8l-30.2-1.3l-0.3,0l-0.3,0.1l-8.1,2L716,109l-2.6-0.6l-0.1-13.2l0-0.7l-0.4-0.5l-4.5-5.8l-0.5-0.7l-0.8-0.1
			l-4.8-0.5l-0.2,0l-0.2,0l-9.4,0.8l-3.4-1.9l-1-2l-2.6-8.9l0-0.1l0-0.1l-1.4-3.6l-0.1-0.3l-0.2-0.3l-8.7-9.6l-1.4-3.3l0.8-8.2
			l2.8-6.3l0.1-0.2l0-0.3l1-6.9l0.1-0.6l-0.3-0.6l-5.1-9.7l-0.2-0.5l-0.4-0.3l-7.5-5l-0.5-0.7l-0.8-1.1l-1.3,0.3l-4,1l-0.8,0.2
			l-0.4,0.7l-1.6,2.5l-0.2,0.3l-0.1,0.4l-0.8,3.8l-1.7,4.8l-3.9,6.4l-5.9,7.9l-6,5.9l-4.4,1.3l-9.3-4.4l-0.2-0.1l-0.2,0l-4.8-1.2
			l-0.2-0.1l-0.2,0l-5.6-0.2l-0.4-1.5l-1.8-6.8l1.1-5.8l1.6-5.9l0.1-0.3l0-0.4l-0.6-6.2l-0.1-0.5l-0.3-0.4l-2.6-3.6l-0.2-0.3
			l-0.3-0.2l-4.4-2.8l-0.2-0.1l-0.2-0.1L599,9.9l-0.2-0.1l-0.3,0l-3.7-0.4L594.2,9.3L594.2,9.3z M597.1,42.7l1.1-0.2l8.5,4l-6.7-0.3
			l-3.5-1.5L597.1,42.7L597.1,42.7z"/>
	</g>
	<g>
		<path class="st0" d="M633.8,35.6c3.3,0,5.9,2.6,5.9,5.9c0,3.3-2.6,5.9-5.9,5.9c-3.3,0-5.9-2.6-5.9-5.9
			C627.9,38.2,630.5,35.6,633.8,35.6 M633.8,33.6c-4.4,0-7.9,3.6-7.9,7.9c0,4.4,3.6,7.9,7.9,7.9c4.4,0,7.9-3.6,7.9-7.9
			C641.7,37.1,638.2,33.6,633.8,33.6L633.8,33.6z"/>
	</g>
</g>
</svg>
