<?xml version="1.0" encoding="utf-8"?>
<!-- Generator: Adobe Illustrator 22.1.0, SVG Export Plug-In . SVG Version: 6.00 Build 0)  -->
<svg version="1.1" xmlns="http://www.w3.org/2000/svg" xmlns:xlink="http://www.w3.org/1999/xlink" x="0px" y="0px"
	 viewBox="0 0 1000 1000" style="enable-background:new 0 0 1000 1000;" xml:space="preserve">
<style type="text/css">
	.st0{display:none;}
	.st1{display:inline;fill:#FCE724;}
	.st2{display:inline;fill-rule:evenodd;clip-rule:evenodd;fill:#FFABAB;}
	.st3{display:inline;fill:#90F7FC;}
	.st4{fill:url(#SVGID_1_);stroke:#000000;stroke-miterlimit:10;}
	.st5{fill:#FFFFFF;stroke:#000000;stroke-miterlimit:10;}
	.st6{clip-path:url(#SVGID_3_);fill:url(#SVGID_4_);}
	.st7{clip-path:url(#SVGID_3_);fill:#13E5D0;}
	.st8{clip-path:url(#SVGID_3_);fill:#FFFF00;}
	.st9{fill:#FFFFFF;}
	.st10{fill:#FCEE21;}
	.st11{display:inline;}
	.st12{fill:none;stroke:#000000;stroke-width:2;stroke-linecap:round;stroke-linejoin:round;stroke-miterlimit:10;}
</style>
<g id="Layer_1" class="st0">
	<circle class="st1" cx="500.5" cy="500.5" r="486"/>
	<path class="st2" d="M313.1,224.6c2.1-1.4,5.4-1,7,0.8l56.7,72.1c1.8,2.3,1.7,5.4-0.8,7.2c-7,5.2-13.8,10.5-20.4,16.2l-3.5,3.1
		l360.5,459.5c1.7,2.2,1.3,5.3-0.9,6.9l-38.8,30.4c-2.2,1.7-5.2,1.3-6.9-0.8L312.5,369.4l-3.7,6.1c-3.7,6.2-7.1,12.7-10.2,19.3
		c-13.3,29.3-18.1,60.3-16.9,92.4l0,0.2c0.2,3.2-2.6,5.8-5.7,5.2c-1.9-0.3-3.8-0.7-5.7-1.2c-36.3-8.6-73.4-37.2-97.3-65.3
		c-25.3-29.6-46.4-70.5-39.3-110.5c0.7-3.8,1.1-9,5.9-8.8c22.9,0.5,45.4-4.3,66.7-12.4c10.3-4,20.2-8.8,29.8-14.3l5-2.8l-11-14.1
		c-1.7-2.2-1.3-5.3,0.9-6.9l38.8-30.4c2.2-1.7,5.2-1.3,6.9,0.9l12.7,16.3l3.9-3C299.9,234.9,306.4,229.7,313.1,224.6L313.1,224.6z"
		/>
	<path class="st3" d="M879.1,414.3c-6.1-42.4-33.1-79.4-73.9-92.8c-14.7-4.8-29.6-6.4-44.1-5.2c4.7-13.8,6.7-28.6,5.6-43.9
		c-3.4-42.7-32.9-77.8-72.6-93.9c-17.6-7.1-33.8-8.9-48.8-7.3c-7.1,0.7-9.8,10.2-3.9,14.3c26.8,19,46.5,49.3,51.2,91.9
		c0.1,1.2,0.3,2.3,0.3,3.5c-3.9-11.5-9.6-22.6-17.4-32.8c-24.3-31.4-64.9-45.3-104.2-40.2c-23.4,3-40.8,11.8-54.5,23.4
		c-4.4,3.7-1.9,10.8,3.8,10.9c34.3,1,68.7,16.2,96.2,51.3c12.8,16.3,21,33,25.5,49.6c-7.4-14-19.7-25.6-35.5-32
		c-24.4-9.7-52.4-3.4-72.4,13.5c-8,6.7-13.5,14.2-17.1,21.8c-2.5,5.2,2.9,11,8.2,8.6c18-8.2,39.7-9.6,63.7-0.3
		c19.7,7.7,22.3,10.8,30.8,25c-2,1.1-246.7,112.9-344.6,419.9l73.7,22.2c85.8-340.1,312.6-393.6,312.8-394.1
		c10.7,11.4,18.3,26.8,20.9,46.5c3.4,25.5-3.1,46.5-15.5,61.9c-3.6,4.5,0.7,11.1,6.3,10c8.3-1.7,16.9-5.2,25.4-11.5
		c21.2-15.5,34.1-41.1,30.3-67c-2.5-16.9-10.7-31.6-22.7-42.2c15,8.3,29.3,20.3,42,36.6c27.2,34.6,34,71,27.3,104
		c-1.2,6.2,5.6,10.8,10.7,7c14-10.5,26.1-25.1,34.3-46.4c14.3-37,10.6-79.8-14.2-110.8c-8-10-17.5-18.3-27.7-24.7
		c1.1,0.3,2.1,0.7,3.3,1.1c39.7,14.5,64.4,40.4,76.6,70.5c2.8,7,13.2,6.8,15.6-0.4C879.8,448.3,881.8,432.6,879.1,414.3L879.1,414.3
		z"/>
	<path class="st1" d="M554,395"/>
</g>
<g id="Layer_3">
</g>
<g id="Layer_4">
</g>
<g id="Layer_5">
	<linearGradient id="SVGID_1_" gradientUnits="userSpaceOnUse" x1="2.728484e-12" y1="497.5" x2="995" y2="497.5">
		<stop  offset="0" style="stop-color:#FFFFFF"/>
		<stop  offset="0.467" style="stop-color:#FF00FF"/>
	</linearGradient>
	<circle class="st4" cx="497.5" cy="497.5" r="497.5"/>
	<path class="st5" d="M372.3,287.8"/>
	<g>
		<defs>
			<circle id="SVGID_2_" cx="497.5" cy="497.5" r="497.5"/>
		</defs>
		<use xlink:href="#SVGID_2_"  style="overflow:visible;fill:#FFFFFF;"/>
		<clipPath id="SVGID_3_">
			<use xlink:href="#SVGID_2_"  style="overflow:visible;"/>
		</clipPath>
		<linearGradient id="SVGID_4_" gradientUnits="userSpaceOnUse" x1="493" y1="627" x2="493" y2="65">
			<stop  offset="0" style="stop-color:#FF00FF"/>
			<stop  offset="1" style="stop-color:#29ABE2"/>
		</linearGradient>
		<rect x="-87" y="-81" class="st6" width="1160" height="1020"/>
		<ellipse class="st7" cx="500" cy="841" rx="396.5" ry="204"/>
		<circle class="st8" cx="787.5" cy="203.5" r="97.5"/>
	</g>
	<path class="st9" d="M304.3,786.4c0,0,76.6-306.5,328.8-422.7c0,0-68.6-26-121.8,72.3c0,0-10.5-166.9,127.3-131.6
		c0,0-74.2-61.8-161.3,53.2c0,0,25.3-85.9,60-106.9s65.5-39.6,89.6-39.6c24.1,0,63.7,48.8,63.7,48.8s8.7,11.1,9.3,24.1
		c0,0,92.1-71.1,120.5,24.7c0,0-60.8-39.8-90.9,22.9c0,0,56-8.2,55.6-6.6c-0.4,1.6,10.3-2.9,21,12.8c10.7,15.7,31.3,25.5,30.1,33.8
		c-1.2,8.2,21.8,107.1-30.1,167.7c0,0,6.8-181.1-100.7-151.4c0,0,77.3,30.9-35.8,157c0,0,17.8-147.5-34.6-150.7
		c-52.4-3.3-234.5,234.5-246.6,401.4C388.4,795.4,372.2,808,304.3,786.4z"/>
	<g>
		<path class="st9" d="M344.4,222.6l24.9,41.1l306.1,512.7c0,0-43.4,23.8-51.8,7c-8.4-16.8-319.7-548.2-319.7-548.2L344.4,222.6z"/>
		<path class="st9" d="M462.1,382.3c0,0-54.8,24.8-98.1,69.4c-28.7,29.5-52.4,67.6-51.8,112.8c0,0-163.9-21-162.5-225.6
			c0,0,156.9-9.8,248-82.7L462.1,382.3z"/>
	</g>
	<polygon class="st10" points="236,847 193,847 211,810 	"/>
	<polygon class="st10" points="513.6,856.8 483.2,826.4 522.1,812.9 	"/>
	<polygon class="st10" points="263.5,736.7 253.5,694.9 293.7,703.8 	"/>
	<polygon class="st10" points="745.6,764.6 785.3,748.2 782.8,789.3 	"/>
	<polygon class="st10" points="546.3,685.5 562.9,725.2 521.8,722.9 	"/>
	<polygon class="st10" points="420.3,911.5 436.9,951.2 395.8,948.9 	"/>
	<polygon class="st10" points="649.3,871.5 665.9,911.2 624.8,908.9 	"/>
</g>
<g id="Layer_2" class="st0">
	<g class="st11">
		<g>
			<path class="st12" d="M701.1,701.2c3.4-2.7,6.6-0.1,9.6,0.8c9.7,2.9,18.1,8.8,27.1,13.4c6.9,3.6,12.5,8.9,18.7,13.4
				c15.2,11.2,27.2,25.6,40.5,38.7c10.6,10.4,16.4,24,24.7,35.9c8.3,12.1,0.5,21.6-3,31.6c-2.8,8.1-7.1,16.1-12.9,22.4
				c-12.6,13.8-26.4,26.6-44.2,33.6c-9.3,3.7-18,8.7-27.6,11.7c-15.5,4.9-31.1,9.6-46.5,15c-8.3,2.9-17.7,2.6-26.3,5.5
				c-18.8,6.3-38.1,8.8-57.9,9.3c-13,0.3-25.9,2.2-38.7,5.4c-9.4,2.3-19.1,3.6-28.9,3.4c-17-0.4-34,0.2-50.9,2.5
				c-14.1,1.9-28.2,4.4-42.5,3.8c-11.1-0.4-21.9-2.9-32.8-4.4c-7.9-1-15.7-3.6-23.8-3.3c-16.6,0.6-33.1-0.9-49.6-1.7
				c-12.9-0.6-25.9-2.9-38.7-5.6c-10.5-2.3-21.4-3.9-32.1-5.5c-17.9-2.7-36.1-3.2-53.5-9c-2.4-0.8-5-0.1-7.1,1.8"/>
			<path class="st12" d="M742.3,999.9c-4.8,1.8-10.1,1.8-14.8,2.1c-14.2,0.9-21.8,10-29.6,19.7c-5.9,7.3-7.2,16.6-11.4,24.6
				c-1.2,2.3-0.6,6,0.9,8.2c7.5,10.8,15.9,21.6,29.2,24.2c14,2.7,27.5,7.8,41.8,8.7c3.7,0.2,6.1,2.1,8.4,4.6
				c8,9,11.5,19.8,13.7,31.5c3.1,16.7-3.3,31.1-9.3,45.7c-2.6,6.4-9,8.8-14.7,11.6c-4,2-8.1,3.7-11.6,6.4c-3.4,2.7-7.4,3.7-11.6,3.8
				c-9,0.3-18,0.1-27,0.6c-6.8,0.4-12.8-3.6-19.3-5c-4.2-0.9-8.2-0.9-12.2,0.7"/>
			<path class="st12" d="M242.1,1042.4c-0.7-2.7-1.9-5.2-3.9-7c-5.5-4.8-9-11.1-12.1-17.5c-4-8.3-11.5-10.8-19.4-11.4
				c-18-1.3-36,0.9-52.7,7.8c-10.8,4.4-21,10.2-27.4,21.5c-8.8,15.5-13.2,31.4-10,49.1c2.2,12.6,9.6,22.7,17.5,32
				c2.6,3.1,7.5,4.6,12,4c9.9-1.5,17.6,3.9,25.7,7.8c4.7,2.3,5.4,6.4,3.8,10.9c-5.2,15.2-16.3,21.5-32.8,18.7
				c-7.2-1.2-14.9,0.3-21.3-4.5c-1.4-1-3.4-1.4-4.4-2.7c-7.3-8.4-18.3-10.3-27.1-16"/>
			<path class="st12" d="M316.1,1074.6c1.2-4.7,3-8.1,8.2-10.6c8.9-4.4,16.9-10.9,25.3-16.4c10.7-7,22.6-9.6,34.7-6.2
				c10.9,3.1,21.3,8.2,29.7,16.5c7.9,7.8,9.7,18.2,10.7,28.4c0.9,9.8,1,19.7,1.5,29.6c0.6,13.1-1.5,25.9-4.8,38.7
				c-1.6,6.3-0.5,13.4-2.2,19.9c-3,11-6.1,22-8.9,32.2c-12.2-0.4-22.1,10.2-34.9,4.3c0.8-9.9,0.9-20.8,2.8-31.3
				c3.2-17,2.1-34,0.9-50.9c-0.6-8.4-2-17.1-5-25.1c-3.2-8.3-9.7-14.7-14.8-21.9c-1.2-1.7-3.2-0.5-5.1,0.5
				c-11.8,5.9-21.1,14-24.3,27.2c-2.3,9.5-7.2,17.9-10.4,27c-7.4,20.5-14.2,41.2-16,63.1c-0.2,2-0.7,4.4-2,5
				c-7.4,3.4-13.8,10-23.1,7.8c-5.2-1.2-10.4-0.3-15.4,0.5c-4.3,0.6-6.1-1.1-6.4-5c-0.2-2.3-0.5-4.8,0-7.1
				c5.3-20.3,5.4-41.6,10.6-61.7c4.5-17.5,6.4-35.4,10.5-52.9c3.8-16.1,6.8-32.5,9-48.9c0.5-3.4,2.2-6.7,1.4-10.3"/>
			<path class="st12" d="M324.5,299.5c-5.6,3.2-10.9,6.9-16.7,9.8c-4.9,2.4-5.1,5.3-2,9.5c15.9,21.9,31.1,44.4,44.9,67.7
				c17.5,29.6,36,58.6,49.5,90.5c6.8,16,13.8,32.2,23,47c7,11.2,12.8,23,19.8,34.2c1,1.6,0.7,3.1,0.5,4.5c-1,6.9,1.1,13.8-0.5,20.6
				c-0.7,3.3-0.4,6.6,2.5,9"/>
			<path class="st12" d="M1214.8,927.2c13.9,17.5,28.6,34.4,40.5,53.4c6.9,11,14,21.9,20.2,33.4c4.5,8.4,9.9,16.1,11.5,25.8
				c3,18.8,8.7,37,13.6,55.4c7,26.5,14.5,52.8,21.8,79.2c1.2,4.5,0.4,10,6.1,12.2"/>
			<path class="st12" d="M757.7,505.8c-1.7-2.7-1.7-5.8-1.2-8.7c2.6-15.2,2.9-30.4,2.4-45.7c-0.7-25.2-6.9-48.8-21.8-69.5
				c-4.1-5.7-10-7.4-16.6-9.4c-10-3.2-16.9,0.8-24.7,5.5c-8,4.8-16.5,8.8-24.2,13.9c-13.2,8.6-23.7,20.3-33.7,32.5
				c-15.7,19.2-30.1,39.6-47.6,57.3c-5.5,5.6-9.8,12.3-13.9,18.8c-7.5,12-14.2,24.7-20.7,37.3c-6.7,12.9-12.7,26.3-19.5,39.2
				c-3.6,7-7.2,14-10.1,21.3c-1,2.5-2.2,4.6-4.6,5.8"/>
			<path class="st12" d="M1003.7,1145.4c6.2-2,12.1-4.4,17.5-8.3c8.8-6.3,11.8-15.9,15.3-25.2c3.9-10.3,5.7-21,5.3-32.2
				c-0.5-13.5,1.5-27.3-2.7-40.5c-4.3-13.6-7.1-28.1-14.4-40.4c-6.6-11.2-16.1-20.9-26.4-28.8c-5.4-4.2-13-5.9-19.1-9.9
				c-1.4-0.9-3.9-0.5-5.7,0c-3.2,0.8-6,0.2-9.1-0.6c-9.1-2.6-14.5,1.8-20.2,14.6c-4.1,9.4-1.8,19.1-4.2,28.5
				c-3.6,14.1-2.7,28.8-2.3,43.1c0.3,11.5,2.1,23.1,6.1,34.1c5.2,14.6,10.6,29,20.6,41.2c8.7,10.7,18.1,20.1,32.2,23.3
				c2.2,0.5,4.6-0.6,6.5,1.1"/>
			<path class="st12" d="M79.8,1166c5.2,9.8,13.9,15.4,23.8,19.3c8.9,3.5,18.1,5.8,25.4,13.2c3.4,3.4,10.3,4.1,15.8,4.7
				c9.8,1,19.6,1.1,29-3.5c4.8-2.4,10.6-2.7,16-4.1c17.1-4.2,29.9-13.5,35.3-30.9c2.4-7.7,3.6-15.7,3.3-23.8
				c-0.4-10.6-11-20.9-21.2-22.7c-11.4-2.1-22.8-1-34.2-2.3c-2.7-0.3-4.9-0.9-7.1-2.6c-8.7-6.8-17.4-14.3-17.6-25.8
				c-0.2-11.5-0.1-23.9,9.9-32.9c2-1.8,3.5-4.2,5.2-6.4c3.5-4.8,8.2-7,14.2-7.1c6.7-0.2,13.3-0.6,20-1.3c9.3-1,13,6.2,18.1,11.6
				c2.5,2.7,3.1,6.5,5.8,9"/>
			<path class="st12" d="M170.6,387.1c-1,8.8-3.7,17.3-3.4,26.4c0.6,18.1,4.4,35.6,9.9,52.7c3.3,10.3,5.2,21.1,10,31
				c9.1,18.7,20.7,35.8,35.2,50.5c7.3,7.4,17.5,11.8,26.7,17.1c12.2,7,23.5,15.5,36.8,20.5c1.7,0.6,3.2,2.1,5.2,0.6"/>
			<path class="st12" d="M153.9,389c-5.7-2.6-10.2-1.5-13,4.9c3.9,5.1,2.7,11.7,3.8,17.7c3.2,16.4,9.3,31.7,15.6,47
				c5.3,12.9,10,26.1,14.9,39.2c2.5,6.7,6.1,12.9,10.3,18.7c7.6,10.5,12.9,22.5,21.7,32.3c10.9,12.2,23.9,21.1,38.7,27.6
				c12.7,5.6,25.3,11.7,34.2,23.1"/>
			<path class="st12" d="M794.4,969c4.5,23,8.4,46,13.5,68.9c2.8,12.7,5,25.6,6,38.6c0.3,3.7,2,7.3,3.1,11
				c6.2,19.5,12.1,39.2,18.8,58.5c4.1,11.9,12.9,20.2,25,23.7c8.9,2.6,18.4,0.9,26.9-2c10.4-3.5,20.1-9,30.4-13.2
				c8.9-3.6,10.7-10.3,9.3-18.7"/>
			<path class="st12" d="M533.1,1033.4c0.2,1.7-0.5,3.5,0.6,5.1c14,0.2,28-1.2,41.8,1.4c18.5,3.5,34,10.7,41.4,30.7
				c6,16.2,8.9,32.8,11.4,49.6c3.2,21-9,41.4-29,48.2c-4.5,1.5-7.3,5.2-10.8,8c-7.7,6.1-16.2,9.4-25.9,10.2
				c-1.1,0.1-2.2,0.7-3.9,1.3c2.6,13.2,3,26.7,5.2,39.9c0.3,1.9,0.1,3.9,0,5.8c-0.2,14.6,1.2,29.2,1.7,43.8
				c0.3,9.2-0.4,18.4-0.4,27.7c0,6.7,0.4,13.3,1.2,20c0.2,1.9,0.6,3.9-1,5.9c-0.6,0.7-1.7,4.3,1.7,5"/>
			<path class="st12" d="M466.7,1052.1c-3.6,12.2-5.3,24.8-5.6,37.3c-0.5,20.3-3.6,40.3-4.3,60.5c-0.3,9.9-2.3,19.9-4.4,29.6
				c-2.5,11.3-1.7,22.9-3.7,34.2c-0.7,4.1,1,6.6,5.7,5.8c10.1-1.7,20.2,0.1,30.3-0.7"/>
			<path class="st12" d="M900,512c-4.2-5.9-1.5-12.5-1.7-18.7c-0.8-27.5-5.8-54-18.4-78.4c-7.7-14.8-16-29.6-27.6-41.9
				c-11.4-12.1-25.6-17.5-42.4-14.3c-3.6,0.7-7.3,1.5-10.9,1.9c-3,0.3-5.7,0.8-7.1,3.9"/>
			<path class="st12" d="M788.6,253.1c-4.7-4.1-5.2-10.3-7.7-15.4c-7.5-15.6-19.5-27.4-32.8-38c-5-4-10.1-7.9-14.7-12.3
				c-7.9-7.4-17-9-27.2-7.6c-11.2,1.5-21.5,6-31.6,10.9c-14.8,7.3-28.5,17-43.8,23c-11.7,4.6-21.3,11.9-28.7,21.6
				c-6.4,8.3-11.8,17.6-17,26.8c-9.2,16.3-16.7,33.3-24.5,50.2c-1.3,2.8-2.2,5.1-0.5,7.8"/>
			<path class="st12" d="M735.8,283.4c-3.4,0.2-5.1-1.6-7.3-4.4c-7.4-9.4-17.6-14.3-29.4-15.5c-4.3-0.4-7.7,3-12.2,3.4
				c-10.7,0.8-21.4,3.1-31.6,6.8c-15.8,5.8-27.1,16.9-36.7,30.2c-7.1,9.8-13.4,19.9-18.9,30.8c-7.1,14.2-11,28.9-12,44.5
				c-0.4,6.9-0.9,13.8-0.5,20.6c0.2,4.4,0.1,9.3,3.7,12.9"/>
			<path class="st12" d="M1165.3,971.6c-3.9-3.9-7.7-7.8-11.6-11.6c-3-2.9-6.8-3.9-10.2-1.9c-17,10-29,24.4-35.4,43.1
				c-3,8.8-1.7,17.6,1.4,26c4.1,11.4,4.9,23.6,8.2,35.1c3.6,12.5,4.5,25.6,8.5,38c1.4,4.4,0.5,6.9-4.5,7.8c-7.3,1.4-13.9,4.6-20,8.9
				"/>
			<path class="st12" d="M808,306.6c7.5-1.7,15-3.4,22.5-5.2c1.3-0.3,2.8-1.5,3.8-1.2c10.7,3,20.9,0.2,30.9-2.8
				c8.4-2.5,15.6-0.6,22.6,4c3.5,2.3,6.1,5.4,9,8.4c8.6,9,17.2,17.9,25.8,27c4.7,5,6.3,11.2,6.5,18c0.5,13.5,1.4,27,1.8,40.6
				c0.6,17.6,2.9,35.6-2.1,52.7c-6,20.3-13.5,40.2-22.8,59.4c-2,4.2-7.7,5.5-7.8,10.9"/>
			<path class="st12" d="M1090.6,973.5c-7.9-11-9.8-24.7-16.4-36.5c-7.5,2.8-14.6,5.3-21.7,7.9c0.9,9.4,6,17.2,8.8,25.8
				c5.4,16.6,9.9,33.3,13.1,50.3c2,10.4,5.9,20.2,9,30.3c5,16.2,10.7,32.2,13.5,48.9c0.2,1.4,2.2,4.3-1.9,3.9"/>
			<path class="st12" d="M281.3,296.3c3.2,6.7,6.6,13.3,9.6,20c4.3,9.3,8.4,18.8,12.5,28c-2.6,2.7-5,5-7.3,7.5
				c-8.5,9.3-19.4,13.4-31.6,14.8c-5,0.6-9.3,3.3-14.1,4.6c-10.8,3-22.1,2-32.9,5c-7.2,2-14.5,1.7-21.9,0.7"/>
			<path class="st12" d="M876.8,1046.3c-8.6,3-17.1,6.3-25.8,8.9c-4.3,1.2-4.4,3.8-4.5,7.2c-0.2,12.9,3.6,25.4,7.6,37.2
				c3.5,10.4,8.5,21.1,17,29c3.6,3.3,8.9,3.4,13.4,2.5c9.8-2,19.1-6.1,29-8.3c4.9-1.1,8.7-4.3,12.2-7.7"/>
			<path class="st12" d="M1307.5,900.8c0.1,0.9-0.5,2.1,0.7,2.5c9.5,3.4,15.8,15.3,28.3,10.4c0.8-0.3,1.9,0,3.1,0
				c1.4,7.2-1.5,14-3.3,20.5c-4.7,17.2-6.9,34.9-10.8,52.2c-1.7,7.7-1.7,16.1-4.8,23c-4.8,10.8-1,20.2,0.1,30.5
				c0.8,7.5,2.6,15,2.7,22.5c0.2,8.2,2.4,15.7,5.3,23.2c3.9,10.1,5,21,9.6,30.9c7.2,15.5,10,32.4,16.2,48.2c1.4,3.6,1,8.5,5.7,10.3"
				/>
			<path class="st12" d="M714.6,337.5c-4.5-1.4-9.2-1.6-13.6-3.8c-5.2-2.6-10.7-0.9-16-0.1c-13.4,1.9-26.6,4.3-38.7,10.9
				c-3.6,2-6.9,4.4-9.5,7.2c-10.1,10.8-21.5,20.5-29,33.4c-6.3,10.8-12.1,21.9-18.1,32.8"/>
			<path class="st12" d="M374.7,466.9c-11.8,6.7-23.5,13.5-32.3,24.4c-3.4,4.2-8.4,6.7-12.8,9.7c-9.7,6.8-15,17-20.8,26.9
				c-3.2,5.5-8,10.8-8.5,16.9c-0.8,8.9-4.4,17-5.7,25.7c-0.9,6-2.1,12-2.7,18.1"/>
			<path class="st12" d="M725.5,729.6c-2.4-5.9-6.2-10.4-11.4-14.4c-5.1-3.9-10.5-7.5-14.1-13.7c-2.9-5-10.8-5.4-16.4-7.8
				c-3.8-1.6-7.4-2.4-9-6.6c-0.4-1-1.5-2.1-2.5-2.6c-10-4.8-19.5-11.1-30.3-14c-6.5-1.7-12.5-5-19.2-6.1c-12.6-2.1-24.9-5.6-38-6.1
				c-9.2-0.3-18.4-1.1-27.7-0.9c-2.8,0-5.5,0.1-7.7,2"/>
			<path class="st12" d="M705.6,336.8c-4.5,5.4-11.6,6.6-16.8,10.9c-17.4,14.4-36.4,26.8-53.6,41.6c-7.8,6.7-16.9,12.2-25,18.8
				c-14,11.4-26.5,24.1-38.6,37.4c-11.3,12.5-24.3,23.4-36.7,34.7c-20.9,19.2-36.2,42.4-50.8,66.4"/>
			<path class="st12" d="M696.6,263.4c-0.3-2.7-2.1-3.6-4.5-3.9c-10-1.4-20.3-2.3-30.2-1.5c-9.2,0.7-18.4,3.9-27,7.5
				c-17.2,7.2-33.7,16-49,26.9c-7.7,5.5-13,13.3-18.4,20.8c-2.6,3.7-6.5,6.1-8.6,10.1c-1.6,3-1.7,6.4-2.6,9.7"/>
			<path class="st12" d="M303.9,346.5c5.4,8.3,12.5,15.5,16.6,24.5c3.9,8.6,8,17,12.7,25.2c8.2,14.1,17.2,27.6,25.4,41.7
				c5.5,9.5,9.8,20.1,17,28.1c11,12.2,17.2,26.9,24.7,40.9c10.6,19.8,22,39.1,34.2,57.9c1.9,2.9,4.3,5.2,7.1,7.1"/>
			<path class="st12" d="M493.8,1045c-0.7,8.4,0.9,16.8-0.6,25.1c-3.6,19.2-4.5,38.7-7.3,57.9c-1.3,8.8-1.1,17.8-3.6,26.4
				c-0.3,1-0.2,2.2,0,3.2c2.8,18.9-0.7,37.8-0.1,56.7c0,1.1-0.8,2.1-1.2,3.2"/>
			<path class="st12" d="M766.7,375.5c5.8-4.8,11.9-9,19.3-11c1.6-0.4,3.3-1.1,4.5-0.2c7.1,5.8,13.4,12.8,14,22.2
				c0.7,12.4,0.7,25-2.2,37.4c-2.7,11.3-5.9,22.2-12.3,32.2c-8.2,12.9-16.2,26-23.8,39.3c-3.1,5.4-8.3,9.3-10.4,15.4
				c-0.4,1.3-2,2.3-0.6,3.9"/>
			<path class="st12" d="M521.5,612.4c-6.4,6.2-7.6,14.9-10.9,22.6c-4.6,10.8-9.1,21.6-13.9,32.3c-5.7,12.8-11.3,25.8-15.8,39.1
				c-2.6,7.7-6.1,15.2-7.6,23.2c-2.2,10.9-4.5,21.8-5.7,32.8c-0.8,7.6-4.7,14.6-3.4,22.5c0.8,5.1,1.7,10.2,1.3,15.4
				c-0.1,1.7,0.2,3.5-0.7,5.1"/>
			<path class="st12" d="M318.7,280.2c5.2,9.6,7.4,20.5,12.3,30.2c2,4,4.6,7.8,7,11.6c7.1,11,14.4,21.9,20.6,33.5
				c3.4,6.4,3.7,13.7,7.5,20.1c7.8,13.1,16.1,25.9,24.5,38.6c6.4,9.8,16.3,16.7,21.4,27.6c4.4,9.2,9.9,17.7,14.2,27
				c3.6,7.7,9.1,14.4,13.9,21.4c9.2,13.2,17.4,27,26.9,40c5.2,7.1,12.4,12.5,16.8,20.4c0.4,0.7,2.8,1.9,4.6,1.4"/>
			<path class="st12" d="M413.3,672.9c-6-4.9-12.4-1-17.9,0.3c-11.6,2.9-22.1,9.8-33.7,12.8c-10,2.6-17,9.6-25.8,13.2
				c-9.4,3.9-17.6,9.4-25.4,15.1c-7.2,5.3-14.6,9.7-22.7,13.3c-4.8,2.1-8.8,5.6-12.9,9c-12.7,10.5-27,19-38.1,31.5
				c-4.8,5.5-9.5,10.9-15.7,15.3c-4.5,3.1-6.3,10.3-9.3,15.7c-3.4,6.3-7.8,12-10.6,18.7c-0.5,1.2-1.5,0.4-2.3,0.6"/>
			<path class="st12" d="M736.2,981.3c-5.9,4.2-12.9,5.4-19.6,4.2c-3.4-0.7-6.6-0.5-9.7-0.2c-5.2,0.5-9.8,3.8-15.5,3.3
				c-2-0.2-4,1.9-5.1,3.7c-7.2,11.6-16.9,21.5-22.5,34.1c-5.2,11.6-5.5,23.5-2.8,36.1c2.9,13.6,11,23.3,20.7,32.2
				c2.6,2.4,5.2,3.2,8.4,3.1c4.2,0,8.6,1.9,12.2,1.6c14.4-1.2,21,10.2,30.2,17.2c3.6,2.7,4.8,13.9,1.9,17.9
				c-5.5,7.5-11.3,14.7-21.8,15.7c-6,0.6-12,1.5-18,2c-5.8,0.5-11.6,1.5-17.9,1.8c-0.5,10.4-2.4,20.9-0.7,31.5"/>
			<path class="st12" d="M341.8,324.6c8-6.2,17.7-7.6,27.3-10.8c8.3,13.2,16.2,26.2,22.6,40.3c7.7,17.1,17.7,33.2,26.7,49.7
				c3.2,5.8,6.4,11.6,9.6,17.4c3.3,5.9-2.5,9.1-4.8,12.7c-2.2,3.4-6,6.3-9.3,9.2"/>
			<path class="st12" d="M517,596.9c0.2,0.9,0.2,1.8,0.7,2.6c5.5,9.4,10.3,19.5,13,29.8c2.5,9.5,7.8,17.3,12.7,24.6
				c6,9,8.5,19.2,14.2,28.1c5.8,8.9,12.2,17.5,18.3,26.2c5.6,8,10.4,16.3,15.3,24.6c5.1,8.7,10.4,17.4,16.2,25.7
				c2.3,3.3,3.8,6.5,3.7,10.4"/>
			<path class="st12" d="M457.1,593.7c-6.6,6.9-9.9,15.9-14.6,24c-9.4,16.2-17.6,33.3-26,50.1c-7.1,14.2-12.6,29.1-18.5,43.9
				c-8.1,20.5-13.8,42-18.3,63.6c-0.3,1.4-0.4,2.7-1.3,3.9"/>
			<path class="st12" d="M964.4,1031.5c1.5,7.7,1.6,15.5,2.6,23.2c1.4,10,2.7,20.4,8.5,28.9c5.6,8.2,14.8,10.1,24.3,9
				c9.2-1.1,15.1-6.9,16.7-16.3c2.1-13.2,2-26.5-0.7-39.6c-0.7-3.6-2.2-7.4-4.5-10.2c-7.9-9.8-14.5-20.6-22.2-30.4
				c-17,4.9-24,11.5-24.7,29.7c-0.1,1.7,0,3.4,0,5.2"/>
			<path class="st12" d="M497,673.5c14.5,18.9,26.6,39.4,38.7,59.8c2.8,4.8,6.2,9.2,9.6,13.5c6.2,8,10.4,17.5,18,24.5
				c1.4,1.3,2.3,3.5,5.2,2.6c13.6-4.5,27.6-6.2,41.8-5.8"/>
			<path class="st12" d="M827.3,954.9c-2.4-0.3-4.4,1.6-3.7,3.1c4.4,10.1,0.1,20.8,2.5,31c1.9,8.1,0.7,16.4,3.6,24.6
				c4,11.5,16.2,15.1,26.6,11.4c4.5-1.6,8.6-4,13.5-4.1"/>
			<path class="st12" d="M1167.2,976.8c-4.4-4.5,0.8-8.1,2.3-10.7c3.1-5.5,4-11.8,7.8-17.1c3.1-4.4,0.1-9.8-6.9-14.6
				c-9.6-6.7-19.9-7.7-30.9-3.9c-2.5,0.8-5,1.4-7.7,1.4c-4,0-7.9,1.2-10.9,3.8c-7.9,6.9-15.8,13.8-22.6,21.8
				c-3.6,4.3-3.4,10.7-8.4,14.2"/>
			<path class="st12" d="M201.2,819c0.8,2.9,1,5.3-0.8,8.5c-6.6,11.7-14.4,23.4-14.8,37.2c-0.4,14-3,27.8-2.9,41.8
				c0,4.2,1.6,7.2,5.3,8.2c4.7,1.3,8.4,6.3,14.1,4"/>
			<path class="st12" d="M874.9,243.5c-7.4,6.8-16.7,10.9-25.2,15.9c-10.3,6.2-20.6,12.6-30.6,19.2c-8.3,5.4-12.3,14.8-11.2,25.4
				c0.2,2-0.9,3.5-1.6,5.2"/>
			<path class="st12" d="M1308.2,904.7c-4.2,5.3-4.6,12.1-4.2,18c0.9,12.2-1.1,24.1-1.7,36.1c-0.3,6.3-1.7,12.5-2.8,18.7
				c-0.7,3.9-4.8,6.1-4.2,10.2"/>
			<path class="st12" d="M546.6,1071.4c4.1-0.8,7.7,2.2,8.7,4.6c4.5,10.2,13.9,13.2,22.9,16.4c4.9,1.8,5.6,6.2,8.1,9.4
				c8.3,10.2,7.7,17.9-0.4,28.3c-2.4,3-4.9,3.9-8.5,3.8c-4.7-0.1-9.5-0.5-15,1.2c-3.4-17.3-4-34.4-4.3-51.5"/>
			<path class="st12" d="M1212.3,925.6c1.9,2.1,2.7,0.1,3.9-0.9c5.3-4.6,9.9-10,16.1-13.5c5.2-3,8.4-2.8,10.9,2
				c8.4,16.5,19.1,31.5,29.2,46.8c6.3,9.5,12,19.7,21.7,26.5"/>
			<path class="st12" d="M535,1039.9c0,0.9,0.3,1.9,0,2.6c-5.7,12-4,24.8-4.6,37.4c-0.2,5.6-0.6,11.2-0.5,16.7
				c0.3,22.4,2.8,44.7,4.3,67c1,14.5,1.5,29.1,0.4,43.8c-1.4,18.3,2.7,36.5,3.6,54.7c0.1,1.7,1.3,3.5,0,5.1c-6.5,8.3-3,18-3.8,27.1
				c-0.1,0.7,0.1,1.5-0.7,1.9"/>
			<path class="st12" d="M681.8,528.7c-15.3,5.6-30.5,11.2-47,12.4c-8.9,0.6-16.6,5.5-24.5,9.5c-3.4,1.7-6.9,3.1-9.6-1.3"/>
			<path class="st12" d="M913.5,281.5c0.2-4.1-3.4-5.8-5.8-6.2c-10.2-1.7-19.3-7.6-29.6-7.7c-8.6-0.1-17.1,2-25.7,2.5
				c-1.4,0.1-2.7,1.4-3.9,2.4c-4.6,3.8-9.8,7.1-14.5,10.7c-6.4,4.8-13.4,10.3-14.4,19.6"/>
			<path class="st12" d="M538.2,1270.3c3.6,4.3,3.3,9.7,3.8,14.8c0.7,8.6-0.7,17.2-1.8,25.8c-0.7,5.9,0.1,11.9,2.6,17.3
				c1.6,3.5,3.4,6.4,8.8,7c5.3,0.5,10.7,4,15.5,7.2"/>
			<path class="st12" d="M657.3,29.1c4.6,11.6,3.6,23.4,2.1,35.4c-1.1,8.1-1,16.3-1.4,24.4c-0.1,2.8,0.2,5.5-2,7.7"/>
			<path class="st12" d="M325.1-10.8C324.7,1,333,8.9,338.2,18c8,14,17.5,27.1,28,39.4c1.1,1.3,2.1,3.1,2,5.1"/>
			<path class="st12" d="M686.3,529c-1.7-0.7-3.2-0.6-4.7-2.8c-7.9-11.9-15.5-23.9-26.2-33.6c-9.2-8.4-11.1-8.5-16.7,2.7
				c-7.8,15.5-17.1,30-24.7,45.6c-1.2,2.5-1.7,4.6-1.8,7.2"/>
			<path class="st12" d="M28.3,417.3c0.9,2.8,3.5,3.5,5.8,3.8c13,1.9,24.3,7.8,35.3,14.3c6.8,4,13.7,7.8,21.3,10.2"/>
			<path class="st12" d="M205.4,239.3c-3.2,3.4-6.9,4.4-11.6,3.7c-7.8-1.2-15.5,1.1-23.1,2.1c-10.3,1.4-20.5,3.6-30.9,4.1
				c-4.8,0.2-6.6,2.2-6.4,6.6c0.4,13.3,3.7,25.8,10.4,37.3c2.4,4.1,5.5,7.8,8.3,11.7c8.2-3.1,11.3-11.2,16.6-17
				c8.2-8.8,15.4-18.6,22.6-28.2c3.5-4.7,7.1-9.5,8.4-15.4"/>
			<path class="st12" d="M103.6,577.6c5.3,5.9,6.7,13,6.3,20.6c-0.1,1.7-1.1,2.9,0.7,4.6c4.1,3.9,4.9,9.6,6.4,14.8
				c3.7,12.6,8.8,24.9,11.2,37.9c0.8,4.3-0.4,9.1,2.8,12.9"/>
			<path class="st12" d="M848.5,231.9c-11.3,0-22.5,0.2-33.5,3.3c-10.6,3-18.3,10.4-25.8,18c-2.8,2.9-3.9,6.6-5.2,10.3"/>
			<path class="st12" d="M325.1-1.2C322,6.3,321.5,14.2,322,22c0.5,8.6,1.5,17.2,1.1,25.8c-0.2,4.2,1.8,8.1,1.4,12.2"/>
			<path class="st12" d="M1050,269.9c-4.4,12.7-4.9,26.3-8.4,39.3c-2.4,8.9-3.5,18.1-7,26.7"/>
			<path class="st12" d="M526.6,239.6c-3.6-8-10.1-14-15.7-20.4c-6.4-7.5-12.7-15.1-21.2-22.5c-13.5,21.3-26.5,42.2-32,66.8"/>
			<path class="st12" d="M362.4,360.7c6.8,1.7,8.4,8.3,11.4,13c9.1,14.5,17.2,29.6,26.1,44.2c1.6,2.7,1.1,4.7,0.5,7.2"/>
			<path class="st12" d="M1046.8,275.7c-3.5-1.8-6.2,0.8-9,2c-14.3,6.2-28.6,12.5-43.1,18c-3,1.2-5.4,1.2-7.7-0.8
				c-3.3-2.8-7.2-4.4-11-6.4"/>
			<path class="st12" d="M656.7,31.7c-9.8,3.1-16,11.1-22.4,18.2c-8.4,9.2-17.9,16.7-28.5,23c-2.7,1.6-4.2,4.6-7.1,5.7
				c1.9,8.9,3.2,9.9,11.6,7.1c2.4-0.8,4.1,0.8,5.8,0.6c13.7-1.3,25.3,5.1,37.3,9.9c4.4,1.8,6.1,6.8,9.6,9.7c1.1,0.9,1.6,2.4,3.3,2.5
				"/>
			<path class="st12" d="M108.8,602.7c-5.5,5.8-5.2,13.8-6.7,20.7c-1.6,7.2-3.3,14.4-4.3,21.8c-0.2,1.5-1.2,2.9,0,4.5
				c0.8,1.1-0.8,1.3-1.2,1.9"/>
			<path class="st12" d="M991.4,297.6c2,7,7.4,10.7,13.5,13.5c5.3,2.4,9.6,6.1,13.6,10.3c4.1,4.3,8.2,8.6,12.9,12.1
				c3.2,2.4,4.1,5,3.8,8.5"/>
			<path class="st12" d="M780.3,564.1c-0.3,10.3,5.2,17,12.7,23.3c7.4,6.2,14.3,13.2,20.1,21.1c4.1,5.5,10.2,9.1,14.2,14.8
				c0.9,1.3,1.3,2.6,2,3.6c-8.2,14.7-21.9,18.6-36.9,20.3c-3.2,0.4-4.5-2.2-6.4-3.9"/>
			<path class="st12" d="M491.2,986.1c-2.7,1.2-2.7,3.7-2.6,6.1c0.3,6-2.4,11.9-0.2,18.1c0.8,2.2-0.6,4.5-3.6,6
				c-2.4,1.2-4.7,2.7-7.2,3.6c-7.5,2.8-12.1,0.6-14.1-7c-1-3.7-2.2-7.3-3.1-11c-0.8-3.5-2.6-3.9-5.4-3.8"/>
			<path class="st12" d="M90.8,403.8c-7.4,0.3-14.7,1.4-21.9,3.3c-11,2.9-22.6,3.3-33.4,6.5c-5.4,1.6-10.5,3.3-16.1,3"/>
			<path class="st12" d="M908.4,275c0.1-2.4-0.3-4.4-1.9-6.5c-6.3-8.1-11.7-16.9-18-25.2c-3.8-4.9-7.4-6.3-13.7-5.3
				c-8.3,1.3-16.3-1.8-23.8-5.5"/>
			<path class="st12" d="M630.3,683.2c11.2,2.4,22.4,4.6,33.5,7.2c4.1,1,8,2.9,12.3,0.6"/>
			<path class="st12" d="M482.8,551.9c-6.4,9.6-12.7,19.3-18,29.6c-1.6,3.1-2.9,6.6-7.1,7.1"/>
			<path class="st12" d="M318,282.8c-13,4.5-25.7,10-39.3,12.9"/>
			<path class="st12" d="M533.7,240.9c-13.4-0.3-25.9,3.9-37.9,9.2c-3.9,1.7-7.6,2.3-11.7,2.4c-5.3,0.1-10.8-1.1-15.6,3
				c-1.5,1.3-4.7,0.3-6.9-1.1"/>
			<path class="st12" d="M793.8,604.7c0.2,0.4-0.4,0.7-0.6,1.3c-2.2,5.6-3.1,11.3-2.1,17.4c0.7,4,0.1,8.1,0.1,12.2"/>
			<path class="st12" d="M321.9,1034.7c-1.3,8.4-2.6,16.7-3.8,25.1c-0.3,2-0.5,4.1,1.2,5.8"/>
			<path class="st12" d="M245.3,1042.4c-7.9,1.5-11.4,8.3-16,13.6c-3.6,4.1-9.3,7.6-7.2,14.7"/>
			<path class="st12" d="M89.5,1132.6c1.1,3.8-2.3,6-3.4,8.9c-2.4,6.3-3.5,12.9-5.1,19.3c-0.4,1.7,1.2,5.4-3.1,5.2"/>
			<path class="st12" d="M98.5,651c7.3,3.2,14.7,6.3,21.8,9.7c2.3,1.1,4.5,2.4,7.1,2.5"/>
			<path class="st12" d="M406.9,779.1c-10.7,2.1-21.3,2.6-32.2,0.8c-4-0.7-4.7-5.1-8.3-5.4"/>
			<path class="st12" d="M407.5,777.2c0.1,3,2.4,1.9,3.9,1.9c9.9-0.5,19.5-2.9,29.7-0.8c5.8,1.2,11.1,3,16,6.1
				c1.9,1.2,3.3,3.1,5.8,3.1"/>
			<path class="st12" d="M92.1,401.2c1.1,14.2-0.9,28.3-1.2,42.5c0,1.7,0.8,3.4,1.2,5.1"/>
			<path class="st12" d="M876.2,242.8c1.2-7.9-2.8-10.6-10.3-13.4c-5.5-2-10.1-0.9-15.6,2.6c-1.9-1.1-0.7-3.1-1.1-4.6"/>
			<path class="st12" d="M488.6,988.4c-4.4-2.8-8.9-2.5-13.5-0.6c-3.5,1.4-7.2,2.2-11,2.5c-2.8,0.2-6.2,1.3-7.1-3.2"/>
			<path class="st12" d="M370.2,66.4c0.1-1.9-0.6-4.2-2.5-3.1c-6.8,3.9-14.3,2.3-21.4,3.3c-7.3,1.1-14,3.7-21.2,4.9"/>
			<path class="st12" d="M871,1019.3c-2.8,5,0.7,9.6,1.6,14.1c0.9,4.2,1.8,9.2,6.1,12"/>
			<path class="st12" d="M492.5,1046.9c-1.8-0.5-3.7,0.1-5.1,0.8c-7.4,3.8-15.4,3.1-23.2,3.8"/>
			<path class="st12" d="M787.3,584.7c-1.6,2.2-1.1,4.8-0.5,7.1c1.4,6,0.3,12.5,3.8,18"/>
			<path class="st12" d="M289.1,1030.8c10.6,2.2,21.5,1.1,32.2,3c3.2,0.6,6.8-0.9,10.3-1.4"/>
			<path class="st12" d="M822.8,958.1c-8.7,0.4-17.4,0.9-25.1,5.8"/>
			<path class="st12" d="M1357.1,1175.7c-2.9,3.2-6.5,5.1-10.9,5.2c-5.8,0.1-10.8,3.1-16.1,5.2c-2.4,0.9-3.3,3.1-3.2,5.7"/>
			<path class="st12" d="M736.5,983.2c3.8,7.4,7.1,14.9,8.4,23.2"/>
			<path class="st12" d="M195.1,369c1.2,8.3-4,13.9-12.2,15c-7.3,0.9-14.5,2.3-21.9,2.5c-4.3,0.1-7.2,2-7.9,7
				c-0.6,4.7-4.1,6.7-8.9,5.8"/>
			<path class="st12" d="M444.9,577c6.6,2.7,11,7.6,13.5,14.2c1.1,3.1,5.3,3.6,5.8,7.1"/>
			<path class="st12" d="M119.1,155.3c-4.8,0.4-9.3,2.6-14.2,2.6"/>
			<path class="st12" d="M1307.5,1002.5c3.2,3.6,6.4,7.3,9.7,10.9"/>
			<path class="st12" d="M1097.3,1104.9c0.2,5.9,4.5,11.2,2.3,17.4"/>
			<path class="st12" d="M925.1,1117.8c4.1,5.4,0.7,11.7,1.9,17.4c-0.6,0-1.3,0-1.9,0"/>
			<path class="st12" d="M726.8,331.7c-1.2,2.3-3.1,3.3-5.7,4.1c-2,0.6-6.2-0.2-5.5,4.3"/>
			<path class="st12" d="M609.7,72.2c3.9,3.4,3.2,7.8,2.6,12.2"/>
			<path class="st12" d="M966.3,1010.2c-4.1-1-7.5,2.5-11.6,1.9"/>
			<path class="st12" d="M202.8,825.5c3.7,2.8,2.4,7.5,4.5,10.9"/>
			<path class="st12" d="M720.4,367.1c-6.8-0.2-6.5,6.1-8.1,9.8c-1.3,3.2-0.6,7.8,3.5,10.2"/>
			<path class="st12" d="M600,86.4c-1.3,3.1-2,6.3-1.9,9.7"/>
			<path class="st12" d="M441,575.7c-3,0.8-6,0.6-9,0.6"/>
			<path class="st12" d="M624.5,89c0.4,3.3,5.8,3,5.2,7.1"/>
			<path class="st12" d="M198.9,912.4c2.5,4.9,4.9,9.8,10.3,12.2"/>
			<path class="st12" d="M133.9,183.6c0.4,4,1.9,8.3-1.9,11.6"/>
			<path class="st12" d="M650.9,90.9c2.8,0.6,1.7,2.8,1.9,4.5"/>
		</g>
	</g>
	<g class="st11">
		<g>
			<path class="st12" d="M2779.2-1.5c4-3.2,7.7-0.1,11.2,0.9c11.3,3.4,21.1,10.2,31.5,15.6c8,4.2,14.6,10.3,21.8,15.6
				c17.7,13,31.6,29.7,47.1,45c12.3,12.1,19.1,27.9,28.7,41.7c9.7,14.1,0.5,25.1-3.5,36.8c-3.3,9.5-8.3,18.8-15,26.1
				c-14.7,16.1-30.7,30.9-51.4,39.1c-10.8,4.3-20.9,10.1-32.1,13.6c-18,5.7-36.2,11.1-54.1,17.5c-9.6,3.4-20.6,3-30.5,6.4
				c-21.9,7.3-44.3,10.3-67.3,10.8c-15.1,0.3-30.1,2.6-45,6.3c-10.9,2.7-22.2,4.2-33.6,4c-19.8-0.4-39.5,0.3-59.1,2.9
				c-16.4,2.2-32.8,5.1-49.4,4.5c-12.9-0.5-25.5-3.4-38.2-5.1c-9.2-1.2-18.3-4.2-27.7-3.8c-19.2,0.7-38.4-1.1-57.6-2
				c-15-0.7-30.1-3.3-45-6.5c-12.3-2.6-24.8-4.5-37.3-6.4c-20.8-3.1-41.9-3.7-62.1-10.4c-2.8-0.9-5.9-0.1-8.2,2.1"/>
			<path class="st12" d="M2827.1,345.7c-5.5,2.1-11.7,2.1-17.2,2.5c-16.5,1.1-25.4,11.6-34.4,22.9c-6.8,8.5-8.4,19.3-13.2,28.6
				c-1.4,2.7-0.7,7,1.1,9.5c8.7,12.5,18.5,25.1,34,28.1c16.2,3.2,31.9,9.1,48.6,10.1c4.3,0.3,7.1,2.4,9.7,5.3
				c9.3,10.5,13.4,23,15.9,36.6c3.6,19.4-3.8,36.2-10.8,53.1c-3.1,7.5-10.5,10.2-17.1,13.5c-4.6,2.3-9.4,4.3-13.5,7.5
				c-3.9,3.1-8.6,4.3-13.5,4.4c-10.5,0.4-20.9,0.1-31.4,0.7c-7.9,0.4-14.9-4.2-22.4-5.9c-4.8-1.1-9.6-1-14.2,0.8"/>
			<path class="st12" d="M2245.6,395.1c-0.8-3.1-2.2-6.1-4.5-8.2c-6.4-5.6-10.4-12.9-14.1-20.3c-4.7-9.7-13.4-12.6-22.6-13.2
				c-21-1.5-41.8,1.1-61.2,9.1c-12.5,5.2-24.4,11.9-31.8,25c-10.2,18-15.3,36.5-11.7,57c2.6,14.7,11.1,26.3,20.4,37.2
				c3.1,3.6,8.7,5.4,14,4.6c11.5-1.7,20.4,4.5,29.9,9.1c5.5,2.7,6.3,7.4,4.5,12.7c-6,17.7-19,24.9-38.1,21.7
				c-8.3-1.4-17.3,0.4-24.7-5.2c-1.6-1.2-3.9-1.6-5.1-3.1c-8.4-9.8-21.3-12-31.5-18.6"/>
			<path class="st12" d="M2331.7,432.5c1.4-5.5,3.5-9.4,9.5-12.3c10.4-5.1,19.6-12.6,29.4-19.1c12.4-8.2,26.3-11.2,40.3-7.2
				c12.7,3.6,24.8,9.5,34.5,19.1c9.2,9.1,11.3,21.2,12.4,33c1.1,11.4,1.1,22.9,1.7,34.4c0.7,15.2-1.7,30.1-5.5,45
				c-1.9,7.3-0.5,15.5-2.6,23.1c-3.5,12.8-7.1,25.6-10.4,37.4c-14.2-0.5-25.7,11.9-40.5,5c1-11.5,1-24.2,3.3-36.4
				c3.7-19.8,2.5-39.5,1-59.1c-0.7-9.8-2.3-19.8-5.9-29.2c-3.7-9.7-11.3-17-17.2-25.4c-1.4-1.9-3.7-0.6-5.9,0.5
				c-13.7,6.8-24.5,16.3-28.2,31.6c-2.7,11.1-8.3,20.8-12.1,31.4c-8.6,23.9-16.6,47.9-18.7,73.3c-0.2,2.3-0.8,5.1-2.4,5.8
				c-8.6,3.9-16.1,11.7-26.9,9.1c-6-1.4-12-0.3-17.9,0.5c-5,0.7-7-1.3-7.5-5.8c-0.3-2.7-0.6-5.6,0-8.2c6.2-23.6,6.3-48.3,12.3-71.7
				c5.2-20.4,7.4-41.1,12.2-61.5c4.4-18.8,7.9-37.7,10.5-56.9c0.5-4,2.5-7.8,1.6-12"/>
			<path class="st12" d="M2341.4-468.5c-6.5,3.7-12.6,8-19.4,11.4c-5.7,2.8-5.9,6.1-2.3,11.1c18.5,25.5,36.1,51.7,52.1,78.7
				c20.3,34.4,41.9,68.1,57.5,105.2c7.9,18.6,16,37.4,26.8,54.7c8.1,13,14.9,26.8,23,39.8c1.2,1.8,0.8,3.6,0.6,5.3
				c-1.2,8,1.2,16-0.6,24c-0.9,3.8-0.5,7.6,2.9,10.5"/>
			<path class="st12" d="M3376.4,261.2c16.1,20.4,33.3,40,47.1,62.1c8,12.8,16.2,25.5,23.4,38.8c5.3,9.7,11.5,18.8,13.3,30
				c3.5,21.9,10.1,43,15.8,64.3c8.1,30.8,16.9,61.4,25.4,92.1c1.4,5.2,0.5,11.6,7.1,14.2"/>
			<path class="st12" d="M2845.1-228.6c-2-3.1-2-6.8-1.4-10.1c3-17.6,3.3-35.4,2.8-53.1c-0.8-29.3-8.1-56.7-25.4-80.8
				c-4.8-6.6-11.7-8.6-19.3-11c-11.6-3.7-19.7,0.9-28.7,6.3c-9.3,5.6-19.2,10.3-28.2,16.1c-15.3,10-27.6,23.6-39.2,37.8
				c-18.3,22.3-35,46-55.3,66.7c-6.4,6.6-11.4,14.3-16.2,21.9c-8.8,14-16.5,28.7-24.1,43.3c-7.8,15-14.8,30.5-22.6,45.6
				c-4.2,8.1-8.3,16.3-11.8,24.8c-1.2,2.9-2.5,5.3-5.3,6.7"/>
			<path class="st12" d="M3131,514.9c7.2-2.4,14-5.1,20.3-9.6c10.2-7.4,13.7-18.5,17.8-29.3c4.5-12,6.6-24.4,6.1-37.4
				c-0.6-15.7,1.7-31.8-3.2-47.1c-5.1-15.9-8.3-32.6-16.7-47c-7.7-13-18.7-24.3-30.7-33.5c-6.3-4.9-15.2-6.8-22.2-11.5
				c-1.6-1-4.5-0.6-6.6-0.1c-3.7,0.9-6.9,0.3-10.5-0.7c-10.6-3-16.9,2-23.5,17c-4.8,10.9-2.1,22.2-4.8,33.1
				c-4.1,16.4-3.1,33.4-2.7,50.1c0.3,13.3,2.5,26.8,7.1,39.7c6.1,16.9,12.3,33.7,23.9,47.9c10.1,12.4,21,23.3,37.4,27.1
				c2.5,0.6,5.3-0.7,7.5,1.3"/>
			<path class="st12" d="M2057.1,538.8c6,11.4,16.1,17.9,27.7,22.4c10.4,4.1,21.1,6.7,29.6,15.4c3.9,4,12,4.8,18.3,5.4
				c11.4,1.2,22.8,1.3,33.8-4.1c5.6-2.7,12.4-3.2,18.6-4.7c19.9-4.9,34.7-15.7,41.1-35.9c2.8-8.9,4.2-18.2,3.8-27.7
				c-0.5-12.4-12.8-24.3-24.6-26.4c-13.2-2.4-26.5-1.2-39.7-2.6c-3.2-0.3-5.7-1.1-8.3-3c-10.1-7.9-20.2-16.7-20.5-30
				c-0.2-13.4-0.1-27.8,11.5-38.2c2.3-2.1,4.1-4.9,6-7.4c4.1-5.6,9.6-8.1,16.5-8.3c7.7-0.2,15.5-0.7,23.2-1.5
				c10.8-1.1,15.1,7.2,21,13.5c2.9,3.1,3.6,7.6,6.7,10.5"/>
			<path class="st12" d="M2162.6-366.7c-1.1,10.2-4.2,20.1-3.9,30.7c0.7,21.1,5.1,41.4,11.6,61.3c3.9,12,6,24.5,11.7,36
				c10.6,21.8,24.1,41.6,40.9,58.7c8.4,8.6,20.3,13.8,31,19.9c14.2,8.1,27.3,18,42.7,23.8c2,0.7,3.8,2.4,6,0.7"/>
			<path class="st12" d="M2143.1-364.5c-6.7-3-11.8-1.8-15.2,5.7c4.5,5.9,3.1,13.6,4.5,20.6c3.7,19.1,10.8,36.8,18.1,54.6
				c6.2,15,11.6,30.4,17.3,45.6c2.9,7.8,7.1,15,12,21.7c8.8,12.2,15,26.1,25.3,37.6c12.7,14.2,27.7,24.5,45,32.1
				c14.8,6.5,29.4,13.6,39.7,26.8"/>
			<path class="st12" d="M2887.7,309.8c5.2,26.7,9.8,53.5,15.7,80.1c3.3,14.8,5.8,29.7,6.9,44.9c0.3,4.3,2.3,8.5,3.6,12.7
				c7.2,22.7,14,45.5,21.8,68.1c4.8,13.8,15,23.5,29.1,27.5c10.4,3,21.3,1,31.3-2.3c12.1-4.1,23.4-10.5,35.3-15.3
				c10.3-4.2,12.4-12,10.8-21.8"/>
			<path class="st12" d="M2583.9,384.6c0.2,2-0.5,4.1,0.7,6c16.2,0.2,32.6-1.4,48.6,1.7c21.5,4.1,39.6,12.4,48.2,35.7
				c6.9,18.8,10.3,38.1,13.3,57.7c3.7,24.4-10.4,48.2-33.7,56.1c-5.2,1.8-8.5,6.1-12.5,9.3c-9,7.1-18.8,11-30.1,11.8
				c-1.3,0.1-2.6,0.8-4.6,1.5c3,15.4,3.5,31,6,46.4c0.4,2.2,0.1,4.5,0,6.7c-0.3,17,1.4,33.9,2,50.9c0.4,10.7-0.4,21.4-0.5,32.2
				c0,7.8,0.5,15.5,1.4,23.2c0.3,2.2,0.7,4.6-1.2,6.9c-0.7,0.9-2,5,2,5.8"/>
			<path class="st12" d="M2506.8,406.3c-4.1,14.2-6.1,28.8-6.5,43.4c-0.6,23.5-4.2,46.8-5,70.3c-0.4,11.5-2.7,23.1-5.2,34.4
				c-2.9,13.1-1.9,26.6-4.3,39.7c-0.8,4.8,1.2,7.6,6.7,6.7c11.7-1.9,23.5,0.1,35.2-0.8"/>
			<path class="st12" d="M3010.5-221.5c-4.9-6.8-1.8-14.6-2-21.7c-0.9-31.9-6.7-62.7-21.4-91.2c-8.9-17.3-18.6-34.4-32.1-48.7
				c-13.3-14.1-29.7-20.4-49.3-16.6c-4.2,0.8-8.5,1.7-12.7,2.2c-3.5,0.4-6.6,0.9-8.2,4.6"/>
			<path class="st12" d="M2881-522.4c-5.4-4.8-6.1-11.9-9-18c-8.7-18.2-22.6-31.8-38.1-44.2c-5.8-4.7-11.7-9.2-17.1-14.3
				c-9.2-8.6-19.8-10.5-31.6-8.8c-13.1,1.8-25,6.9-36.7,12.7c-17.2,8.5-33.1,19.7-51,26.8c-13.6,5.4-24.7,13.9-33.4,25.1
				c-7.5,9.7-13.7,20.4-19.8,31.2c-10.7,18.9-19.4,38.7-28.5,58.4c-1.5,3.3-2.5,5.9-0.6,9"/>
			<path class="st12" d="M2819.6-487.2c-4,0.2-5.9-1.9-8.4-5.1c-8.6-10.9-20.5-16.6-34.2-18c-5-0.5-8.9,3.5-14.2,3.9
				c-12.5,0.9-24.8,3.6-36.7,7.9c-18.3,6.7-31.5,19.6-42.7,35.2c-8.2,11.4-15.6,23.2-21.9,35.8c-8.3,16.5-12.8,33.6-13.9,51.8
				c-0.5,8-1,16-0.6,23.9c0.2,5.1,0.2,10.8,4.3,15"/>
			<path class="st12" d="M3318.8,312.8c-4.5-4.5-8.9-9-13.5-13.5c-3.4-3.3-7.9-4.5-11.9-2.2c-19.8,11.6-33.7,28.3-41.2,50.1
				c-3.5,10.2-1.9,20.5,1.6,30.2c4.8,13.3,5.7,27.4,9.5,40.9c4.2,14.5,5.2,29.7,9.8,44.1c1.6,5.2,0.6,8-5.3,9.1
				c-8.5,1.6-16.2,5.3-23.2,10.4"/>
			<path class="st12" d="M2903.5-460.3c8.7-2,17.5-4,26.2-6c1.5-0.4,3.2-1.7,4.5-1.4c12.4,3.4,24.3,0.3,35.9-3.2
				c9.8-2.9,18.2-0.7,26.2,4.6c4,2.7,7.1,6.3,10.5,9.8c10.1,10.4,20.1,20.9,29.9,31.4c5.5,5.8,7.3,13,7.6,20.9
				c0.6,15.7,1.6,31.4,2.1,47.2c0.7,20.5,3.4,41.4-2.5,61.3c-7,23.6-15.7,46.8-26.5,69c-2.4,4.9-8.9,6.4-9.1,12.7"/>
			<path class="st12" d="M3232,315c-9.1-12.7-11.3-28.7-19-42.4c-8.8,3.2-17,6.2-25.2,9.2c1,10.9,7,20,10.2,30
				c6.3,19.3,11.5,38.7,15.3,58.5c2.3,12.1,6.8,23.5,10.5,35.2c5.8,18.8,12.5,37.4,15.7,56.9c0.3,1.7,2.5,5-2.2,4.5"/>
			<path class="st12" d="M2291.3-472.2c3.7,7.7,7.6,15.4,11.2,23.2c5,10.9,9.7,21.8,14.5,32.5c-3,3.1-5.8,5.8-8.4,8.7
				c-9.9,10.8-22.5,15.6-36.7,17.2c-5.8,0.7-10.8,3.9-16.4,5.4c-12.6,3.4-25.7,2.3-38.2,5.8c-8.4,2.3-16.9,1.9-25.4,0.8"/>
			<path class="st12" d="M2983.5,399.6c-10,3.5-19.8,7.4-30,10.3c-5,1.4-5.2,4.5-5.2,8.4c-0.2,15,4.2,29.5,8.8,43.2
				c4.1,12.1,9.9,24.6,19.7,33.8c4.2,3.9,10.4,4,15.6,2.9c11.4-2.3,22.3-7.1,33.7-9.6c5.7-1.3,10.1-5,14.2-8.9"/>
			<path class="st12" d="M3484.2,230.5c0.2,1-0.6,2.5,0.8,3c11,3.9,18.4,17.8,32.9,12.1c1-0.4,2.2,0,3.6,0
				c1.7,8.4-1.8,16.2-3.9,23.9c-5.4,20-8,40.5-12.5,60.7c-2,8.9-2,18.8-5.6,26.7c-5.6,12.5-1.2,23.5,0.1,35.4
				c0.9,8.7,3,17.4,3.2,26.2c0.2,9.5,2.8,18.3,6.2,26.9c4.6,11.7,5.8,24.4,11.2,35.9c8.4,18,11.6,37.7,18.9,56.1
				c1.7,4.2,1.2,9.8,6.6,12"/>
			<path class="st12" d="M2794.9-424.3c-5.2-1.6-10.7-1.8-15.8-4.4c-6-3-12.4-1-18.7-0.1c-15.6,2.2-30.9,5-44.9,12.7
				c-4.2,2.3-8,5.1-11.1,8.4c-11.7,12.5-25,23.8-33.7,38.9c-7.3,12.6-14,25.4-21,38.1"/>
			<path class="st12" d="M2399.8-273.9c-13.7,7.8-27.4,15.7-37.5,28.4c-3.9,4.9-9.7,7.7-14.9,11.3c-11.3,7.9-17.4,19.8-24.1,31.3
				c-3.8,6.4-9.3,12.5-9.9,19.6c-0.9,10.4-5.1,19.8-6.6,29.9c-1.1,7-2.5,13.9-3.1,21"/>
			<path class="st12" d="M2807.7,31.4c-2.7-6.9-7.3-12.1-13.3-16.7c-5.9-4.5-12.2-8.7-16.4-15.9c-3.4-5.8-12.5-6.2-19.1-9
				c-4.4-1.8-8.6-2.8-10.4-7.7c-0.5-1.2-1.7-2.4-2.9-3c-11.7-5.6-22.7-12.9-35.2-16.3c-7.6-2-14.5-5.8-22.4-7.1
				c-14.7-2.4-29-6.6-44.1-7.1c-10.7-0.4-21.4-1.3-32.2-1.1c-3.2,0.1-6.3,0.1-9,2.3"/>
			<path class="st12" d="M2784.5-425.1c-5.2,6.2-13.5,7.6-19.5,12.7c-20.3,16.8-42.4,31.2-62.4,48.4c-9.1,7.8-19.6,14.2-29,21.9
				c-16.2,13.2-30.8,28-44.8,43.5c-13.2,14.6-28.2,27.2-42.7,40.4c-24.3,22.3-42.1,49.3-59.1,77.1"/>
			<path class="st12" d="M2774-510.4c-0.3-3.1-2.4-4.1-5.2-4.5c-11.7-1.6-23.6-2.7-35.1-1.8c-10.6,0.9-21.4,4.6-31.4,8.7
				c-20,8.4-39.2,18.6-57,31.2c-9,6.4-15.2,15.4-21.4,24.1c-3.1,4.3-7.5,7.1-10,11.8c-1.9,3.5-2,7.5-3,11.2"/>
			<path class="st12" d="M2317.5-413.9c6.3,9.6,14.5,18,19.4,28.5c4.6,10,9.3,19.7,14.8,29.3c9.5,16.4,20,32.1,29.5,48.5
				c6.4,11,11.4,23.3,19.8,32.6c12.8,14.2,20,31.2,28.7,47.5c12.3,23,25.5,45.4,39.8,67.3c2.2,3.4,5,6,8.3,8.2"/>
			<path class="st12" d="M2538.3,398.1c-0.9,9.7,1.1,19.5-0.7,29.2c-4.2,22.3-5.2,45-8.5,67.3c-1.5,10.2-1.3,20.7-4.1,30.7
				c-0.3,1.2-0.2,2.5,0,3.7c3.2,22-0.9,43.9-0.1,65.9c0,1.2-0.9,2.5-1.4,3.7"/>
			<path class="st12" d="M2855.6-380.2c6.7-5.6,13.8-10.5,22.4-12.8c1.9-0.5,3.9-1.3,5.2-0.2c8.2,6.8,15.6,14.9,16.3,25.8
				c0.9,14.5,0.8,29-2.6,43.4c-3.1,13.2-6.9,25.9-14.3,37.4c-9.5,15-18.8,30.2-27.6,45.7c-3.6,6.3-9.7,10.8-12.1,17.9
				c-0.5,1.5-2.3,2.7-0.7,4.5"/>
			<path class="st12" d="M2570.4-104.8c-7.4,7.2-8.9,17.3-12.6,26.2c-5.3,12.6-10.6,25.1-16.2,37.6c-6.6,14.9-13.1,30-18.4,45.5
				c-3,9-7,17.7-8.9,27c-2.5,12.7-5.2,25.4-6.6,38.2c-0.9,8.8-5.4,17-4,26.2c0.9,5.9,2,11.9,1.5,18c-0.2,2,0.3,4.1-0.8,6"/>
			<path class="st12" d="M2334.7-491c6.1,11.2,8.6,23.8,14.3,35.1c2.4,4.7,5.3,9.1,8.2,13.5c8.2,12.8,16.8,25.4,24,38.9
				c4,7.4,4.4,15.9,8.8,23.3c9.1,15.2,18.8,30.1,28.5,44.9c7.5,11.4,18.9,19.5,24.9,32.1c5.1,10.7,11.5,20.6,16.5,31.4
				c4.2,8.9,10.5,16.7,16.2,24.8c10.7,15.3,20.2,31.4,31.3,46.5c6.1,8.3,14.5,14.6,19.5,23.7c0.4,0.8,3.2,2.2,5.4,1.6"/>
			<path class="st12" d="M2444.7-34.4c-7-5.7-14.4-1.2-20.9,0.4c-13.5,3.3-25.7,11.4-39.1,14.9c-11.6,3-19.8,11.1-30,15.3
				c-10.9,4.5-20.4,10.9-29.5,17.6c-8.4,6.2-17,11.3-26.4,15.5c-5.6,2.5-10.3,6.6-15,10.4c-14.7,12.2-31.4,22.1-44.2,36.6
				c-5.6,6.3-11,12.7-18.3,17.8c-5.3,3.7-7.4,11.9-10.8,18.2c-4,7.3-9.1,14-12.3,21.7c-0.6,1.4-1.8,0.4-2.6,0.7"/>
			<path class="st12" d="M2820,324c-6.9,4.9-15,6.3-22.7,4.8c-4-0.8-7.6-0.5-11.3-0.2c-6.1,0.6-11.4,4.5-18,3.8
				c-2.3-0.2-4.6,2.3-5.9,4.3c-8.4,13.4-19.7,25-26.2,39.7c-6,13.5-6.4,27.3-3.3,41.9c3.4,15.9,12.8,27,24.1,37.5
				c3,2.8,6.1,3.7,9.8,3.7c4.9,0,10,2.2,14.2,1.8c16.8-1.4,24.4,11.9,35.1,20c4.2,3.2,5.6,16.2,2.2,20.8c-6.4,8.7-13.1,17-25.3,18.2
				c-7,0.7-13.9,1.7-20.9,2.4c-6.7,0.6-13.4,1.8-20.9,2.1c-0.6,12.1-2.8,24.3-0.9,36.6"/>
			<path class="st12" d="M2361.6-439.3c9.3-7.2,20.6-8.9,31.7-12.5c9.6,15.4,18.9,30.4,26.3,46.8c9,19.9,20.6,38.6,31.1,57.8
				c3.7,6.8,7.5,13.5,11.2,20.2c3.8,6.9-2.9,10.6-5.6,14.7c-2.6,4-7,7.4-10.8,10.7"/>
			<path class="st12" d="M2565.2-122.8c0.2,1,0.3,2.1,0.8,3c6.4,11,11.9,22.7,15.1,34.6c2.9,11,9,20.1,14.7,28.6
				c7,10.4,9.9,22.4,16.6,32.6c6.7,10.4,14.2,20.3,21.2,30.5c6.5,9.3,12,18.9,17.7,28.6c6,10.1,12.1,20.2,18.8,29.9
				c2.6,3.8,4.4,7.5,4.3,12.1"/>
			<path class="st12" d="M2495.6-126.5c-7.7,8-11.5,18.5-16.9,27.9c-11,18.9-20.4,38.7-30.2,58.2c-8.3,16.5-14.7,33.9-21.5,51
				c-9.4,23.9-16.1,48.8-21.2,74c-0.3,1.6-0.5,3.2-1.5,4.5"/>
			<path class="st12" d="M3085.3,382.4c1.7,8.9,1.8,18,3,26.9c1.6,11.7,3.1,23.7,9.9,33.5c6.5,9.6,17.2,11.8,28.2,10.5
				c10.7-1.2,17.6-8.1,19.4-19c2.5-15.3,2.4-30.8-0.8-46c-0.9-4.2-2.6-8.6-5.2-11.9c-9.2-11.4-16.9-23.9-25.8-35.4
				c-19.8,5.7-27.8,13.3-28.7,34.5c-0.1,2,0,4,0,6"/>
			<path class="st12" d="M2542-33.7c16.8,22,30.9,45.7,45,69.6c3.3,5.5,7.2,10.7,11.2,15.7c7.2,9.3,12.1,20.3,20.9,28.5
				c1.7,1.6,2.7,4.1,6,3c15.8-5.2,32-7.2,48.6-6.8"/>
			<path class="st12" d="M2925.9,293.3c-2.8-0.4-5.1,1.8-4.3,3.7c5.1,11.8,0.1,24.2,2.9,36c2.2,9.4,0.9,19.1,4.2,28.5
				c4.7,13.4,18.8,17.6,30.9,13.3c5.2-1.8,10-4.7,15.7-4.8"/>
			<path class="st12" d="M3321,318.8c-5.2-5.3,1-9.4,2.7-12.5c3.6-6.4,4.6-13.7,9-19.9c3.6-5.1,0.1-11.4-8-17
				c-11.1-7.8-23.2-9-35.9-4.6c-2.9,1-5.8,1.6-9,1.6c-4.7,0.1-9.1,1.4-12.7,4.5c-9.2,8-18.4,16-26.2,25.4c-4.2,5-4,12.5-9.7,16.5"/>
			<path class="st12" d="M2198.1,135.4c1,3.4,1.2,6.2-0.9,9.9c-7.7,13.6-16.7,27.2-17.2,43.3c-0.4,16.3-3.5,32.3-3.4,48.6
				c0.1,4.9,1.8,8.3,6.1,9.6c5.5,1.6,9.8,7.3,16.4,4.6"/>
			<path class="st12" d="M2981.3-533.6c-8.6,7.9-19.4,12.6-29.3,18.5c-12,7.2-23.9,14.6-35.6,22.3c-9.6,6.3-14.3,17.2-13,29.5
				c0.2,2.3-1,4.1-1.9,6"/>
			<path class="st12" d="M3484.9,235c-4.9,6.2-5.4,14.1-4.9,20.9c1,14.2-1.3,28-2,41.9c-0.3,7.3-2,14.5-3.3,21.8
				c-0.8,4.6-5.6,7.1-4.8,11.9"/>
			<path class="st12" d="M2599.6,428.8c4.8-0.9,8.9,2.5,10.2,5.4c5.3,11.9,16.2,15.3,26.6,19.1c5.7,2.1,6.5,7.3,9.5,10.9
				c9.7,11.8,9,20.8-0.5,32.9c-2.8,3.5-5.8,4.5-9.8,4.5c-5.5-0.1-11-0.6-17.4,1.4c-3.9-20.1-4.6-40-5-59.8"/>
			<path class="st12" d="M3373.4,259.3c2.2,2.4,3.1,0.2,4.5-1.1c6.1-5.4,11.5-11.6,18.7-15.7c6.1-3.5,9.8-3.3,12.6,2.3
				c9.7,19.2,22.2,36.6,34,54.5c7.3,11,14,22.9,25.3,30.8"/>
			<path class="st12" d="M2586.2,392.1c0,1,0.3,2.2-0.1,3c-6.6,13.9-4.7,28.8-5.3,43.4c-0.3,6.5-0.7,13-0.6,19.5
				c0.3,26,3.2,51.9,5,77.8c1.1,16.9,1.7,33.9,0.4,50.9c-1.6,21.3,3.1,42.4,4.2,63.6c0.1,2,1.5,4.1,0,6c-7.5,9.7-3.5,20.9-4.4,31.5
				c-0.1,0.8,0.1,1.7-0.8,2.2"/>
			<path class="st12" d="M2756.8-202.1c-17.7,6.6-35.4,13-54.6,14.4c-10.4,0.7-19.3,6.4-28.5,11c-4,2-8.1,3.6-11.2-1.5"/>
			<path class="st12" d="M3026.2-489.5c0.3-4.7-4-6.8-6.8-7.2c-11.8-1.9-22.4-8.8-34.4-9c-10-0.2-19.9,2.3-29.9,2.9
				c-1.6,0.1-3.1,1.6-4.6,2.8c-5.4,4.5-11.3,8.3-16.9,12.4c-7.4,5.6-15.6,12-16.8,22.8"/>
			<path class="st12" d="M2589.9,660c4.2,5,3.9,11.3,4.4,17.2c0.9,10-0.8,20-2,29.9c-0.8,6.9,0.1,13.8,3,20.1
				c1.9,4.1,3.9,7.5,10.3,8.1c6.1,0.6,12.4,4.6,18,8.4"/>
			<path class="st12" d="M2728.3-782.8c5.3,13.5,4.2,27.2,2.4,41.2c-1.2,9.4-1.2,18.9-1.6,28.4c-0.1,3.2,0.2,6.4-2.3,9"/>
			<path class="st12" d="M2342.2-829.2c-0.5,13.7,9.1,23,15.2,33.5c9.3,16.3,20.4,31.5,32.6,45.9c1.3,1.5,2.5,3.6,2.3,5.9"/>
			<path class="st12" d="M2762-201.7c-2-0.8-3.8-0.7-5.5-3.2c-9.1-13.8-18-27.8-30.4-39.1c-10.7-9.7-12.9-9.9-19.4,3.1
				c-9,18-19.9,34.9-28.7,53c-1.4,2.9-2,5.4-2,8.3"/>
			<path class="st12" d="M1997.2-331.5c1,3.3,4.1,4,6.7,4.4c15.1,2.2,28.3,9.1,41.1,16.7c7.9,4.7,16,9.1,24.8,11.9"/>
			<path class="st12" d="M2203-538.5c-3.7,4-8,5.1-13.5,4.2c-9-1.4-18,1.3-26.9,2.5c-12,1.6-23.9,4.2-36,4.7
				c-5.5,0.3-7.6,2.5-7.5,7.6c0.5,15.4,4.3,30,12,43.4c2.8,4.8,6.4,9.1,9.6,13.6c9.5-3.6,13.1-13.1,19.3-19.8
				c9.5-10.3,17.9-21.6,26.3-32.8c4.1-5.4,8.2-11,9.8-17.9"/>
			<path class="st12" d="M2084.7-145.2c6.1,6.8,7.7,15.2,7.4,23.9c-0.1,2-1.2,3.4,0.8,5.3c4.8,4.6,5.7,11.2,7.5,17.2
				c4.4,14.7,10.2,28.9,13,44.1c0.9,5-0.5,10.6,3.2,15"/>
			<path class="st12" d="M2950.6-547.1c-13.1,0-26.2,0.2-38.9,3.8c-12.4,3.5-21.3,12.1-29.9,20.9c-3.3,3.3-4.6,7.7-6,12"/>
			<path class="st12" d="M2342.2-818c-3.7,8.6-4.2,17.8-3.6,26.9c0.6,10,1.7,20,1.3,29.9c-0.2,4.9,2.1,9.4,1.6,14.2"/>
			<path class="st12" d="M3184.8-502.9c-5.2,14.8-5.8,30.6-9.8,45.6c-2.8,10.3-4.1,21.1-8.2,31.1"/>
			<path class="st12" d="M2576.4-538.1c-4.2-9.3-11.8-16.2-18.2-23.7c-7.4-8.7-14.8-17.6-24.7-26.2c-15.7,24.8-30.7,49.1-37.2,77.6"
				/>
			<path class="st12" d="M2385.6-397.4c7.9,1.9,9.8,9.6,13.2,15.1c10.6,16.8,20,34.4,30.3,51.4c1.9,3.1,1.2,5.5,0.6,8.3"/>
			<path class="st12" d="M3181.1-496.2c-4.1-2.1-7.2,1-10.4,2.4c-16.6,7.2-33.2,14.5-50.1,21c-3.5,1.3-6.3,1.4-9-0.9
				c-3.8-3.3-8.4-5.2-12.7-7.5"/>
			<path class="st12" d="M2727.6-779.8c-11.4,3.6-18.6,12.8-26,21.1c-9.7,10.7-20.8,19.4-33.1,26.7c-3.1,1.9-4.8,5.3-8.2,6.6
				c2.2,10.4,3.7,11.5,13.5,8.2c2.8-0.9,4.7,0.9,6.8,0.7c15.9-1.5,29.4,5.9,43.4,11.5c5.1,2,7,7.9,11.2,11.2c1.2,1,1.9,2.7,3.8,2.9"
				/>
			<path class="st12" d="M2090.7-116c-6.4,6.7-6,16-7.8,24c-1.8,8.3-3.9,16.8-5,25.3c-0.2,1.8-1.3,3.4,0,5.3
				c0.9,1.3-0.9,1.5-1.4,2.2"/>
			<path class="st12" d="M3116.7-470.7c2.4,8.1,8.6,12.4,15.7,15.7c6.1,2.8,11.1,7.1,15.8,11.9c4.8,5,9.6,10,15,14.1
				c3.7,2.8,4.8,5.8,4.4,9.9"/>
			<path class="st12" d="M2871.3-160.9c-0.4,12,6.1,19.8,14.8,27.1c8.6,7.2,16.6,15.3,23.4,24.5c4.7,6.4,11.9,10.6,16.5,17.2
				c1,1.5,1.5,3,2.4,4.2c-9.5,17.1-25.5,21.6-42.9,23.6c-3.7,0.4-5.3-2.5-7.5-4.5"/>
			<path class="st12" d="M2535.3,329.6c-3.2,1.5-3.2,4.2-3,7.1c0.4,7-2.8,13.8-0.2,21c0.9,2.6-0.7,5.2-4.2,6.9
				c-2.7,1.3-5.5,3.1-8.4,4.2c-8.8,3.2-14,0.6-16.4-8.2c-1.2-4.3-2.5-8.5-3.6-12.8c-1-4.1-3-4.5-6.2-4.4"/>
			<path class="st12" d="M2069.8-347.3c-8.6,0.4-17.1,1.7-25.4,3.8c-12.8,3.3-26.2,3.8-38.9,7.6c-6.2,1.9-12.2,3.9-18.8,3.5"/>
			<path class="st12" d="M3020.2-496.9c0.1-2.7-0.3-5.1-2.2-7.5c-7.4-9.4-13.6-19.7-20.9-29.2c-4.4-5.8-8.6-7.3-15.9-6.2
				c-9.6,1.5-18.9-2.1-27.6-6.4"/>
			<path class="st12" d="M2696.9-22.5c13,2.7,26,5.3,38.9,8.3c4.8,1.1,9.3,3.3,14.2,0.7"/>
			<path class="st12" d="M2525.5-175.1c-7.5,11.2-14.8,22.5-20.9,34.4c-1.9,3.6-3.3,7.7-8.2,8.2"/>
			<path class="st12" d="M2334-488c-15.1,5.3-29.9,11.7-45.7,15"/>
			<path class="st12" d="M2584.7-536.6c-15.6-0.3-30.1,4.5-44.1,10.7c-4.6,2-8.8,2.7-13.6,2.8c-6.2,0.1-12.5-1.3-18.1,3.5
				c-1.7,1.5-5.5,0.3-8.1-1.3"/>
			<path class="st12" d="M2887-113.8c0.2,0.5-0.4,0.8-0.7,1.5c-2.6,6.5-3.6,13.1-2.5,20.2c0.8,4.6,0.1,9.5,0.1,14.2"/>
			<path class="st12" d="M2338.4,386.1c-1.5,9.7-3.1,19.4-4.4,29.2c-0.3,2.3-0.5,4.8,1.4,6.7"/>
			<path class="st12" d="M2249.4,395.1c-9.2,1.7-13.3,9.7-18.6,15.8c-4.2,4.8-10.8,8.9-8.4,17.1"/>
			<path class="st12" d="M2068.3,499.9c1.3,4.4-2.7,6.9-3.9,10.4c-2.7,7.4-4.1,15-6,22.5c-0.5,2,1.4,6.3-3.6,6"/>
			<path class="st12" d="M2078.8-59.9c8.5,3.7,17.1,7.3,25.4,11.3c2.7,1.3,5.2,2.8,8.3,2.9"/>
			<path class="st12" d="M2437.2,89c-12.4,2.4-24.8,3-37.5,1c-4.7-0.8-5.4-5.9-9.7-6.2"/>
			<path class="st12" d="M2438,86.8c0.2,3.4,2.8,2.3,4.5,2.2c11.5-0.6,22.7-3.4,34.5-1c6.8,1.4,12.9,3.5,18.6,7.1
				c2.2,1.4,3.9,3.6,6.8,3.7"/>
			<path class="st12" d="M2071.3-350.3c1.3,16.5-1,32.9-1.4,49.4c0,2,0.9,4,1.4,6"/>
			<path class="st12" d="M2982.8-534.4c1.4-9.2-3.2-12.4-12-15.6c-6.4-2.3-11.7-1-18.2,3c-2.3-1.3-0.8-3.6-1.3-5.4"/>
			<path class="st12" d="M2532.3,332.3c-5.1-3.2-10.4-2.9-15.7-0.7c-4.1,1.7-8.4,2.6-12.7,2.9c-3.3,0.3-7.3,1.5-8.2-3.7"/>
			<path class="st12" d="M2394.6-739.4c0.2-2.2-0.7-4.9-2.9-3.6c-7.8,4.5-16.7,2.7-24.9,3.8c-8.5,1.2-16.3,4.3-24.6,5.7"/>
			<path class="st12" d="M2976.8,368.2c-3.3,5.8,0.8,11.1,1.8,16.4c1,4.9,2.1,10.7,7.1,13.9"/>
			<path class="st12" d="M2536.8,400.4c-2.1-0.6-4.3,0.1-5.9,0.9c-8.6,4.4-17.9,3.6-27,4.4"/>
			<path class="st12" d="M2879.5-137c-1.9,2.6-1.2,5.6-0.6,8.2c1.6,7,0.3,14.6,4.4,21"/>
			<path class="st12" d="M2300.3,381.6c12.3,2.6,25,1.3,37.5,3.5c3.8,0.7,7.9-1,11.9-1.7"/>
			<path class="st12" d="M2920.7,297.1c-10.1,0.5-20.2,1.1-29.2,6.7"/>
			<path class="st12" d="M3541.8,550c-3.4,3.7-7.5,5.9-12.7,6c-6.8,0.2-12.6,3.6-18.7,6c-2.8,1.1-3.9,3.7-3.8,6.7"/>
			<path class="st12" d="M2820.4,326.3c4.4,8.6,8.2,17.3,9.7,26.9"/>
			<path class="st12" d="M2191-387.7c1.4,9.6-4.6,16.2-14.2,17.4c-8.5,1.1-16.9,2.6-25.5,2.9c-5,0.1-8.4,2.3-9.1,8.1
				c-0.7,5.5-4.7,7.8-10.3,6.8"/>
			<path class="st12" d="M2481.4-146c7.7,3.1,12.8,8.8,15.7,16.5c1.3,3.6,6.1,4.2,6.8,8.2"/>
			<path class="st12" d="M2102.7-636.1c-5.6,0.5-10.8,3-16.5,3"/>
			<path class="st12" d="M3484.2,348.7c3.7,4.2,7.5,8.5,11.2,12.7"/>
			<path class="st12" d="M3239.9,467.7c0.3,6.8,5.2,13,2.6,20.2"/>
			<path class="st12" d="M3039.7,482.7c4.8,6.3,0.8,13.5,2.2,20.2c-0.7,0-1.5,0-2.2,0"/>
			<path class="st12" d="M2809.2-431.1c-1.4,2.7-3.6,3.9-6.7,4.7c-2.3,0.7-7.2-0.2-6.4,5"/>
			<path class="st12" d="M2673-732.7c4.5,4,3.7,9.1,3,14.2"/>
			<path class="st12" d="M3087.6,357.7c-4.8-1.2-8.7,2.9-13.5,2.2"/>
			<path class="st12" d="M2200,142.9c4.3,3.2,2.8,8.7,5.2,12.7"/>
			<path class="st12" d="M2801.7-389.9c-7.9-0.3-7.6,7.1-9.4,11.4c-1.6,3.8-0.7,9.1,4.1,11.8"/>
			<path class="st12" d="M2661.7-716.2c-1.5,3.6-2.3,7.3-2.2,11.2"/>
			<path class="st12" d="M2476.9-147.5c-3.4,1-7,0.7-10.5,0.7"/>
			<path class="st12" d="M2690.2-713.2c0.5,3.8,6.8,3.5,6,8.2"/>
			<path class="st12" d="M2195.5,243.9c2.9,5.7,5.7,11.4,12,14.2"/>
			<path class="st12" d="M2119.9-603.2c0.5,4.7,2.2,9.6-2.2,13.5"/>
			<path class="st12" d="M2720.9-711c3.3,0.7,2,3.3,2.2,5.2"/>
		</g>
	</g>
</g>
</svg>
