<?xml version="1.0" encoding="utf-8"?>
<!-- Generator: Adobe Illustrator 16.0.1, SVG Export Plug-In . SVG Version: 6.00 Build 0)  -->
<!DOCTYPE svg PUBLIC "-//W3C//DTD SVG 1.1//EN" "http://www.w3.org/Graphics/SVG/1.1/DTD/svg11.dtd">
<svg version="1.1" id="Layer_1" xmlns="http://www.w3.org/2000/svg" xmlns:xlink="http://www.w3.org/1999/xlink" x="0px" y="0px"
	 width="49px" height="50px" viewBox="11.167 0 49 50" enable-background="new 11.167 0 49 50" xml:space="preserve">
<g>
	<path fill="#FFFFFF" d="M16.298,21.814c0,0.565,0.048,1.084,0.144,1.559c0.096,0.475,0.243,0.882,0.439,1.224
		c0.197,0.34,0.451,0.607,0.759,0.799c0.309,0.192,0.676,0.288,1.103,0.288c0.778,0,1.379-0.303,1.806-0.912
		c0.425-0.607,0.64-1.593,0.64-2.957c0-0.544-0.046-1.05-0.136-1.519c-0.09-0.469-0.232-0.879-0.423-1.231
		c-0.192-0.352-0.442-0.626-0.752-0.823c-0.309-0.197-0.688-0.295-1.134-0.295c-0.778,0-1.38,0.311-1.807,0.935
		C16.511,19.504,16.298,20.482,16.298,21.814 M13.997,21.814c0-1.864,0.41-3.302,1.231-4.309c0.82-1.008,1.993-1.511,3.517-1.511
		c0.799,0,1.497,0.138,2.094,0.416c0.598,0.277,1.093,0.671,1.488,1.183c0.394,0.512,0.687,1.125,0.878,1.838
		c0.192,0.715,0.289,1.508,0.289,2.382c0,1.864-0.414,3.301-1.239,4.308c-0.826,1.008-1.996,1.51-3.509,1.51
		c-0.811,0-1.514-0.137-2.11-0.414c-0.597-0.277-1.089-0.672-1.479-1.184s-0.68-1.124-0.871-1.838
		C14.093,23.482,13.997,22.688,13.997,21.814"/>
	<path fill="#FFFFFF" d="M25.058,16.331c0.448-0.085,0.941-0.152,1.479-0.199c0.538-0.048,1.074-0.072,1.606-0.072
		c0.554,0,1.111,0.046,1.67,0.135c0.56,0.091,1.063,0.272,1.51,0.544c0.448,0.271,0.812,0.65,1.095,1.134
		c0.283,0.486,0.423,1.117,0.423,1.895c0,0.703-0.122,1.298-0.367,1.782c-0.245,0.485-0.57,0.882-0.975,1.191
		c-0.405,0.309-0.866,0.532-1.383,0.671c-0.517,0.139-1.052,0.208-1.606,0.208h-0.256c-0.117,0-0.24-0.002-0.367-0.008
		c-0.128-0.005-0.253-0.013-0.375-0.024c-0.123-0.011-0.211-0.021-0.264-0.032v3.853h-2.19V16.331z M28.318,17.946
		c-0.214,0-0.415,0.007-0.607,0.024c-0.192,0.016-0.347,0.034-0.464,0.055v3.629c0.042,0.01,0.106,0.021,0.192,0.032
		c0.084,0.012,0.175,0.019,0.271,0.024c0.095,0.005,0.188,0.008,0.28,0.008h0.2c0.287,0,0.572-0.026,0.855-0.081
		c0.282-0.052,0.535-0.151,0.759-0.295c0.224-0.143,0.402-0.343,0.535-0.599c0.133-0.255,0.2-0.591,0.2-1.007
		c0-0.352-0.065-0.642-0.191-0.871c-0.128-0.229-0.296-0.413-0.504-0.551c-0.208-0.139-0.446-0.234-0.711-0.289
		C28.867,17.972,28.596,17.946,28.318,17.946"/>
	<polygon fill="#FFFFFF" points="34.2,16.219 40.834,16.219 40.834,18.17 36.391,18.17 36.391,20.774 40.435,20.774 40.435,22.725 
		36.391,22.725 36.391,25.458 40.914,25.458 40.914,27.408 34.2,27.408 	"/>
	<path fill="#FFFFFF" d="M49.72,33.02c0-0.516-0.154-0.908-0.345-1.268l-0.683,1.816c0,0-0.48-0.088-0.48-0.225v-0.018
		c0.309-0.822,0.53-1.678,0.702-2.5c-0.172-0.377-0.308-0.84-0.308-1.439c0-0.549,0.119-1.234,0.393-2.125l1.284,0.377
		c-0.068,1.131-0.206,1.953-0.48,2.844c0.566,0.582,1.303,1.27,1.303,2.244c0,1.098-1.148,2.811-1.148,4.303
		c0,1.9,0.828,4.369,3.594,4.369c1.508,0,2.346-1.199,2.346-2.449c0-0.752-0.309-1.508-0.94-2.037l0.976-1.217
		c0.943,0.719,1.405,1.799,1.405,2.879c0,1.848-1.354,3.682-3.804,3.682c-3.182,0-4.946-3.018-4.946-5.244
		C48.588,35.418,49.72,33.893,49.72,33.02"/>
	<path fill="#FFFFFF" d="M16.442,35.674c0.222,0.377,0.428,0.514,0.754,0.514c0.429,0,0.668-0.309,0.668-0.924
		c0-1.027-0.462-2.021-0.839-3.188c-0.6,1.662-1.387,3.443-2.382,5.398l-0.48-0.242c1.063-2.158,1.971-4.281,2.64-5.996
		c-0.138-0.531-0.207-1.096-0.207-1.695c0-0.703,0.103-1.475,0.378-2.314l1.371,0.242c-0.171,0.891-0.411,1.814-0.702,2.775
		c0.051,0.377,0.154,0.719,0.36,1.062c0.599,1.078,1.335,2.502,1.353,3.787v0.066c0.327-0.527,0.6-1.162,0.858-1.832
		c0.102,0,0.479,0.137,0.479,0.24c-0.446,1.164-1.045,2.262-1.713,3.1l-0.085,0.105c-0.394,0.564-1.045,0.82-1.799,0.82
		c-0.805,0-1.456-0.463-1.696-1.164L16.442,35.674z"/>
	<path fill="#FFFFFF" d="M22.062,29.609c0,0-0.343,1.422-0.771,3.615c-0.188,0.959-0.343,1.766-0.343,2.449
		c0,0.498,0.188,0.584,0.343,0.584c0.273,0,0.788-1.012,1.148-2.504l0.103-0.564c0.256-1.457,0.583-2.725,0.788-3.582h1.457
		c-0.6,2.674-1.097,4.662-1.097,6.064c0,0.498,0.188,0.584,0.343,0.584c0.446,0,1.011-0.961,1.766-2.93
		c0.083,0,0.479,0.119,0.479,0.221v0.02c-0.754,1.951-1.353,3.941-2.759,3.941c-0.754,0-1.096-0.566-1.2-1.406
		c-0.376,0.84-0.873,1.406-1.542,1.406c-0.907,0-1.217-0.824-1.217-1.973c0-0.701,0.12-1.523,0.275-2.348
		c0.428-2.227,0.771-3.58,0.771-3.58h1.455V29.609z"/>
	<path fill="#FFFFFF" d="M24.942,37.424c0,0,0.154-1.559,0.633-2.846c0.343-1.938,0.634-3.668,0.839-4.969h1.475l-0.224,1.283
		c0.515-0.873,1.149-1.473,1.851-1.473c0.669,0,0.942,0.531,0.942,1.182c0,0.119-0.018,0.275-0.034,0.43
		c0.6-0.994,1.337-1.611,2.143-1.611c0.599,0,0.995,0.393,0.995,1.215c0,1.594-1.115,3.635-1.115,5.037
		c0,0.498,0.188,0.584,0.343,0.584c0.446,0,1.011-0.961,1.765-2.93c0.103,0,0.48,0.137,0.48,0.24
		c-0.754,1.953-1.525,3.941-2.931,3.941c-0.599,0-1.165-0.482-1.165-1.525c0-1.852,1.114-3.754,1.114-4.986
		c0-0.189-0.086-0.342-0.274-0.342c-0.43,0-1.199,0.822-1.783,3.34c-0.257,1.389-0.548,2.795-0.702,3.43h-1.56
		c0.411-1.885,1.2-5.553,1.2-6.289c0-0.275-0.085-0.361-0.223-0.361c-0.549,0-1.268,1.336-1.731,3.789l-0.549,2.861H24.942
		L24.942,37.424z"/>
	<path fill="#FFFFFF" d="M33.698,37.424c0,0,0.155-1.559,0.634-2.846c0.343-1.938,0.634-3.668,0.84-4.969h1.473l-0.223,1.283
		c0.516-0.873,1.148-1.473,1.851-1.473c0.669,0,0.942,0.531,0.942,1.182c0,0.119-0.017,0.275-0.034,0.43
		c0.601-0.994,1.337-1.611,2.143-1.611c0.601,0,0.994,0.393,0.994,1.215c0,1.594-1.114,3.635-1.114,5.037
		c0,0.498,0.188,0.584,0.343,0.584c0.446,0,1.012-0.961,1.765-2.93c0.104,0,0.479,0.137,0.479,0.24
		c-0.752,1.953-1.523,3.941-2.93,3.941c-0.599,0-1.164-0.482-1.164-1.525c0-1.852,1.113-3.754,1.113-4.986
		c0-0.189-0.085-0.342-0.274-0.342c-0.429,0-1.199,0.822-1.781,3.34c-0.258,1.389-0.549,2.795-0.703,3.43h-1.56
		c0.412-1.885,1.2-5.553,1.2-6.289c0-0.275-0.086-0.361-0.221-0.361c-0.551,0-1.27,1.336-1.731,3.789l-0.549,2.861H33.698
		L33.698,37.424z"/>
	<path fill="#FFFFFF" d="M48.212,33.328c0.103,0,0.48,0.137,0.48,0.24c-0.856,2.244-1.714,4.025-3.393,4.025
		c-1.492,0-2.107-1.371-2.107-2.98c0-2.33,1.284-5.176,3.204-5.176c0.855,0,1.283,0.617,1.283,1.406c0,1.215-1.027,2.861-3.05,3.188
		v0.256c0,1.027,0.293,1.85,1.081,1.85C46.72,36.137,47.561,35.074,48.212,33.328 M44.683,33.379
		c1.284-0.635,1.849-1.816,1.849-2.451c0-0.258-0.102-0.428-0.273-0.428C45.555,30.5,44.887,31.957,44.683,33.379"/>
	<path fill="#FFFFFF" d="M14.478,42.998c0-0.883,0.194-1.564,0.582-2.039c0.388-0.479,0.943-0.715,1.664-0.715
		c0.379,0,0.708,0.064,0.99,0.195c0.282,0.131,0.517,0.318,0.704,0.561c0.186,0.242,0.326,0.531,0.416,0.871
		c0.09,0.334,0.136,0.709,0.136,1.125c0,0.883-0.197,1.561-0.586,2.039c-0.391,0.475-0.944,0.713-1.66,0.713
		c-0.382,0-0.716-0.064-0.999-0.197c-0.282-0.131-0.514-0.316-0.7-0.559c-0.184-0.24-0.321-0.533-0.412-0.867
		C14.523,43.785,14.478,43.41,14.478,42.998 M15.566,42.998c0,0.266,0.023,0.512,0.068,0.734c0.046,0.229,0.114,0.418,0.209,0.578
		c0.093,0.164,0.212,0.289,0.359,0.381c0.146,0.09,0.319,0.135,0.522,0.135c0.368,0,0.653-0.145,0.854-0.43
		c0.201-0.287,0.303-0.754,0.303-1.398c0-0.258-0.021-0.498-0.064-0.719c-0.043-0.221-0.11-0.416-0.201-0.582
		c-0.09-0.166-0.209-0.295-0.354-0.387c-0.147-0.096-0.325-0.143-0.537-0.143c-0.368,0-0.653,0.146-0.854,0.443
		C15.667,41.904,15.566,42.367,15.566,42.998"/>
	<path fill="#FFFFFF" d="M16.724,45.893c-0.401,0-0.758-0.07-1.058-0.211c-0.304-0.141-0.556-0.342-0.754-0.604
		c-0.194-0.256-0.34-0.564-0.437-0.916c-0.094-0.352-0.141-0.742-0.141-1.164c0-0.912,0.208-1.629,0.614-2.131
		c0.416-0.508,1.013-0.768,1.775-0.768c0.398,0,0.75,0.072,1.05,0.211c0.303,0.141,0.559,0.346,0.757,0.604
		c0.197,0.256,0.346,0.564,0.441,0.918c0.094,0.35,0.14,0.742,0.14,1.166c0,0.91-0.208,1.627-0.618,2.127
		C18.076,45.635,17.48,45.893,16.724,45.893 M16.724,40.387c-0.682,0-1.19,0.217-1.553,0.66c-0.365,0.451-0.55,1.105-0.55,1.951
		c0,0.398,0.044,0.764,0.131,1.09c0.086,0.316,0.216,0.594,0.388,0.818c0.168,0.223,0.387,0.395,0.646,0.518
		c0.263,0.119,0.579,0.182,0.939,0.182c0.677,0,1.183-0.217,1.55-0.662c0.367-0.447,0.553-1.105,0.553-1.947
		c0-0.396-0.043-0.766-0.131-1.092c-0.086-0.314-0.217-0.592-0.392-0.816c-0.171-0.221-0.389-0.396-0.65-0.518
		C17.391,40.449,17.078,40.387,16.724,40.387 M16.724,44.971c-0.228,0-0.429-0.055-0.598-0.158c-0.165-0.102-0.302-0.246-0.408-0.43
		c-0.1-0.172-0.175-0.383-0.224-0.619c-0.047-0.23-0.071-0.488-0.071-0.766c0-0.668,0.106-1.148,0.327-1.469
		c0.228-0.336,0.556-0.506,0.973-0.506c0.238,0,0.444,0.055,0.613,0.162c0.166,0.105,0.303,0.256,0.405,0.441
		c0.098,0.18,0.168,0.389,0.215,0.623c0.045,0.23,0.066,0.482,0.066,0.748c0,0.68-0.106,1.164-0.328,1.482
		C17.465,44.805,17.138,44.971,16.724,44.971 M16.724,41.311c-0.322,0-0.563,0.123-0.736,0.379c-0.184,0.27-0.278,0.711-0.278,1.309
		c0,0.258,0.023,0.496,0.066,0.709c0.042,0.209,0.106,0.387,0.191,0.535c0.083,0.143,0.185,0.248,0.311,0.328
		c0.125,0.078,0.271,0.113,0.447,0.113c0.322,0,0.562-0.117,0.737-0.367c0.183-0.264,0.277-0.707,0.277-1.316
		c0-0.25-0.021-0.482-0.063-0.695c-0.04-0.205-0.102-0.387-0.185-0.537c-0.08-0.146-0.182-0.26-0.307-0.338
		C17.059,41.348,16.909,41.311,16.724,41.311"/>
	<polygon fill="#FFFFFF" points="19.807,40.35 22.946,40.35 22.946,41.271 20.843,41.271 20.843,42.58 22.78,42.58 22.78,43.504 
		20.843,43.504 20.843,45.645 19.807,45.645 	"/>
	<path fill="#FFFFFF" d="M20.986,45.785h-1.322v-5.578h3.424v1.211h-2.102v1.02h1.936v1.209h-1.936V45.785z M19.95,45.5h0.75v-2.139
		h1.936v-0.639H20.7v-1.592h2.103v-0.637H19.95V45.5z"/>
	<rect x="14.707" y="46.645" fill="#FFFFFF" width="8.339" height="1.391"/>
	<path fill="#FFFFFF" d="M31.372,47.184c-0.244,0.172-0.554,0.299-0.932,0.375c-0.377,0.072-0.764,0.111-1.16,0.111
		c-0.479,0-0.934-0.074-1.364-0.221c-0.431-0.15-0.809-0.389-1.136-0.721c-0.328-0.33-0.588-0.762-0.783-1.289
		c-0.194-0.529-0.291-1.172-0.291-1.926c0-0.783,0.109-1.441,0.326-1.971c0.217-0.529,0.5-0.955,0.845-1.279
		c0.348-0.322,0.733-0.557,1.16-0.697c0.427-0.141,0.852-0.211,1.28-0.211c0.457,0,0.843,0.031,1.159,0.09
		c0.316,0.062,0.578,0.135,0.782,0.219l-0.309,1.326c-0.175-0.084-0.383-0.146-0.624-0.184c-0.24-0.037-0.531-0.059-0.872-0.059
		c-0.633,0-1.142,0.229-1.525,0.676c-0.386,0.451-0.578,1.148-0.578,2.096c0,0.412,0.045,0.787,0.137,1.125
		c0.091,0.342,0.23,0.631,0.417,0.871c0.186,0.242,0.418,0.43,0.697,0.561c0.278,0.135,0.6,0.203,0.965,0.203
		c0.343,0,0.633-0.037,0.869-0.107c0.235-0.066,0.442-0.154,0.617-0.26L31.372,47.184z"/>
	<path fill="#FFFFFF" d="M29.28,47.715c-0.482,0-0.946-0.078-1.378-0.225c-0.434-0.15-0.822-0.395-1.153-0.732
		c-0.331-0.336-0.598-0.775-0.792-1.307c-0.196-0.529-0.295-1.182-0.295-1.939c0-0.783,0.11-1.451,0.33-1.986
		c0.219-0.533,0.507-0.967,0.855-1.293c0.353-0.328,0.748-0.566,1.176-0.707c0.43-0.143,0.864-0.215,1.293-0.215
		c0.456,0,0.848,0.033,1.168,0.092c0.318,0.062,0.584,0.139,0.791,0.221l0.035,0.014l-0.33,1.414l-0.049-0.023
		c-0.172-0.082-0.377-0.145-0.611-0.178c-0.242-0.037-0.533-0.059-0.865-0.059c-0.617,0-1.118,0.223-1.492,0.66
		c-0.376,0.441-0.567,1.137-0.567,2.068c0,0.406,0.045,0.783,0.136,1.115c0.089,0.336,0.228,0.623,0.409,0.855
		c0.182,0.234,0.411,0.418,0.681,0.547c0.271,0.131,0.588,0.197,0.947,0.197c0.334,0,0.622-0.033,0.856-0.1
		c0.233-0.068,0.438-0.154,0.606-0.26l0.05-0.029l0.342,1.357l-0.025,0.016c-0.249,0.178-0.568,0.307-0.948,0.383
		C30.068,47.676,29.675,47.715,29.28,47.715 M29.315,39.398c-0.419,0-0.845,0.07-1.265,0.211c-0.417,0.135-0.802,0.367-1.144,0.686
		c-0.34,0.318-0.621,0.742-0.835,1.264c-0.214,0.523-0.323,1.182-0.323,1.953c0,0.746,0.098,1.389,0.288,1.91
		c0.191,0.52,0.451,0.949,0.773,1.277c0.322,0.324,0.699,0.564,1.121,0.707c0.423,0.146,0.878,0.221,1.35,0.221
		c0.389,0,0.776-0.035,1.152-0.113c0.355-0.07,0.654-0.186,0.891-0.35l-0.299-1.186c-0.165,0.094-0.358,0.176-0.577,0.238
		c-0.243,0.07-0.539,0.105-0.881,0.105c-0.37,0-0.702-0.068-0.984-0.207c-0.282-0.135-0.521-0.326-0.712-0.574
		c-0.188-0.242-0.332-0.539-0.425-0.885c-0.092-0.34-0.138-0.723-0.138-1.137c0-0.953,0.198-1.668,0.588-2.125
		c0.391-0.457,0.915-0.689,1.558-0.689c0.337,0,0.633,0.02,0.879,0.057c0.221,0.037,0.417,0.09,0.587,0.166l0.288-1.238
		c-0.197-0.078-0.446-0.145-0.74-0.201C30.153,39.428,29.766,39.398,29.315,39.398"/>
	<path fill="#FFFFFF" d="M31.715,43.512c0-1.332,0.293-2.357,0.88-3.076c0.585-0.723,1.423-1.08,2.513-1.08
		c0.571,0,1.069,0.1,1.497,0.295c0.426,0.199,0.779,0.48,1.062,0.846c0.281,0.365,0.49,0.805,0.627,1.314
		c0.137,0.508,0.206,1.078,0.206,1.701c0,1.334-0.295,2.359-0.885,3.078c-0.59,0.721-1.426,1.082-2.507,1.082
		c-0.58,0-1.082-0.1-1.509-0.295c-0.425-0.199-0.778-0.48-1.055-0.846c-0.279-0.369-0.486-0.807-0.623-1.316
		C31.784,44.703,31.715,44.139,31.715,43.512 M33.359,43.512c0,0.404,0.034,0.775,0.103,1.113c0.069,0.342,0.173,0.631,0.315,0.877
		c0.14,0.244,0.321,0.434,0.543,0.572c0.221,0.137,0.483,0.207,0.788,0.207c0.556,0,0.986-0.219,1.291-0.652
		c0.304-0.434,0.457-1.141,0.457-2.115c0-0.389-0.031-0.752-0.098-1.084c-0.064-0.336-0.165-0.627-0.303-0.881
		c-0.137-0.25-0.315-0.447-0.537-0.588c-0.221-0.141-0.491-0.211-0.811-0.211c-0.556,0-0.987,0.223-1.291,0.668
		C33.511,41.861,33.359,42.561,33.359,43.512"/>
	<path fill="#FFFFFF" d="M35.107,47.715c-0.582,0-1.095-0.102-1.527-0.301c-0.433-0.203-0.793-0.492-1.072-0.859
		s-0.491-0.812-0.631-1.33c-0.137-0.512-0.206-1.086-0.206-1.713c0-1.336,0.299-2.381,0.889-3.104
		c0.593-0.729,1.449-1.098,2.547-1.098c0.575,0,1.084,0.104,1.516,0.301c0.429,0.201,0.791,0.492,1.078,0.859
		c0.281,0.367,0.496,0.816,0.635,1.328c0.138,0.514,0.207,1.088,0.207,1.713c0,1.336-0.301,2.383-0.895,3.107
		C37.053,47.348,36.197,47.715,35.107,47.715 M35.107,39.398c-1.07,0-1.904,0.357-2.479,1.064c-0.577,0.707-0.87,1.732-0.87,3.049
		c0,0.615,0.069,1.186,0.204,1.689c0.137,0.506,0.344,0.943,0.616,1.301c0.27,0.357,0.62,0.637,1.04,0.832
		c0.42,0.193,0.921,0.291,1.491,0.291c1.063,0,1.896-0.355,2.473-1.061c0.581-0.711,0.876-1.736,0.876-3.053
		c0-0.617-0.068-1.186-0.204-1.689c-0.135-0.502-0.345-0.941-0.619-1.299c-0.276-0.359-0.628-0.639-1.048-0.832
		C36.167,39.498,35.67,39.398,35.107,39.398 M35.107,46.322c-0.312,0-0.585-0.072-0.811-0.217c-0.227-0.139-0.415-0.334-0.558-0.584
		c-0.143-0.248-0.249-0.545-0.318-0.885c-0.07-0.342-0.104-0.721-0.104-1.125c0-0.957,0.156-1.67,0.465-2.119
		c0.311-0.457,0.758-0.688,1.327-0.688c0.326,0,0.607,0.074,0.835,0.217c0.225,0.146,0.41,0.35,0.55,0.605
		c0.139,0.256,0.243,0.555,0.308,0.891c0.064,0.338,0.098,0.707,0.098,1.094c0,0.98-0.156,1.699-0.465,2.139
		C36.121,46.096,35.676,46.322,35.107,46.322 M35.107,40.791c-0.539,0-0.962,0.219-1.255,0.65c-0.299,0.434-0.45,1.131-0.45,2.07
		c0,0.4,0.034,0.77,0.102,1.107c0.067,0.332,0.172,0.621,0.31,0.859c0.136,0.236,0.314,0.424,0.529,0.557
		c0.212,0.133,0.47,0.199,0.765,0.199c0.538,0,0.96-0.213,1.255-0.633c0.299-0.424,0.449-1.127,0.449-2.09
		c0-0.381-0.031-0.744-0.096-1.076c-0.064-0.328-0.164-0.619-0.301-0.867c-0.131-0.242-0.308-0.436-0.521-0.57
		C35.682,40.859,35.418,40.791,35.107,40.791"/>
	<path fill="#FFFFFF" d="M39.619,39.514c0.16-0.023,0.342-0.043,0.542-0.057c0.202-0.014,0.411-0.025,0.624-0.033
		c0.214-0.008,0.42-0.014,0.622-0.018S41.79,39.4,41.95,39.4c0.709,0,1.313,0.1,1.815,0.297c0.504,0.199,0.91,0.477,1.223,0.834
		c0.312,0.359,0.541,0.783,0.685,1.279c0.146,0.496,0.218,1.041,0.218,1.635c0,0.541-0.069,1.062-0.205,1.564
		c-0.139,0.502-0.366,0.949-0.687,1.338c-0.319,0.387-0.741,0.699-1.262,0.936c-0.521,0.236-1.167,0.355-1.938,0.355
		c-0.121,0-0.283-0.006-0.484-0.014c-0.203-0.008-0.411-0.016-0.627-0.029c-0.219-0.012-0.427-0.02-0.624-0.031
		c-0.197-0.014-0.347-0.025-0.445-0.039V39.514L39.619,39.514z M42.075,40.795c-0.167,0-0.337,0.004-0.507,0.012
		c-0.173,0.008-0.3,0.018-0.384,0.031v5.361c0.031,0.004,0.083,0.012,0.155,0.016c0.072,0.002,0.15,0.008,0.233,0.012
		c0.084,0.004,0.163,0.008,0.238,0.012c0.076,0.004,0.135,0.006,0.173,0.006c0.442,0,0.809-0.078,1.102-0.236
		c0.294-0.154,0.527-0.359,0.699-0.621c0.17-0.258,0.289-0.557,0.359-0.898c0.068-0.336,0.101-0.684,0.101-1.043
		c0-0.311-0.029-0.627-0.09-0.943c-0.062-0.316-0.174-0.6-0.337-0.848c-0.164-0.254-0.386-0.461-0.668-0.619
		C42.867,40.875,42.51,40.795,42.075,40.795"/>
	<path fill="#FFFFFF" d="M41.801,47.68c-0.115,0-0.274-0.002-0.486-0.012c-0.202-0.008-0.411-0.016-0.629-0.029l-0.621-0.031
		c-0.219-0.016-0.358-0.027-0.45-0.043l-0.036-0.004v-8.082l0.036-0.008c0.159-0.021,0.338-0.043,0.545-0.057
		c0.222-0.016,0.427-0.027,0.626-0.035c0.213-0.008,0.419-0.012,0.622-0.016l0.103-0.002c0.162-0.004,0.309-0.006,0.442-0.006
		c0.707,0,1.322,0.102,1.83,0.301c0.509,0.201,0.925,0.484,1.24,0.848c0.316,0.363,0.549,0.797,0.692,1.295
		c0.147,0.496,0.221,1.049,0.221,1.646c0,0.543-0.069,1.072-0.207,1.578c-0.14,0.506-0.374,0.961-0.694,1.35
		c-0.32,0.393-0.751,0.713-1.277,0.949C43.229,47.561,42.571,47.68,41.801,47.68 M39.663,47.484
		c0.089,0.014,0.218,0.023,0.405,0.035l0.621,0.033c0.218,0.012,0.425,0.02,0.628,0.031c0.21,0.008,0.369,0.01,0.482,0.01
		c0.759,0,1.405-0.119,1.918-0.352c0.516-0.232,0.934-0.543,1.248-0.926c0.314-0.377,0.541-0.822,0.679-1.318
		c0.133-0.498,0.202-1.018,0.202-1.553c0-0.588-0.072-1.131-0.217-1.623c-0.141-0.484-0.367-0.91-0.675-1.26
		c-0.306-0.354-0.713-0.629-1.207-0.822c-0.496-0.197-1.103-0.295-1.799-0.295c-0.131,0-0.279,0.002-0.44,0.004h-0.102
		c-0.202,0.008-0.41,0.01-0.62,0.021c-0.2,0.004-0.402,0.016-0.623,0.031c-0.188,0.014-0.354,0.031-0.502,0.055L39.663,47.484
		L39.663,47.484z M41.984,46.287c-0.038,0-0.098-0.004-0.174-0.006c-0.042-0.002-0.083-0.004-0.128-0.006l-0.111-0.006
		c-0.069-0.002-0.134-0.006-0.196-0.01l-0.038-0.004c-0.073-0.004-0.128-0.01-0.162-0.018l-0.034-0.008v-5.428l0.035-0.006
		c0.084-0.016,0.207-0.027,0.391-0.037c0.17-0.006,0.342-0.01,0.509-0.01c0.44,0,0.809,0.082,1.096,0.246
		c0.285,0.16,0.516,0.371,0.683,0.631c0.166,0.254,0.282,0.545,0.343,0.865c0.062,0.32,0.093,0.641,0.093,0.949
		c0,0.361-0.034,0.715-0.104,1.055c-0.068,0.342-0.191,0.648-0.365,0.912c-0.175,0.266-0.415,0.48-0.714,0.639
		C42.81,46.205,42.432,46.287,41.984,46.287 M41.229,46.16c0.023,0.004,0.061,0.008,0.112,0.012h0.039
		c0.061,0.004,0.126,0.008,0.194,0.01l0.112,0.006c0.045,0.002,0.088,0.004,0.128,0.006c0.077,0.006,0.133,0.008,0.17,0.008
		c0.433,0,0.796-0.078,1.082-0.23c0.285-0.15,0.515-0.354,0.682-0.609c0.167-0.252,0.286-0.549,0.353-0.881
		c0.067-0.332,0.103-0.682,0.103-1.037c0-0.307-0.031-0.619-0.092-0.932c-0.06-0.312-0.171-0.594-0.329-0.838
		c-0.161-0.244-0.382-0.449-0.653-0.602c-0.275-0.156-0.629-0.234-1.053-0.234c-0.165,0-0.337,0.002-0.506,0.012
		c-0.153,0.006-0.264,0.018-0.342,0.027V46.16L41.229,46.16z"/>
	<polygon fill="#FFFFFF" points="47.012,39.514 51.752,39.514 51.752,40.908 48.576,40.908 48.576,42.77 51.466,42.77 
		51.466,44.164 48.576,44.164 48.576,46.117 51.808,46.117 51.808,47.514 47.012,47.514 	"/>
	<path fill="#FFFFFF" d="M51.852,47.555h-4.885v-8.084h4.827v1.48h-3.175v1.775h2.891v1.48h-2.891v1.867h3.232V47.555z
		 M47.054,47.469h4.711V46.16h-3.232v-2.041h2.89v-1.305h-2.89v-1.947h3.176v-1.311h-4.654V47.469z"/>
	<path fill="#FFFFFF" d="M21.421,5.114c0,0.583-0.101,1.172-0.308,1.755c-0.214,0.596-0.482,1.172-0.804,1.748
		c-0.321,0.563-0.684,1.119-1.072,1.645c-0.395,0.526-0.784,1.02-1.159,1.454l-0.904,0.703v0.083l1.233-0.236h3.275v1.875h-7.181
		v-1.139c0.268-0.288,0.576-0.623,0.924-0.998c0.335-0.379,0.684-0.787,1.032-1.216c0.342-0.429,0.683-0.864,1.011-1.319
		c0.329-0.456,0.63-0.912,0.891-1.377c0.262-0.459,0.469-0.901,0.624-1.336c0.153-0.429,0.228-0.845,0.228-1.223
		c0-0.48-0.134-0.852-0.396-1.152c-0.268-0.306-0.69-0.453-1.272-0.453c-0.362,0-0.744,0.074-1.119,0.228
		c-0.382,0.147-0.703,0.349-0.964,0.584l-0.885-1.574c0.443-0.356,0.945-0.653,1.507-0.872c0.563-0.22,1.22-0.327,1.99-0.327
		c0.489,0,0.938,0.066,1.347,0.2c0.409,0.135,0.764,0.336,1.058,0.597c0.295,0.262,0.529,0.589,0.703,0.979
		C21.341,4.128,21.421,4.59,21.421,5.114"/>
	<path fill="#FFFFFF" d="M23.686,8.148c0-2.091,0.348-3.645,1.065-4.662c0.717-1.018,1.742-1.518,3.087-1.518
		c1.434,0,2.486,0.5,3.155,1.505c0.67,1.005,1.012,2.565,1.012,4.675s-0.362,3.672-1.084,4.695
		c-0.724,1.025-1.755,1.535-3.096,1.535c-1.42,0-2.471-0.543-3.134-1.607C24.007,11.698,23.686,10.158,23.686,8.148 M25.896,8.148
		c0,1.387,0.148,2.466,0.449,3.216c0.302,0.761,0.797,1.138,1.493,1.138c0.67,0,1.167-0.342,1.481-1.038
		c0.309-0.703,0.469-1.791,0.469-3.315c0-1.373-0.147-2.438-0.449-3.183c-0.288-0.757-0.798-1.132-1.507-1.132
		c-0.683,0-1.179,0.356-1.481,1.065C26.044,5.595,25.896,6.681,25.896,8.148"/>
	<polygon fill="#FFFFFF" points="34.391,12.261 36.756,12.261 36.756,5.529 37.017,4.363 36.198,5.375 34.686,6.406 33.741,5.133 
		37.633,1.992 38.879,1.992 38.879,12.261 41.196,12.261 41.196,14.136 34.391,14.136 	"/>
	<polygon fill="#FFFFFF" points="49.13,16.299 49.13,22.181 49.131,22.188 49.131,23.101 48.291,21.946 48.064,21.628 
		44.222,16.219 42.623,16.219 42.623,27.488 44.702,27.488 44.702,21.654 44.698,21.626 44.698,20.721 45.688,22.053 49.609,27.568 
		51.207,27.568 51.207,16.299 	"/>
	<polygon fill="#FFFFFF" points="43.889,12.261 46.254,12.261 46.254,5.529 46.515,4.363 45.696,5.375 44.184,6.406 43.239,5.133 
		47.131,1.992 48.377,1.992 48.377,12.261 50.694,12.261 50.694,14.136 43.889,14.136 	"/>
</g>
</svg>
