<?xml version="1.0" encoding="utf-8"?>
<!-- Generator: Adobe Illustrator 16.0.4, SVG Export Plug-In . SVG Version: 6.00 Build 0)  -->
<!DOCTYPE svg PUBLIC "-//W3C//DTD SVG 1.1//EN" "http://www.w3.org/Graphics/SVG/1.1/DTD/svg11.dtd">
<svg version="1.1" id="Layer_1" xmlns="http://www.w3.org/2000/svg" xmlns:xlink="http://www.w3.org/1999/xlink" x="0px" y="0px"
	 width="70px" height="50px" viewBox="0 0 70 50" enable-background="new 0 0 70 50" xml:space="preserve">
<g>
	<g>
		<path fill="#FFFFFF" d="M53.116,25.373c0-0.644-0.192-1.137-0.431-1.587l-0.855,2.274c0,0-0.602-0.109-0.602-0.281v-0.021
			c0.387-1.03,0.664-2.101,0.879-3.131c-0.215-0.472-0.385-1.052-0.385-1.803c0-0.685,0.149-1.544,0.491-2.66l1.608,0.472
			c-0.086,1.416-0.258,2.445-0.602,3.561c0.709,0.729,1.631,1.588,1.631,2.81c0,1.373-1.438,3.518-1.438,5.385
			c0,2.381,1.036,5.472,4.498,5.472c1.888,0,2.938-1.503,2.938-3.068c0-0.94-0.387-1.887-1.178-2.549l1.221-1.524
			c1.182,0.901,1.76,2.254,1.76,3.604c0,2.313-1.694,4.61-4.762,4.61c-3.982,0-6.192-3.778-6.192-6.565
			C51.7,28.377,53.116,26.468,53.116,25.373"/>
		<path fill="#FFFFFF" d="M11.458,28.697c0.278,0.471,0.536,0.643,0.944,0.643c0.536,0,0.836-0.386,0.836-1.156
			c0-1.287-0.579-2.531-1.051-3.99c-0.751,2.08-1.737,4.31-2.982,6.757l-0.601-0.303c1.331-2.701,2.468-5.361,3.305-7.506
			c-0.173-0.665-0.259-1.373-0.259-2.123c0-0.88,0.129-1.846,0.473-2.896l1.716,0.301c-0.214,1.116-0.515,2.273-0.879,3.474
			c0.064,0.473,0.193,0.902,0.45,1.331c0.75,1.351,1.672,3.132,1.694,4.742v0.084c0.409-0.662,0.751-1.457,1.074-2.295
			c0.127,0,0.599,0.172,0.599,0.301c-0.558,1.457-1.308,2.832-2.144,3.881l-0.107,0.132c-0.493,0.706-1.309,1.026-2.253,1.026
			c-1.008,0-1.823-0.578-2.123-1.457L11.458,28.697z"/>
		<path fill="#FFFFFF" d="M18.493,21.104c0,0-0.429,1.78-0.964,4.527c-0.236,1.201-0.43,2.21-0.43,3.066
			c0,0.623,0.236,0.729,0.43,0.729c0.342,0,0.986-1.266,1.437-3.133l0.129-0.708c0.321-1.823,0.729-3.411,0.986-4.483h1.824
			c-0.751,3.346-1.373,5.834-1.373,7.592c0,0.623,0.236,0.73,0.43,0.73c0.558,0,1.265-1.203,2.21-3.669c0.105,0,0.6,0.15,0.6,0.278
			v0.023c-0.944,2.443-1.694,4.934-3.454,4.934c-0.944,0-1.372-0.709-1.502-1.76c-0.471,1.051-1.093,1.76-1.93,1.76
			c-1.136,0-1.523-1.031-1.523-2.469c0-0.879,0.15-1.908,0.344-2.938c0.536-2.789,0.965-4.483,0.965-4.483h1.821V21.104z"/>
		<path fill="#FFFFFF" d="M22.098,30.887c0,0,0.193-1.951,0.793-3.562c0.429-2.424,0.793-4.59,1.051-6.221h1.846l-0.28,1.608
			c0.645-1.094,1.438-1.844,2.317-1.844c0.837,0,1.18,0.664,1.18,1.48c0,0.148-0.022,0.343-0.043,0.536
			c0.751-1.244,1.674-2.016,2.682-2.016c0.75,0,1.245,0.492,1.245,1.521c0,1.995-1.395,4.548-1.395,6.306
			c0,0.623,0.235,0.73,0.429,0.73c0.558,0,1.266-1.203,2.209-3.668c0.129,0,0.602,0.172,0.602,0.301
			c-0.944,2.444-1.91,4.935-3.669,4.935c-0.75,0-1.458-0.604-1.458-1.91c0-2.317,1.394-4.698,1.394-6.242
			c0-0.237-0.108-0.429-0.343-0.429c-0.538,0-1.501,1.029-2.232,4.182c-0.322,1.739-0.687,3.499-0.879,4.292h-1.953
			c0.514-2.358,1.502-6.951,1.502-7.873c0-0.343-0.107-0.451-0.278-0.451c-0.687,0-1.588,1.673-2.167,4.743l-0.687,3.581
			L22.098,30.887L22.098,30.887z"/>
		<path fill="#FFFFFF" d="M33.059,30.887c0,0,0.194-1.951,0.794-3.562c0.429-2.424,0.794-4.59,1.052-6.221h1.843l-0.279,1.608
			c0.645-1.094,1.438-1.844,2.317-1.844c0.837,0,1.18,0.664,1.18,1.48c0,0.148-0.021,0.343-0.043,0.536
			c0.752-1.244,1.675-2.016,2.683-2.016c0.752,0,1.244,0.492,1.244,1.521c0,1.995-1.395,4.548-1.395,6.306
			c0,0.623,0.234,0.73,0.429,0.73c0.56,0,1.267-1.203,2.209-3.668c0.13,0,0.601,0.172,0.601,0.301
			c-0.941,2.444-1.907,4.935-3.668,4.935c-0.748,0-1.457-0.604-1.457-1.91c0-2.317,1.394-4.698,1.394-6.242
			c0-0.237-0.106-0.429-0.344-0.429c-0.536,0-1.5,1.029-2.229,4.182c-0.322,1.739-0.687,3.499-0.88,4.292h-1.952
			c0.516-2.358,1.502-6.951,1.502-7.873c0-0.343-0.107-0.451-0.276-0.451c-0.688,0-1.589,1.673-2.167,4.743l-0.687,3.581
			L33.059,30.887L33.059,30.887z"/>
		<path fill="#FFFFFF" d="M51.229,25.76c0.129,0,0.603,0.172,0.603,0.301c-1.073,2.809-2.146,5.039-4.248,5.039
			c-1.867,0-2.638-1.716-2.638-3.73c0-2.917,1.607-6.479,4.011-6.479c1.071,0,1.606,0.772,1.606,1.76
			c0,1.522-1.285,3.583-3.817,3.991v0.32c0,1.286,0.366,2.316,1.353,2.316C49.361,29.277,50.414,27.947,51.229,25.76 M46.811,25.823
			c1.607-0.793,2.314-2.272,2.314-3.068c0-0.322-0.127-0.536-0.342-0.536C47.902,22.219,47.066,24.043,46.811,25.823"/>
		<path fill="#FFFFFF" d="M8.998,37.865c0-1.105,0.243-1.957,0.729-2.553c0.486-0.599,1.18-0.896,2.083-0.896
			c0.474,0,0.886,0.082,1.24,0.246c0.353,0.164,0.647,0.397,0.88,0.701c0.233,0.303,0.408,0.665,0.521,1.09
			c0.113,0.42,0.171,0.889,0.171,1.41c0,1.104-0.247,1.952-0.734,2.551c-0.489,0.594-1.182,0.894-2.078,0.894
			c-0.479,0-0.897-0.082-1.25-0.246s-0.644-0.398-0.876-0.701c-0.23-0.301-0.402-0.666-0.516-1.086
			C9.055,38.852,8.998,38.381,8.998,37.865 M10.361,37.865c0,0.332,0.028,0.641,0.085,0.92c0.057,0.285,0.143,0.523,0.261,0.725
			c0.116,0.203,0.266,0.361,0.449,0.477c0.184,0.111,0.4,0.168,0.654,0.168c0.461,0,0.817-0.182,1.069-0.538
			c0.252-0.359,0.379-0.943,0.379-1.75c0-0.324-0.027-0.623-0.08-0.9c-0.054-0.276-0.138-0.521-0.251-0.729
			c-0.113-0.207-0.262-0.369-0.444-0.484c-0.184-0.119-0.407-0.178-0.672-0.178c-0.46,0-0.818,0.184-1.07,0.555
			C10.487,36.496,10.361,37.076,10.361,37.865"/>
		<path fill="#FFFFFF" d="M11.81,41.488c-0.503,0-0.949-0.086-1.324-0.264c-0.38-0.175-0.696-0.427-0.944-0.754
			c-0.243-0.32-0.426-0.707-0.547-1.148c-0.117-0.439-0.176-0.928-0.176-1.457c0-1.143,0.26-2.039,0.769-2.666
			c0.52-0.637,1.268-0.961,2.222-0.961c0.498,0,0.938,0.09,1.314,0.264c0.379,0.176,0.699,0.432,0.948,0.754
			c0.247,0.32,0.433,0.707,0.552,1.15c0.117,0.438,0.175,0.928,0.175,1.459c0,1.139-0.26,2.037-0.774,2.662
			C13.503,41.166,12.757,41.488,11.81,41.488 M11.81,34.596c-0.854,0-1.49,0.271-1.945,0.828c-0.457,0.564-0.688,1.383-0.688,2.441
			c0,0.498,0.055,0.957,0.164,1.365c0.108,0.395,0.271,0.742,0.486,1.024c0.211,0.277,0.484,0.494,0.809,0.647
			c0.329,0.148,0.725,0.228,1.175,0.228c0.848,0,1.481-0.272,1.94-0.828c0.46-0.562,0.693-1.385,0.693-2.438
			c0-0.498-0.055-0.96-0.164-1.367c-0.108-0.396-0.272-0.742-0.491-1.022c-0.214-0.277-0.487-0.496-0.814-0.648
			C12.645,34.676,12.253,34.596,11.81,34.596 M11.81,40.334c-0.285,0-0.537-0.066-0.749-0.197c-0.206-0.127-0.378-0.307-0.51-0.537
			c-0.125-0.217-0.22-0.479-0.28-0.776c-0.059-0.287-0.089-0.611-0.089-0.957c0-0.837,0.133-1.438,0.41-1.839
			c0.285-0.422,0.695-0.633,1.217-0.633c0.298,0,0.556,0.068,0.768,0.203c0.207,0.131,0.379,0.318,0.507,0.551
			c0.122,0.226,0.21,0.486,0.269,0.781c0.056,0.289,0.083,0.604,0.083,0.937c0,0.85-0.133,1.457-0.411,1.854
			C12.738,40.127,12.329,40.334,11.81,40.334 M11.81,35.752c-0.403,0-0.705,0.154-0.922,0.475c-0.23,0.338-0.348,0.892-0.348,1.64
			c0,0.321,0.029,0.62,0.083,0.887c0.052,0.261,0.133,0.486,0.239,0.67c0.104,0.179,0.231,0.312,0.389,0.412
			c0.156,0.097,0.339,0.142,0.56,0.142c0.403,0,0.704-0.148,0.923-0.461c0.229-0.33,0.347-0.886,0.347-1.648
			c0-0.312-0.027-0.604-0.079-0.869c-0.05-0.258-0.127-0.484-0.232-0.674c-0.099-0.182-0.228-0.324-0.384-0.422
			C12.229,35.799,12.042,35.752,11.81,35.752"/>
		<polygon fill="#FFFFFF" points="15.67,34.551 19.599,34.551 19.599,35.703 16.967,35.703 16.967,37.342 19.392,37.342 
			19.392,38.5 16.967,38.5 16.967,41.178 15.67,41.178 		"/>
		<path fill="#FFFFFF" d="M17.146,41.355h-1.655v-6.984h4.287v1.516h-2.632v1.277h2.424v1.514h-2.424V41.355z M15.849,40.998h0.939
			V38.32h2.424v-0.799h-2.424v-1.994h2.632V34.73h-3.571V40.998z"/>
		<rect x="9.285" y="42.43" fill="#FFFFFF" width="10.44" height="1.742"/>
		<path fill="#FFFFFF" d="M30.147,43.105c-0.305,0.215-0.694,0.375-1.166,0.469c-0.472,0.092-0.956,0.141-1.452,0.141
			c-0.6,0-1.169-0.094-1.708-0.277c-0.54-0.188-1.013-0.487-1.423-0.901s-0.736-0.953-0.98-1.615
			c-0.243-0.662-0.364-1.467-0.364-2.41c0-0.979,0.137-1.805,0.408-2.467c0.272-0.662,0.625-1.194,1.058-1.603
			c0.435-0.403,0.918-0.696,1.452-0.871c0.535-0.178,1.067-0.266,1.602-0.266c0.572,0,1.056,0.041,1.452,0.113
			c0.396,0.078,0.723,0.168,0.979,0.273l-0.387,1.66c-0.219-0.105-0.479-0.183-0.78-0.23c-0.3-0.045-0.665-0.072-1.092-0.072
			c-0.793,0-1.429,0.285-1.909,0.846c-0.483,0.566-0.723,1.438-0.723,2.625c0,0.515,0.057,0.984,0.172,1.408
			c0.114,0.426,0.288,0.789,0.522,1.09c0.232,0.303,0.523,0.537,0.872,0.701c0.348,0.168,0.751,0.254,1.208,0.254
			c0.43,0,0.792-0.045,1.087-0.133c0.295-0.084,0.554-0.193,0.773-0.326L30.147,43.105z"/>
		<path fill="#FFFFFF" d="M27.529,43.77c-0.604,0-1.185-0.096-1.726-0.28c-0.543-0.188-1.029-0.494-1.444-0.916
			c-0.414-0.421-0.748-0.972-0.992-1.636c-0.245-0.664-0.369-1.479-0.369-2.428c0-0.98,0.138-1.818,0.412-2.488
			c0.275-0.666,0.635-1.211,1.071-1.619c0.441-0.409,0.936-0.709,1.472-0.885c0.538-0.178,1.082-0.268,1.619-0.268
			c0.571,0,1.062,0.041,1.462,0.115c0.398,0.076,0.731,0.172,0.99,0.275l0.043,0.018l-0.413,1.77l-0.061-0.029
			c-0.215-0.102-0.472-0.18-0.765-0.223c-0.303-0.047-0.667-0.072-1.083-0.072c-0.772,0-1.4,0.277-1.868,0.826
			c-0.471,0.553-0.71,1.422-0.71,2.59c0,0.508,0.057,0.979,0.17,1.396c0.112,0.42,0.285,0.778,0.512,1.069
			c0.228,0.295,0.515,0.525,0.853,0.687c0.339,0.164,0.737,0.246,1.185,0.246c0.418,0,0.779-0.041,1.072-0.125
			c0.292-0.086,0.548-0.192,0.759-0.324l0.062-0.036l0.428,1.698l-0.031,0.021c-0.312,0.222-0.711,0.384-1.187,0.478
			C28.515,43.721,28.023,43.77,27.529,43.77 M27.573,33.359c-0.525,0-1.058,0.088-1.584,0.264c-0.521,0.17-1.003,0.459-1.432,0.859
			c-0.425,0.397-0.777,0.928-1.045,1.58c-0.268,0.655-0.404,1.479-0.404,2.446c0,0.935,0.122,1.738,0.361,2.392
			c0.239,0.649,0.564,1.188,0.967,1.598c0.403,0.406,0.875,0.707,1.403,0.887c0.529,0.184,1.099,0.275,1.69,0.275
			c0.486,0,0.971-0.045,1.442-0.141c0.445-0.088,0.819-0.234,1.115-0.438l-0.374-1.483c-0.206,0.116-0.449,0.219-0.722,0.297
			c-0.304,0.088-0.674,0.133-1.103,0.133c-0.463,0-0.878-0.086-1.232-0.26c-0.353-0.168-0.653-0.408-0.891-0.718
			c-0.236-0.303-0.416-0.676-0.532-1.108c-0.115-0.426-0.173-0.904-0.173-1.422c0-1.195,0.248-2.09,0.736-2.66
			c0.489-0.574,1.145-0.865,1.95-0.865c0.422,0,0.792,0.025,1.1,0.072c0.277,0.045,0.523,0.113,0.735,0.207l0.36-1.549
			c-0.246-0.099-0.558-0.183-0.926-0.252C28.622,33.396,28.137,33.359,27.573,33.359"/>
		<path fill="#FFFFFF" d="M30.577,38.51c0-1.668,0.367-2.953,1.102-3.852c0.733-0.904,1.782-1.354,3.146-1.354
			c0.716,0,1.339,0.125,1.874,0.37c0.533,0.25,0.977,0.603,1.33,1.06c0.352,0.457,0.613,1.006,0.785,1.645
			c0.172,0.637,0.258,1.35,0.258,2.131c0,1.67-0.369,2.953-1.107,3.854s-1.785,1.353-3.139,1.353c-0.725,0-1.354-0.123-1.889-0.368
			c-0.532-0.25-0.974-0.603-1.321-1.06c-0.349-0.461-0.608-1.009-0.78-1.647C30.663,40,30.577,39.293,30.577,38.51 M32.636,38.51
			c0,0.506,0.042,0.971,0.128,1.393c0.086,0.427,0.217,0.789,0.394,1.097c0.176,0.306,0.402,0.545,0.68,0.717
			c0.276,0.173,0.605,0.259,0.986,0.259c0.695,0,1.234-0.273,1.615-0.816s0.572-1.426,0.572-2.646c0-0.486-0.039-0.941-0.121-1.357
			c-0.082-0.42-0.207-0.786-0.379-1.104c-0.172-0.312-0.396-0.559-0.673-0.734c-0.276-0.178-0.616-0.266-1.015-0.266
			c-0.696,0-1.235,0.279-1.616,0.838C32.825,36.443,32.636,37.318,32.636,38.51"/>
		<path fill="#FFFFFF" d="M34.824,43.77c-0.728,0-1.371-0.127-1.912-0.375c-0.542-0.256-0.993-0.617-1.342-1.076
			c-0.35-0.459-0.615-1.018-0.79-1.666c-0.171-0.641-0.258-1.358-0.258-2.143c0-1.674,0.374-2.982,1.113-3.887
			c0.742-0.912,1.814-1.373,3.188-1.373c0.721,0,1.358,0.129,1.897,0.377c0.537,0.25,0.991,0.615,1.35,1.074
			c0.354,0.461,0.621,1.021,0.795,1.664c0.173,0.643,0.259,1.361,0.259,2.145c0,1.672-0.375,2.982-1.119,3.889
			C37.259,43.311,36.188,43.77,34.824,43.77 M34.824,33.359c-1.34,0-2.384,0.447-3.104,1.332c-0.722,0.887-1.089,2.17-1.089,3.817
			c0,0.771,0.086,1.484,0.255,2.115c0.171,0.633,0.43,1.181,0.771,1.627c0.338,0.449,0.776,0.799,1.302,1.043
			c0.526,0.242,1.154,0.365,1.866,0.365c1.331,0,2.374-0.445,3.096-1.33c0.728-0.888,1.097-2.172,1.097-3.82
			c0-0.772-0.086-1.483-0.256-2.116c-0.169-0.627-0.431-1.177-0.775-1.625c-0.346-0.449-0.786-0.8-1.312-1.041
			C36.15,33.484,35.527,33.359,34.824,33.359 M34.824,42.027c-0.39,0-0.732-0.092-1.015-0.271c-0.284-0.174-0.519-0.42-0.698-0.731
			c-0.179-0.312-0.312-0.683-0.399-1.109s-0.13-0.9-0.13-1.406c0-1.199,0.195-2.092,0.582-2.654c0.389-0.571,0.949-0.86,1.661-0.86
			c0.409,0,0.761,0.094,1.045,0.272c0.282,0.183,0.515,0.437,0.688,0.758c0.174,0.318,0.305,0.693,0.385,1.115
			c0.082,0.422,0.123,0.883,0.123,1.369c0,1.227-0.196,2.127-0.582,2.676C36.094,41.744,35.535,42.027,34.824,42.027 M34.824,35.104
			c-0.675,0-1.204,0.273-1.571,0.814c-0.374,0.543-0.563,1.414-0.563,2.592c0,0.5,0.043,0.963,0.128,1.385
			c0.084,0.416,0.215,0.777,0.388,1.076c0.17,0.297,0.393,0.531,0.662,0.697c0.266,0.166,0.588,0.248,0.957,0.248
			c0.673,0,1.202-0.266,1.571-0.791c0.373-0.531,0.562-1.412,0.562-2.615c0-0.479-0.039-0.934-0.12-1.348
			c-0.08-0.412-0.204-0.775-0.375-1.086c-0.165-0.305-0.386-0.545-0.652-0.715C35.543,35.189,35.212,35.104,34.824,35.104"/>
		<path fill="#FFFFFF" d="M40.473,33.504c0.2-0.029,0.428-0.055,0.678-0.07c0.254-0.018,0.515-0.033,0.781-0.043
			c0.268-0.01,0.526-0.016,0.779-0.022c0.253-0.004,0.479-0.007,0.68-0.007c0.887,0,1.645,0.125,2.272,0.371
			c0.631,0.25,1.14,0.599,1.53,1.045c0.391,0.449,0.678,0.98,0.857,1.603c0.182,0.619,0.272,1.302,0.272,2.045
			c0,0.679-0.087,1.33-0.257,1.959c-0.174,0.627-0.459,1.188-0.859,1.675c-0.4,0.485-0.928,0.875-1.58,1.172
			c-0.652,0.295-1.46,0.444-2.425,0.444c-0.152,0-0.354-0.008-0.606-0.016c-0.254-0.011-0.515-0.021-0.785-0.037
			c-0.273-0.015-0.533-0.026-0.781-0.041c-0.246-0.017-0.434-0.031-0.557-0.049V33.504L40.473,33.504z M43.547,35.107
			c-0.209,0-0.422,0.004-0.635,0.014c-0.217,0.01-0.375,0.023-0.48,0.041v6.711c0.039,0.006,0.104,0.014,0.194,0.02
			c0.091,0.002,0.188,0.01,0.292,0.015c0.105,0.006,0.205,0.01,0.299,0.014c0.096,0.006,0.17,0.009,0.217,0.009
			c0.553,0,1.012-0.099,1.379-0.296c0.367-0.192,0.66-0.45,0.875-0.778c0.213-0.322,0.362-0.695,0.449-1.123
			c0.086-0.422,0.127-0.857,0.127-1.308c0-0.389-0.037-0.784-0.113-1.18s-0.217-0.75-0.422-1.062
			c-0.205-0.318-0.482-0.576-0.836-0.775C44.538,35.207,44.091,35.107,43.547,35.107"/>
		<path fill="#FFFFFF" d="M43.203,43.727c-0.145,0-0.344-0.002-0.609-0.014c-0.252-0.01-0.514-0.021-0.787-0.037l-0.777-0.041
			c-0.274-0.018-0.448-0.033-0.563-0.053l-0.045-0.006V33.459l0.045-0.01c0.199-0.027,0.423-0.053,0.683-0.07
			c0.277-0.02,0.533-0.033,0.783-0.043c0.267-0.01,0.524-0.016,0.778-0.021l0.129-0.002c0.203-0.004,0.386-0.006,0.554-0.006
			c0.885,0,1.655,0.127,2.291,0.375c0.637,0.252,1.157,0.607,1.553,1.062c0.396,0.455,0.688,0.998,0.867,1.621
			c0.184,0.62,0.275,1.313,0.275,2.061c0,0.681-0.086,1.343-0.259,1.976c-0.175,0.635-0.468,1.203-0.869,1.69
			c-0.401,0.49-0.94,0.892-1.599,1.188C44.991,43.576,44.168,43.727,43.203,43.727 M40.527,43.482
			c0.111,0.016,0.271,0.028,0.508,0.043l0.777,0.043c0.272,0.014,0.531,0.024,0.785,0.037c0.264,0.01,0.463,0.014,0.604,0.014
			c0.95,0,1.759-0.148,2.401-0.439c0.646-0.293,1.168-0.682,1.562-1.16c0.394-0.473,0.678-1.028,0.851-1.649
			c0.166-0.623,0.252-1.274,0.252-1.945c0-0.735-0.09-1.416-0.271-2.03c-0.177-0.607-0.46-1.14-0.845-1.578
			c-0.383-0.441-0.893-0.787-1.512-1.029c-0.621-0.246-1.38-0.369-2.252-0.369c-0.164,0-0.35,0.002-0.551,0.004l-0.128,0.002
			c-0.253,0.008-0.513,0.012-0.776,0.025c-0.25,0.006-0.504,0.02-0.779,0.039c-0.235,0.018-0.442,0.039-0.629,0.068v9.926H40.527z
			 M43.434,41.982c-0.047,0-0.123-0.004-0.219-0.008c-0.052-0.002-0.104-0.004-0.16-0.007l-0.139-0.008
			c-0.087-0.002-0.168-0.006-0.246-0.012l-0.048-0.005c-0.091-0.004-0.159-0.012-0.202-0.021l-0.043-0.01v-6.795l0.044-0.009
			c0.104-0.02,0.259-0.034,0.488-0.045c0.214-0.008,0.429-0.014,0.638-0.014c0.551,0,1.012,0.104,1.372,0.309
			c0.356,0.201,0.646,0.466,0.854,0.789c0.207,0.318,0.353,0.683,0.429,1.084c0.077,0.4,0.116,0.802,0.116,1.189
			c0,0.451-0.043,0.895-0.131,1.32c-0.086,0.428-0.239,0.811-0.457,1.141c-0.219,0.332-0.52,0.602-0.894,0.799
			C44.466,41.881,43.993,41.982,43.434,41.982 M42.486,41.824c0.029,0.006,0.076,0.01,0.142,0.014l0.049,0.002
			c0.075,0.004,0.157,0.008,0.243,0.012l0.141,0.006c0.056,0.004,0.109,0.007,0.16,0.009c0.096,0.008,0.166,0.01,0.213,0.01
			c0.541,0,0.996-0.099,1.354-0.289c0.356-0.188,0.644-0.442,0.853-0.762c0.209-0.316,0.358-0.688,0.441-1.104
			c0.085-0.416,0.129-0.854,0.129-1.297c0-0.385-0.039-0.775-0.115-1.168c-0.074-0.391-0.214-0.742-0.412-1.047
			c-0.201-0.307-0.478-0.562-0.817-0.754c-0.345-0.195-0.787-0.293-1.318-0.293c-0.207,0-0.422,0.002-0.633,0.014
			c-0.192,0.008-0.33,0.021-0.429,0.035V41.824L42.486,41.824z"/>
		<polygon fill="#FFFFFF" points="49.727,33.504 55.661,33.504 55.661,35.25 51.686,35.25 51.686,37.58 55.303,37.58 55.303,39.324 
			51.686,39.324 51.686,41.771 55.73,41.771 55.73,43.518 49.727,43.518 		"/>
		<path fill="#FFFFFF" d="M55.785,43.57h-6.114V33.449h6.043v1.854h-3.976v2.223h3.619v1.854h-3.619v2.338h4.047V43.57z
			 M49.779,43.463h5.897v-1.639H51.63V39.27h3.617v-1.635H51.63v-2.438h3.976v-1.639h-5.826V43.463z"/>
		<rect x="9.284" y="46.182" fill="#FFFFFF" width="32.94" height="1.74"/>
		<path fill="#FFFFFF" d="M46.857,45.957c0,0.17-0.028,0.342-0.09,0.512c-0.062,0.174-0.141,0.342-0.234,0.51
			c-0.094,0.164-0.199,0.326-0.312,0.479c-0.115,0.153-0.228,0.297-0.337,0.424l-0.265,0.205v0.024l0.359-0.069h0.955v0.547H44.84
			v-0.332c0.079-0.084,0.169-0.182,0.27-0.291c0.099-0.11,0.199-0.229,0.301-0.354s0.199-0.252,0.296-0.385
			c0.096-0.133,0.183-0.266,0.259-0.401c0.076-0.134,0.137-0.263,0.182-0.39c0.045-0.125,0.067-0.246,0.067-0.356
			c0-0.14-0.04-0.248-0.116-0.336c-0.078-0.089-0.201-0.132-0.371-0.132c-0.105,0-0.215,0.021-0.326,0.066
			c-0.11,0.043-0.205,0.102-0.28,0.17l-0.259-0.459c0.129-0.104,0.275-0.19,0.439-0.254c0.164-0.064,0.356-0.096,0.58-0.096
			c0.143,0,0.273,0.02,0.393,0.059s0.223,0.098,0.309,0.174s0.154,0.172,0.205,0.285C46.835,45.67,46.857,45.805,46.857,45.957"/>
		<path fill="#FFFFFF" d="M47.518,46.842c0-0.609,0.103-1.062,0.312-1.359s0.508-0.442,0.899-0.442c0.418,0,0.725,0.146,0.92,0.438
			s0.295,0.748,0.295,1.363s-0.105,1.07-0.316,1.369s-0.512,0.447-0.902,0.447c-0.414,0-0.72-0.158-0.914-0.469
			C47.611,47.877,47.518,47.428,47.518,46.842 M48.163,46.842c0,0.404,0.043,0.719,0.131,0.938c0.088,0.222,0.231,0.332,0.435,0.332
			c0.195,0,0.34-0.1,0.432-0.303c0.091-0.205,0.137-0.522,0.137-0.967c0-0.4-0.043-0.711-0.13-0.928
			c-0.085-0.221-0.233-0.33-0.44-0.33c-0.199,0-0.344,0.104-0.432,0.311C48.206,46.098,48.163,46.414,48.163,46.842"/>
		<polygon fill="#FFFFFF" points="50.639,48.041 51.329,48.041 51.329,46.078 51.404,45.738 51.166,46.033 50.725,46.334 
			50.45,45.963 51.584,45.047 51.947,45.047 51.947,48.041 52.623,48.041 52.623,48.588 50.639,48.588 		"/>
		<g>
			<path fill="#FFFFFF" d="M55.187,45.98c0,0.167-0.03,0.337-0.091,0.508c-0.062,0.172-0.139,0.338-0.231,0.504
				c-0.093,0.163-0.197,0.322-0.312,0.475c-0.112,0.152-0.223,0.294-0.332,0.422l-0.262,0.203v0.023l0.354-0.068h0.947v0.542h-2.075
				v-0.331c0.079-0.081,0.167-0.178,0.267-0.288c0.098-0.109,0.197-0.227,0.298-0.351c0.1-0.122,0.198-0.25,0.293-0.382
				c0.096-0.132,0.181-0.263,0.257-0.396c0.075-0.133,0.136-0.262,0.18-0.387c0.045-0.125,0.067-0.244,0.067-0.354
				c0-0.135-0.039-0.245-0.116-0.334c-0.077-0.087-0.2-0.13-0.367-0.13c-0.105,0-0.214,0.022-0.322,0.065
				c-0.111,0.045-0.204,0.102-0.279,0.171l-0.257-0.453c0.128-0.105,0.274-0.19,0.437-0.255c0.163-0.062,0.354-0.095,0.574-0.095
				c0.142,0,0.271,0.02,0.39,0.058c0.117,0.04,0.221,0.098,0.306,0.174c0.085,0.075,0.152,0.17,0.202,0.283
				C55.163,45.696,55.187,45.83,55.187,45.98z"/>
		</g>
	</g>
</g>
<g>
	<path fill="#FFFFFF" d="M11.15,2.41c0-0.429,0.159-0.795,0.477-1.099c0.318-0.303,0.759-0.455,1.32-0.455
		c0.562,0,1.018,0.152,1.365,0.455c0.348,0.303,0.521,0.67,0.521,1.099c0,0.429-0.173,0.788-0.521,1.076
		c-0.347,0.288-0.802,0.433-1.365,0.433c-0.562,0-1.002-0.145-1.32-0.433C11.309,3.197,11.15,2.839,11.15,2.41z M11.572,5.538h2.884
		v11.095h-2.884V5.538z"/>
	<path fill="#FFFFFF" d="M17.341,1.256c0.339-0.059,0.706-0.115,1.098-0.166c0.392-0.052,0.784-0.093,1.176-0.123
		c0.392-0.029,0.773-0.051,1.142-0.066c0.37-0.015,0.71-0.022,1.021-0.022c0.724,0,1.438,0.067,2.141,0.2
		c0.702,0.134,1.332,0.363,1.886,0.688c0.556,0.326,0.999,0.773,1.332,1.342c0.333,0.57,0.499,1.283,0.499,2.142
		c0,1.272-0.296,2.307-0.887,3.105c-0.592,0.799-0.972,1.205-1.963,1.515l0.676,0.837l3.551,5.925h-3.506l-3.528-6.08l-1.598-0.288
		v6.368h-3.039V1.256z M22.001,3.585c-0.312,0-0.618,0.008-0.921,0.022c-0.303,0.015-0.536,0.044-0.7,0.088v4.504h1.288
		c0.843,0,1.516-0.192,2.019-0.577c0.502-0.385,0.754-1.021,0.754-1.908c0-0.667-0.208-1.188-0.621-1.565
		C23.406,3.774,22.799,3.585,22.001,3.585z"/>
	<path fill="#FFFFFF" d="M30.565,6.182c0.591-0.267,1.294-0.478,2.108-0.633c0.814-0.155,1.664-0.233,2.552-0.233
		c0.77,0,1.412,0.093,1.931,0.277c0.517,0.185,0.928,0.448,1.231,0.788c0.303,0.341,0.518,0.747,0.644,1.221
		c0.125,0.473,0.188,1.006,0.188,1.597c0,0.651-0.022,1.306-0.066,1.964c-0.045,0.658-0.07,1.306-0.078,1.941
		c-0.007,0.636,0.011,1.254,0.056,1.854c0.045,0.599,0.155,1.165,0.333,1.697H37.11l-0.466-1.531h-0.11
		c-0.297,0.458-0.708,0.854-1.232,1.188c-0.525,0.332-1.202,0.499-2.031,0.499c-0.517,0-0.983-0.078-1.397-0.233
		s-0.769-0.377-1.065-0.666c-0.295-0.288-0.524-0.628-0.687-1.021c-0.164-0.392-0.245-0.833-0.245-1.32
		c0-0.681,0.152-1.254,0.455-1.72s0.739-0.843,1.309-1.132c0.57-0.288,1.25-0.487,2.042-0.599c0.791-0.111,1.676-0.144,2.651-0.1
		c0.104-0.828,0.045-1.423-0.178-1.786c-0.222-0.362-0.718-0.543-1.486-0.543c-0.577,0-1.188,0.06-1.831,0.177
		c-0.644,0.119-1.173,0.274-1.586,0.467L30.565,6.182z M34.226,14.436c0.577,0,1.036-0.129,1.375-0.388
		c0.341-0.259,0.592-0.536,0.754-0.833v-1.442c-0.458-0.044-0.898-0.051-1.319-0.022c-0.422,0.03-0.795,0.097-1.121,0.2
		c-0.325,0.104-0.584,0.251-0.776,0.444c-0.192,0.192-0.289,0.436-0.289,0.732c0,0.415,0.123,0.736,0.367,0.965
		C33.46,14.321,33.797,14.436,34.226,14.436z"/>
	<path fill="#FFFFFF" d="M41.481,2.41c0-0.429,0.159-0.795,0.477-1.099c0.318-0.303,0.759-0.455,1.32-0.455
		c0.562,0,1.018,0.152,1.365,0.455c0.348,0.303,0.521,0.67,0.521,1.099c0,0.429-0.173,0.788-0.521,1.076
		c-0.348,0.288-0.803,0.433-1.365,0.433c-0.562,0-1.002-0.145-1.32-0.433C41.641,3.197,41.481,2.839,41.481,2.41z M41.903,5.538
		h2.885v11.095h-2.885V5.538z"/>
	<path fill="#FFFFFF" d="M50.579,12.905c0,0.518,0.066,0.896,0.199,1.132c0.134,0.236,0.348,0.354,0.644,0.354
		c0.178,0,0.352-0.014,0.521-0.044s0.381-0.097,0.633-0.201l0.311,2.264c-0.236,0.119-0.6,0.236-1.087,0.355
		c-0.488,0.118-0.991,0.178-1.509,0.178c-0.844,0-1.487-0.196-1.932-0.588c-0.443-0.392-0.665-1.039-0.665-1.942V1.101h2.885V12.905
		z"/>
</g>
</svg>
