<?xml version="1.0" encoding="utf-8"?>
<!-- Generator: Adobe Illustrator 16.0.4, SVG Export Plug-In . SVG Version: 6.00 Build 0)  -->
<!DOCTYPE svg PUBLIC "-//W3C//DTD SVG 1.1//EN" "http://www.w3.org/Graphics/SVG/1.1/DTD/svg11.dtd">
<svg version="1.1" id="Layer_1" xmlns="http://www.w3.org/2000/svg" xmlns:xlink="http://www.w3.org/1999/xlink" x="0px" y="0px"
	 width="70px" height="50px" viewBox="0 0 70 50" enable-background="new 0 0 70 50" xml:space="preserve">
<g>
	<g>
		<path fill="#FFFFFF" d="M11.277,10.347c0,0.707,0.06,1.357,0.18,1.951s0.304,1.104,0.55,1.532c0.247,0.426,0.564,0.76,0.95,1
			c0.387,0.241,0.847,0.36,1.381,0.36c0.974,0,1.727-0.38,2.261-1.141c0.533-0.76,0.801-1.994,0.801-3.702
			c0-0.681-0.058-1.314-0.17-1.901c-0.113-0.587-0.291-1.101-0.53-1.541c-0.24-0.441-0.554-0.784-0.941-1.031
			c-0.387-0.247-0.861-0.37-1.42-0.37c-0.974,0-1.728,0.389-2.262,1.171C11.544,7.455,11.277,8.679,11.277,10.347 M8.396,10.347
			c0-2.334,0.513-4.133,1.541-5.394c1.027-1.261,2.495-1.891,4.403-1.891c1,0,1.874,0.173,2.621,0.521
			c0.748,0.347,1.368,0.84,1.862,1.48c0.493,0.641,0.86,1.408,1.1,2.301c0.24,0.895,0.361,1.888,0.361,2.982
			c0,2.333-0.518,4.132-1.551,5.393c-1.034,1.26-2.498,1.89-4.392,1.89c-1.015,0-1.895-0.173-2.642-0.52
			c-0.747-0.346-1.363-0.841-1.851-1.48c-0.487-0.641-0.851-1.408-1.09-2.302C8.516,12.435,8.396,11.44,8.396,10.347"/>
		<path fill="#FFFFFF" d="M22.243,3.483c0.561-0.107,1.178-0.191,1.851-0.25c0.673-0.06,1.344-0.09,2.011-0.09
			c0.693,0,1.391,0.057,2.091,0.169c0.701,0.114,1.331,0.341,1.891,0.681c0.56,0.34,1.017,0.814,1.371,1.42
			c0.354,0.608,0.53,1.398,0.53,2.371c0,0.881-0.153,1.625-0.46,2.232c-0.307,0.607-0.713,1.104-1.22,1.491
			c-0.507,0.387-1.084,0.667-1.731,0.84c-0.647,0.174-1.317,0.26-2.011,0.26h-0.321c-0.147,0-0.3-0.003-0.46-0.01
			c-0.16-0.006-0.317-0.016-0.47-0.03c-0.154-0.014-0.264-0.026-0.33-0.04v4.823h-2.742V3.483z M26.325,5.504
			c-0.268,0-0.52,0.009-0.76,0.03c-0.24,0.02-0.434,0.043-0.581,0.069v4.543c0.053,0.013,0.133,0.027,0.24,0.04
			c0.106,0.014,0.22,0.023,0.34,0.03c0.119,0.006,0.236,0.01,0.35,0.01h0.25c0.359,0,0.717-0.033,1.071-0.101
			c0.353-0.066,0.67-0.19,0.95-0.37c0.28-0.179,0.504-0.43,0.67-0.75c0.167-0.32,0.25-0.74,0.25-1.261c0-0.44-0.081-0.803-0.24-1.09
			c-0.16-0.287-0.371-0.517-0.631-0.69c-0.26-0.173-0.558-0.293-0.89-0.361C27.012,5.537,26.672,5.504,26.325,5.504"/>
		<polygon fill="#FFFFFF" points="33.688,3.342 41.993,3.342 41.993,5.785 36.43,5.785 36.43,9.045 41.493,9.045 41.493,11.487 
			36.43,11.487 36.43,14.908 42.094,14.908 42.094,17.35 33.688,17.35 		"/>
		<path fill="#FFFFFF" d="M53.116,24.373c0-0.644-0.192-1.137-0.43-1.587L51.83,25.06c0,0-0.602-0.109-0.602-0.28v-0.021
			c0.387-1.03,0.665-2.101,0.88-3.131c-0.215-0.472-0.386-1.052-0.386-1.803c0-0.685,0.15-1.544,0.492-2.66l1.608,0.472
			c-0.085,1.416-0.257,2.445-0.601,3.561c0.709,0.729,1.631,1.588,1.631,2.81c0,1.373-1.438,3.518-1.438,5.385
			c0,2.381,1.036,5.471,4.498,5.471c1.888,0,2.938-1.502,2.938-3.068c0-0.941-0.387-1.887-1.178-2.549l1.22-1.525
			c1.182,0.902,1.761,2.254,1.761,3.605c0,2.314-1.695,4.611-4.763,4.611c-3.982,0-6.192-3.779-6.192-6.566
			C51.7,27.377,53.116,25.468,53.116,24.373"/>
		<path fill="#FFFFFF" d="M11.458,27.697c0.278,0.471,0.536,0.643,0.944,0.643c0.536,0,0.836-0.386,0.836-1.157
			c0-1.287-0.579-2.53-1.051-3.989c-0.751,2.08-1.737,4.31-2.982,6.757l-0.601-0.303c1.331-2.701,2.468-5.361,3.305-7.506
			c-0.173-0.665-0.259-1.373-0.259-2.123c0-0.88,0.129-1.846,0.473-2.896l1.716,0.301c-0.214,1.116-0.515,2.273-0.879,3.474
			c0.064,0.473,0.193,0.902,0.45,1.331c0.75,1.351,1.672,3.132,1.694,4.741v0.085c0.409-0.663,0.751-1.458,1.074-2.295
			c0.127,0,0.599,0.171,0.599,0.301c-0.558,1.457-1.308,2.831-2.144,3.881l-0.107,0.131c-0.493,0.707-1.309,1.027-2.253,1.027
			c-1.008,0-1.823-0.578-2.123-1.457L11.458,27.697z"/>
		<path fill="#FFFFFF" d="M18.493,20.104c0,0-0.429,1.78-0.964,4.527c-0.236,1.201-0.43,2.21-0.43,3.066
			c0,0.623,0.236,0.73,0.43,0.73c0.342,0,0.986-1.266,1.437-3.133l0.129-0.708c0.321-1.823,0.729-3.411,0.986-4.483h1.824
			c-0.751,3.346-1.373,5.834-1.373,7.593c0,0.623,0.236,0.73,0.43,0.73c0.558,0,1.265-1.203,2.21-3.669c0.105,0,0.6,0.15,0.6,0.278
			v0.023c-0.944,2.444-1.694,4.934-3.454,4.934c-0.944,0-1.372-0.709-1.502-1.76c-0.471,1.051-1.093,1.76-1.93,1.76
			c-1.136,0-1.523-1.031-1.523-2.469c0-0.879,0.15-1.908,0.344-2.938c0.536-2.789,0.965-4.483,0.965-4.483H18.493z"/>
		<path fill="#FFFFFF" d="M22.098,29.887c0,0,0.193-1.952,0.793-3.562c0.429-2.424,0.793-4.59,1.051-6.221h1.846l-0.28,1.608
			c0.645-1.094,1.438-1.844,2.317-1.844c0.837,0,1.18,0.664,1.18,1.48c0,0.148-0.022,0.343-0.043,0.536
			c0.751-1.244,1.674-2.016,2.682-2.016c0.75,0,1.245,0.492,1.245,1.521c0,1.995-1.395,4.548-1.395,6.307
			c0,0.623,0.235,0.73,0.429,0.73c0.558,0,1.266-1.203,2.209-3.668c0.129,0,0.602,0.171,0.602,0.301
			c-0.944,2.444-1.91,4.934-3.669,4.934c-0.75,0-1.458-0.604-1.458-1.91c0-2.317,1.394-4.698,1.394-6.242
			c0-0.237-0.108-0.429-0.343-0.429c-0.538,0-1.501,1.029-2.232,4.182c-0.322,1.739-0.687,3.499-0.879,4.292h-1.953
			c0.514-2.359,1.502-6.951,1.502-7.873c0-0.343-0.107-0.451-0.278-0.451c-0.687,0-1.588,1.673-2.167,4.742l-0.687,3.582H22.098z"/>
		<path fill="#FFFFFF" d="M33.059,29.887c0,0,0.194-1.952,0.794-3.562c0.429-2.424,0.794-4.59,1.052-6.221h1.843l-0.279,1.608
			c0.645-1.094,1.438-1.844,2.317-1.844c0.837,0,1.18,0.664,1.18,1.48c0,0.148-0.021,0.343-0.043,0.536
			c0.752-1.244,1.674-2.016,2.682-2.016c0.752,0,1.245,0.492,1.245,1.521c0,1.995-1.395,4.548-1.395,6.307
			c0,0.623,0.235,0.73,0.429,0.73c0.559,0,1.266-1.203,2.209-3.668c0.129,0,0.601,0.171,0.601,0.301
			c-0.942,2.444-1.908,4.934-3.668,4.934c-0.749,0-1.458-0.604-1.458-1.91c0-2.317,1.394-4.698,1.394-6.242
			c0-0.237-0.106-0.429-0.344-0.429c-0.536,0-1.5,1.029-2.23,4.182c-0.322,1.739-0.686,3.499-0.879,4.292h-1.953
			c0.516-2.359,1.503-6.951,1.503-7.873c0-0.343-0.108-0.451-0.277-0.451c-0.688,0-1.589,1.673-2.167,4.742l-0.687,3.582H33.059z"/>
		<path fill="#FFFFFF" d="M51.229,24.76c0.128,0,0.602,0.171,0.602,0.3c-1.073,2.809-2.146,5.04-4.248,5.04
			c-1.867,0-2.638-1.716-2.638-3.731c0-2.917,1.608-6.479,4.011-6.479c1.072,0,1.607,0.772,1.607,1.76
			c0,1.522-1.285,3.583-3.818,3.99v0.321c0,1.286,0.366,2.317,1.352,2.317C49.362,28.277,50.414,26.947,51.229,24.76 M46.81,24.823
			c1.608-0.793,2.315-2.272,2.315-3.068c0-0.322-0.127-0.536-0.342-0.536C47.903,21.219,47.066,23.043,46.81,24.823"/>
		<path fill="#FFFFFF" d="M8.998,36.865c0-1.105,0.243-1.957,0.729-2.553c0.486-0.598,1.18-0.895,2.083-0.895
			c0.474,0,0.886,0.082,1.24,0.246c0.353,0.164,0.647,0.398,0.88,0.701c0.233,0.303,0.408,0.666,0.521,1.09
			c0.113,0.42,0.171,0.889,0.171,1.41c0,1.104-0.247,1.953-0.734,2.551c-0.489,0.594-1.182,0.893-2.078,0.893
			c-0.479,0-0.897-0.082-1.25-0.246c-0.353-0.164-0.644-0.398-0.876-0.701c-0.23-0.301-0.402-0.666-0.516-1.086
			C9.055,37.852,8.998,37.381,8.998,36.865 M10.361,36.865c0,0.332,0.028,0.641,0.085,0.92c0.057,0.285,0.143,0.523,0.261,0.725
			c0.116,0.203,0.266,0.361,0.449,0.477c0.184,0.111,0.4,0.168,0.654,0.168c0.461,0,0.817-0.182,1.069-0.539
			c0.252-0.359,0.379-0.943,0.379-1.75c0-0.324-0.027-0.623-0.08-0.9c-0.054-0.277-0.138-0.521-0.251-0.73
			c-0.113-0.207-0.262-0.369-0.444-0.484c-0.184-0.119-0.407-0.178-0.672-0.178c-0.46,0-0.818,0.184-1.07,0.555
			C10.487,35.496,10.361,36.076,10.361,36.865"/>
		<path fill="#FFFFFF" d="M11.81,40.488c-0.503,0-0.949-0.086-1.324-0.264c-0.38-0.174-0.696-0.426-0.944-0.754
			c-0.243-0.32-0.426-0.707-0.547-1.148c-0.117-0.439-0.176-0.928-0.176-1.457c0-1.143,0.26-2.039,0.769-2.666
			c0.52-0.637,1.268-0.961,2.222-0.961c0.498,0,0.938,0.09,1.314,0.264c0.379,0.176,0.699,0.432,0.948,0.754
			c0.247,0.32,0.433,0.707,0.552,1.15c0.117,0.438,0.175,0.928,0.175,1.459c0,1.139-0.26,2.037-0.774,2.662
			C13.503,40.166,12.757,40.488,11.81,40.488 M11.81,33.596c-0.854,0-1.49,0.271-1.945,0.828c-0.457,0.564-0.688,1.383-0.688,2.441
			c0,0.498,0.055,0.957,0.164,1.365c0.108,0.395,0.271,0.742,0.486,1.025c0.211,0.277,0.484,0.494,0.809,0.648
			c0.329,0.148,0.725,0.227,1.175,0.227c0.848,0,1.481-0.273,1.94-0.828c0.46-0.562,0.693-1.385,0.693-2.438
			c0-0.498-0.055-0.959-0.164-1.367c-0.108-0.396-0.272-0.742-0.491-1.023c-0.214-0.277-0.487-0.496-0.814-0.648
			C12.645,33.676,12.253,33.596,11.81,33.596 M11.81,39.334c-0.285,0-0.537-0.066-0.749-0.197c-0.206-0.127-0.378-0.307-0.51-0.537
			c-0.125-0.217-0.22-0.479-0.28-0.777c-0.059-0.287-0.089-0.611-0.089-0.957c0-0.836,0.133-1.438,0.41-1.838
			c0.285-0.422,0.695-0.633,1.217-0.633c0.298,0,0.556,0.068,0.768,0.203c0.207,0.131,0.379,0.318,0.507,0.551
			c0.122,0.225,0.21,0.486,0.269,0.781c0.056,0.289,0.083,0.604,0.083,0.936c0,0.85-0.133,1.457-0.411,1.854
			C12.738,39.127,12.329,39.334,11.81,39.334 M11.81,34.752c-0.403,0-0.705,0.154-0.922,0.475c-0.23,0.338-0.348,0.891-0.348,1.639
			c0,0.322,0.029,0.621,0.083,0.887c0.052,0.26,0.133,0.486,0.239,0.67c0.104,0.178,0.231,0.312,0.389,0.412
			c0.156,0.096,0.339,0.141,0.56,0.141c0.403,0,0.704-0.148,0.923-0.461c0.229-0.33,0.347-0.885,0.347-1.648
			c0-0.312-0.027-0.604-0.079-0.869c-0.05-0.258-0.127-0.484-0.232-0.674c-0.099-0.182-0.228-0.324-0.384-0.422
			C12.229,34.799,12.042,34.752,11.81,34.752"/>
		<polygon fill="#FFFFFF" points="15.67,33.551 19.599,33.551 19.599,34.703 16.967,34.703 16.967,36.342 19.392,36.342 
			19.392,37.5 16.967,37.5 16.967,40.178 15.67,40.178 		"/>
		<path fill="#FFFFFF" d="M17.146,40.355h-1.655v-6.984h4.287v1.516h-2.632v1.277h2.424v1.514h-2.424V40.355z M15.849,39.998h0.939
			V37.32h2.424v-0.799h-2.424v-1.994h2.632V33.73h-3.571V39.998z"/>
		<rect x="9.285" y="41.43" fill="#FFFFFF" width="10.44" height="1.742"/>
		<path fill="#FFFFFF" d="M30.147,42.105c-0.305,0.215-0.694,0.375-1.166,0.469c-0.472,0.092-0.956,0.141-1.452,0.141
			c-0.6,0-1.169-0.094-1.708-0.277c-0.54-0.188-1.013-0.488-1.423-0.902c-0.41-0.414-0.736-0.953-0.98-1.615
			c-0.243-0.662-0.364-1.467-0.364-2.41c0-0.98,0.137-1.805,0.408-2.467c0.272-0.662,0.625-1.195,1.058-1.602
			c0.435-0.404,0.918-0.697,1.452-0.871c0.535-0.178,1.067-0.266,1.602-0.266c0.572,0,1.056,0.041,1.452,0.113
			c0.396,0.078,0.723,0.168,0.979,0.273l-0.387,1.66c-0.219-0.105-0.479-0.182-0.78-0.23c-0.3-0.045-0.665-0.072-1.092-0.072
			c-0.793,0-1.429,0.285-1.909,0.846c-0.483,0.566-0.723,1.438-0.723,2.625c0,0.514,0.057,0.984,0.172,1.408
			c0.114,0.426,0.288,0.789,0.522,1.09c0.232,0.303,0.523,0.537,0.872,0.701c0.348,0.168,0.751,0.254,1.208,0.254
			c0.43,0,0.792-0.045,1.087-0.133c0.295-0.084,0.554-0.193,0.773-0.326L30.147,42.105z"/>
		<path fill="#FFFFFF" d="M27.529,42.77c-0.604,0-1.185-0.096-1.726-0.281c-0.543-0.188-1.029-0.494-1.444-0.916
			c-0.414-0.42-0.748-0.971-0.992-1.635c-0.245-0.664-0.369-1.48-0.369-2.428c0-0.98,0.138-1.818,0.412-2.488
			c0.275-0.666,0.635-1.211,1.071-1.619c0.441-0.41,0.936-0.709,1.472-0.885c0.538-0.178,1.082-0.268,1.619-0.268
			c0.571,0,1.062,0.041,1.462,0.115c0.398,0.076,0.731,0.172,0.99,0.275l0.043,0.018l-0.413,1.77l-0.061-0.029
			c-0.215-0.102-0.472-0.18-0.765-0.223c-0.303-0.047-0.667-0.072-1.083-0.072c-0.772,0-1.4,0.277-1.868,0.826
			c-0.471,0.553-0.71,1.422-0.71,2.59c0,0.508,0.057,0.979,0.17,1.395c0.112,0.42,0.285,0.779,0.512,1.07
			c0.228,0.295,0.515,0.525,0.853,0.686c0.339,0.164,0.737,0.246,1.185,0.246c0.418,0,0.779-0.041,1.072-0.125
			c0.292-0.086,0.548-0.193,0.759-0.324l0.062-0.037l0.428,1.699l-0.031,0.021c-0.312,0.221-0.711,0.383-1.187,0.477
			C28.515,42.721,28.023,42.77,27.529,42.77 M27.573,32.359c-0.525,0-1.058,0.088-1.584,0.264c-0.521,0.17-1.003,0.459-1.432,0.859
			c-0.425,0.398-0.777,0.928-1.045,1.58c-0.268,0.656-0.404,1.48-0.404,2.447c0,0.934,0.122,1.738,0.361,2.391
			c0.239,0.65,0.564,1.188,0.967,1.598c0.403,0.406,0.875,0.707,1.403,0.887c0.529,0.184,1.099,0.275,1.69,0.275
			c0.486,0,0.971-0.045,1.442-0.141c0.445-0.088,0.819-0.234,1.115-0.438l-0.374-1.484c-0.206,0.117-0.449,0.219-0.722,0.297
			c-0.304,0.088-0.674,0.133-1.103,0.133c-0.463,0-0.878-0.086-1.232-0.26c-0.353-0.168-0.653-0.408-0.891-0.717
			c-0.236-0.303-0.416-0.676-0.532-1.109c-0.115-0.426-0.173-0.904-0.173-1.422c0-1.195,0.248-2.09,0.736-2.66
			c0.489-0.574,1.145-0.865,1.95-0.865c0.422,0,0.792,0.025,1.1,0.072c0.277,0.045,0.523,0.113,0.735,0.207l0.36-1.549
			c-0.246-0.098-0.558-0.182-0.926-0.252C28.622,32.396,28.137,32.359,27.573,32.359"/>
		<path fill="#FFFFFF" d="M30.577,37.51c0-1.668,0.367-2.953,1.102-3.852c0.733-0.904,1.782-1.354,3.146-1.354
			c0.716,0,1.339,0.125,1.874,0.371c0.533,0.25,0.977,0.602,1.33,1.059c0.352,0.457,0.614,1.006,0.786,1.645
			c0.172,0.637,0.257,1.35,0.257,2.131c0,1.67-0.369,2.953-1.107,3.854c-0.739,0.9-1.786,1.352-3.139,1.352
			c-0.725,0-1.354-0.123-1.889-0.369c-0.532-0.25-0.974-0.602-1.321-1.059c-0.349-0.461-0.608-1.008-0.78-1.648
			C30.663,39,30.577,38.293,30.577,37.51 M32.636,37.51c0,0.506,0.042,0.971,0.128,1.393c0.086,0.426,0.217,0.789,0.394,1.096
			c0.176,0.305,0.402,0.545,0.68,0.717c0.276,0.172,0.605,0.258,0.986,0.258c0.696,0,1.235-0.273,1.616-0.816
			s0.572-1.426,0.572-2.646c0-0.486-0.039-0.941-0.122-1.357c-0.081-0.42-0.206-0.787-0.378-1.104
			c-0.172-0.312-0.396-0.559-0.673-0.734c-0.277-0.178-0.616-0.266-1.015-0.266c-0.696,0-1.235,0.279-1.616,0.838
			C32.825,35.443,32.636,36.318,32.636,37.51"/>
		<path fill="#FFFFFF" d="M34.824,42.77c-0.728,0-1.371-0.127-1.912-0.375c-0.542-0.256-0.993-0.617-1.342-1.076
			c-0.35-0.459-0.615-1.018-0.79-1.666c-0.171-0.641-0.258-1.359-0.258-2.143c0-1.674,0.374-2.982,1.113-3.887
			c0.742-0.912,1.814-1.373,3.188-1.373c0.721,0,1.358,0.129,1.897,0.377c0.538,0.25,0.992,0.615,1.35,1.074
			c0.354,0.461,0.622,1.021,0.795,1.664s0.259,1.361,0.259,2.145c0,1.672-0.375,2.982-1.119,3.889
			C37.259,42.311,36.188,42.77,34.824,42.77 M34.824,32.359c-1.34,0-2.384,0.447-3.104,1.332c-0.722,0.887-1.089,2.17-1.089,3.818
			c0,0.771,0.086,1.484,0.255,2.115c0.171,0.633,0.43,1.18,0.771,1.627c0.338,0.449,0.776,0.799,1.302,1.043
			c0.526,0.242,1.154,0.365,1.866,0.365c1.331,0,2.374-0.445,3.096-1.33c0.728-0.887,1.097-2.172,1.097-3.82
			c0-0.773-0.086-1.484-0.256-2.117c-0.169-0.627-0.431-1.176-0.776-1.625s-0.786-0.799-1.311-1.041
			C36.15,32.484,35.528,32.359,34.824,32.359 M34.824,41.027c-0.39,0-0.732-0.092-1.015-0.27c-0.284-0.174-0.519-0.42-0.698-0.732
			c-0.179-0.311-0.312-0.682-0.399-1.109s-0.13-0.9-0.13-1.406c0-1.199,0.195-2.092,0.582-2.654
			c0.389-0.572,0.949-0.861,1.661-0.861c0.409,0,0.761,0.094,1.045,0.273c0.282,0.182,0.515,0.436,0.688,0.758
			c0.175,0.318,0.305,0.693,0.386,1.115s0.123,0.883,0.123,1.369c0,1.227-0.197,2.127-0.582,2.676
			C36.094,40.744,35.535,41.027,34.824,41.027 M34.824,34.104c-0.675,0-1.204,0.273-1.571,0.814
			c-0.374,0.543-0.563,1.414-0.563,2.592c0,0.5,0.043,0.963,0.128,1.385c0.084,0.416,0.215,0.777,0.388,1.076
			c0.17,0.297,0.393,0.531,0.662,0.697c0.266,0.166,0.588,0.248,0.957,0.248c0.673,0,1.202-0.266,1.571-0.791
			c0.373-0.531,0.562-1.412,0.562-2.615c0-0.479-0.039-0.934-0.12-1.348c-0.08-0.412-0.204-0.775-0.375-1.086
			c-0.165-0.305-0.386-0.545-0.653-0.715C35.543,34.189,35.212,34.104,34.824,34.104"/>
		<path fill="#FFFFFF" d="M40.473,32.504c0.2-0.029,0.427-0.055,0.678-0.07c0.254-0.018,0.514-0.033,0.78-0.043
			c0.268-0.01,0.527-0.016,0.78-0.023c0.253-0.004,0.479-0.006,0.68-0.006c0.887,0,1.644,0.125,2.272,0.371
			c0.631,0.25,1.14,0.598,1.531,1.045c0.39,0.449,0.677,0.98,0.857,1.602c0.181,0.619,0.272,1.301,0.272,2.045
			c0,0.678-0.086,1.33-0.257,1.959c-0.173,0.627-0.458,1.188-0.859,1.674c-0.4,0.486-0.927,0.875-1.58,1.172
			c-0.653,0.295-1.46,0.445-2.425,0.445c-0.152,0-0.354-0.008-0.606-0.016c-0.254-0.01-0.515-0.02-0.786-0.037
			c-0.273-0.014-0.533-0.027-0.78-0.041c-0.247-0.016-0.435-0.031-0.558-0.049V32.504z M43.547,34.107
			c-0.209,0-0.422,0.004-0.635,0.014c-0.216,0.01-0.375,0.023-0.48,0.041v6.711c0.038,0.006,0.103,0.014,0.194,0.02
			c0.091,0.002,0.188,0.01,0.292,0.014c0.106,0.006,0.205,0.01,0.299,0.014c0.096,0.006,0.169,0.008,0.216,0.008
			c0.553,0,1.013-0.098,1.38-0.295c0.366-0.193,0.66-0.451,0.874-0.779c0.213-0.322,0.363-0.695,0.45-1.123
			c0.085-0.422,0.127-0.857,0.127-1.307c0-0.389-0.038-0.785-0.114-1.18s-0.217-0.75-0.421-1.062
			c-0.206-0.318-0.483-0.576-0.836-0.775C44.538,34.207,44.091,34.107,43.547,34.107"/>
		<path fill="#FFFFFF" d="M43.203,42.727c-0.144,0-0.343-0.002-0.609-0.014c-0.252-0.01-0.514-0.021-0.787-0.037l-0.778-0.041
			c-0.274-0.018-0.448-0.033-0.563-0.053l-0.045-0.006V32.459l0.045-0.01c0.199-0.027,0.423-0.053,0.683-0.07
			c0.277-0.02,0.533-0.033,0.782-0.043c0.267-0.01,0.525-0.016,0.779-0.021l0.129-0.002c0.203-0.004,0.386-0.006,0.553-0.006
			c0.886,0,1.656,0.127,2.292,0.375c0.636,0.252,1.157,0.607,1.553,1.061c0.395,0.455,0.687,0.998,0.867,1.621
			c0.183,0.621,0.275,1.314,0.275,2.061c0,0.68-0.086,1.342-0.259,1.975c-0.175,0.635-0.467,1.203-0.869,1.691
			c-0.402,0.49-0.94,0.891-1.598,1.188C44.991,42.576,44.168,42.727,43.203,42.727 M40.527,42.482
			c0.111,0.016,0.272,0.029,0.508,0.043l0.777,0.043c0.273,0.014,0.532,0.025,0.786,0.037c0.263,0.01,0.462,0.014,0.604,0.014
			c0.95,0,1.759-0.148,2.402-0.439c0.645-0.293,1.168-0.682,1.561-1.16c0.393-0.473,0.678-1.029,0.85-1.65
			c0.167-0.623,0.253-1.275,0.253-1.945c0-0.736-0.09-1.416-0.271-2.031c-0.176-0.607-0.46-1.139-0.845-1.578
			c-0.383-0.441-0.892-0.787-1.511-1.029c-0.622-0.246-1.38-0.369-2.252-0.369c-0.165,0-0.35,0.002-0.551,0.004l-0.128,0.002
			c-0.253,0.008-0.513,0.012-0.777,0.025c-0.249,0.006-0.504,0.02-0.778,0.039c-0.236,0.018-0.443,0.039-0.629,0.068V42.482z
			 M43.433,40.982c-0.047,0-0.122-0.004-0.218-0.008c-0.052-0.002-0.104-0.004-0.16-0.006l-0.139-0.008
			c-0.087-0.002-0.168-0.006-0.246-0.012l-0.048-0.004c-0.091-0.004-0.159-0.012-0.202-0.021l-0.043-0.01v-6.795l0.044-0.008
			c0.104-0.02,0.259-0.035,0.488-0.045c0.214-0.008,0.429-0.014,0.638-0.014c0.551,0,1.012,0.104,1.372,0.309
			c0.356,0.201,0.645,0.465,0.854,0.789c0.207,0.318,0.353,0.682,0.429,1.084c0.078,0.4,0.116,0.801,0.116,1.189
			c0,0.451-0.043,0.895-0.13,1.32c-0.086,0.428-0.24,0.811-0.458,1.141c-0.218,0.332-0.519,0.602-0.893,0.799
			C44.466,40.881,43.993,40.982,43.433,40.982 M42.486,40.824c0.03,0.006,0.076,0.01,0.142,0.014l0.049,0.002
			c0.075,0.004,0.157,0.008,0.243,0.012l0.141,0.006c0.055,0.004,0.109,0.006,0.159,0.008c0.097,0.008,0.167,0.01,0.213,0.01
			c0.542,0,0.997-0.098,1.355-0.289c0.356-0.189,0.644-0.443,0.852-0.762c0.21-0.316,0.359-0.688,0.442-1.104
			c0.085-0.416,0.129-0.854,0.129-1.297c0-0.385-0.039-0.775-0.115-1.168c-0.074-0.391-0.214-0.742-0.413-1.047
			c-0.201-0.307-0.477-0.562-0.817-0.754c-0.344-0.195-0.787-0.293-1.318-0.293c-0.207,0-0.422,0.002-0.633,0.014
			c-0.192,0.008-0.33,0.021-0.428,0.035V40.824z"/>
		<polygon fill="#FFFFFF" points="49.726,32.504 55.661,32.504 55.661,34.25 51.685,34.25 51.685,36.58 55.303,36.58 55.303,38.324 
			51.685,38.324 51.685,40.771 55.731,40.771 55.731,42.518 49.726,42.518 		"/>
		<path fill="#FFFFFF" d="M55.785,42.57h-6.114V32.449h6.043v1.854h-3.976v2.223h3.619v1.854h-3.619v2.338h4.047V42.57z
			 M49.78,42.463h5.897v-1.639h-4.047V38.27h3.617v-1.635h-3.617v-2.438h3.976v-1.639H49.78V42.463z"/>
		<rect x="9.284" y="45.182" fill="#FFFFFF" width="32.94" height="1.74"/>
		<path fill="#FFFFFF" d="M46.858,44.957c0,0.17-0.029,0.342-0.091,0.512c-0.062,0.174-0.14,0.342-0.234,0.51
			c-0.094,0.164-0.199,0.326-0.313,0.479c-0.115,0.154-0.227,0.297-0.336,0.424l-0.265,0.205v0.025l0.359-0.07h0.955v0.547H44.84
			v-0.332c0.079-0.084,0.169-0.182,0.27-0.291c0.098-0.111,0.199-0.229,0.3-0.354s0.199-0.252,0.296-0.385
			c0.096-0.133,0.183-0.266,0.259-0.402c0.076-0.133,0.137-0.262,0.182-0.389c0.045-0.125,0.067-0.246,0.067-0.357
			c0-0.139-0.04-0.248-0.117-0.336c-0.078-0.088-0.201-0.131-0.371-0.131c-0.105,0-0.215,0.021-0.326,0.066
			c-0.11,0.043-0.205,0.102-0.28,0.17l-0.259-0.459c0.129-0.104,0.275-0.191,0.44-0.254c0.164-0.064,0.356-0.096,0.58-0.096
			c0.142,0,0.273,0.02,0.392,0.059c0.12,0.039,0.223,0.098,0.309,0.174s0.154,0.172,0.205,0.285
			C46.835,44.67,46.858,44.805,46.858,44.957"/>
		<path fill="#FFFFFF" d="M47.517,45.842c0-0.609,0.103-1.062,0.312-1.359c0.209-0.297,0.508-0.443,0.899-0.443
			c0.418,0,0.725,0.145,0.921,0.439c0.195,0.293,0.294,0.748,0.294,1.363s-0.105,1.07-0.316,1.369s-0.512,0.447-0.902,0.447
			c-0.415,0-0.72-0.158-0.915-0.469C47.612,46.877,47.517,46.428,47.517,45.842 M48.163,45.842c0,0.404,0.043,0.719,0.131,0.938
			c0.088,0.221,0.232,0.332,0.435,0.332c0.195,0,0.34-0.1,0.431-0.303c0.091-0.205,0.137-0.523,0.137-0.967
			c0-0.4-0.043-0.711-0.13-0.928c-0.085-0.221-0.233-0.33-0.441-0.33c-0.198,0-0.343,0.104-0.431,0.311
			C48.206,45.098,48.163,45.414,48.163,45.842"/>
		<polygon fill="#FFFFFF" points="50.639,47.041 51.329,47.041 51.329,45.078 51.405,44.738 51.166,45.033 50.724,45.334 
			50.45,44.963 51.584,44.047 51.947,44.047 51.947,47.041 52.623,47.041 52.623,47.588 50.639,47.588 		"/>
		<path fill="#FFFFFF" d="M55.707,46.619H55.16v0.969h-0.603v-0.969H53.05v-0.367l1.577-2.17h0.533v2.02h0.547V46.619z
			 M54.558,45.34l0.045-0.416h-0.02l-0.17,0.357l-0.516,0.67l-0.25,0.191l0.319-0.041h0.591V45.34z"/>
	</g>
	<polygon fill="#FFFFFF" points="52.378,3.443 52.378,10.806 52.379,10.815 52.379,11.957 51.328,10.512 51.045,10.114 
		46.234,3.342 44.232,3.342 44.232,17.45 46.835,17.45 46.835,10.146 46.83,10.112 46.83,8.978 48.07,10.645 52.979,17.551 
		54.979,17.551 54.979,3.443 	"/>
</g>
<g>
</g>
<g>
</g>
<g>
</g>
<g>
</g>
<g>
</g>
<g>
</g>
<g>
</g>
<g>
</g>
<g>
</g>
<g>
</g>
<g>
</g>
</svg>
