<?xml version="1.0" encoding="utf-8"?>
<!-- Generator: Adobe Illustrator 22.0.1, SVG Export Plug-In . SVG Version: 6.00 Build 0)  -->
<svg version="1.1" id="Layer_1" xmlns="http://www.w3.org/2000/svg" xmlns:xlink="http://www.w3.org/1999/xlink" x="0px" y="0px"
	 viewBox="0 0 378.8 378.8" style="enable-background:new 0 0 378.8 378.8;" xml:space="preserve">
<style type="text/css">
	.st0{fill:#FFFFFF;}
</style>
<path class="st0" d="M234.8,139.2h-58.1V42.3h57.4v16.9h-38.5v22.6h35v16.9h-35v23.7h39.2V139.2z M116.5,139.2h-19V43.2
	c3.9-0.7,8.1-1.3,12.8-1.7c4.7-0.4,9.3-0.6,13.9-0.6c4.8,0,9.6,0.4,14.5,1.2c4.8,0.8,9.2,2.4,13.1,4.7c3.9,2.4,7,5.6,9.5,9.8
	c2.4,4.2,3.7,9.7,3.7,16.4c0,6.1-1.1,11.2-3.2,15.4c-2.1,4.2-4.9,7.6-8.4,10.3c-3.5,2.7-7.5,4.6-12,5.8c-4.5,1.2-9.1,1.8-13.9,1.8
	c-0.5,0-1.2,0-2.2,0c-1,0-2.1,0-3.2-0.1c-1.1,0-2.2-0.1-3.3-0.2c-1.1-0.1-1.8-0.2-2.3-0.3V139.2z M116.5,89.3
	c0.4,0.1,0.9,0.2,1.7,0.3c0.7,0.1,1.5,0.2,2.4,0.2c0.8,0,1.6,0.1,2.4,0.1c0.8,0,1.4,0,1.7,0c2.5,0,5-0.2,7.4-0.7
	c2.4-0.5,4.6-1.3,6.6-2.6c1.9-1.2,3.5-3,4.6-5.2c1.2-2.2,1.7-5.1,1.7-8.7c0-3-0.6-5.6-1.7-7.5c-1.1-2-2.6-3.6-4.4-4.8
	c-1.8-1.2-3.9-2-6.2-2.5c-2.3-0.5-4.7-0.7-7.1-0.7c-1.8,0-3.6,0.1-5.3,0.2c-1.7,0.1-3,0.3-4,0.5V89.3z M377,235.8
	c0,16-11.7,31.9-32.9,31.9c-11.5,0-20.9-4.6-27.9-11.3h-14.7v15.4h25v12.8h-25v16.2h28v12.8h-42.3v-70h19.5
	c-3.6-7-5.5-14.6-5.5-21.3c0-13.8,9.8-27,9.8-34.6c0-4.5-1.3-7.9-3-11l-5.9,15.7c-7.4,19.4-14.8,34.9-29.4,34.9
	c-11.8,0-17.3-9.9-18.1-22.3c-5.2,11.9-11.2,21.5-20.3,21.5c-5.2,0-10.1-4.2-10.1-13.2c0-16,9.6-32.5,9.6-43.2c0-1.6-0.7-3-2.4-3
	c-3.7,0-10.4,7.1-15.4,28.9c-2.2,12-4.7,24.2-6.1,29.7h-13.5c3.6-16.3,10.4-48.1,10.4-54.5c0-2.4-0.7-3.1-1.9-3.1
	c-4.7,0-11,11.6-15,32.8l-4.7,24.8h-12.9c0,0,0.5-4.9,1.8-11.3c-4.2,7.1-9.1,12-15.6,12c-5.2,0-10.1-4.2-10.1-13.2
	c0-16,9.6-32.5,9.6-43.2c0-1.6-0.7-3-2.4-3c-3.7,0-10.4,7.1-15.4,28.9c-2.2,12-4.7,24.2-6.1,29.7h-13.5
	c3.6-16.3,10.4-48.1,10.4-54.5c0-2.4-0.7-3.1-1.9-3.1c-4.7,0-11,11.6-15,32.8l-4.7,24.8H96.5c0,0,0.4-4,1.4-9.5
	c-3.6,6.1-7.8,10.2-13.8,10.2c-6.5,0-9.5-4.9-10.4-12.2c-3.3,7.3-7.6,12.2-13.4,12.2c-7.2,0-10-5.9-10.5-14.5
	c-1.6,2.6-3.3,5-5.1,7.2l-0.7,0.9c-3.4,4.9-9.1,7.1-15.6,7.1c-7,0-12.6-4-14.7-10.1l9.1-6.5c1.9,3.3,3.7,4.4,6.5,4.4
	c3.7,0,5.8-2.7,5.8-8c0-8.9-4-17.5-7.3-27.6c-5.2,14.4-12,29.8-20.6,46.7l-4.2-2.1c9.2-18.7,17.1-37.1,22.9-51.9
	c-1.2-4.6-1.8-9.5-1.8-14.7c0-5.8,0.8-12.2,3-19c-0.9-0.3-1.8-0.7-2.6-1.1c-5.2-2.4-9.4-5.8-12.8-10.2c-3.4-4.4-5.9-9.7-7.5-15.9
	c-1.7-6.2-2.5-13.1-2.5-20.6c0-16.1,3.5-28.6,10.7-37.3c7.1-8.7,17.3-13.1,30.5-13.1c6.9,0,13,1.2,18.1,3.6
	c5.2,2.4,9.5,5.8,12.9,10.2c3.4,4.4,6,9.7,7.6,15.9c1.7,6.2,2.5,13.1,2.5,20.6c0,16.1-3.6,28.6-10.7,37.3
	c-7.2,8.7-17.3,13.1-30.4,13.1c-1.3,0-2.5-0.1-3.7-0.1c-1.5,7.3-3.4,14.9-5.8,22.7c0.4,3.3,1.3,6.2,3.1,9.2
	c5.2,9.3,11.6,21.7,11.7,32.8v0.6c0.8-1.2,1.5-2.5,2.2-3.9c0.4-4.2,1.1-8.7,2-13.2c3.7-19.3,6.7-31,6.7-31h12.6c0,0-3,12.3-6.7,31.3
	c-1.6,8.3-3,15.3-3,21.2c0,4.3,1.6,5,3,5c2.4,0,6.8-8.8,9.9-21.7l0.9-4.9c2.2-12.6,5-23.6,6.8-31h12.6c-5.2,23.1-9.5,40.4-9.5,52.5
	c0,4.3,1.6,5,3,5c3.8,0,8.7-8.3,15.2-25.2c2.2-12.4,4-23.5,5.4-32.3H122l-1.9,11.1c4.5-7.6,9.9-12.8,16-12.8c5.8,0,8.2,4.6,8.2,10.2
	c0,1-0.2,2.4-0.3,3.7c5.2-8.6,11.6-13.9,18.6-13.9c5.2,0,8.6,3.4,8.6,10.5c0,13.8-9.6,31.5-9.6,43.6c0,4.3,1.6,5,3,5
	c3.8,0,8.7-8.3,15.2-25.2c2.2-12.4,4-23.5,5.4-32.3h12.8l-1.9,11.1c4.5-7.6,10-12.8,16-12.8c5.8,0,8.2,4.6,8.2,10.2
	c0,1-0.1,2.4-0.3,3.7c5.2-8.6,11.6-13.9,18.5-13.9c5.2,0,8.6,3.4,8.6,10.5c0,13.8-9.6,31.5-9.6,43.6c0,4.3,1.6,5,3,5
	c3.9,0,8.8-8.3,15.3-25.4c0,0,0,0,0,0c3.1-17.1,13.1-33.7,26.7-33.7c7.4,0,11.1,5.3,11.1,12.2c0,10.5-8.9,24.8-26.4,27.6v2.2
	c0,8.9,2.5,16,9.4,16c8.7,0,16-9.2,21.7-24.3v0c2.7-7.1,4.6-14.5,6.1-21.7c-1.5-3.3-2.7-7.3-2.7-12.5c0-4.7,1-10.7,3.4-18.4l4,1.2
	l-33.4-47l-8.6-11.5v7.8l0,0.2v50.5h-18V41.6h13.8L296,88.4l2,2.8l7.3,10v-7.9l0-0.1V42.3h18v97.6h-11.7l4.4,1.3
	c-0.6,9.8-1.8,16.9-4.2,24.6c4.9,5,11.3,11,11.3,19.4c0,9.5-9.9,24.3-9.9,37.2c0,6.8,1.2,14.5,4.4,21.2H329v12.8h-0.2
	c4.1,2.4,9.2,3.9,15.4,3.9c13.1,0,20.3-10.4,20.3-21.2c0-6.5-2.7-13.1-8.2-17.7l8.5-10.5C373,217.1,377,226.5,377,235.8z
	 M267.4,190.9c11.1-5.5,16-15.7,16-21.2c0-2.2-0.9-3.7-2.4-3.7C275,165.9,269.2,178.6,267.4,190.9z M26.7,114.8
	c1.7,3,3.9,5.3,6.6,6.9c2.7,1.7,5.9,2.5,9.6,2.5c6.7,0,11.9-2.6,15.6-7.9c3.7-5.3,5.5-13.8,5.5-25.6c0-4.7-0.4-9.1-1.2-13.2
	c-0.8-4.1-2-7.6-3.7-10.7c-1.7-3-3.8-5.4-6.5-7.1c-2.7-1.7-6-2.6-9.8-2.6c-6.7,0-12,2.7-15.6,8.1c-3.7,5.4-5.5,13.9-5.5,25.4
	c0,4.9,0.4,9.4,1.2,13.5C23.7,108.3,25,111.9,26.7,114.8z M135.6,255.1c2.9,0,5.4,0.2,7.5,0.5c2,0.3,3.8,0.8,5.3,1.6l0.4,0.2
	l2.9-12.2l-0.3-0.1c-1.8-0.7-4.1-1.4-6.8-1.9c-2.8-0.5-6.2-0.8-10.1-0.8c-3.7,0-7.5,0.6-11.2,1.8c-3.7,1.2-7.1,3.3-10.2,6.1
	c-3,2.8-5.5,6.6-7.4,11.2c-1.9,4.6-2.9,10.4-2.9,17.2c0,6.5,0.9,12.2,2.5,16.8c1.7,4.6,4,8.4,6.9,11.3c2.9,2.9,6.2,5,10,6.3
	c3.7,1.3,7.8,1.9,11.9,1.9c3.4,0,6.8-0.3,10.1-1c3.3-0.7,6-1.8,8.2-3.3l0.2-0.1l-3-11.8l-0.4,0.3c-1.5,0.9-3.2,1.6-5.3,2.2
	c-2,0.6-4.5,0.9-7.4,0.9c-3.1,0-5.8-0.6-8.2-1.7c-2.3-1.1-4.3-2.7-5.9-4.7c-1.6-2-2.8-4.5-3.5-7.4c-0.8-2.9-1.2-6.1-1.2-9.7
	c0-8.1,1.7-14.1,4.9-17.9C125.9,257,130.2,255.1,135.6,255.1z M9.6,292.2c-1.7-2.2-2.9-4.9-3.8-7.9c-0.8-3-1.2-6.4-1.2-10.1
	c0-7.9,1.8-14.1,5.3-18.4c3.6-4.4,8.8-6.6,15.4-6.6c3.4,0,6.5,0.6,9.1,1.8c2.6,1.2,4.8,3,6.6,5.2c1.7,2.2,3,4.9,3.8,8
	c0.8,3,1.2,6.4,1.2,10.1c0,7.9-1.8,14.1-5.4,18.4c-3.6,4.4-8.8,6.6-15.3,6.6c-3.5,0-6.6-0.6-9.2-1.8
	C13.5,296.2,11.4,294.5,9.6,292.2z M16.5,274.2c0,2.2,0.2,4.3,0.6,6.1c0.4,1.8,0.9,3.4,1.7,4.6c0.7,1.2,1.6,2.2,2.7,2.8
	c1.1,0.7,2.3,1,3.9,1c2.8,0,4.9-1,6.4-3.2c1.6-2.3,2.4-6.1,2.4-11.4c0-2.1-0.2-4.2-0.5-6c-0.3-1.8-0.9-3.4-1.6-4.7
	c-0.7-1.2-1.6-2.2-2.7-2.9c-1.1-0.7-2.4-1-4-1c-2.8,0-4.9,1.1-6.4,3.3C17.4,265.2,16.5,269,16.5,274.2z M80.4,260.5V250H50.8v48.3
	h11.4v-18.5H79v-10.5H62.2v-8.9H80.4z M276.5,291.7c-1.2,4.4-3.2,8.3-6,11.7c-2.8,3.4-6.5,6.2-11.1,8.2c-4.6,2.1-10.3,3.1-16.9,3.1
	c-1,0-2.4,0-4.2-0.1c-1.8-0.1-3.6-0.1-5.4-0.2l-5.4-0.3c-1.9-0.1-3.1-0.2-3.9-0.4l-0.3-0.1v-70l0.3,0c1.4-0.2,2.9-0.4,4.7-0.5
	c1.9-0.1,3.7-0.2,5.4-0.3c1.8-0.1,3.6-0.1,5.4-0.2l0.9,0c1.4,0,2.7,0,3.8,0c6.1,0,11.5,0.9,15.9,2.6c4.4,1.7,8,4.2,10.7,7.3
	c2.7,3.1,4.8,6.9,6,11.2c1.3,4.3,1.9,9.1,1.9,14.3C278.3,282.7,277.7,287.3,276.5,291.7z M263.3,278c0-2.7-0.3-5.4-0.8-8.1
	c-0.5-2.7-1.5-5.1-2.9-7.2c-1.4-2.1-3.3-3.9-5.7-5.2c-2.4-1.3-5.4-2-9.1-2c-1.4,0-2.9,0-4.4,0.1c-1.3,0.1-2.3,0.1-3,0.2v45.8
	c0.2,0,0.5,0.1,1,0.1l0.3,0c0.5,0,1.1,0.1,1.7,0.1l1,0c0.4,0,0.7,0,1.1,0.1c0.7,0,1.1,0,1.5,0c3.7,0,6.9-0.7,9.4-2
	c2.5-1.3,4.5-3.1,5.9-5.3c1.5-2.2,2.5-4.8,3.1-7.6C263,284.1,263.3,281.1,263.3,278z M162,305c-2.4-3.2-4.3-7-5.5-11.5
	c-1.2-4.4-1.8-9.4-1.8-14.8c0-11.6,2.6-20.6,7.7-26.9c5.1-6.3,12.5-9.5,22.1-9.5c5,0,9.4,0.9,13.1,2.6c3.7,1.7,6.9,4.2,9.3,7.4
	c2.5,3.2,4.3,7.1,5.5,11.5c1.2,4.4,1.8,9.4,1.8,14.8c0,11.6-2.6,20.6-7.8,26.9c-5.2,6.3-12.6,9.5-22,9.5c-5,0-9.5-0.9-13.2-2.6
	C167.6,310.7,164.4,308.2,162,305z M169.8,278.6c0,3.4,0.3,6.7,0.9,9.6c0.6,2.9,1.5,5.4,2.7,7.5c1.2,2,2.7,3.7,4.6,4.8
	c1.8,1.1,4.1,1.7,6.6,1.7c4.7,0,8.3-1.8,10.9-5.5c2.6-3.7,3.9-9.8,3.9-18.1c0-3.3-0.3-6.5-0.8-9.3c-0.5-2.8-1.4-5.4-2.6-7.5
	c-1.1-2.1-2.7-3.8-4.5-5c-1.8-1.2-4.1-1.8-6.8-1.8c-4.7,0-8.3,1.9-10.9,5.6C171.1,264.5,169.8,270.5,169.8,278.6z M258.2,346.1v-0.2
	l1.9-1.5c0.8-0.9,1.6-2,2.4-3.1c0.8-1.1,1.6-2.3,2.3-3.5c0.7-1.2,1.2-2.4,1.7-3.7c0.4-1.2,0.7-2.5,0.7-3.7c0-1.1-0.2-2.1-0.5-2.9
	c-0.4-0.8-0.8-1.5-1.5-2.1c-0.6-0.6-1.4-1-2.2-1.3s-1.8-0.4-2.8-0.4c-1.6,0-3,0.2-4.2,0.7c-1.2,0.5-2.2,1.1-3.2,1.8l1.9,3.3
	c0.5-0.5,1.2-0.9,2-1.2c0.8-0.3,1.6-0.5,2.4-0.5c1.2,0,2.1,0.3,2.7,1c0.6,0.6,0.8,1.4,0.8,2.4c0,0.8-0.2,1.7-0.5,2.6
	c-0.3,0.9-0.8,1.8-1.3,2.8c-0.6,1-1.2,1.9-1.9,2.9c-0.7,1-1.4,1.9-2.1,2.8c-0.7,0.9-1.5,1.7-2.2,2.5c-0.7,0.8-1.4,1.5-1.9,2.1v2.4
	h15.1v-3.9h-6.9L258.2,346.1z M287.3,327.1c1.4,2.1,2.1,5.4,2.1,9.8c0,4.4-0.8,7.7-2.3,9.9c-1.5,2.2-3.7,3.2-6.5,3.2
	c-3,0-5.2-1.1-6.6-3.4c-1.4-2.3-2.1-5.5-2.1-9.7c0-4.4,0.8-7.7,2.3-9.8c1.5-2.1,3.7-3.2,6.5-3.2C283.7,323.9,285.9,325,287.3,327.1z
	 M284.7,337c0-2.9-0.3-5.1-0.9-6.7s-1.7-2.4-3.2-2.4c-1.4,0-2.5,0.7-3.1,2.2c-0.6,1.5-1,3.8-1,6.9c0,2.9,0.3,5.2,1,6.8
	c0.6,1.6,1.7,2.4,3.1,2.4c1.4,0,2.4-0.7,3.1-2.2S284.7,340.2,284.7,337z M303.9,324h-2.6l-8.2,6.6l2,2.7l3.2-2.2l1.7-2.1l-0.5,2.4
	v14.2h-5v3.9h14.3v-3.9h-4.9V324z M313.3,328.8h9.2l2.2-0.4l-1.6,1.8l-8.2,19.3h4.6l10-23.8v-1.4h-16.2V328.8z M7.9,317.8h72.2v-12
	H7.9V317.8z M7.9,343.7h227.9v-12H7.9V343.7z"/>
</svg>
