<svg id="Layer_1" data-name="Layer 1" xmlns="http://www.w3.org/2000/svg" viewBox="0 0 520.32 518">
  <defs>
    <style>
      .cls-1 {
        fill: #008aab;
      }

      .cls-2 {
        fill: #108fac;
      }

      .cls-3 {
        fill: #1d1d1b;
      }

      .cls-4 {
        fill: #e20613;
      }

      .cls-5 {
        fill: #fd0;
      }
    </style>
  </defs>
  <title>bosa</title>
  <path class="cls-1" d="M144.23,164.69h16.62c13.14,0,26.74.39,36.07,5.05,8.6,4.22,14.14,14.08,14.14,25.15,0,10.29-5.09,19.38-14.32,25.6-7.77,5.24-17.11,5.64-29.46,5.64H144.23Zm0-87.68H155c10.43,0,20.28,0,27.45,4.52,7,4.39,11,12.71,11,22.87,0,11.27-2.61,17.15-10,22.45-6.72,4.85-13.17,5.21-22.25,5.21H144.23ZM117.56,258.78h53.29c28.73,0,42-7.87,52-16.36,14.18-12.06,21.67-28.68,21.67-48a59.4,59.4,0,0,0-29.83-52.1c8.07-9.51,12.14-21.61,12.14-36.09,0-20.41-6.65-36.54-19.75-47.93-14.42-12.82-31.8-13.9-46.95-13.9H117.56a6.75,6.75,0,0,0-6.75,6.75V252a6.75,6.75,0,0,0,6.75,6.75" transform="translate(-39.4 -40)"/>
  <path class="cls-2" d="M320,95.66a74.31,74.31,0,0,1,54.77-23.9c46,0,80.68,34.5,80.68,80.24,0,21.7-8.26,41.77-23.27,56.52s-35.38,22.86-57.41,22.86a74.59,74.59,0,0,1-54.63-23.83A82,82,0,0,1,320,95.66m56.08,167.47c30.49,0,58.82-11.36,79.76-32s32.67-49,32.67-79.56S476.89,92.78,455.82,72s-49.27-32-79.76-32a109.87,109.87,0,0,0-78.85,33,111.65,111.65,0,0,0,78.85,190.18" transform="translate(-39.4 -40)"/>
  <path class="cls-2" d="M180.65,421.33C157.75,413,143.71,407,143.71,391c0-13.74,14.75-24.39,27.44-24.39s23.48,7,28.95,18.63a6.94,6.94,0,0,0,4,3.62,6.83,6.83,0,0,0,2.24.37,6.91,6.91,0,0,0,3.16-.76l17-8.7a6.93,6.93,0,0,0,3.12-9.09c-9.76-21-34-36.19-57.6-36.19a64.44,64.44,0,0,0-42.93,15.77,55.42,55.42,0,0,0-18.81,42c0,39.09,36.57,52.44,63.27,62.19,20.3,7.06,34.59,13.54,34.59,33.07a37.89,37.89,0,0,1-38.3,38.3c-14.72,0-34.2-6.24-43.4-36a7,7,0,0,0-8.72-4.56L98.59,491.4A6.92,6.92,0,0,0,94,499.71c9,35.41,38.75,58.29,75.87,58.29,40.9,0,71.74-29.91,71.74-69.56,0-44.86-33.79-57.2-60.93-67.11" transform="translate(-39.4 -40)"/>
  <path class="cls-3" d="M59.59,278.29a20.19,20.19,0,1,0,20.18,20.19,20,20,0,0,0-20.18-20.19" transform="translate(-39.4 -40)"/>
  <path class="cls-4" d="M539.53,278.29a20.19,20.19,0,1,0,20.18,20.19,20,20,0,0,0-20.18-20.19" transform="translate(-39.4 -40)"/>
  <path class="cls-5" d="M481.53,309.61h-364c-3.82,0-6.93-2.83-6.93-6.32v-8.93c0-3.49,3.11-6.32,6.93-6.32h364c3.83,0,6.93,2.83,6.93,6.32v8.93c0,3.49-3.1,6.32-6.93,6.32" transform="translate(-39.4 -40)"/>
  <path class="cls-2" d="M431.85,503.07c-15,14.71-35.3,22.8-57.28,22.8a74.45,74.45,0,0,1-54.5-23.76,81.76,81.76,0,0,1-.14-111.64,74.14,74.14,0,0,1,54.64-23.85c45.89,0,80.49,34.42,80.49,80.06,0,21.66-8.24,41.68-23.21,56.39m56.61-57.46V345.77a6.92,6.92,0,0,0-6.93-6.92H462a6.92,6.92,0,0,0-6.93,6.92V365.9c-20.9-20.24-48.95-31.4-79.16-31.4a110.05,110.05,0,0,0-79,33,111.84,111.84,0,0,0,79,190.5c30.21,0,58.29-11.16,79.19-31.4v20.12a6.93,6.93,0,0,0,6.93,6.93h19.57a6.93,6.93,0,0,0,6.93-6.93V446.25c0-.22,0-.42,0-.64" transform="translate(-39.4 -40)"/>
</svg>
