<?xml version="1.0" encoding="utf-8"?>
<!-- Generator: Adobe Illustrator 22.1.0, SVG Export Plug-In . SVG Version: 6.00 Build 0)  -->
<svg version="1.1" id="Layer_1" xmlns="http://www.w3.org/2000/svg" xmlns:xlink="http://www.w3.org/1999/xlink" x="0px" y="0px"
	 viewBox="0 0 828.5 331.7" style="enable-background:new 0 0 828.5 331.7;" xml:space="preserve">
<style type="text/css">
	.st0{fill:#F14A3B;}
	.st1{fill:#44DBA4;}
	.st2{fill:#FFFFFF;}
	.st3{fill:#FCB70F;}
	.st4{enable-background:new    ;}
</style>
<g>
	<g>
		<g>
			<path class="st0" d="M394.3,233.1c-12.8,9.5-30.8,6.8-40.2-6c-9.5-12.8-6.8-30.8,6-40.2c12.8-9.5,30.8-6.8,40.2,6
				C409.8,205.6,407.1,223.6,394.3,233.1z"/>
		</g>
		<g>
			<path class="st1" d="M380.6,151.9c-8.6,3.1-17.7,4.7-26.9,4.6c-10.1,0-20-2-29.4-5.9c-9.7-4-18.4-9.8-25.8-17.3
				s-13.2-16.2-17.1-26c-3.8-9.4-5.6-19.3-5.6-29.4s2-20,5.9-29.4c4-9.7,9.8-18.4,17.3-25.8s16.2-13.2,26-17.1
				c9.4-3.8,19.3-5.6,29.4-5.6s20,2,29.4,5.9c9.7,4,18.4,9.8,25.8,17.3l-31.4,31.2c-6.4-6.5-14.9-10.1-24-10.1s-17.6,3.5-24.1,9.9
				S320,69.1,320,78.2s3.5,17.6,9.9,24.1s14.9,10.1,24,10.1s17.6-3.5,24.1-9.9s10.1-14.9,10.1-24l44.2,0.2c0,10.1-2,20-5.9,29.4
				c-4,9.7-9.8,18.4-17.3,25.8c-7.5,7.4-16.2,13.2-26,17.1C382.3,151.3,381.4,151.6,380.6,151.9z"/>
		</g>
		<g>
			<path class="st2" d="M272.8,327c-2.7,1-5.5,1.8-8.3,2.5c-9.9,2.4-20.1,2.9-30.3,1.3c-10.1-1.5-19.7-4.9-28.5-10.1
				c-9.1-5.4-17-12.5-23.3-21c-13.7-18.6-18.7-42.1-13.6-64.6l44.7,10.2c-2.1,9.4-0.1,19.3,5.7,27.1c5.3,7.1,13,11.8,21.8,13.1
				s17.5-0.9,24.7-6.2c7.1-5.3,11.8-13,13.1-21.8s-0.9-17.5-6.2-24.7c-0.1-0.2-0.3-0.3-0.4-0.5c-4.3-5.5-10.3-10-30.1-14.8
				c-32.2-7.9-56-36.7-58.5-69.9c0-0.5-0.1-1-0.1-1.5c-0.9-15.1,2.6-30.1,9.9-43.2c7.2-12.8,17.7-23.3,30.5-30.4l22.3,40
				c-5.4,3-9.8,7.4-12.8,12.8c-3.1,5.5-4.5,11.8-4.2,18.1c0,0.2,0,0.4,0,0.6c1,13.8,10.5,27,25.6,31.1c14.6,4,22.9,5.1,33.4,10.9
				c9.6,5.2,15.6,11.7,20.2,18.3c0.3,0.4,0.6,0.8,0.9,1.2c6.3,8.6,10.8,18.1,13.3,28.4c2.4,9.9,2.9,20.1,1.3,30.3
				c-1.5,10.1-4.9,19.7-10.1,28.5c-5.4,9.1-12.5,17-21,23.3C286.7,320.8,280,324.4,272.8,327z"/>
		</g>
		<path class="st3" d="M137.9,115.1c-12.2-16.4-30-27.1-50.1-30.2c-12.7-1.9-25.4-0.6-37.2,3.7c-6.9,2.5-13.5,6-19.6,10.5
			c-16.4,12.2-27.1,30-30.2,50.1c-3,20.2,2,40.3,14.2,56.8c12.2,16.4,30,27.1,50.1,30.2c20.2,3,40.3-2,56.8-14.2
			c16.4-12.2,27.1-30,30.2-50.1C155.1,151.7,150,131.5,137.9,115.1z"/>
	</g>
	<g>
		<g class="st4">
			<path class="st2" d="M554.3,102.5c0,12.4-8.7,20.7-21.5,20.7c-12.7,0-21.4-8.4-21.4-20.7s8.7-20.6,21.4-20.6
				C545.6,81.9,554.3,90.2,554.3,102.5z M521.4,102.7c0,7.3,4.7,12.3,11.4,12.3c6.8,0,11.5-5,11.5-12.3s-4.7-12.2-11.5-12.2
				C526.1,90.5,521.4,95.4,521.4,102.7z"/>
			<path class="st2" d="M606.1,102.8c0,12.2-7.5,20.5-19.1,20.5c-6.2,0-10.9-2.5-13.8-7v21.4h-9.9V82.2h9.9v6.7
				c2.9-4.5,7.6-7,13.7-7C598.3,81.9,606.1,90.3,606.1,102.8z M596,102.5c0-7.1-4.7-12.2-11.4-12.2c-6.8,0-11.5,5.1-11.5,12.2
				c0,7.3,4.7,12.3,11.5,12.3C591.3,114.8,596,109.7,596,102.5z"/>
			<path class="st2" d="M651.1,106h-30c1.3,5.8,5.7,9.3,11.6,9.3c4.2,0,8.1-1.6,10.9-4.6l5.3,5.5c-4,4.4-10,7-17.1,7
				c-12.6,0-20.9-8.4-20.9-20.6c0-12.4,8.5-20.7,20.7-20.7C645.9,81.9,652,91.3,651.1,106z M642.1,99.4c-0.2-6-4.3-9.8-10.4-9.8
				c-5.9,0-10,3.8-10.9,9.8H642.1z"/>
			<path class="st2" d="M699.2,97.5v25.4h-10v-22.5c0-5.7-3.4-9.2-9-9.2c-6.7,0.1-10.6,5-10.6,11.7v20h-9.9V82.2h9.9v7.6
				c2.9-5.4,8-7.9,14.6-8C693.5,81.9,699.2,87.9,699.2,97.5z"/>
		</g>
		<g class="st4">
			<path class="st2" d="M527.3,171.5c-3.2,0-5.5,1.1-5.5,3.6c0,6.8,21.5,3.3,21.5,17.9c0,8.3-7.4,12.3-16,12.3
				c-6.2,0-12.5-2-16.8-5.7l3.4-6.9c3.7,3.2,9.3,5,13.8,5c3.4,0,6-1.1,6-3.8c0-7.5-21.2-3.4-21.1-17.9c0-8.4,7.1-12.2,15.4-12.2
				c5.3,0,10.9,1.6,14.9,4.3l-3.6,7.1C535.2,172.9,530.8,171.5,527.3,171.5z"/>
			<path class="st2" d="M589.3,164.2v40.7h-10v-7.5c-2.8,5.4-7.7,7.9-14.1,7.9c-9.1,0-14.7-6-14.7-15.6v-25.5h10v22.6
				c0,5.7,3.3,9.1,8.7,9.1c6.4-0.1,10.2-5.1,10.2-11.6v-20.1L589.3,164.2L589.3,164.2z"/>
			<path class="st2" d="M669.7,179.5v25.4h-10v-22.5c0-5.8-3.4-9.3-8.9-9.3c-6.4,0.2-10.3,5.1-10.3,11.7v20.1h-10v-22.5
				c0-5.8-3.3-9.3-8.8-9.3c-6.5,0.2-10.3,5.1-10.3,11.7v20.1h-9.9v-40.7h9.9v7.5c2.8-5.4,7.8-7.8,14.3-7.9c7.1,0,12.1,3.6,14,9.7
				c2.7-6.6,8-9.7,15.1-9.7C664.1,163.9,669.7,169.9,669.7,179.5z"/>
			<path class="st2" d="M748.8,179.5v25.4h-10v-22.5c0-5.8-3.4-9.3-8.9-9.3c-6.4,0.2-10.3,5.1-10.3,11.7v20.1h-10v-22.5
				c0-5.8-3.3-9.3-8.8-9.3c-6.5,0.2-10.3,5.1-10.3,11.7v20.1h-9.9v-40.7h9.9v7.5c2.8-5.4,7.8-7.8,14.3-7.9c7.1,0,12.1,3.6,14,9.7
				c2.7-6.6,8-9.7,15.1-9.7C743.2,163.9,748.8,169.9,748.8,179.5z"/>
			<path class="st2" d="M796.2,188h-30c1.3,5.8,5.7,9.3,11.6,9.3c4.2,0,8.1-1.6,10.9-4.6l5.3,5.5c-4,4.4-10,7-17.1,7
				c-12.6,0-20.9-8.4-20.9-20.6c0-12.4,8.5-20.7,20.7-20.7C791,163.9,797.2,173.3,796.2,188z M787.2,181.4c-0.2-6-4.3-9.8-10.4-9.8
				c-5.9,0-10,3.8-10.9,9.8H787.2z"/>
			<path class="st2" d="M828.5,163.9v9.6c-8.6-0.5-13.8,4.5-13.8,11.9V205h-9.9v-40.7h9.9v7.8C817.4,166.8,822.2,163.9,828.5,163.9z
				"/>
		</g>
		<g class="st4">
			<path class="st2" d="M554.3,266.5c0,12.4-8.7,20.7-21.5,20.7c-12.7,0-21.4-8.4-21.4-20.7c0-12.3,8.7-20.6,21.4-20.6
				C545.6,245.9,554.3,254.2,554.3,266.5z M521.4,266.7c0,7.3,4.7,12.3,11.4,12.3c6.8,0,11.5-5,11.5-12.3s-4.7-12.2-11.5-12.2
				C526.1,254.5,521.4,259.4,521.4,266.7z"/>
			<path class="st2" d="M574.2,243.7v4.2h10.2v7.2h-10.2v31.8h-9.9v-31.8H559v-7.2h5.3V244c0-9.3,6.9-14,14.4-14c3.4,0,7,1,9.7,2.8
				l-3.6,7.5c-1.7-1.1-3.6-1.8-5.4-1.8C576.6,238.6,574.2,240.2,574.2,243.7z"/>
			<path class="st2" d="M625.9,254.6c-6.5,0-11.1,4.9-11.1,12c0,7.3,4.6,12.2,11.1,12.2c4.7,0,8.5-1.6,10.9-4.8l6.2,5.1
				c-3.6,5.2-9.7,8.2-17.6,8.2c-12.2,0-20.5-8.4-20.5-20.6c0-12.4,8.4-20.7,20.7-20.7c7.4,0,13.4,2.7,17,7.4l-6,5.7
				C634,256.3,630.4,254.6,625.9,254.6z"/>
			<path class="st2" d="M689.2,266.5c0,12.4-8.7,20.7-21.5,20.7c-12.7,0-21.4-8.4-21.4-20.7c0-12.3,8.7-20.6,21.4-20.6
				C680.5,245.9,689.2,254.2,689.2,266.5z M656.3,266.7c0,7.3,4.7,12.3,11.4,12.3c6.8,0,11.5-5,11.5-12.3s-4.7-12.2-11.5-12.2
				C661,254.5,656.3,259.4,656.3,266.7z"/>
			<path class="st2" d="M737,230.5v56.4h-9.9v-6.5c-2.9,4.5-7.6,7-13.7,7c-11.6,0-19.4-8.5-19.4-20.9c0-12.3,7.8-20.6,19.2-20.6
				c6.2,0,10.9,2.5,13.9,7.1v-22.4h9.9V230.5z M727.1,266.7c0-7.3-4.7-12.4-11.6-12.4c-6.8,0-11.5,5.2-11.6,12.4
				c0.1,7.3,4.7,12.4,11.6,12.4C722.4,279.1,727.1,274,727.1,266.7z"/>
			<path class="st2" d="M786.1,270h-30c1.3,5.8,5.7,9.3,11.6,9.3c4.2,0,8.1-1.6,10.9-4.6l5.3,5.5c-4,4.4-10,7-17.1,7
				c-12.6,0-20.9-8.4-20.9-20.6c0-12.4,8.5-20.7,20.7-20.7C780.9,245.9,787.1,255.3,786.1,270z M777.1,263.4
				c-0.2-6-4.3-9.8-10.4-9.8c-5.9,0-10,3.8-10.9,9.8H777.1z"/>
		</g>
	</g>
</g>
</svg>
